<?xml version="1.0" encoding="utf-8"?><svg viewBox="0 0 26 26" xmlns="http://www.w3.org/2000/svg" xmlns:xlink="http://www.w3.org/1999/xlink"><style>:root>svg{display:none}:root>svg:target{display:block}</style><svg viewBox="0 0 24 24" id="flag--at" xmlns="http://www.w3.org/2000/svg"><g fill="none"><path fill="#F0F0F0" d="M23.254 16.174c.482-1.3.746-2.706.746-4.174 0-1.468-.264-2.874-.746-4.174L12 6.783.746 7.826A11.974 11.974 0 000 12c0 1.468.264 2.874.746 4.174L12 17.217l11.254-1.043z"/><path d="M12 24c5.16 0 9.558-3.256 11.254-7.826H.746C2.442 20.744 6.84 24 12 24zm0-24C6.84 0 2.442 3.256.746 7.826h22.508C21.558 3.256 17.16 0 12 0z" fill="#C5001E"/></g></svg><svg viewBox="0 0 24 24" id="flag--au" xmlns="http://www.w3.org/2000/svg"><g fill="none"><path fill="#024595" d="M24 12c0 6.627-5.373 12-12 12S0 18.627 0 12C0 12.003 12 .001 12 0c6.627 0 12 5.373 12 12z"/><path fill="#FFF" d="M5 16l1.236 3.72L3 17.422h4l-3.236 2.3zM17 4l.618 2L16 4.764h2L16.382 6zm-2 4l.618 2L14 8.764h2L14.382 10zm5 0l.618 2L19 8.764h2L19.382 10zm-1.5 3l.309 1-.809-.618h1l-.809.618zM17 14l.618 2L16 14.764h2L16.382 16z"/><path d="M12.02 0h-.022.021zM12 6.26V0h-.002C5.372.001 0 5.373 0 12h6.26V8.474L9.787 12h2.182l.032-.032V9.787L8.474 6.26H12z" fill="#F0F0F0"/><g fill="#D80027"><path d="M6.071 1.565a12.057 12.057 0 00-4.506 4.506V12h3.13V4.696H12v-3.13H6.071z"/><path d="M12 10.524L7.737 6.261H6.26L12 12v-1.476z"/></g></g></svg><svg viewBox="0 0 24 24" id="flag--be" xmlns="http://www.w3.org/2000/svg"><g fill="none"><path fill="#F7DE29" d="M16.174.746A11.974 11.974 0 0012 0c-1.468 0-2.874.264-4.174.746L6.783 12l1.043 11.254c1.3.482 2.706.746 4.174.746 1.468 0 2.874-.264 4.174-.746L17.217 12 16.174.746z"/><path fill="#DA001E" d="M24 12c0-5.16-3.256-9.558-7.826-11.254v22.508C20.744 21.558 24 17.16 24 12z"/><path fill="#000" d="M0 12c0 5.16 3.256 9.558 7.826 11.254V.746C3.256 2.442 0 6.84 0 12z"/></g></svg><svg viewBox="0 0 24 24" id="flag--ch" xmlns="http://www.w3.org/2000/svg"><g fill="none"><circle cx="12" cy="12" r="12" fill="#D80027"/><path fill="#F0F0F0" d="M19 9.667h-4.667V5H9.667v4.667H5v4.666h4.667V19h4.666v-4.667H19z"/></g></svg><svg viewBox="0 0 24 24" id="flag--cn" xmlns="http://www.w3.org/2000/svg"><g fill="none"><circle cx="12" cy="12" r="12" fill="#D80027"/><path d="M5.088 4.646l.69 2.12h2.227l-1.801 1.31.689 2.119-1.805-1.309-1.804 1.309.692-2.119-1.804-1.312H4.4zm5.092 7.501l-.527-.649-.779.303.452-.701-.526-.652.807.215.455-.7.043.834.81.215-.782.3zm1.047-1.901l.25-.798-.683-.483.835-.012.246-.798.271.791.835-.009-.67.499.268.791-.682-.483zm1.412-4.6l-.368.751.598.583-.826-.118-.367.748-.144-.823-.829-.118.742-.39-.143-.826.598.583zm-2.437-2.274l-.063.832.776.314-.813.2-.06.835-.438-.71-.814.199.54-.639-.443-.707.776.315z" fill="#FFDA44"/></g></svg><svg viewBox="0 0 24 24" id="flag--de" xmlns="http://www.w3.org/2000/svg"><g fill="none"><path fill="#FFDA44" d="M.746 16.174C2.442 20.744 6.84 24 12 24c5.16 0 9.558-3.257 11.254-7.826L12 15.13.746 16.174z"/><path fill="#000" d="M12 0C6.84 0 2.442 3.256.746 7.826L12 8.87l11.254-1.044C21.558 3.256 17.16 0 12 0z"/><path fill="#D80027" d="M.746 7.826A11.974 11.974 0 000 12c0 1.468.264 2.874.746 4.174h22.508c.482-1.3.746-2.706.746-4.174 0-1.468-.264-2.874-.746-4.174H.746z"/></g></svg><svg viewBox="0 0 24 24" id="flag--dk" xmlns="http://www.w3.org/2000/svg"><g fill="none"><circle cx="12" cy="12" r="12" fill="#FFF"/><path fill="#DA001E" d="M7.732 23.219a12.02 12.02 0 01-7.52-8.96h7.52v8.96zM.151 10.093A12.016 12.016 0 017.732.78v9.312H.151zM11.888 0H12c5.978 0 10.936 4.372 11.85 10.093H11.887V0zM24 11.866a12.246 12.246 0 010 .268v-.268zm-.211 2.393c-1.05 5.513-5.872 9.688-11.678 9.74v-9.74h11.678z"/></g></svg><svg viewBox="0 0 24 24" id="flag--es" xmlns="http://www.w3.org/2000/svg"><g fill="none"><path fill="#FFDA44" d="M0 12c0 1.468.264 2.874.746 4.174L12 17.217l11.254-1.043c.482-1.3.746-2.706.746-4.174 0-1.468-.264-2.874-.746-4.174L12 6.783.746 7.826A11.974 11.974 0 000 12z"/><path d="M23.254 7.826C21.558 3.256 17.16 0 12 0 6.84 0 2.442 3.257.746 7.826h22.508zM.746 16.174C2.442 20.744 6.84 24 12 24c5.16 0 9.558-3.257 11.254-7.826H.746z" fill="#B5002A"/></g></svg><svg viewBox="0 0 24 24" id="flag--fi" xmlns="http://www.w3.org/2000/svg"><g fill="none"><circle cx="12" cy="12" r="12" fill="#1F357D"/><path fill="#FFF" d="M7.732 23.219a12.02 12.02 0 01-7.52-8.96h7.52v8.96zM.151 10.093A12.016 12.016 0 017.732.78v9.312H.151zM11.888 0H12c5.978 0 10.936 4.372 11.85 10.093H11.887V0zM24 11.866a12.246 12.246 0 010 .268v-.268zm-.211 2.393c-1.05 5.513-5.872 9.688-11.678 9.74v-9.74h11.678z"/></g></svg><svg viewBox="0 0 24 24" id="flag--fr" xmlns="http://www.w3.org/2000/svg"><g fill="none"><circle cx="12" cy="12" r="12" fill="#FFF"/><path fill="#D80027" d="M24 12c0-5.16-3.256-9.558-7.826-11.254v22.508C20.744 21.558 24 17.16 24 12z"/><path fill="#313D94" d="M0 12c0 5.16 3.257 9.558 7.826 11.254V.746C3.256 2.442 0 6.84 0 12z"/></g></svg><svg viewBox="0 0 25 25" id="flag--gb" xmlns="http://www.w3.org/2000/svg"><g fill="none"><circle cx="12" cy="12" r="12" fill="#FFF"/><path d="M2.48 4.694A11.956 11.956 0 00.414 8.87h6.243L2.481 4.694zM23.587 8.87a11.957 11.957 0 00-2.068-4.176L17.344 8.87h6.243zM.413 15.13a11.957 11.957 0 002.068 4.176l4.175-4.176H.413zM19.306 2.48A11.957 11.957 0 0015.13.414v6.243l4.176-4.175zM4.694 21.52a11.957 11.957 0 004.176 2.067v-6.243l-4.176 4.175zM8.87.413a11.957 11.957 0 00-4.176 2.068L8.87 6.656V.413zm6.26 23.174a11.957 11.957 0 004.176-2.068l-4.176-4.175v6.243zm2.214-8.457l4.175 4.176a11.957 11.957 0 002.068-4.176h-6.243z" fill="#1A227A"/><g fill="#D80027"><path d="M23.898 10.435H13.565V.102a12.12 12.12 0 00-3.13 0v10.333H.102a12.12 12.12 0 000 3.13h10.333v10.333a12.119 12.119 0 003.13 0V13.565h10.333a12.119 12.119 0 000-3.13z"/><path d="M15.13 15.13l5.355 5.355c.247-.246.481-.503.706-.77l-4.585-4.585H15.13zm-6.26 0l-5.355 5.355c.246.247.503.481.77.706l4.585-4.585V15.13zm0-6.26L3.515 3.515a12.03 12.03 0 00-.706.77L7.394 8.87H8.87zm6.26 0l5.355-5.355a12.015 12.015 0 00-.77-.706L15.13 7.394V8.87z"/></g></g></svg><svg viewBox="0 0 24 24" id="flag--globe" xmlns="http://www.w3.org/2000/svg"><path fill="#0087F5" d="M18.269 16.286a15.16 15.16 0 00.566-3.429h3.303c-.099 1.2-.41 2.4-.915 3.429h-2.954zm.925 2.892c-.99.99-2.149 1.756-3.41 2.26A16.713 16.713 0 0017.68 18h2.522c-.304.429-.64.81-1.009 1.178zm-6.16 2.947c-.049.005-.118.009-.118.013V18h2.9a16.088 16.088 0 01-1.863 3.032c-.315.4-.614.77-.919 1.093zm-.118-9.268h4.203a13.615 13.615 0 01-.631 3.429h-3.572v-3.429zm0-5.143h3.551c.336 1.042.57 2.143.648 3.429h-4.199V7.714zm0-5.852c0 .003.04.006.074.009A16.088 16.088 0 0115.79 6h-2.874V1.862zm6.278 2.944c.375.375.717.774 1.024 1.194h-2.555a16.908 16.908 0 00-1.936-3.472 10.15 10.15 0 013.467 2.278zm2.038 2.908c.498 1.07.805 2.229.905 3.429h-3.306a15.473 15.473 0 00-.575-3.429h2.976zM11.202 6H8.198c.49-1.04 1.11-2.04 1.865-3 .328-.418.686-.793 1.002-1.129.036-.003-.034-.006.137-.009V6zm0 5.143H6.884c.072-1.2.285-2.324.639-3.429h3.68v3.429zm0 5.143h-3.68a13.21 13.21 0 01-.64-3.429h4.32v3.429zm0 5.852c-.171-.004-.125-.018-.173-.023-.942-1.006-2.024-2.4-2.834-4.115h3.007v4.138zm-6.396-2.96A9.115 9.115 0 013.797 18H6.32a16.708 16.708 0 001.897 3.439 10.167 10.167 0 01-3.411-2.26zm-2.029-2.892c-.505-1.029-.816-2.229-.916-3.429h3.304c.06 1.2.25 2.314.567 3.429H2.777zm-.01-8.572h2.976a15.47 15.47 0 00-.574 3.429H1.863c.1-1.2.407-2.359.904-3.429zm2.039-2.908a10.15 10.15 0 013.467-2.278A16.91 16.91 0 006.336 6H3.781c.308-.42.65-.82 1.025-1.194zM12 0C5.373 0 0 5.373 0 12s5.373 12 12 12 12-5.373 12-12S18.627 0 12 0z"/></svg><svg viewBox="0 0 24 24" id="flag--hk" xmlns="http://www.w3.org/2000/svg"><g fill="none"><circle cx="12" cy="12" r="12" fill="#CA1D22"/><path d="M12.993 8.727c-.31 1.294-.864 1.047-1.135 2.176a2.977 2.977 0 011.392-5.789c-.543 2.258.022 2.455-.257 3.613zm-4.148.959c1.135.696.73 1.146 1.72 1.753a2.977 2.977 0 01-5.076-3.113c1.98 1.214 2.341.737 3.356 1.36zm-.369 4.241c1.013-.864 1.315-.34 2.198-1.093A2.977 2.977 0 016.145 16.7c1.766-1.508 1.425-2 2.33-2.773zm3.92 1.663c-.51-1.23.083-1.356-.361-2.429a2.977 2.977 0 012.277 5.502c-.888-2.146-1.461-1.973-1.916-3.073zm2.792-3.215c-1.328.104-1.264-.498-2.421-.407a2.977 2.977 0 015.936-.465c-2.315.181-2.328.78-3.515.872z" fill="#F0F0F0"/></g></svg><svg viewBox="0 0 24 24" id="flag--ie" xmlns="http://www.w3.org/2000/svg"><g fill="none"><circle cx="12" cy="12" r="12" fill="#F0F0F0"/><path fill="#ED7D46" d="M24 12c0-5.16-3.256-9.558-7.826-11.254v22.508C20.744 21.558 24 17.16 24 12z"/><path fill="#409A62" d="M0 12c0 5.16 3.256 9.558 7.826 11.254V.746C3.256 2.442 0 6.84 0 12z"/></g></svg><svg viewBox="0 0 25 24" id="flag--is" xmlns="http://www.w3.org/2000/svg"><g fill="none"><circle cx="12" cy="12" r="12" fill="#FFF"/><path d="M.413 15.13a12.01 12.01 0 004.283 6.39v-6.39H.413zm10.544 8.824c.343.03.691.046 1.043.046 5.544 0 10.21-3.76 11.587-8.87h-12.63v8.824zM23.587 8.87C22.21 3.76 17.544 0 12 0c-.352 0-.7.016-1.043.046V8.87h12.63zM4.696 2.48A12.01 12.01 0 00.413 8.87h4.283V2.48z" fill="#213DB8"/><path fill="#D80027" d="M23.898 10.435H9.391V.285C8.282.531 7.231.93 6.261 1.46v8.976H.1a12.103 12.103 0 000 3.13h6.16v8.976c.97.53 2.021.928 3.13 1.174v-10.15h14.507a12.12 12.12 0 000-3.13z"/></g></svg><svg viewBox="0 0 24 24" id="flag--it" xmlns="http://www.w3.org/2000/svg"><g fill="none"><circle cx="12" cy="12" r="12" fill="#FFF"/><path fill="#D80027" d="M24 12c0-5.16-3.256-9.558-7.826-11.254v22.508C20.744 21.558 24 17.16 24 12z"/><path fill="#6DA544" d="M0 12c0 5.16 3.256 9.558 7.826 11.254V.746C3.256 2.442 0 6.84 0 12z"/></g></svg><svg viewBox="0 0 24 24" id="flag--jp" xmlns="http://www.w3.org/2000/svg"><g fill="none"><circle cx="12" cy="12" r="12" fill="#FFF"/><circle cx="12" cy="12" r="7" fill="#AC0017"/></g></svg><svg viewBox="0 0 24 24" id="flag--lt" xmlns="http://www.w3.org/2000/svg"><g fill="none"><path fill="#2C6B46" d="M23.254 16.174c.482-1.3.746-2.706.746-4.174 0-1.468-.264-2.874-.746-4.174L12 6.783.746 7.826A11.973 11.973 0 000 12c0 1.468.264 2.874.746 4.174L12 17.217l11.254-1.043z"/><path fill="#F0B72C" d="M23.254 7.826C21.558 3.256 17.16 0 12 0 6.84 0 2.442 3.256.746 7.826h22.508z"/><path fill="#D80027" d="M12 24c5.16 0 9.558-3.256 11.254-7.826H.746C2.442 20.744 6.84 24 12 24z"/></g></svg><svg viewBox="0 0 24 24" id="flag--nl" xmlns="http://www.w3.org/2000/svg"><g fill="none"><circle cx="12" cy="12" r="12" fill="#FFF"/><path fill="#A2001D" d="M12 0C6.84 0 2.442 3.256.746 7.826h22.508C21.558 3.256 17.16 0 12 0z"/><path fill="#313AA1" d="M12 24c5.16 0 9.558-3.256 11.254-7.826H.746C2.442 20.744 6.84 24 12 24z"/></g></svg><svg viewBox="0 0 24 24" id="flag--no" xmlns="http://www.w3.org/2000/svg"><g fill="none"><circle cx="12" cy="12" r="12" fill="#FFF"/><path d="M.413 15.13a12.01 12.01 0 004.283 6.39v-6.39H.413zm10.544 8.824c.343.03.691.046 1.043.046 5.544 0 10.21-3.76 11.587-8.87h-12.63v8.824zM23.587 8.87C22.21 3.76 17.544 0 12 0c-.352 0-.7.016-1.043.046V8.87h12.63zM4.696 2.48A12.01 12.01 0 00.413 8.87h4.283V2.48z" fill="#D80027"/><path fill="#182967" d="M23.898 10.435H9.391V.285C8.282.531 7.231.93 6.261 1.46v8.976H.1a12.103 12.103 0 000 3.13h6.16v8.976c.97.53 2.021.928 3.13 1.174v-10.15h14.507a12.12 12.12 0 000-3.13z"/></g></svg><svg viewBox="0 0 24 24" id="flag--pl" xmlns="http://www.w3.org/2000/svg"><g fill="none"><circle cx="12" cy="12" r="12" fill="#FFF"/><path fill="#D80027" d="M24 12c0 6.627-5.373 12-12 12S0 18.627 0 12"/></g></svg><svg viewBox="0 0 24 24" id="flag--ru" xmlns="http://www.w3.org/2000/svg"><g fill="none"><circle cx="12" cy="12" r="12" fill="#FFF"/><path fill="#0052B4" d="M23.254 16.174c.482-1.3.746-2.706.746-4.174 0-1.468-.264-2.874-.746-4.174H.746A11.974 11.974 0 000 12c0 1.468.264 2.874.746 4.174L12 17.217l11.254-1.043z"/><path fill="#D80027" d="M12 24c5.16 0 9.558-3.256 11.254-7.826H.746C2.442 20.744 6.84 24 12 24z"/></g></svg><svg viewBox="0 0 26 26" id="flag--se" xmlns="http://www.w3.org/2000/svg"><g fill="none"><circle cx="13" cy="13" r="12" fill="#FFDA44"/><path fill="#2C5A94" d="M8.834 24.257a12.02 12.02 0 01-7.622-8.998h7.622v8.998zM1.151 11.093c.69-4.32 3.684-7.87 7.683-9.35v9.35H1.151zM12.964 1H13c5.978 0 10.936 4.372 11.85 10.093H12.963V1zM25 12.866a12.25 12.25 0 010 .268v-.268zm-.211 2.393c-1.046 5.49-5.83 9.652-11.603 9.74v-9.74h11.603z"/></g></svg><svg viewBox="0 0 24 24" id="flag--sg" xmlns="http://www.w3.org/2000/svg"><g fill="none"><circle cx="12" cy="12" r="12" fill="#FFF"/><path fill="#D80027" d="M0 12C0 5.373 5.373 0 12 0s12 5.373 12 12"/><g fill="#F0F0F0"><path d="M4.304 6.26a3.653 3.653 0 012.87-3.566 3.652 3.652 0 100 7.135 3.653 3.653 0 01-2.87-3.568zM9 2.87l.259.797h.838l-.678.492.26.797L9 4.464l-.678.492.259-.797-.678-.492h.838z"/><path d="M6.967 4.435l.259.797h.838l-.678.493.259.797-.678-.493-.678.493.259-.797-.678-.493h.838zm4.066 0l.26.797h.837l-.678.493.26.797-.679-.493-.678.493.26-.797-.679-.493h.838zm-.783 2.348l.26.797h.838l-.678.492.259.798-.678-.493-.678.493.259-.798-.678-.492h.838zm-2.5 0l.258.797h.839l-.679.492.26.798-.679-.493-.678.493.26-.798-.679-.492h.838z"/></g></g></svg><svg viewBox="0 0 24 24" id="flag--th" xmlns="http://www.w3.org/2000/svg"><g fill="none"><circle cx="12" cy="12" r="12" fill="#FFF"/><path fill="#1A227A" d="M23.254 7.826H.746A11.973 11.973 0 000 12c0 1.468.264 2.874.746 4.174h22.508c.482-1.3.746-2.706.746-4.174 0-1.468-.264-2.874-.746-4.174z"/><path d="M12 0a11.972 11.972 0 00-9.097 4.174h18.194A11.972 11.972 0 0012 0zm9.097 19.826H2.903A11.972 11.972 0 0012 24c3.637 0 6.896-1.618 9.097-4.174z" fill="#D80027"/></g></svg><svg viewBox="0 0 24 24" id="flag--us" xmlns="http://www.w3.org/2000/svg"><defs><path id="aza" d="M0 12a11.98 11.98 0 014.8-9.601A11.947 11.947 0 0112 0v12H0z"/></defs><g fill="none" fill-rule="evenodd"><path fill="#FFF" fill-rule="nonzero" d="M12 24c6.627 0 12-5.373 12-12S18.627 0 12 0C9.299 0 6.806.893 4.8 2.399A11.982 11.982 0 000 12c0 6.627 5.373 12 12 12z"/><path fill="#CA001C" fill-rule="nonzero" d="M11.866 24h.268a12.25 12.25 0 01-.268 0zm-6.423-1.948a12.062 12.062 0 01-2.358-2.019h17.83c-.695.77-1.487 1.45-2.358 2.019H5.443zm-3.84-4.055A11.94 11.94 0 01.68 15.99h22.642a11.94 11.94 0 01-.925 2.007H1.604zM.179 14.07A12.076 12.076 0 010 12a11.98 11.98 0 014.8-9.601A11.947 11.947 0 0112 0c2.473 0 4.772.748 6.681 2.03h-6.729v2.017h9.034a12.035 12.035 0 011.435 1.999H11.952v2.01h11.385c.222.639.392 1.303.504 1.986H11.952v1.98H24a12.075 12.075 0 01-.178 2.047H.178z"/><mask id="azb" fill="#fff"><use xlink:href="#aza"/></mask><use fill="#2A355F" fill-rule="nonzero" xlink:href="#aza"/><g fill="#FFF" fill-rule="nonzero" mask="url(#azb)"><path d="M-.124-2L.414-.427-.993-1.4H.746l-1.407.972zm0 3.043l.538 1.572-1.407-.972H.746l-1.407.972zm0 3.042l.538 1.573-1.407-.972H.746l-1.407.972zm0 3.043l.538 1.573-1.407-.972H.746L-.661 8.7zM-.124 10.17l.538 1.573-1.407-.972H.746l-1.407.972zM1.758-.479l.537 1.573L.89.122h1.739l-1.407.972zm0 3.043l.537 1.573L.89 3.165h1.739l-1.407.972zm0 3.043l.537 1.572L.89 6.207h1.739L1.22 7.18zm0 3.043l.537 1.572L.89 9.25h1.739l-1.407.972zM3.64-2l.537 1.573L2.77-1.4h1.74l-1.407.972zm0 3.043l.537 1.572-1.407-.972h1.74l-1.407.972zm0 3.042l.537 1.573-1.407-.972h1.74l-1.407.972zm0 3.043l.537 1.573-1.407-.972h1.74L3.103 8.7zM3.64 10.17l.537 1.573-1.407-.972h1.74l-1.407.972zM5.522-.479l.537 1.573L4.652.122h1.74l-1.407.972zm0 3.043l.537 1.573-1.407-.972h1.74l-1.407.972zm0 3.043l.537 1.572-1.407-.972h1.74l-1.407.972zm0 3.043l.537 1.572-1.407-.972h1.74l-1.407.972z"/></g><g fill="#FFF" fill-rule="nonzero" mask="url(#azb)"><path d="M6.852-2l.522 1.573L6.006-1.4h1.691L6.33-.427zm0 3.043l.522 1.572-1.368-.972h1.691l-1.368.972zm0 3.042l.522 1.573-1.368-.972h1.691l-1.368.972zm0 3.043l.522 1.573-1.368-.972h1.691L6.33 8.7zM6.852 10.17l.522 1.573-1.368-.972h1.691l-1.368.972zM8.681-.479l.523 1.573L7.836.122h1.69l-1.367.972zm0 3.043l.523 1.573-1.368-.972h1.69l-1.367.972zm0 3.043l.523 1.572-1.368-.972h1.69L8.16 7.18zm0 3.043l.523 1.572-1.368-.972h1.69l-1.367.972z"/></g><g fill="#FFF" fill-rule="nonzero" mask="url(#azb)"><path d="M10.681-2L11.1-.427 10.005-1.4h1.353l-1.094.972zm0 3.043l.418 1.572-1.094-.972h1.353l-1.094.972zm0 3.042l.418 1.573-1.094-.972h1.353l-1.094.972zm0 3.043l.418 1.573-1.094-.972h1.353l-1.094.972zM10.681 10.17l.418 1.573-1.094-.972h1.353l-1.094.972z"/></g></g></svg></svg>