<?xml version="1.0" encoding="UTF-8"?>
<svg width="24px" height="24px" viewBox="0 0 24 24" version="1.1" xmlns="http://www.w3.org/2000/svg" xmlns:xlink="http://www.w3.org/1999/xlink">
    <!-- Generator: Sketch 63.1 (92452) - https://sketch.com -->
    <title>box-empty</title>
    <desc>Created with Sketch.</desc>
    <g id="box-empty" stroke="none" stroke-width="1" fill="none" fill-rule="evenodd">
        <path d="M20.009947,0 C22.2135924,0 24,1.78429328 24,3.99005301 L24,20.009947 C24,22.2135924 22.2157067,24 20.009947,24 L3.99005301,24 C1.78640758,24 0,22.2157067 0,20.009947 L0,3.99005301 C0,1.78640758 1.78429328,0 3.99005301,0 L20.009947,0 Z M20.009947,1 L3.99005301,1 C2.39641389,1 1.09593001,2.24402354 1.005071,3.81428375 L1,3.99005301 L1,20.009947 C1,21.6035861 2.24402354,22.90407 3.81428375,22.994929 L3.99005301,23 L20.009947,23 C21.6035861,23 22.90407,21.7559765 22.994929,20.1857163 L23,20.009947 L23,3.99005301 C23,2.39641389 21.7559765,1.09593001 20.1857163,1.005071 L20.009947,1 Z" id="Shape" fill="#0033CC" fill-rule="nonzero"></path>
    </g>
</svg>