<svg height="40" viewBox="0 0 56 40" width="56" xmlns="http://www.w3.org/2000/svg"><g fill="none" fill-rule="evenodd"><rect fill="#f3f3f3" height="40" rx="2" width="56"/><g fill-rule="nonzero" transform="translate(10 3)"><path d="m35.5522959.46427511h-33.02770406v33.21338529h33.01989796v-10.9511869c.1399846-.2157987.2082914-.4704257.1951531-.7274717.0209706-.2553742-.048087-.5100319-.1951531-.7196494z" fill="#007dc3"/><path d="m5.50653061 14.841619-.63229592-1.5644553-.63229591 1.5644553zm13.99637759-.6101376c-.1446593.0639841-.302941.090867-.4605613.0782228h-1.1318877v-.8760949h1.1475c.1491726-.0104081.2987367.0136787.4371428.0704004.127842.0653407.2045823.2006832.1951531.3441802.0084262.1515142-.0664297.2955349-.1951531.3754693zm8.0481122.6101376-.6479082-1.5644553-.6322959 1.5644553zm-15.0033673 1.6739671h-.952347v-3.0428655l-1.342653 3.0428655h-.78061228l-1.35826531-3.0506877v3.0506877h-1.92030612l-.35908163-.8682726h-1.92811225l-.35908163.8682726h-.97576531l1.66270408-3.9111381h1.38168368l1.56122449 3.6842921v-3.6608253h1.51438775l1.2177551 2.6439294 1.11627553-2.6439294h1.5612245zm3.7937755 0h-3.122449v-3.9111381h3.122449v.7822276h-2.1701021v.7040049h2.1154592v.7822276h-2.1154592v.7822276h2.1701021zm4.3792347-2.8394863c.0179108.4555967-.2457849.8752741-.6635204 1.0560073.1805159.0654336.3397671.1790334.4605612.3285356.1293229.2133826.1842396.4637708.1561224.7118272v.7822276h-.9289285v-.4928034c.045804-.270129-.0068363-.5477563-.1483164-.7822276-.132704-.140801-.3434694-.1642678-.6791326-.1642678h-1.0069898v1.415832h-.9289286v-3.9111382h2.1310714c.3846557-.0377505.7724364.0270133 1.1240817.1877346.3150594.166714.5019115.5043577.4761734.8604504zm1.4753571 2.831664h-.9523469v-3.9111381h.9523469zm10.9832143 0h-1.3114286l-1.7641837-2.917709v2.917709h-1.8890816l-.3590816-.8682726h-1.9281123l-.3434693.8682726h-1.0928572c-.5205196.0734807-1.0446322-.1076313-1.4093109-.4870007-.3646786-.3793694-.5256837-.9109741-.432934-1.429457-.0434364-.5525255.1365889-1.0993566.4995918-1.5175216.3895153-.3379891.8999021-.5018769 1.4129082-.453692h.8977041v.8291613h-.8742857c-.2620721-.0303452-.5243195.0553472-.7181633.2346683-.1928658.2524564-.2872309.5667306-.2654082.8839172-.0384639.3369296.0537606.675786.2576021.9464955.1782646.1497074.4083211.2228031.640102.2033791h.4137245l1.3114286-3.05851h1.3894898l1.5612245 3.6764699v-3.6764699h1.4129081l1.6470919 2.6752185v-2.7065076h.9523469zm-30.65464286.7822277h1.56122449l.35908163-.8682727h.78061224l.35908164.8682727h3.12244898v-.6648935l.2810204.6648935h1.61586738l.2732143-.6727158v.6727158h7.7592857v-1.4314766h.1483163c.1014796 0 .1327041 0 .1327041.1877346v1.2280974h4.0123469v-.3285356c.4598636.2301799.9693253.3430308 1.4831633.3285356h1.7329592l.3590816-.8682726h.7806122l.3512756.8682726h3.2473469v-.8135167l.4917857.821339h2.5994388v-5.4286598h-2.5213776v.6414267l-.3590816-.6414267h-2.6696939v.6414267l-.3278571-.6414267h-3.5752041c-.5383774-.0288098-1.0753186.0788006-1.5612245.3128911v-.3128911h-2.4355102v.3128911c-.2997406-.2270296-.6711335-.3381226-1.0460204-.3128911h-9.0316837l-.60887753 1.4001875-.61668367-1.4001875h-2.83362245v.6414267l-.32005102-.6414267h-2.41989796l-1.12408163 2.5735289z" fill="#fff"/><path d="m35.5522959 20.1529446h-1.7017347c-.1291345-.0152123-.2598302.0093438-.3746939.0704005-.0939865.0616976-.147646.1692386-.1405102.2816019-.0007654.129944.080697.2461111.2029592.2894243.1168053.0329328.2377544.0487414.3590817.0469336h.5073979c.3783009-.0347923.7555027.0772024 1.0538265.3128911.0320261.0308567.0608.0649326.0858674.1016896zm0 2.5657066c-.3126882.3665696-.7863154.5540688-1.2645918.5006257h-1.7954082v-.8448058h1.7876021c.1322294.0169687.2659896-.0165406.3746938-.0938673.0742313-.0651888.116888-.1592279.1170919-.2581351.003109-.099601-.0401607-.1949914-.1170919-.2581352-.0945567-.062685-.2068803-.092883-.320051-.086045-.8742857 0-1.9593367 0-1.9593367-1.2046306-.0037655-.3393228.1412275-.6632154.3966399-.8860347.2554125-.2228192.5955233-.3221261.9304009-.2716622h1.850051v-.7822276h-1.7563775c-.4120179-.0210697-.8198534.0913857-1.1631123.3207133v-.3207133h-2.5057653c-.3949877-.0212235-.7855606.0917809-1.1084694.3207133v-.3207133h-4.5353571v.3207133c-.3797217-.2181223-.8113703-.3289612-1.2489796-.3207133h-2.997551v.3207133c-.3817205-.2328629-.8268359-.3395833-1.272398-.3050687h-3.3878571l-.7806123.8291613-.7181632-.8291613h-4.98811228v5.4286597h4.91005098l.7806123-.8448058.7806122.8448058h3.0287755v-1.275031h.2966327c.427184.0343593.8569344-.0161479 1.2645918-.1486233v1.4627657h2.4979592v-1.4627657h.124898c.1561224 0 .1717347 0 .1717347.1564456v1.2593865h7.5719387c.4475628.0152529.8890004-.1076224 1.2645919-.3520025v.3520025h2.4042857c.4680422.0162478.934054-.0691421 1.3660714-.2503129zm-3.7079081-1.5644552c.1949004.2122252.2962069.4942145.2810204.7822276 0 .8369836-.5230102 1.2280974-1.4519388 1.2280974h-1.8188265v-.7900499h1.8188265c.1346246.0159595.2704693-.0173775.3825-.0938673.0697637-.0676964.1091898-.1608216.1092857-.2581351.0008382-.0991317-.0420066-.1935855-.1170918-.2581352-.097423-.0627767-.2122329-.0929082-.3278572-.086045-.8664796 0-1.9515306 0-1.9515306-1.2046306 0-.5632039.3512755-1.1576969 1.3270408-1.1576969h1.8578572v.8291613h-1.717347c-.1180644-.0114327-.236977.0102325-.3434694.0625782-.0966733.0592638-.151201.168545-.1405102.281602-.0032296.130704.0791483.2481767.2029592.2894242.1166907.0334903.2377224.0493097.3590817.0469337h.5073979c.3781418-.0331918.754766.0786315 1.0538265.312891zm-8.3447449-.2581351c-.1437159.0670746-.3028154.0940965-.4605613.0782227h-1.1553061v-.8448058h1.1396939c.151845-.0137959.3047329.0103942.444949.0704005.1290928.0680311.20571.2062275.195153.3520024.0084262.1515142-.0664297.2955349-.195153.3754693zm.5308163.5162702c.1780543.0659737.3346492.1796047.4527551.3285356.1304529.2129274.1854559.4637092.1561224.7118272v.7822276h-.9289285v-.4849811c.0451017-.2701217-.0074923-.547505-.1483164-.7822277-.132704-.140801-.3356632-.1720901-.6791326-.1720901h-.9991837v1.4236543h-.9289286v-3.9111381h2.1388776c.3819803-.0338449.7662511.0307816 1.1162755.1877346.3135969.1682057.4998742.5048108.4761735.8604504.0138392.4464757-.2462338.8560076-.6557143 1.0325405zm1.1787245-2.0885478h3.122449v.7822277h-2.2091327v.7040048h2.1232653v.7822277h-2.1232653v.7822276h2.2091327v.7822276h-3.122449zm-6.244898 1.7991236h-1.2255612v-.9934291h1.2255612c.3356633 0 .569847.1329787.569847.4771588 0 .3441802-.2263776.5162703-.5776531.5162703zm-2.1388775 1.7443676-1.4207143-1.5644553 1.4207143-1.5644552zm-3.6766837-.4615143h-2.295v-.7822276h2.0373979v-.7822277h-2.0373979v-.7040048h2.3418367l1.0069898 1.13423zm7.3767857-1.8069458c0 1.0794741-.7806122 1.3063201-1.6158673 1.3063201h-1.1709184v1.3063202h-1.8032143l-1.1396939-1.2828534-1.1865306 1.2906756h-3.67668366v-3.9111381h3.73132656l1.1475 1.275031 1.1787245-1.275031h2.9741326c.7415816 0 1.5612245.2033792 1.5612245 1.2828533z" fill="#fff"/><path d="m2.00938776 32.9267219c0 .3542501-.28658345.6414266-.64010205.6414266-.35351859 0-.64010204-.2871765-.64010204-.6414266 0-.3542502.28658345-.6414267.64010204-.6414267.17040582-.0021215.33445124.0647757.45495565.1855295s.18726348.2851387.1851464.4558972zm.11709183 0c0-.4320124-.349492-.7822277-.78061224-.7822277s-.78061225.3502153-.78061225.7822277c0 .4320123.34949201.7822276.78061225.7822276s.78061224-.3502153.78061224-.7822276zm-.57765306-.1564456c0-.086045-.06244898-.0938673-.10147959-.0938673h-.21076531v.1955569h.19515306c.07025511 0 .12489796 0 .12489796-.1016896zm.15612245.5006257h-.13270408c-.00794567-.0597065-.00794567-.1202058 0-.1799123 0-.054756 0-.1016896-.10147959-.1016896h-.20295919v.2894242h-.12489796v-.7040049h.32785715c.10928571 0 .23418367.0391114.23418367.1955569.00272996.062167-.02679236.1213338-.07806122.1564456.04149463.0276674.06525752.0752915.06244897.1251564v.1251564c-.009761.0169415-.009761.0378144 0 .0547559z" fill="#007dc3"/></g></g></svg>