<svg height="40" viewBox="0 0 56 40" width="56" xmlns="http://www.w3.org/2000/svg"><g fill="none" fill-rule="evenodd"><rect fill="#f3f3f3" height="40" rx="2" width="56"/><g transform="translate(6.685897 4.910714)"><g fill="#1a1919"><path d="m1.06121138 19.1747082c0-.8240491-.4322635-.76988-.8457659-.7785622v-.2381928c.35854562.0173643.72618752.0173643 1.08568067.0173643.38621351 0 .91057699-.0173643 1.59185155-.0173643 2.38247117 0 3.6802092 1.584492 3.6802092 3.2071099 0 .9080394-.53364929 3.1891794-3.79088078 3.1891794-.46883819 0-.90185971-.0181193-1.33412321-.0181193-.4136919 0-.81923503.0084934-1.23273743.0181193v-.2383816c.55146287-.0554903.81904553-.0734208.8457659-.6964593zm.9016702 4.2976631c0 .7058964.50654991.7879993.9571955.7879993 1.98791939 0 2.64019951-1.4933294 2.64019951-2.8585028 0-1.7135917-1.10387325-2.9504203-2.87935625-2.9504203-.37806475 0-.55203138.0268014-.71803876.0366161z"/><path d="m6.89553684 24.3158609h.17434564c.25753885 0 .44173881 0 .44173881-.3031202v-2.4830943c0-.4025874-.13777096-.4582664-.4786925-.640969v-.1462753c.432453-.1294773.9480992-.3023652.98448438-.3299216.0648111-.0368048.11919936-.0466194.16600738-.0466194.04510246 0 .06405307.0551128.06405307.1290998v3.5177798c0 .3031202.20277157.3031202.46068942.3031202h.15577405v.2383816c-.31287463 0-.63541408-.0181193-.96553377-.0181193-.33125673 0-.66270297.0084934-1.00286648.0181193zm.98429488-5.3606601c-.23972527 0-.45083511-.2198848-.45083511-.4580776 0-.2295107.22115367-.4407134.45083511-.4407134.23877773 0 .4510246.1930834.4510246.4407134 0 .2478187-.20296107.4580776-.4510246.4580776z"/><path d="m9.73831841 21.5847592c0-.338415-.10157529-.4299551-.53327027-.604353v-.1740204c.39493079-.1281561.7718585-.2478187 1.21397636-.4405247.0278574 0 .0545777.018308.0545777.0915401v.5958595c.525311-.375031.9761461-.6873996 1.5935571-.6873996.7809548 0 1.0568758.5683032 1.0568758 1.2830705v2.3638091c0 .3031202.202961.3031202.4603104.3031202h.1660073v.2383816c-.3231079 0-.6446998-.0181193-.9755775-.0181193-.3314463 0-.6628925.0084934-.9941492.0181193v-.2383816h.1660073c.2577284 0 .4409808 0 .4409808-.3031202v-2.3723025c0-.5230051-.3204549-.7793172-.8455764-.7793172-.294682 0-.7638992.2378154-1.0684356.4403359v2.7112838c0 .3031202.2033401.3031202.4610685.3031202h.1652493v.2383816c-.3217814 0-.6439418-.0181193-.9757671-.0181193-.3304987 0-.66213444.0084934-.99301216.0181193v-.2383816h.16600738c.25734933 0 .44117029 0 .44117029-.3031202z"/><path d="m14.4496305 22.0252838c-.0187611.0824804-.0187611.2196961 0 .5314984.0541988.870291.616653 1.5846808 1.3519368 1.5846808.5067394 0 .9026177-.2749976 1.2424022-.6134127l.1284852.1283448c-.4233567.5588661-.9475307 1.0356293-1.7013861 1.0356293-1.4633664 0-1.7576694-1.4119815-1.7576694-1.9980265 0-1.7962609 1.2141658-2.3281368 1.8575391-2.3281368.7460857 0 1.5471281.4673261 1.5556559 1.4389716 0 .055679 0 .1100368-.0085278.1651496l-.0831932.0553015zm1.6291843-.2934943c.2294919 0 .2564018-.1192852.2564018-.2296995 0-.466571-.2850173-.842357-.800474-.842357-.5607486 0-.9473411.411647-1.0576337 1.0720565z"/><path d="m17.3386516 24.3158609h.248632c.2565913 0 .4407913 0 .4407913-.3031202v-2.5744456c0-.283491-.3401635-.3393587-.4783135-.4125907v-.137027c.6716098-.284246 1.0398202-.5228163 1.1239609-.5228163.0538197 0 .0814876.0275564.0814876.1196627v.824804h.0193297c.2293024-.3572892.6164634-.9444667 1.1774016-.9444667.2298709 0 .5239845.1557125.5239845.4858228 0 .2472525-.1739667.4682698-.4315055.4682698-.2861543 0-.2861543-.2210173-.6085042-.2210173-.1561531 0-.6714203.2113914-.6714203.7615753v2.152229c0 .3031202.183821.3031202.4415493.3031202h.5146987v.2383816c-.5059814-.0096259-.8910578-.0181193-1.2871257-.0181193-.3773067 0-.7638992.0084934-1.0949664.0181193z"/><path d="m20.8805213 23.2800429c.1199574.6047305.4872203 1.1186759 1.1601566 1.1186759.5419875 0 .7441906-.3302991.7441906-.6507836 0-1.0818711-2.0051645-.733264-2.0051645-2.2084742 0-.5137566.4142604-1.1734111 1.4264127-1.1734111.293924 0 .6894233.0830466 1.047969.2665042l.0646215.9338971h-.2114888c-.0919105-.5769854-.4135024-.9067182-1.003056-.9067182-.3680209 0-.7172807.2104477-.7172807.6045417 0 1.0728115 2.1340286.7423236 2.1340286 2.1811065 0 .604353-.4870308 1.2466432-1.5823763 1.2466432-.3676419 0-.8008529-.1285336-1.1218763-.3118024l-.1017648-1.0539372z"/><path d="m31.8290489 19.8160547h-.229492c-.1751036-1.0711128-.9388134-1.5023891-1.9685897-1.5023891-1.0593393 0-2.5952866.7051414-2.5952866 2.9043672 0 1.8517511 1.325406 3.180686 2.7419643 3.180686.9100085 0 1.666138-.623416 1.8497694-1.5861907l.2116784.0547353-.2116784 1.3383719c-.386403.2385704-1.4264127.4863891-2.0343483.4863891-2.1520317 0-3.5136333-1.3840476-3.5136333-3.4456802 0-1.8791188 1.683762-3.2265504 3.4871024-3.2265504.7449486 0 1.4624189.2389478 2.1709823.4865778z"/><path d="m32.1612531 24.3158609h.1741562c.2584863 0 .4421178 0 .4421178-.3031202v-5.102838c0-.5962371-.137771-.6143563-.4877888-.7153335v-.1468415c.3678314-.1189077.7546134-.283491.9482887-.3942828.0998697-.054169.1741562-.1009771.2012555-.1009771.0562834 0 .0744759.0556789.0744759.1292885v6.3309844c0 .3031202.2025821.3031202.4599314.3031202h.1557741v.2383816c-.3119271 0-.633898-.0181193-.9653443-.0181193-.3310672 0-.6619449.0084934-1.0028665.0181193z"/><path d="m38.068728 24.0497342c0 .165527.1006277.1742092.2565913.1742092.1110506 0 .2484425-.0086822.3689684-.0086822v.1928947c-.3958783.0362385-1.1506812.2287557-1.3257849.2838685l-.0458605-.0279339v-.7423236c-.5514629.4488293-.9751986.7702575-1.6293738.7702575-.4966956 0-1.0115837-.3214282-1.0115837-1.0901758v-2.3466336c0-.2385703-.0365747-.4677035-.5510839-.5128129v-.1745867c.3314463-.0090596 1.065972-.0637949 1.1859294-.0637949.1021438 0 .1021438.0637949.1021438.2657492v2.3639979c0 .2751863 0 1.0624306.8002845 1.0624306.3123061 0 .726377-.2376266 1.1125905-.5579223v-2.46573c0-.1830801-.4413598-.2838685-.772048-.375031v-.1647721c.8271943-.0558677 1.34303-.1287223 1.4349405-.1287223.0742864 0 .0742864.0637949.0742864.1649608z"/><path d="m39.8991677 21.0257044c.3678315-.3108587.8649061-.6598433 1.3708874-.6598433 1.0674881 0 1.7116195.9265362 1.7116195 1.9251719 0 1.2000238-.8836671 2.4009914-2.1999768 2.4009914-.6801375 0-1.0390621-.2206398-1.2787874-.3214282l-.2751629.2108252-.1929172-.100411c.0822456-.540558.1286746-1.0720565.1286746-1.6313v-3.9398077c0-.5962371-.138529-.6143563-.4881678-.7153335v-.1468415c.3683999-.1189077.7544239-.283491.9475307-.3942828.1015753-.054169.1749142-.1009771.2029611-.1009771.0547672 0 .0733388.0558677.0733388.1292885zm0 2.4927201c0 .3480409.3314463.9350295.9477202.9350295.9842949 0 1.3981763-.9623972 1.3981763-1.7783303 0-.9893874-.7536659-1.8140027-1.4711361-1.8140027-.3418691 0-.6265073.2202623-.8747604.4312763z"/><path d="m.20521215 29.8824388h.07030678c.18003083 0 .37029499-.0245365.37029499-.2840572v-2.6121941c0-.2598982-.19026416-.2846234-.37029499-.2846234h-.07030678v-.1498614c.19519133 0 .49555855.0198179.74153752.0198179.2501481 0 .55013632-.0198179.78550294-.0198179v.1498614h-.07068579c-.17927281 0-.36991598.0247252-.36991598.2846234v2.6121941c0 .2595207.19064317.2840572.36991598.2840572h.07068579v.1498614c-.24010428 0-.54122953-.0192517-.79061961-.0192517-.24578946 0-.54122952.0192517-.73642085.0192517z"/><path d="m1.73225261 30.0536281c-.24218884 0-.54179805-.0200067-.79099862-.0200067-.24503143 0-.53952397.0200067-.73604184.0200067h-.0217932v-.1927059h.09172097c.18173638-.0043411.34698574-.0188743.34850179-.2625406v-2.6121941c-.00151605-.2440438-.16676541-.2598982-.34850179-.2631068h-.09172097v-.1930834h.0217932c.19651787 0 .49669559.0194405.74153752.0194405.24901106 0 .54880977-.0194405.78550294-.0194405h.02236172v.1930834h-.09209998c-.18192589.0032086-.34812277.019063-.3490703.2631068v2.6121941c.00094753.2436663.16714441.2581995.3490703.2625406h.09209998v.1927059zm-.0216037-.0426558.00018951-.1060732h-.04832407c-.1790833 0-.39189869-.0313312-.39303573-.3065175v-2.6121941c.00113704-.2757525.21395243-.3065175.39303573-.3065175h.04813456v-.1064507c-.23100798.0001887-.52114188.0201954-.76389924.0201954-.2378302 0-.52569003-.0186855-.7195548-.0201954v.1064507h.04794505c.17851478 0 .39170918.030765.39170918.3065175v2.6121941c0 .2751863-.2131944.3065175-.39170918.3065175h-.04794505v.1060732c.19386477-.0016986.47660793-.0200066.71405912-.0200066.2438944 0 .53327027.0186854.76939492.0200066z"/><path d="m5.1715995 29.0495188.01004383-.0098146v-1.8693041c0-.4091934-.28577526-.4690247-.43586412-.4690247h-.11029257v-.1496727c.23574563 0 .46599559.0198179.7009832.0198179.20523515 0 .41141783-.0198179.61589495-.0198179v.1496727h-.07447591c-.21092033 0-.44628696.0398246-.44628696.6332305v2.268683c0 .1747754.00492716.3491733.02956296.503942h-.19026416l-2.57785199-2.8626551v2.0548379c0 .4341074.08470924.5830251.47016473.5830251h.08527776v.1498614c-.21527897 0-.43036844-.0194404-.64564741-.0194404-.22475428 0-.45538325.0194404-.68089556.0194404v-.1498614h.07030678c.34528018 0 .45045609-.234418.45045609-.6320981v-2.100891c0-.2789612-.23100798-.4480743-.45538325-.4480743h-.06537962v-.1496727c.18988515 0 .38545549.0198179.57534064.0198179.15065738 0 .29581908-.0198179.44590794-.0198179z"/><path d="m5.46116488 30.1281813-.20618268-.0069834-2.54070878-2.8203769v1.9985927c.00606419.4335412.07220183.5567899.44912954.5615085h.10726048v.1927059h-.02217222c-.21660552 0-.432074-.0200067-.64564741-.0200067-.22418576 0-.45424622.0200067-.68108506.0200067h-.02198271v-.1927059h.09247899c.33087772-.0018874.42544128-.2136564.4290419-.6107702v-2.0999474c-.00094753-.2655604-.21963762-.4271239-.43377955-.4271239h-.08774134v-.1930834h.02198271c.1914012 0 .38735054.0194405.57515113.0194405.14933083 0 .29392402-.0194405.46277398-.0117021l2.20016626 2.4666737v-1.8340093c-.00246358-.3959815-.26815118-.4441108-.4138814-.4473194h-.13246479v-.1930834h.02217222c.23650366 0 .46694312.0194405.70079369.0194405.2037191 0 .40895425-.0194405.61589495-.0194405h.02198271v.1930834h-.09645862c-.2067512.0052848-.41880857.0234041-.42487276.6115252v2.268683c0 .1745866.00549568.3486071.02956295.4999784l.00454815.024914zm-.19007465-.0434107h.16562836c-.02236172-.1500502-.02634135-.3155772-.02634135-.4814817v-2.268683c0-.598502.25185365-.6549359.46751164-.6553134h.0526827v-.1060732c-.19727589.0015099-.39493079.0196292-.59410174.0196292-.22930242 0-.45216164-.0181193-.67843197-.0196292l-.00056852.1060732h.08849937c.15387898.0003775.45727831.0685135.45727831.4911076l-.00663272 1.8849698-.00985432.0096258-.01705555.0160431-2.22650761-2.5078195c-.14876232 0-.29354501.0196292-.44628695.0196292-.18344195 0-.37143203-.0181193-.55297891-.0196292l-.00094753.1060732h.04453394c.2347981.0003775.47641843.1789277.47641843.4709121v2.0999474c0 .3990013-.11161912.6538034-.47168078.6551246l-.04832406-.0013212v.1070169c.21679502-.0016986.44022275-.0200066.65891284-.0200066.20883576 0 .41729251.018308.6238542.0200066v-.1056957h-.06329505c-.39398326-.0013212-.49157892-.1723217-.49195793-.6058629v-2.1107056zm-.09930122-1.0352518.01572901-.0143444zm-.01193889-.0098146v-.0018874l-.00397963-.0032086z"/><path d="m6.70261959 26.8010313c-.37598018 0-.39057215.0902188-.46561658.4537366h-.15027837c.01970864-.1396693.04453394-.2791499.06007345-.4237266.02008765-.1402355.03013147-.2793386.03013147-.4235378h.11995739c.04036481.1496727.16543886.1441992.30131476.1441992h2.58221063c.1358759 0 .26076044-.0049073.27099378-.15458l.11957837.0203842c-.01932963.1341958-.03979629.2689578-.05438826.4039086-.00985432.1345733-.00985432.2687691-.00985432.4033424l-.15046788.0554902c-.01023333-.1842125-.03505863-.4792168-.37048449-.4792168h-.8211301v2.6527736c0 .3846569.17548268.4286339.41539746.4286339h.09551109v.1498614c-.19538083 0-.54596718-.0192517-.81582392-.0192517-.30074624 0-.65152211.0192517-.84690293.0192517v-.1498614h.09551109c.27592094 0 .41539745-.0245365.41539745-.418253v-2.6631545z"/><path d="m8.675947 30.0536281c-.19727589 0-.54748323-.0198179-.81620293-.0198179-.30036723 0-.65057457.0198179-.84690293.0198179h-.0214142v-.1927059h.11692529c.27592094-.0064173.38678203-.0100034.39303573-.3967364v-2.6418266h-.79876837v-.0435995h.84216527v2.6854261c0 .4003225-.16202774.4407133-.43643263.4410908h-.0740969v.1053183c.1974654-.0013212.53478632-.0196292.82548874-.0196292.26057094 0 .59504927.018308.79346219.0196292v-.1053183h-.07314936c-.24218885-.0003775-.43700116-.0596426-.43700116-.4514717v-2.6750452h.8427338c.33580487.0013212.38033881.2855672.39076165.4711009l.10839751-.0398246c0-.1302322.00056852-.2606532.00947531-.3916404.01478148-.128911.03297407-.2555571.05173517-.3833357l-.07599196-.0126457c-.02330925.1451428-.16449132.1528813-.28994439.1509938h-2.60817297c-.11787282.0001888-.24616847-.0054735-.29127093-.1445766h-.08262468c-.00075802.1377819-.01023333.2716002-.02918394.4044749-.01497099.1370269-.03790123.2685803-.05609382.4006999h.10688146c.06575863-.3478521.10858702-.4601538.48286164-.4552465v.0435995c-.37086351.0073609-.36271475.0690797-.44439189.4375047l-.00360062.0169869h-.19291725l.00265309-.0258577c.02046666-.1391032.04586048-.27915.06045246-.4239153.02084567-.1383482.03032098-.2766963.03032098-.4195743v-.0220828h.15899565l.00379012.0156656c.03373209.1257024.12640059.1266461.25412773.128911h2.60817297c.13947652-.0022649.24105181-.0041523.24957959-.1345733l.00170555-.0235928.02274074.0045298.14156108.0222716-.00360061.0220829c-.01989815.1338183-.03941728.2680141-.05457777.4016437-.0092858.1336296-.0092858.2676366-.0092858.4023987v.0150994l-.01459197.005851-.17718824.0645499-.00113704-.0288776c-.01383395-.1876099-.03316357-.4590214-.34963882-.4590214h-.79914739v2.6314457c.00492716.3759748.15463701.4023987.39341475.4071173h.11711479v.1927059z"/><path d="m9.73092767 29.8824388h.07049628c.17965182 0 .37048455-.0245365.37048455-.2840572v-2.6121941c0-.2598982-.19083273-.2846234-.37048455-.2846234h-.07049628v-.1498614c.30434683 0 .82624673.0198179 1.24600283.0198179.4212722 0 .941277-.0198179 1.28163-.0198179-.0087172.2144113-.0039796.5443329.0108019.763274l-.1508469.0396359c-.0240673-.3242593-.0841407-.5828364-.6100203-.5828364h-.6951085v1.3055308h.5946703c.3003672 0 .3657468-.1689244.3954993-.4384484h.1500889c-.0100439.1947821-.01535.3891867-.01535.5834026 0 .1898748.0053061.3791833.01535.5683031l-.1500889.0298213c-.0297525-.2987791-.0447235-.4931837-.3905722-.4931837h-.5995974v1.1611429c0 .3246368.2891864.3246368.6098308.3246368.6009239 0 .866043-.0402021 1.0163214-.6079391l.139666.0343511c-.0650006.2648055-.124695.5282899-.169608.7929066-.3208339 0-.8965535-.0192517-1.3462516-.0192517-.4515931 0-1.0468319.0192517-1.33241763.0192517z"/><path d="m12.4092179 30.0536281c-.3212129 0-.8973115-.0207616-1.3464411-.0207616-.4510246 0-1.0460739.0207616-1.33203864.0207616h-.02103518v-.1927059h.09153147c.18116786-.0030199.34603825-.0188743.34831225-.2625406v-2.6121941c-.002274-.2436663-.16714439-.2598982-.34831225-.2631068h-.09153147v-.1930834h.02103518c.30586294 0 .82662574.0194405 1.24619234.0194405.4208932 0 .9407085-.0194405 1.28163-.0194405h.0221723l-.0007581.0230266c-.0032216.0745532-.0053061.1632621-.0053061.257067 0 .1723218.0053061.3612529.0151604.5031871l.0009476.0177418-.0168661.0050961-.1760512.0458643-.000758-.0256689c-.029563-.3235044-.0731494-.5588661-.5886061-.5637734h-.6748313l-.000379 1.262875h.5745826c.2886178-.0030199.3401635-.1498614.3742746-.4188192l.001137-.0200067h.1925383l-.000379.0228378c-.0096648.1947821-.0155395.3886205-.0155395.5828364 0 .1885536.0058747.3778621.0155395.5673594l.000379.0181193-.0181926.0041523-.1743457.0345399-.001137-.0234041c-.0346796-.3044414-.0369537-.4712896-.369158-.4748757h-.5793202v1.1401925c.000758.3031202.2630345.3014215.5893641.3031202.602819-.0035861.8442498-.0330299.9950967-.5922735l.0051167-.0201954.0210351.0033974.1605117.0415233-.0045481.0205729c-.0650006.2638618-.124695.5275348-.169987.7913966l-.0037901.0177418zm-.0185716-.0430332c.0437759-.2521598.1008173-.5039421.1622173-.7549694l-.0985432-.0247253c-.1498994.5577337-.4404123.6075616-1.0312924.6037868-.3155277 0-.630866 0-.6325715-.3463422v-1.1828483h.6225276c.3496389-.0035861.384887.2062954.4099018.4899751l.1080185-.0220828c-.0096648-.183835-.014592-.3684251-.014592-.5511276 0-.1872325.0049272-.3740874.014592-.5622635h-.1080185c-.0282364.2604644-.1099135.4422233-.4150184.4390147h-.617411v-1.3496965h.7180387c.5205734-.0041523.6067987.2642393.6295394.5779291l.107829-.0292551c-.0087173-.140613-.014592-.3214282-.014592-.487899 0-.0853115.0022741-.166282.0051167-.2368716-.3401635.0015099-.8478504.0196292-1.2594578.0196292-.4114178 0-.9177782-.0181193-1.22420962-.0196292v.1060732h.04851357c.17813577.0003775.39114065.0311425.39227775.306895v2.6121941c-.0011371.2751863-.21414198.3055738-.39227775.306895h-.04851357v.1053183c.29146042-.0009438.87021222-.0196292 1.31005592-.0196292.4419283 0 1.0051406.0186854 1.3278695.0196292z"/><path d="m13.2553628 27.0798038c0-.3635178-.2004975-.3784284-.3558925-.3784284h-.0903944v-.1496727c.1603222 0 .4707332.0198179.7764066.0198179.2997987 0 .5404715-.0198179.8057801-.0198179.6299184 0 1.1918041.1693019 1.1918041.8778406 0 .4484518-.3005567.722317-.6958665.8778407l.8556202 1.2757094c.1406135.211014.2399148.2700903.4858937.2993454v.1498614c-.1656283 0-.325761-.0192517-.4904419-.0192517-.1552055 0-.3160962.0192517-.4705437.0192517-.3858345-.5033758-.7165227-1.041669-1.0417152-1.6160119h-.3299302v1.0677154c0 .3839019.1798413.3984351.4093332.3984351h.0907735v.1498614c-.2859648 0-.5751512-.0192517-.8611159-.0192517-.2402938 0-.4756604.0192517-.725998.0192517v-.1498614h.0903944c.1859055 0 .3558925-.0843678.3558925-.2685804zm.6407203 1.156613h.2446524c.5012437 0 .7711005-.1889311.7711005-.7776184 0-.4433558-.2853963-.7276018-.7314937-.7276018-.1502784 0-.2143315.0152882-.2842592.0201955z"/><path d="m16.2287141 30.0536281c-.1679024 0-.3270876-.0200067-.4917684-.0200067-.1525525 0-.3126851.0200067-.4870308.011702-.3841289-.5020546-.7133011-1.0373279-1.0365986-1.6065748h-.295819v1.0443114c.0054956.3754085.156532.3725774.387919.3778622h.1123772v.1927059h-.0221723c-.2861542 0-.5770461-.0200067-.8607368-.0200067-.2391568 0-.4743339.0200067-.7258085.0200067h-.0217932v-.1927059h.1121876c.1800308-.0013212.3322043-.0794606.3329623-.2470638v-2.5340546c-.0037901-.3535145-.1775673-.3518158-.3329623-.3567231h-.1121876v-.1930834h.0217932c.1620277 0 .4711122.0194405.7764066.0194405.2988512 0 .5389555-.0194405.8057801-.0194405.631245.0013212 1.2120813.1743979 1.2135973.898791 0 .4499618-.2986617.7311879-.6846857.8880328l.8406493 1.2543816c.140045.2068616.2272178.258577.4707332.2897195l.0181926.0028311v.1898748zm-2.3328205-1.6588564h.3420585l.0062537.0111358c.3259506.572833.6549333 1.1113149 1.0235227 1.6050648.1523629 0 .3132536-.0200066.4692172-.0200066.1597537 0 .3143907.0173642.4697857.0196292v-.1094706c-.2346086-.0285001-.3449012-.0990897-.4815351-.3057626l-.8715387-1.2979811.0246358-.0100033c.3920882-.153825.6826011-.4201405.6827906-.858589-.0001895-.6917406-.5404715-.8521716-1.1698214-.855569-.263603 0-.5042758.0201954-.8057801.0201954-.2941135 0-.5912591-.0186855-.7549924-.0201954v.1060732h.0689802c.155395.0003775.3765487.0260464.3765487.4005113v2.5340546c0 .2000669-.1881796.2910407-.3765487.2914182h-.0689802v.1053183c.2406728-.0009438.4692172-.0196292.7043943-.0196292.2795215 0 .5622647.0186854.8391331.0196292v-.1053183h-.0686012c-.2279759-.0003775-.431695-.0285001-.431695-.4222166v-1.0882883zm0-.1368382h-.0221723v-1.5267369l.0191402-.0015099c.0686012-.0054735.1360654-.0192517.2874808-.0192517.4559517 0 .7529079.2950043.7532869.7496846-.0013266.5952933-.2878599.7976251-.7928937.7978139zm.2448419-.0424671c.4955585-.0049073.7453276-.1760966.7502548-.7553468-.0030321-.4356174-.2745944-.7058964-.710648-.7077838-.1351179 0-.1989815.012457-.262845.0186855v1.4444451z"/><path d="m19.6276962 29.0495188.0087173-.0098146v-1.8693041c0-.4091934-.2844487-.4690247-.4347271-.4690247h-.109724v-.1496727c.2353666 0 .4648585.0198179.7007936.0198179.2058037 0 .4095228-.0198179.616274-.0198179v.1496727h-.0754234c-.2103518 0-.445529.0398246-.445529.6332305v2.268683c0 .1747754.0049272.3491733.029563.503942h-.1895061l-2.5780415-2.8626551v2.0548379c0 .4341074.0845197.5830251.4699752.5830251h.0852777v.1498614c-.2150894 0-.4307474-.0194404-.6458369-.0194404-.2260808 0-.4559517.0194404-.681085.0194404v-.1498614h.0695487c.3456592 0 .4514036-.234418.4514036-.6320981v-2.100891c0-.2789612-.2306289-.4480743-.4557622-.4480743h-.0651901v-.1496727c.1895061 0 .3862135.0198179.5760986.0198179.1487623 0 .2946821-.0198179.4451499-.0198179z"/><path d="m19.9174511 30.1281813-.2056142-.0069834-2.5410878-2.8199994v1.9980265c.0058747.4342961.0718229.5569786.4493191.5616972h.1061234v.1927059h-.0217932c-.216416 0-.431316-.0207616-.6458369-.0207616-.2234277 0-.4548147.0207616-.680327.0207616h-.0223618v-.1927059h.0921c.3306882-.0013212.4254413-.2136564.4286629-.6119027v-2.0995698c-.0005685-.2657492-.2188796-.426369-.4330215-.426369h-.0877414v-.1930834h.0223618c.1912117 0 .387161.0194405.5760986.0194405.1470568 0 .292029-.0194405.4599314-.0130233l2.2009243 2.4679949v-1.8340093c-.0013265-.3959815-.2679617-.4450545-.4135024-.4473194h-.1320858v-.1930834h.0217932c.2365037 0 .4673222.0194405.7013622.0194405.2039087 0 .4089543-.0194405.6153265-.0194405h.0221722v.1930834h-.0966481c-.2065617.0049073-.4193771.0234041-.4243043.6115252v2.268683c0 .1745866.0043587.3474746.029942.5003559l.0024636.0245365zm-.1895062-.0434107h.1641124c-.0219827-.1491065-.0263414-.3155772-.0263414-.4814817v-2.268683c.000379-.598502.2535592-.6539922.4678907-.6553134h.0526827v-.1060732c-.1970864.0015099-.3949308.0196292-.5935333.0196292-.2300604 0-.4531091-.0181193-.679569-.0196292v.1060732h.0884994c.154258.0013212.4574678.0685135.4574678.4911076l-.0072012 1.8849698-.0090963.0096258-.015729.0164206-2.2274552-2.508197c-.1489518 0-.2941135.0196292-.4453394.0196292-.185716 0-.3727586-.0181193-.5546844-.0196292v.1060732h.0439654c.2355561.0013212.4764184.1781728.4764184.4701572v2.0995698c0 .4001338-.1131352.6549359-.4720598.6562571l-.048324-.0003775v.1058845c.2162265-.0015099.4392752-.0198179.6589128-.0198179.2099728 0 .4180505.018308.6249912.0198179v-.105507h-.0634845c-.3939833-.0003775-.4921475-.1717555-.4932845-.6060516v-2.1097619zm-.1008172-1.0352518.0162975-.0143444zm-.0119389-.0098146v-.0013212l-.0036006-.0037748z"/><path d="m21.2138626 29.3194204c-.0504087.1689244-.1108611.2999116-.1108611.3884317 0 .1500502.2109203.1747754.3756011.1747754h.0559044v.1496727c-.2010661-.0107583-.4053537-.0192517-.6067987-.0192517-.1802203 0-.3594931.0084934-.540282.0192517v-.1496727h.0305105c.1948123 0 .3606302-.114944.4349166-.324448l.8010424-2.2879347c.0653796-.1849675.1555846-.4341074.1860951-.6190749.1591851-.0545465.3602511-.1536363.4550042-.2142226.0155395-.005096.0248253-.0101921.0399858-.0101921s.0244463 0 .0354376.0156657c.0147815.0394471.0293735.0843678.044913.1241924l.9215683 2.6082305c.0600735.1740204.1195784.3584217.1836315.5088493.061021.1398581.1661969.1989344.3320147.1989344h.029942v.1496727c-.2255123-.0107583-.4514036-.0192517-.6905604-.0192517-.2454104 0-.496506.0084934-.7517708.0192517v-.1496727h.0551463c.1144617 0 .3109796-.0198179.3109796-.1445766 0-.0643611-.045292-.1991232-.1011963-.3593654l-.1950018-.5781178h-1.1362788zm.7309251-2.2090404h-.0104228l-.4652376 1.4112265h.9354023z"/><path d="m23.880972 30.0536281c-.2249438-.0096259-.4506456-.0207616-.6890444-.0207616-.2454104 0-.4951795.0111357-.7506338.0207616l-.0231197.0011325v-.1947821h.077129c.1159777 0 .2880493-.0258577.2884283-.1219276.0011371-.0568114-.0437759-.1934609-.0989222-.3520045l-.1906432-.5641508h-1.1042522l-.1557741.503942c-.0504086.1694907-.1112401.3012328-.1102925.382392.0017055.1217388.1885586.1517489.3547554.1517489h.0769395v.1947821l-.0227407-.0011325c-.2001185-.0096259-.4044061-.0207616-.6047141-.0207616-.1787043 0-.3596826.0111357-.5389554.0207616l-.0233093.0011325v-.1947821h.0519247c.186095-.0003775.3414901-.106262.4138814-.3087825l.8018005-2.2886897c.0646216-.18459.1555845-.4325974.1987919-.6319093.1571006-.0530366.3585456-.1536363.4546252-.2138451.0140235-.0049073.0278574-.0113245.0479451-.0113245.0123179-.000755.0392278.0024536.0555253.0285001.0142129.040957.0301315.085689.0452919.1258911l.9217579 2.607853c.0589364.1745866.1188203.3587991.1843895.5065844.0579888.1328746.1498993.185345.31079.1857225h.0505982v.1947821zm-1.419022-.0443544c.2476845-.0086822.4908209-.018308.7299776-.018308.2321451 0 .4504561.0096258.6680092.018308v-.1043746h-.0073908c-.1716925.0011325-.2897548-.0660598-.3511548-.2130901-.0651901-.1506164-.1260216-.3357726-.1851475-.5103593l-.9217579-2.6080417c-.0151605-.0398246-.0293734-.0843678-.0424494-.1198513-.0049271-.0049073-.0037901-.0049073-.0077697-.0049073h-.0094753c-.0100438 0-.016108.0030198-.0289945.0062285-.0962691.0622849-.2969561.1606197-.4459079.1995006-.0305105.1889311-.1207154.438071-.185716.6228497l-.8010425 2.2881235c-.0761814.2166762-.2522326.3399249-.4553832.3395474h-.0083383v.1043746c.1716926-.0086822.3449012-.018308.5186783-.018308.1936753 0 .3911407.0096258.5827314.018308v-.1043746h-.0322161c-.1635437-.0022649-.3913301-.0200066-.3970153-.1966695.000379-.098901.061779-.2264908.1108611-.3950377l.0212247.0062285-.0212247-.0067947.1648703-.5328197h1.1673578l.2004975.5920848c.0562833.160431.1017648.2933056.1017648.3661601-.0073907.1526926-.2181215.1640171-.3316357.1668482h-.0333531zm-1.0233331-1.4661506.479261-1.4548259h.0269098v.0220828l-.0053061.0015099.0053061-.0015099v-.0220828h.014971l.4758499 1.4548259zm.0598839-.0435994h.8764659l-.4356746-1.3361071zm.4244937-1.3827265.0115599-.0035861z"/><path d="m24.1025046 26.8010313c-.3754116 0-.3905721.0902188-.4659956.4537366h-.1504678c.0197086-.1396693.0452919-.2791499.0608314-.4237266.0195192-.1402355.029184-.2793386.029184-.4235378h.1210944c.0392278.1496727.1646808.1441992.2997987.1441992h2.5837267c.1345494 0 .2596234-.0049073.2694777-.15458l.1197679.0203842c-.0185716.1341958-.0384697.2689578-.0541988.4039086-.0109913.1345733-.0109913.2687691-.0109913.4033424l-.1495204.0554902c-.0089067-.1842125-.0341111-.4792168-.3702949-.4792168h-.8209406v2.6527736c0 .3846569.1754826.4286339.4153974.4286339h.0957006v.1498614c-.1955703 0-.5453986-.0192517-.8163924-.0192517-.2997987 0-.6511431.0192517-.8463344.0192517v-.1498614h.0953216c.2759209 0 .4155869-.0245365.4155869-.418253v-2.6631545z"/><path d="m26.075074 30.0536281c-.1967074 0-.5476727-.0198179-.8167714-.0198179-.2990407 0-.6496271.0198179-.8457659.0198179h-.0221722v-.1927059h.1173043c.2761104-.0064173.386782-.0100034.3934147-.3967364l-.000379-2.6418266h-.7981999v-.0435995h.8423548v2.6854261c0 .4003225-.1622172.4397696-.4371906.4407133h-.0737179v.1060732c.1978444-.0016986.5342178-.0200066.8243517-.0200066.2617079 0 .5967548.018308.7944097.0200066v-.1060732h-.0735284c-.2412413-.0009437-.4362431-.0586988-.4366221-.4510942v-2.6750452h.8423548c.3363733.0013212.3801493.2855672.3898141.4711009l.1087765-.0398246c0-.1302322.000758-.2606532.0109914-.3910742.0134549-.1285335.0324055-.2561233.0505981-.3833357l-.075613-.0132119c-.0229302.1451428-.1643018.1532588-.2888073.1509938h-2.60931c-.1180623.0013212-.2457895-.0054735-.2912709-.1449541h-.0818667c-.001137.1379707-.0109914.2719777-.0307.4048524-.0136444.1375931-.0377117.269524-.0568518.4006999h.1076395c.0657586-.3478521.1091555-.46072.4841881-.4552465v.0435995c-.3712425.0064172-.3630937.0690797-.4447709.4375047l-.0036006.0169869h-.1932963l.0030321-.0247253c.0210352-.1402356.045671-.2802824.060263-.4239153.0204667-.1394806.0297525-.2778287.0297525-.4207067v-.0220828h.1589956l.0041691.0156656c.0350587.1257024.1262111.1266461.2543173.128911h2.60931c.138529-.0022649.2395358-.0041523.2484425-.1341958l.0007581-.0239703.0233092.0045298.1421296.0222716-.0034111.0220829c-.0206562.1338183-.0396068.2680141-.0547673.4016437-.0102333.1336296-.0102333.2678254-.0102333.4023987v.0150994l-.014592.005851-.1771882.0645499-.000758-.0288776c-.013076-.1876099-.0329741-.4590214-.3494493-.4590214h-.7993369v2.6314457c.0051166.3759748.155016.4023987.3936042.4071173h.1167358v.1927059z"/><path d="m27.155259 29.8824388h.0701173c.1804098 0 .369916-.0245365.369916-.2840572v-2.6121941c0-.2598982-.1895062-.2846234-.369916-.2846234h-.0701173v-.1498614c.1953808 0 .4951795.0198179.740211.0198179.2509061 0 .5514628-.0198179.7872085-.0198179v.1498614h-.0703068c-.1809784 0-.3712425.0247252-.3712425.2846234v2.6121941c0 .2595207.1902641.2840572.3712425.2840572h.0703068v.1498614c-.2404833 0-.5412296-.0192517-.7911882-.0192517-.2457894 0-.5408505.0192517-.7362313.0192517z"/><path d="m28.6826785 30.0536281c-.2419994 0-.5414191-.0207616-.7911882-.0207616-.2450314 0-.540661.0207616-.7362313.0207616h-.0214142v-.1927059h.091721c.1804098-.0030199.3467962-.0188743.3479332-.2625406v-2.6121941c-.001137-.2436663-.1675234-.2598982-.3479332-.2631068h-.091721v-.1930834h.0214142c.1955703 0 .4966956.0194405.740211.0194405.2495796 0 .5499468-.0194405.7872085-.0194405h.0208456v.1930834h-.0909629c-.1832524.0032086-.3479333.0194405-.3496388.2631068v2.6121941c.0017055.2436663.1663864.2595207.3496388.2625406h.0909629v.1927059zm-.0227408-.0430332v-.1056958h-.0473765c-.1796518 0-.3920882-.0313312-.3920882-.3065175v-2.6121941c0-.2757525.2124364-.3065175.3920882-.306895h.0473765v-.1060732c-.2308184.0015099-.5207628.0196292-.7644677.0196292-.2376407 0-.524174-.0181193-.7184178-.0196292v.1060732h.0485136c.1777567.0003775.3911406.0311425.3917092.306895v2.6121941c-.0005686.2751863-.2139525.3065175-.3917092.3065175h-.0485136v.1056958c.1929173-.002265.4760394-.0196292.7144381-.0196292.2427574 0 .5323228.018308.7684474.0196292z"/><path d="m30.6789361 26.4769607c1.0672986 0 1.9179916.6588995 1.9179916 1.7209527 0 1.1469872-.8262467 1.9093175-1.8922187 1.9093175-1.0618029 0-1.8725102-.7181646-1.8725102-1.7904098 0-1.036573.8057801-1.8398604 1.8467373-1.8398604m.075613 3.4107629c.9715979 0 1.1410164-.8533041 1.1410164-1.5803396 0-.7287342-.3945517-1.6109159-1.2261047-1.6109159-.8758973 0-1.1364683.7779959-1.1364683 1.4455776 0 .8923738.4108493 1.7456779 1.2215566 1.7456779"/><path d="m28.8098371 28.3168211c.0020846-1.0486525.8171505-1.8598671 1.8689095-1.8615658v.0435995c-1.0292078 0-1.8253231.7923404-1.8264601 1.8179663.0020845 1.0601657.8010424 1.767572 1.852612 1.7679495 1.0551701-.0003775 1.869478-.7517608 1.8708046-1.8876122-.0009476-1.0488412-.8381857-1.6973599-1.8969565-1.6983036v-.0435995c1.0748788.0011325 1.9377003.6664493 1.9395953 1.7419031-.001137 1.158878-.8372381 1.9291355-1.9134434 1.9310229-1.0708992-.0018874-1.8929768-.7272242-1.8950614-1.8113602m.7011727-.1747754c.0015161-.6709791.2643611-1.4678492 1.1582615-1.4678492.8501245.0018874 1.2465714.9004897 1.2482769 1.6331875-.0017055.7270355-.1733981 1.6007238-1.1628096 1.6007238v-.0422783c.9518893-.000755 1.1173282-.83141 1.1188442-1.5584455 0-.722317-.3905721-1.5878894-1.2043115-1.5892106-.8588418.0009437-1.1125905.759688-1.1148646 1.4238723.000379.8882214.4074382 1.7224626 1.2003319 1.7237838v.0422783c-.8309844-.000755-1.2422127-.8684036-1.2437288-1.7660621"/><path d="m35.970516 29.0495188.0104228-.0098146v-1.8693041c0-.4091934-.2863437-.4690247-.4364326-.4690247h-.108966v-.1496727c.2346086 0 .4654271.0198179.7000357.0198179.2058036 0 .4110388-.0198179.6164634-.0198179v.1496727h-.0752339c-.2097833 0-.4460975.0398246-.4460975.6332305v2.268683c0 .1747754.0053062.3491733.0307.503942h-.1904536l-2.5787996-2.8626551v2.0548379c0 .4341074.0854673.5830251.4701648.5830251h.0858462v.1498614c-.2154684 0-.4303684-.0194404-.6456474-.0194404-.2255123 0-.4559517.0194404-.6812745.0194404v-.1498614h.0703068c.3460382 0 .450456-.234418.450456-.6320981v-2.100891c0-.2789612-.2294919-.4480743-.4559517-.4480743h-.0648111v-.1496727c.1902641 0 .385266.0198179.5759091.0198179.1498994 0 .2943031-.0198179.4451499-.0198179z"/><path d="m36.2615974 30.1281813-.2071302-.0069834-2.5407088-2.8199994v1.9982152c.0058747.4341074.0720124.5562237.4479926.5605648h.1078289v.1936496h-.0212246c-.2167951 0-.431695-.0200067-.645837-.0200067-.2243752 0-.4548147.0200067-.681843.0200067h-.0204667v-.1936496h.0911524c.3299302-.0009437.4250623-.2127127.4290419-.6098265v-2.1007023c-.0001895-.2657492-.2190691-.426369-.4341585-.426369h-.0860358v-.1930834h.0204667c.1919697 0 .387161.0194405.5762881.0194405.1485728 0 .292408-.0194405.4622055-.0117021l2.1997872 2.4666737v-1.8340093c-.0017055-.3959815-.2683407-.4441108-.4144499-.4473194h-.1318963v-.1930834h.0229303c.2351771 0 .4661851.0194405.6994671.0194405.2048562 0 .4091438-.0194405.6172215-.0194405h.0210352v.1930834h-.0966481c-.2063722.0052848-.4193771.024159-.4235462.6115252v2.268683c0 .1745866.0039796.3486071.0282364.5003559l.0043586.0245365zm-.1906431-.0434107h.1641123c-.0212247-.1500502-.0261519-.3155772-.0261519-.4814817v-2.268683c0-.5994457.2528012-.6539922.4677012-.6553134h.0541987v-.1060732c-.1987919.0015099-.3956888.0196292-.5958073.0196292-.2279758 0-.4517826-.0181193-.6784319-.0196292v.1060732h.0879308c.154637.0013212.4568993.0694572.4568993.4911076l-.0053062 1.8849698-.0096648.0096258-.0159185.0164206-2.2280237-2.508197c-.1481938 0-.293924.0196292-.4455289.0196292-.184579 0-.372569-.0181193-.5546844-.0196292v.1060732h.0439654c.2353666.0013212.4771764.1781728.4771764.4701572v2.1007023c0 .3990013-.1118086.6538034-.4720598.6551246l-.049082-.0003775v.1058845c.2173635-.0015099.4402227-.0198179.6602393-.0198179.2088358 0 .416345.018308.6238542.0198179v-.105507h-.0646215c-.3928463-.0003775-.4913895-.1717555-.4913895-.6058629v-2.1107056zm-.1004383-1.0352518.0159185-.0143444zm-.0115599-.0098146v-.0013212l-.0039796-.0037748z"/><path d="m37.5563034 29.3194204c-.0490821.1689244-.1095346.2999116-.1095346.3884317 0 .1500502.2109204.1747754.3750327.1747754h.0559043v.1496727c-.2004975-.0107583-.4059222-.0192517-.6064197-.0192517-.1802203 0-.3602511.0084934-.5397134.0192517v-.1496727h.0284259c.1963283 0 .3621462-.114944.4352956-.324448l.802748-2.2879347c.0646216-.1849675.1552055-.4341074.1840104-.6190749.1608907-.0545465.3606302-.1536363.4570888-.2142226.0140235-.005096.0240673-.0101921.0396068-.0101921.014592 0 .0240673 0 .0343006.0156657.0151605.0394471.0301315.0843678.045292.1241924l.9211893 2.6082305c.0596945.1740204.1201469.3584217.1855265.5088493.0600735.1398581.1650599.1989344.3301197.1989344h.0308895v.1496727c-.2257018-.0107583-.4512141-.0192517-.6916974-.0192517-.2448419 0-.4955585.0084934-.7512023.0192517v-.1496727h.0555253c.1144617 0 .3107901-.0198179.3107901-.1445766 0-.0643611-.044913-.1991232-.1008173-.3593654l-.1951913-.5781178h-1.1362788zm.7320622-2.2090404h-.0100438l-.4667537 1.4112265h.9376764z"/><path d="m40.2237918 30.0536281c-.2257018-.0088709-.4504561-.0200067-.6892339-.0200067-.2442734 0-.4951795.0111358-.7502548.0200067l-.0221722.0011325v-.1938384h.0761815c.1163568 0 .2888073-.0268014.2889969-.1228713.0013265-.0568114-.0439655-.1928947-.1002488-.3520045l-.1898851-.5641508h-1.1051998l-.154637.503942c-.0504087.1708119-.1095346.3012328-.1089661.3820145 0 .1221163.1878006.1530701.3532395.1530701h.0765604v.1938384l-.0225512-.0011325c-.199929-.0088709-.4049746-.0200067-.6043351-.0200067-.1794623 0-.3591141.0111358-.5397134.0200067l-.0217932.0011325v-.1938384h.0502191c.1866635-.0009437.3428166-.1073944.4161555-.3097262l.8006634-2.2886897c.0642426-.18459.154637-.4325974.1986024-.6311544.1572901-.0543578.3583561-.1543912.4557623-.2146.0128864-.0049073.0269099-.0109471.0473765-.0109471.0128864-.0011324.0392278.0020762.0545778.0292551.0151605.0392584.029942.0845566.0462395.1247587l.9206208 2.607853c.060263.1745866.1199574.3587991.184958.5075281.0589364.1319309.1495203.1844013.309653.1857225h.0517352v.1938384zm-1.4192115-.043977c.2476845-.0090596.4911999-.0186854.7299776-.0186854.2327136 0 .4504561.0096258.6689567.018308l-.0005685-.1043746h-.0083383c-.169608.0003775-.2876703-.0660598-.3502073-.2130901-.0659482-.1506164-.1254531-.3357726-.1855265-.509793l-.9211894-2.608608c-.0147814-.0398246-.0307-.0843678-.0424493-.1189076-.0041692-.005851-.0037902-.005851-.0068223-.005851h-.0098543c-.0108018 0-.0162975.0033973-.0282364.0067947-.0979747.0609638-.2982827.1609972-.4460974.1989344-.0310791.1889311-.122042.4376935-.1864741.6228497l-.8018005 2.2881235c-.0761814.2166762-.2510956.3399249-.4559517.3395474h-.0073908v.1043746c.1724506-.0086822.3445222-.018308.5186783-.018308.1938648 0 .3918987.0096258.5842475.018308v-.1043746h-.0339216c-.1627858-.0022649-.3909512-.0194404-.3973944-.197047.0013265-.0985235.062916-.2257358.1119981-.3946602l.0200877.0062285-.0200877-.0067947.1646809-.5328197h1.1669787l.2010661.5920848c.0551462.160431.1008172.2933056.1008172.3661601-.0072012.1526926-.2177425.1640171-.3314462.1668482h-.0337321zm-1.0229541-1.4667167.480777-1.4546372h.0259624v.0220828l-.0056852.0015099.0056852-.0015099v-.0220828h.0151605l.4733863 1.4546372zm.0604524-.0434107h.8758974l-.4354851-1.3353521zm.4254413-1.3827265.0098543-.0035861z"/><path d="m41.4870397 29.5432688c0 .2004444.1390975.2595207.2997987.2802824.2048561.0149106.4303684.0149106.6613764-.0105696.2099728-.0251027.3901931-.1440104.4800191-.2697128.0795925-.1094705.124695-.2491399.155395-.3586104h.1447827c-.0551463.2842459-.1250741.5637733-.1851475.8476418-.4396543 0-.8815826-.0192517-1.3214263-.0192517-.4409808 0-.8812036.0192517-1.3216158.0192517v-.1498614h.0693592c.1805994 0 .3765487-.0245365.3765487-.3336965v-2.5625548c0-.2598982-.1959493-.2848121-.3765487-.2848121h-.0693592v-.1496727c.2649296 0 .52569.0198179.7906196.0198179.2558333 0 .5056024-.0198179.7616252-.0198179v.1496727h-.1258321c-.1902642 0-.339595.0052847-.339595.269524z"/><path d="m43.0434536 30.0536281c-.4415493 0-.8825301-.0200067-1.3216158-.0200067-.4404123 0-.8810141.0200067-1.3225634.0200067h-.0210351v-.1927059h.0913419c.1809784-.0043411.3528605-.0169868.354945-.3121799v-2.5634985c-.0020845-.2427226-.1732086-.2589545-.354945-.2621631h-.0913419v-.1930834h.0210351c.2666352 0 .5272061.0194405.7911882.0194405.2548857 0 .5042758-.0194405.7620042-.0194405h.0200876v.1930834h-.1459197c-.1942438.0049073-.3147697-.0037748-.3191284.2478187v2.5723694c.0013266.1864774.1239371.2363054.2804691.258577.0881204.0060398.1813574.0092484.2776265.0092484.122421 0 .2495796-.0056623.3790123-.0192517.2039086-.024159.3793913-.1415568.4659956-.2604645.0773185-.1066394.1209049-.2432888.1512259-.3518157l.0041691-.0164206h.1887481l-.0043586.0262352c-.0566623.285001-.1256426.5632072-.1862845.8474531l-.0039797.0167981zm-.0183821-.0430332c.0579889-.2708453.1233685-.5356508.1775672-.8046087h-.1032808c-.0307.1085269-.0754234.2423452-.153879.3508721-.093616.1290997-.278953.2510273-.4961271.2778287-.1309487.013212-.2611394.0200067-.3837499.0200067-.0970271 0-.1906432-.0043411-.2817956-.0107583-.1627858-.0177418-.3202654-.0873877-.3200759-.3006666v-2.5723694c0-.2772625.1760512-.2916069.3629043-.2916069h.1030913v-.1060732c-.2465475.0015099-.4900629.0201954-.7392634.0201954-.2586759 0-.5124246-.0186855-.7686369-.0201954v.1060732h.0477555c.1785148 0 .3970154.0311425.3970154.3059513v2.5634985c0 .3227494-.2175531.3561568-.3970154.3561568h-.0477555v.1056958c.432453-.0009438.865285-.0196292 1.3000121-.0196292.4352956 0 .8698332.0186854 1.3032337.0196292z"/><path d="m43.1673906 26.4103347c.3020728 0 .5273956.2310206.5273956.5262136 0 .2950043-.2253228.5235713-.5273956.5235713-.3013148 0-.5270166-.228567-.5270166-.5235713 0-.295193.2257018-.5262136.5270166-.5262136zm0 .9522051c.2365037 0 .417103-.2002556.417103-.4259915 0-.2261133-.1785148-.4278789-.417103-.4278789-.2372617 0-.4176715.2017656-.4176715.4278789 0 .2257359.1804098.4259915.4176715.4259915zm-.262087-.1491065v-.0254802c.0644321-.0092484.0765605-.0075497.0765605-.0468081v-.3891867c0-.0547353-.0054957-.0736095-.0744759-.0705896v-.0268014h.2698567c.0926685 0 .1781358.0441657.1781358.1396693 0 .0779506-.0515457.1358945-.1246951.1583548l.0867939.1204176c.0403648.0543578.0864148.1056957.1159777.123815v.0166093h-.1025228c-.0492716 0-.092858-.1030533-.1895061-.2414014h-.0583679v.1740204c0 .0343511.0121284.0326524.0769395.0419008v.0254802zm.1777568-.276885h.062158c.0680327 0 .0994907-.0511492.0994907-.1340071 0-.0834241-.0485136-.1130566-.1029018-.1130566h-.0587469z"/></g><path d="m11.8977408 8.94827056c0-4.66401204 3.796187-8.44489866 8.4788837-8.44489866 4.6828861 0 8.4790731 3.78088662 8.4790731 8.44489866s-3.796187 8.44508744-8.4790731 8.44508744c-4.6826967 0-8.4788837-3.7810754-8.4788837-8.44508744" fill="#fffffe"/><path d="m25.504471 8.78198856c-.0034111-2.16260977-1.360654-4.00699995-3.27315-4.73743282v9.47448816c1.912496-.7313766 3.2697389-2.5740681 3.27315-4.73705534zm-6.9215221 4.73516794v-9.47165704c-1.9107904.73269777-3.2659488 2.57444556-3.2710655 4.7364891.0051167 2.16147734 1.3602751 4.00303634 3.2710655 4.73516794zm1.8251336-12.74331682c-4.4405078.00169868-8.0380924 3.58553829-8.0388504 8.00814888.000758 4.42204434 3.5983426 8.00531774 8.0388504 8.00607274 4.4405078-.000755 8.0388503-3.5840284 8.0399874-8.00607274-.0011371-4.42261059-3.5994796-8.0064502-8.0399874-8.00814888zm-.0197087 16.76994592c-4.8591268.0230266-8.8584644-3.8977181-8.8584644-8.67044575 0-5.21608339 3.9993376-8.82389328 8.8584644-8.82294957h2.2771058c4.8017065-.00094371 9.1840359 3.6051675 9.1840359 8.82294957 0 4.77102895-4.3823294 8.67044575-9.1840359 8.67044575z" fill="#0069aa"/></g></g></svg>