<svg height="40" viewBox="0 0 56 40" width="56" xmlns="http://www.w3.org/2000/svg"><g fill="none" fill-rule="evenodd"><rect fill="#f3f3f3" height="40" rx="2" width="56"/><g transform="translate(1 1)"><rect fill="#f3f3f3" height="38" rx="1" width="54"/><path d="m9 38h43.8c.6627417 0 1.2-.5372583 1.2-1.2v-12.4686829s-15.8928325 9.442614-45 13.6686829z" fill="#e6772f"/><g fill="#1a1919"><path d="m8.66238522 20.6665472c-.43720531.3703237-.99377286.5322592-1.88378816.5322592h-.36931118v-4.4192312h.36931118c.8900153 0 1.42522906.1510361 1.88378816.5397851.47334249.4017247.75778602 1.0214396.75778602 1.6624344 0 .644109-.28444353 1.2858824-.75778602 1.6847525zm-1.60810517-5.0189637h-2.02067146v6.6837336h2.00835197c1.0687849 0 1.84025926-.2410867 2.51646282-.7730864.80323132-.6300954 1.27985902-1.5814667 1.27985902-2.5670935 0-1.9730704-1.55499448-3.3435537-3.78400235-3.3435537z"/><path d="m11.4725996 15.6475835h1.370202v6.6837336h-1.370202z"/><path d="m16.2076672 18.2092273c-.827049-.2875394-1.0687849-.4790593-1.0687849-.8403001 0-.4198906.4320037-.7383119 1.0260773-.7383119.411745 0 .7509419.1562263 1.1123138.5379685l.7153522-.8896074c-.5910621-.4930729-1.2984751-.7427236-2.0696757-.7427236-1.2478283 0-2.1988935.8229129-2.1988935 1.911047 0 .923863.4421331 1.3925418 1.7323952 1.837605.5393202.1777658.8133606.2992175.9521603.3814828.2748617.1684233.411745.4097696.411745.6887451 0 .5436778-.4544526.9433264-1.0687849.9433264-.6540285 0-1.1832194-.3103765-1.4999673-.8932406l-.8864564.8138299c.6337698.8802649 1.3934721 1.2736853 2.440082 1.2736853 1.4274191 0 2.4332377-.9059567 2.4332377-2.1962508 0-1.063221-.4664983-1.5451349-2.0308008-2.0872556"/><path d="m18.6704718 18.9911372c0 1.9655445 1.6275426 3.4886209 3.7226786 3.4886209.5907883 0 1.0972566-.1105522 1.720897-.3895277v-1.536052c-.5510923.524993-1.0348379.7320836-1.6606684.7320836-1.3844378 0-2.3650699-.9495547-2.3650699-2.3044673 0-1.2801731 1.012389-2.2943463 2.3048413-2.2943463.6521121 0 1.1503673.2190282 1.720897.7518065v-1.5342354c-.6025604-.2888369-1.0969829-.408472-1.6926991-.408472-2.0830902 0-3.7508765 1.5529203-3.7508765 3.4945897"/><path d="m35.2541589 20.1348069-1.8802292-4.4872234h-1.499146l2.988984 6.8524165h.7372535l3.0470226-6.8524165h-1.4873741z"/><path d="m39.2719579 22.3313171h3.8992581v-1.1325107h-2.5235808v-1.8041279h2.4277625v-1.1322513h-2.4277625v-1.482852h2.5235808v-1.1319917h-3.8992581z"/><path d="m45.8568666 18.7209851h-.3991518v-2.0215991h.4216006c.8590797 0 1.3192814.3417774 1.3192814.9928932 0 .6690221-.4602017 1.0287059-1.3417302 1.0287059zm2.7576512-1.1013693c0-1.2516267-.90562-1.9720323-2.4931927-1.9720323h-2.042299v6.6837336h1.3786887v-2.6872475h.1787696l1.8996667 2.6872475h1.6916039l-2.2183309-2.8170036c1.0367542-.2008623 1.6050937-.8719606 1.6050937-1.8946977z"/></g><path d="m32.0686105 19.0067079c0 1.9242821-1.6447899 3.4839497-3.6755908 3.4839497-2.0302533 0-3.6753169-1.5596676-3.6753169-3.4839497 0-1.9245416 1.6450636-3.4844687 3.6753169-3.4844687 2.0308009 0 3.6755908 1.5599271 3.6755908 3.4844687" fill="#e6772f"/></g></g></svg>