<svg height="40" viewBox="0 0 56 40" width="56" xmlns="http://www.w3.org/2000/svg" xmlns:xlink="http://www.w3.org/1999/xlink"><mask id="a" fill="#fff"><path d="m.0026888.10034189h47.9205311v29.27851981h-47.9205311z" fill="#fff" fill-rule="evenodd"/></mask><g fill="none" fill-rule="evenodd"><rect fill="#f3f3f3" height="40" rx="2" width="56"/><g transform="translate(4 5)"><path d="m14.4383402.403943c-7.80129456 0-14.1483485 6.43612143-14.1483485 14.3471221 0 7.9118087 6.34705394 14.3485361 14.1483485 14.3485361h19.0538092c7.8002987 0 14.1464564-6.4367274 14.1464564-14.3485361 0-7.91100067-6.3461577-14.3471221-14.1464564-14.3471221z" fill="#fefefe"/><path d="m14.4383402.3918232c-7.80129456 0-14.1483485 6.43612143-14.1483485 14.3471221 0 7.9118087 6.34705394 14.3485361 14.1483485 14.3485361h19.0538092c7.8002987 0 14.1464564-6.4367274 14.1464564-14.3485361 0-7.91100067-6.3461577-14.3471221-14.1464564-14.3471221zm19.0538092 28.9870385h-19.0538092c-7.95983398 0-14.4356514-6.5674193-14.4356514-14.6399164 0-8.07168909 6.47581742-14.63860341 14.4356514-14.63860341h19.0538092c7.9588382 0 14.4337593 6.56691432 14.4337593 14.63860341 0 8.0724971-6.4749211 14.6399164-14.4337593 14.6399164z" fill="#fefefe" mask="url(#a)" transform="translate(0 .01212)"/><g fill="#db0e19"><path d="m36.8229012 13.8749951 6.336 7.642143c1.3122324-1.923312 2.0829212-4.2546575 2.0829212-6.7659821 0-2.6505003-.8586224-5.10173088-2.3074855-7.083016z"/><path d="m18.8686506 7.02304319c4.7315851 0 8.2967303 1.22096935 8.6637013 5.26413631l4.9796514-5.2647423h9.9155851c-2.1570125-2.5605108-5.3624564-4.18708963-8.9354689-4.18708963h-19.0538091c-3.5743071 0-6.78034857 1.62657883-8.93746061 4.18769562z"/><path d="m11.0727734 12.120007-1.68965971 4.7115741h6.81709541c2.0153029 0 2.6250623-.8461643 3.076083-2.4751671.4463403-1.6112271-.6747884-2.236407-2.0520498-2.236407z"/><path d="m32.5533809 22.160417-5.266556-6.7502264c-.9742407 4.602395-4.1618589 6.7494184-10.1374606 6.7494184h-11.90907882c2.15442323 2.7456408 5.47668052 4.5092744 9.19797512 4.5092744h19.0539087c3.72 0 7.0415602-1.7629266 9.196083-4.5084664z"/></g></g></g></svg>