<svg height="40" viewBox="0 0 56 40" width="56" xmlns="http://www.w3.org/2000/svg"><g fill="none" fill-rule="evenodd"><rect fill="#f3f3f3" height="40" rx="2" width="56"/><g fill="#000" transform="translate(5 15)"><path d="m8.44503311 0h-2.3629139c0 2.03401681-.89006623 3.89019608-2.4370861 5.11282913l-.93245033.73357983 3.62384106 5.17951824h2.97748344l-3.33774834-4.76826894c1.57880795-1.6449972 2.46887417-3.86796638 2.46887417-6.25765826z"/><path d="m0 11.0259272h2.41589404v-11.0259272h-2.41589404z"/><path d="m10.013245 11.0259272h2.2781457v-11.0259272h-2.2781457z"/><path d="m32.2754967 3.18996078c-.8688742 0-1.6953642.27787115-2.2463576 1.06702521v-.85584313h-2.1615894v7.62478434h2.1933775v-4.00134457c0-1.15594397.7417218-1.72280112 1.631788-1.72280112.9536424 0 1.5046358.60020168 1.5046358 1.71168628v4.02357421h2.1721854v-4.85718766c0-1.77837535-1.3456953-2.98989356-3.0940397-2.98989356z"/><path d="m19.1788079 3.40114286v.48905322c-.6145695-.44459384-1.3562913-.7002353-2.1615894-.7002353-2.1192053 0-3.8357615 1.80060505-3.8357615 4.02357423 0 2.22296919 1.7165562 4.02357419 3.8357615 4.02357419.8052981 0 1.5470199-.2556414 2.1615894-.7002353v.4890533h2.1721855v-7.62478434zm-1.9814569 5.76860504c-1.0913907 0-1.9708609-.87807283-1.9708609-1.95621289 0-1.07814005.8794702-1.95621288 1.9708609-1.95621288s1.9708609.87807283 1.9708609 1.95621288c0 1.07814006-.8794702 1.95621289-1.9708609 1.95621289z"/><path d="m24.7205298 4.39036415v-.98922129h-2.2251656v7.62478434h2.2357616v-3.55675073c0-1.20040336 1.2397351-1.84506443 2.0980133-1.84506443h.021192v-2.22296918c-.8794702 0-1.6953642.40013445-2.1298013.98922129z"/><path d="m42.1298013 3.40114286v.48905322c-.6145695-.44459384-1.3562914-.7002353-2.1615894-.7002353-2.1192053 0-3.8357616 1.80060505-3.8357616 4.02357423 0 2.22296919 1.7165563 4.02357419 3.8357616 4.02357419.805298 0 1.5470199-.2556414 2.1615894-.7002353v.4890533h2.1721855v-7.62478434zm-1.9814569 5.76860504c-1.0913908 0-1.970861-.87807283-1.970861-1.95621289 0-1.07814005.8794702-1.95621288 1.970861-1.95621288 1.0913907 0 1.9708609.87807283 1.9708609 1.95621288.010596 1.07814006-.8794702 1.95621289-1.9708609 1.95621289z"/><path d="m45.986755 3.62343978c0-.11114846-.0741722-.17783754-.1907285-.17783754h-.2013245v.57797199h.0953642v-.21118207h.1059603l.0847682.21118207h.1059603l-.0953643-.23341177c.0635762-.03334453.0953643-.08891876.0953643-.16672268zm-.1907285.10997847h-.1059603v-.19889724h.1059603c.0635761 0 .0953642.03729323.0953642.09944862s-.021192.09944862-.0953642.09944862z"/><path d="m45.7642384 3.20107563c-.2860927 0-.5192053.24452661-.5192053.54462745.010596.30010084.2331126.54462745.5192053.54462745s.5192053-.24452661.5192053-.54462745-.2331126-.54462745-.5192053-.54462745zm0 .98922129c-.2331126 0-.413245-.20006723-.413245-.44459384s.1907285-.44459384.413245-.44459384c.2331126 0 .413245.20006723.413245.44459384s-.1907284.44459384-.413245.44459384z"/><path d="m46.6225166 8.32501961c-.7523179 0-1.3668875.64466106-1.3668875 1.43381512 0 .78915407.6145696 1.43381517 1.3668875 1.43381517.7523178 0 1.3668874-.6446611 1.3668874-1.43381517 0-.8002689-.6145696-1.43381512-1.3668874-1.43381512z"/></g></g></svg>