<svg height="40" viewBox="0 0 56 40" width="56" xmlns="http://www.w3.org/2000/svg"><g fill="none" fill-rule="evenodd"><rect fill="#f3f3f3" height="40" rx="2" width="56"/><g fill-rule="nonzero" transform="translate(7 3)"><path d="m12.8564762 32.5260586v-2.1362473c.024935-.3625047-.1057515-.7183166-.3587051-.9766238-.2529536-.2583073-.6037012-.394119-.9627235-.3727725-.4743632-.0314214-.9280553.2005096-1.184.6052701-.2333481-.3926923-.66061619-.6249393-1.11352379-.6052701-.3943434-.0201423-.7697545.1722224-.98666667.5055786v-.4201287h-.73295238v3.4001937h.74v-1.883458c-.0332024-.2359357.0402377-.4744629.20004576-.6497316.15980805-.1752687.38908175-.2687414.62452567-.2546132.48628571 0 .73295238.3204371.73295238.8972239v1.8905789h.74000003v-1.883458c-.0305622-.2353992.0437908-.4723694.2030001-.6469815.1592094-.1746121.3868726-.2688766.6215713-.2573633.500381 0 .74.3204371.74.8972239v1.8905789zm4.1228571-1.6983166v-1.6983167h-.74v.4130079c-.2521409-.3287612-.6458038-.5143788-1.0571428-.4984577-.9730732 0-1.7619048.7970254-1.7619048 1.7802061s.7888316 1.7802061 1.7619048 1.7802061c.411339.0159211.8050019-.1696965 1.0571428-.4984577v.4130078h.7329524zm-2.7239047 0c.0325934-.5587467.5012414-.9886879 1.0548138-.9676942.5535723.0209936.9890035.4852211.9800508 1.0448643s-.4590052 1.0094097-1.0129599 1.012316c-.283612.0067207-.5568931-.1076452-.7527423-.3150163-.1958491-.207371-.2961265-.4885403-.27621-.7744698zm18.3837143-1.7802061c.2413016-.0006301.4805039.0452904.7047619.1352956.2140576.0866136.4092071.2148388.5743809.3774037.1630387.1610973.2924473.3535944.3805714.5661056.1841043.4564993.1841043.9676656 0 1.4241649-.0880396.2125574-.2174589.4050706-.3805714.5661055-.1651738.1625649-.3603233.2907902-.5743809.3774037-.4646639.1824315-.9800981.1824315-1.4447619 0-.2130593-.0865276-.4070699-.2147914-.5708572-.3774037-.1614808-.1616659-.2896342-.3540777-.3770476-.5661055-.18373-.4565733-.18373-.9675916 0-1.4241649.0874134-.2120278.2155668-.4044396.3770476-.5661056.1637873-.1626122.3577979-.2908761.5708572-.3774037.2323166-.0972962.4814706-.1469184.7329523-.14599zm0 .7120824c-.1435134-.0019778-.2860058.0246389-.4193334.0783291-.1255825.0508747-.2395137.1272139-.3347619.224306-.0971683.1022115-.1727048.2233562-.222.3560412-.1076502.2842786-.1076502.5987036 0 .8829822.0492061.1327296.1247534.2538916.222.3560412.0951844.0971707.2091326.1735213.3347619.224306.2684573.1062122.5666856.1062122.8351429 0 .1316362-.049163.251659-.1255628.3523809-.224306.0974049-.1020244.1729741-.2232214.222-.3560412.1076503-.2842786.1076503-.5987036 0-.8829822-.0490259-.1328198-.1245951-.2540168-.222-.3560412-.1007219-.0987432-.2207447-.175143-.3523809-.224306-.1329299-.0614858-.2767225-.0953859-.4228572-.0996916zm-11.6779048 1.0681237c0-1.0681237-.6554286-1.7802061-1.5962857-1.7802061-.9730731.0137646-1.750861.8219483-1.737238 1.805129.013623.9831806.8134982 1.7690477 1.7865713 1.7552832.5016723.0173186.9921085-.1525052 1.3778095-.4770952l-.3523809-.5483035c-.2782534.2254733-.6229737.3507614-.9796191.3560412-.5037756.0437753-.9505193-.3255389-1.0078095-.8331365h2.498381c.0105714-.0890103.0105714-.1780206.0105714-.2777121zm-2.5054286-.2990746c.0282842-.4697075.4188524-.8328884.8844762-.8224553.2215077-.0047715.4358142.0795858.595749.2345044.1599348.1549185.252389.3677006.2570129.5915113zm5.5887619-.5340619c-.3218051-.1872223-.6858256-.2877547-1.0571428-.2919538-.4017143 0-.6413334.1495373-.6413334.3987662 0 .2492288.2537143.2919538.5708572.3346787l.3523809.0498458c.7329524.1068124 1.1769524.4201287 1.1769524 1.0182779 0 .5981493-.5638095 1.1108486-1.5328571 1.1108486-.5193676.013959-1.0294699-.140786-1.4553334-.4414911l.352381-.5767868c.3233811.2424035.7180828.3678128 1.1205714.3560413.500381 0 .7681905-.1495373.7681905-.4130079 0-.1922622-.1902857-.2990746-.592-.3560412l-.352381-.0498458c-.7540952-.1068123-1.1628571-.4486119-1.1628571-1.0040362 0-.6764783.5497143-1.0894862 1.4095238-1.0894862.4812259-.0162907.9569725.1072796 1.3707619.3560413zm3.5238096-.1922622h-1.1945715v1.5345376c0 .3560413.1198095.569666.4862857.569666.2287414-.0076539.451824-.0738039.648381-.1922623l.2114286.6337534c-.2747488.1732418-.5923318.2645697-.9161905.2634803-.8668572 0-1.1699048-.4699842-1.1699048-1.2603957v-1.5487793h-.683619v-.6764784h.683619v-1.0325195h.74v1.0325195h1.1945715zm2.533619-.7619283c.1777841.0006941.3541506.0319993.5215238.0925708l-.2255238.7120824c-.1456433-.0586712-.3013187-.0877098-.4580952-.0854499-.4792381 0-.7047619.3133163-.7047619.8758614v1.9048206h-.7329524v-3.4001937h.7259047v.4130078c.1832321-.3180149.5239614-.5092752.888-.4984577zm5.0672381 2.9907463c.0458141-.0005671.0912979.0078985.1339048.0249229.0404684.0166856.0775113.0408325.1092381.0712083.0309634.0306983.0560506.0669095.074.1068123.0360701.0840426.0360701.179428 0 .2634705-.0179494.0399029-.0430366.076114-.074.1068124-.0317268.0303758-.0687697.0545227-.1092381.0712083-.0421863.0188079-.0877943.0285093-.1339048.0284833-.1363539-.0010385-.2598765-.0814688-.3171429-.206504-.0356524-.0841296-.0356524-.1793409 0-.2634705.0179494-.0399028.0430366-.076114.074-.1068123.0317268-.0303758.0687697-.0545227.1092381-.0712083.0370854-.0149013.0764067-.0233288.1162857-.0249229zm0 .6017144c.0351709.0002112.0699918-.007068.1021905-.0213672.0303176-.0136764.0578131-.0330024.0810476-.0569666.0606771-.0617451.0872697-.1497773.071059-.2352335-.0162108-.0854563-.0731341-.157315-.1521066-.1920159-.0322305-.0141985-.06703-.0214731-.1021905-.0213637-.0351302.0001888-.0698708.0074511-.1021905.0213637-.0316598.0131165-.0604114.0324834-.0845714.0569666-.0913713.1007266-.0913713.2553146 0 .3560412.0492924.0504283.1166147.0786637.1867619.0783291zm.0211429-.4236938c.0328952-.0016118.0653105.0084658.091619.0284833.0218837.0182991.0336917.0461372.0317143.0747687.0010229.02391-.0079249.0471577-.0246667.0640874-.0204246.0187442-.0464802.0300268-.074.0320437l.1021905.1174936h-.0810476l-.0951429-.1174936h-.0317143v.1174936h-.0669523v-.3275579zm-.0775239.0605271v.0854499h.0775239c.0137952.0041556.0284905.0041556.0422857 0 .0050259-.0100777.0050259-.0219661 0-.0320438.0050259-.0100776.0050259-.021966 0-.0320437-.0137952-.0041556-.0284905-.0041556-.0422857 0z" fill="#000"/><path d="m15.411238 3.184701h11.1v20.155494h-11.1z" fill="#7673c0"/><path d="m16.116 13.2642283c-.0041501-3.93372422 1.7826402-7.65077611 4.8452381-10.07952709-5.2012167-4.13005978-12.67037257-3.52848086-17.15834551 1.38196327s-4.48797294 12.48112312 0 17.39156722c4.48797294 4.9104442 11.95712881 5.5120231 17.15834551 1.3819633-3.0616236-2.4279799-4.8483048-6.1434919-4.8452381-10.0759667z" fill="#eb001b"/><g fill="#00a1df"><path d="m40.2752381 21.5464254v-.6727484h.165619v-.1441603h-.4193333v.1441603h.1656191v.6967751zm.814 0v-.8409355h-.1268571l-.148.6006682-.148-.6006682h-.130381v.8409355h.091619v-.6307016l.1374286.5466081h.0951429l.1374285-.5466081v.6367083z"/><path d="m41.4839048 13.2642283c-.0011732 4.9061299-2.7739915 9.3811579-7.141373 11.5254012s-9.5630066 1.5814638-13.3812937-1.4494345c3.0602877-2.4300412 4.8471034-6.1450592 4.8471034-10.0777469 0-3.93268771-1.7868157-7.64770564-4.8471034-10.07774689 3.8182554-3.03307775 9.0153459-3.59713343 13.3840471-1.45261042 4.3687012 2.14452302 7.1421434 6.62112547 7.1421434 11.52857711z"/></g></g></g></svg>