<svg height="40" viewBox="0 0 56 40" width="56" xmlns="http://www.w3.org/2000/svg"><g fill="none" fill-rule="evenodd"><rect fill="#f3f3f3" height="40" rx="2" width="56"/><g fill-rule="nonzero" transform="translate(7 3)"><path d="m7.90904762 32.5331795v-2.1362474c.02492746-.3634486-.10613296-.7201613-.35974532-.979134-.25361235-.2589727-.60525125-.3951617-.96520706-.3738226-.47436321-.0314215-.92805532.2005095-1.184.60527-.23334811-.3926923-.66061621-.6249393-1.11352381-.60527-.3943434-.0201424-.7697545.1722223-.98666667.5055785v-.4201287h-.73295238v3.4037542h.74v-1.8727769c-.03186991-.2356672.04203117-.4734076.20153627-.6483441.15950509-.1749364.38796507-.268809.62303516-.2560006.48628571 0 .73295238.3204371.73295238.8972239v1.8941393h.74v-1.8870185c-.03056215-.2353992.04379081-.4723693.20300017-.6469814s.38687254-.2688767.62157126-.2573633c.50038095 0 .74.3204371.74.8972239v1.8941393zm10.94847618-3.4037542h-1.2051428v-1.0325195h-.74v1.0325195h-.6695239v.6764784h.6836191v1.5665814c0 .7904115.3030476 1.2603957 1.1699048 1.2603957.3238587.0010894.6414417-.0902385.9161904-.2634803l-.2114285-.6337534c-.196557.1184584-.4196397.1846083-.648381.1922623-.3523809 0-.4862857-.2278664-.4862857-.569666v-1.5523397h1.1980952zm6.2512381-.0854498c-.3640386-.0108175-.7047679.1804428-.888.4984577v-.4130079h-.7259048v3.4037542h.7329524v-1.908381c0-.5625451.2396191-.8758614.7047619-.8758614.1567687-.0021667.3124263.0268686.4580953.0854499l.2255238-.7120825c-.1673909-.0605042-.3437459-.0918073-.5215238-.0925707zm-9.4508571.3560412c-.4148846-.2492371-.8918939-.3728176-1.3742858-.3560412-.8527619 0-1.4095238.4130078-1.4095238 1.0894861 0 .5554243.4087619.8972239 1.1628572 1.0040363l.3523809.0498457c.4017143.0569666.592.163779.592.3560413 0 .2634705-.2678095.4130078-.7681904.4130078-.4024887.0117715-.7971903-.1136378-1.1205715-.3560412l-.3523809.5767867c.4269496.3012076.9383276.4559649 1.4588571.4414912.9725714 0 1.536381-.4628536 1.536381-1.1108487 0-.647995-.444-.9114655-1.1769524-1.0182779l-.352381-.0498457c-.3171428-.042725-.5708571-.1068124-.5708571-.3346788s.239619-.3987662.6413333-.3987662c.3712952.004358.7352767.1048797 1.0571429.2919538zm19.6311428-.3560412c-.3640386-.0108175-.7047679.1804428-.888.4984577v-.4130079h-.7259047v3.4037542h.7329523v-1.908381c0-.5625451.2396191-.8758614.7047619-.8758614.1567687-.0021667.3124263.0268686.4580953.0854499l.2255238-.7120825c-.1673908-.0605042-.3437459-.0918073-.5215238-.0925707zm-9.4438095 1.7802061c-.0176269.4836588.1672769.9524325.5093257 1.2912577s.8095734.5163314 1.2878172.4889484c.440081.0226228.8725777-.1221933 1.2121904-.405887l-.3523809-.5981492c-.2533722.1952213-.5623356.3026087-.8809524.3061954-.5618007-.0459281-.9945641-.5199949-.9945641-1.0894861 0-.5694913.4327634-1.043558.9945641-1.0894862.3186168.0035867.6275802.1109741.8809524.3061955l.3523809-.5981493c-.3396127-.2836936-.7721094-.4285098-1.2121904-.405887-.4782438-.027383-.9457684.1501232-1.2878172.4889484s-.5269526.8075989-.5093257 1.2912577zm6.8643809 0v-1.6947563h-.7329523v.4130079c-.252515-.3282878-.6459227-.5137851-1.0571429-.4984577-.9730731 0-1.7619048.7970254-1.7619048 1.7802061s.7888317 1.7802061 1.7619048 1.7802061c.4112202.0153273.8046279-.1701699 1.0571429-.4984577v.4130078h.7329523zm-2.7274285 0c.0325935-.5587467.5012414-.9886879 1.0548138-.9676942.5535723.0209936.9890035.4852211.9800508 1.0448643s-.4590052 1.0094096-1.0129599 1.012316c-.2820671.0036061-.5528066-.1119828-.7468495-.3188582-.1940428-.2068754-.2937527-.4862348-.2750552-.7706279zm-8.8447619-1.7802061c-.9730732.0137645-1.7508611.8219483-1.7372381 1.805129s.8134983 1.7690477 1.7865714 1.7552832c.5069844.0262933 1.0055562-.1386629 1.3989524-.4628536l-.352381-.5483035c-.2782534.2254733-.6229736.3507615-.979619.3560413-.5037757.0437753-.9505193-.325539-1.0078095-.8331365h2.5019047c0-.0925707 0-.1851415 0-.284833 0-1.0681237-.6554285-1.7802061-1.5998095-1.7802061zm0 .6622366c.2215077-.0047715.4358141.0795858.5957489.2345044.1599348.1549185.2523891.3677006.257013.5915113h-1.7619048c.0265443-.475378.4240828-.8422557.8950476-.8260157zm18.3625714 1.1250903v-3.0690754h-.7047619v1.7802062c-.252515-.3282878-.6459226-.5137851-1.0571429-.4984577-.9730731 0-1.7619047.7970254-1.7619047 1.7802061s.7888316 1.7802061 1.7619047 1.7802061c.4112203.0153273.8046279-.1701699 1.0571429-.4984577v.4130078h.7047619zm1.2227619 1.2069798c.0458141-.0005672.0912979.0078985.1339048.0249228.0404684.0166856.0775113.0408325.1092381.0712083.0309634.0306984.0560506.0669095.074.1068124.0360701.0840425.0360701.1794279 0 .2634705-.0179494.0399028-.0430366.076114-.074.1068123-.0317268.0303758-.0687697.0545227-.1092381.0712083-.0421863.0188079-.0877943.0285094-.1339048.0284833-.1363539-.0010385-.2598765-.0814687-.3171429-.2065039-.0356524-.0841296-.0356524-.1793409 0-.2634705.0179494-.0399029.0430366-.076114.074-.1068124.0317268-.0303758.0687697-.0545227.1092381-.0712083.0458976-.018447.0951209-.0269383.1444762-.0249228zm0 .6017096c.035171.0002159.0699918-.0070632.1021905-.0213624.0303176-.0136765.0578131-.0330025.0810476-.0569666.0913713-.1007266.0913713-.2553147 0-.3560413-.0231791-.0240302-.0506879-.0433656-.0810476-.0569666-.0322305-.0141984-.06703-.0214731-.1021905-.0213637-.0351302.0001888-.0698708.0074512-.1021905.0213637-.0316598.0131166-.0604114.0324835-.0845714.0569666-.0913713.1007266-.0913713.2553147 0 .3560413.0242193.02441.0529556.0437665.0845714.0569666.0355517.0154906.0740711.022788.1127619.0213624zm.0211429-.423689c.0328952-.0016119.0653106.0084657.091619.0284833.0218837.0182991.0336917.0461371.0317143.0747686.0010229.02391-.0079249.0471577-.0246667.0640874-.0204246.0187442-.0464802.0300268-.074.0320438l.1021905.1174936h-.0810476l-.0951429-.1174936h-.0317143v.1174936h-.0669523v-.3133163zm-.0775238.060527v.0854499h.0775238c.0137952.0041556.0284905.0041556.0422857 0 .0050259-.0100777.0050259-.0219661 0-.0320437.0050259-.0100777.0050259-.0219661 0-.0320437-.0137952-.0041557-.0284905-.0041557-.0422857 0zm-3.8761905-1.4455274c.0325935-.5587467.5012414-.9886879 1.0548138-.9676942.5535723.0209936.9890035.4852211.9800508 1.0448643s-.4590052 1.0094097-1.0129599 1.0123161c-.2820671.003606-.5528066-.1119829-.7468495-.3188583-.1940428-.2068754-.2937527-.4862348-.2750552-.7706279zm-24.7477143 0v-1.7018771h-.7329524v.4130079c-.252515-.3282878-.6459226-.5137851-1.0571428-.4984577-.97307318 0-1.76190481.7970254-1.76190481 1.7802061s.78883163 1.7802061 1.76190481 1.7802061c.4112202.0153273.8046278-.1701699 1.0571428-.4984577v.4130078h.7329524zm-2.72742858 0c.03259348-.5587467.50124143-.9886879 1.05481378-.9676942.5535724.0209936.9890036.4852211.9800509 1.0448643s-.4590052 1.0094097-1.0129599 1.0123161c-.2832828.0056191-.55590709-.1090886-.75151277-.3162019-.19560569-.2071132-.29625174-.4876356-.27743963-.7732843z" fill="#231f20"/><path d="m15.4147619 3.19182204h11.1v20.15549376h-11.1z" fill="#ff5f00"/><path d="m16.1195238 13.2713491c-.0041501-3.9337242 1.7826402-7.65077608 4.8452381-10.07952706-5.2012167-4.13005979-12.67037256-3.52848086-17.1583455 1.38196327-4.48797294 4.91044413-4.48797294 12.48112309 0 17.39156729 4.48797294 4.9104441 11.9571288 5.512023 17.1583455 1.3819632-3.0616236-2.4279799-4.8483047-6.1434918-4.8452381-10.0759667z" fill="#eb001b"/><g fill="#f79e1b"><path d="m41.4909524 13.2713491c0 4.9074517-2.7734422 9.3840541-7.1421434 11.5285772-4.3687012 2.144523-9.5657917 1.5804673-13.3840471-1.4526105 3.0602877-2.4300412 4.8471034-6.1450591 4.8471034-10.0777469 0-3.93268768-1.7868157-7.64770562-4.8471034-10.07774686 3.8182554-3.03307776 9.0153459-3.59713343 13.3840471-1.45261042s7.1421434 6.62112546 7.1421434 11.52857708z"/><path d="m40.2787619 21.5535462v-.6967751h.1656191v-.1441603h-.4193334v.1441603h.1797143v.6967751zm.814 0v-.8409354h-.1268571l-.148.6006682-.148-.6006682h-.1127619v.8409354h.091619v-.6307016l.1374286.5466081h.0951428l.1374286-.5466081v.6367083z"/></g></g></g></svg>