<svg height="40" viewBox="0 0 56 40" width="56" xmlns="http://www.w3.org/2000/svg"><g fill="none" fill-rule="evenodd"><rect fill="#f3f3f3" height="40" rx="2" width="56"/><g fill="#164194" transform="translate(5.741935 15.483871)"><path d="m42.6613986 5.83848721c-.0607629 1.22135706-1.1164775 2.1730812-2.3512314 2.01657397-.9439369-.11979978-1.7029857-.90934372-1.8089146-1.88042269-.1410218-1.29510568.8422322-2.3919911 2.0747116-2.3919911 1.1171274 0 2.0292206.9006674 2.0854344 2.03359288zm-2.3704026-3.82324806c-1.7991665.14315907-3.2207582 1.63848721-3.3328608 3.47119022-.1328986 2.165406 1.5379185 3.95939933 3.617829 3.95939933.7515752 0 1.7686226-.38375973 2.2258065-1.19432703v1.0945495h1.4027454l.0029244-3.54927698c0-2.31156841-1.8326348-3.94705228-3.9164445-3.78153504z"/><path d="m30.5929786 5.57399333c0-.778198.4422368-1.67185762 1.4238662-2.05061179 1.1145279-.4294772 2.0883589.14048943 2.4984272.94371523zm2.0318201-3.56896552c-1.9054203.05506118-3.543094 1.57875417-3.543094 3.76084538 0 2.01156841 1.585684 3.69343715 3.6272522 3.69343715 1.4232164 0 2.8139393-.88097886 3.3640546-2.310901l-1.3965717-.42780867c-.2524746.58665183-.862703 1.09922135-1.5671627 1.23403782-.9813044.18787541-1.8842995-.42847609-2.2388038-1.11490545l5.4332423-1.52068966c-.160518-1.43292547-1.3845491-3.38008899-3.6789169-3.31401557z"/><path d="m20.6698785 3.51760845v-1.52869855c-1.354655 0-1.8345844.68542825-2.0376689 1.06484983v-.82057842h-1.5450671v3.41012236 3.70278087h1.5863338c-.0012997-2.19944383-.0045491-2.16307008-.0045491-3.48987764 0-1.64349277.9247658-2.28286986 2.0009513-2.33859845"/><path d="m6.35443372 6.48830923-4.73723099-5.72969966h-1.61720273v8.57586207h1.67179185v-5.73537264l4.79669414 5.74705228h1.4823546l.00097481-8.58754171h-1.59738168z"/><path d="m26.5700202 5.83848721c-.0607628 1.22135706-1.1164775 2.1730812-2.3512314 2.01657397-.9439369-.11979978-1.7029856-.90934372-1.8089145-1.88042269-.1410219-1.29510568.8422321-2.3919911 2.0747115-2.3919911 1.1171274 0 2.0292207.9006674 2.0854344 2.03359288zm1.5392183-5.83848721h-1.4937273v2.79677419c-.3548293-.4788654-1.4628585-.86062291-2.4158936-.78153504-1.7825948.14816463-3.2207582 1.63848721-3.3328608 3.47119022-.1328985 2.165406 1.5379185 3.96407119 3.617829 3.96407119.7762703 0 1.857005-.38175751 2.2258065-1.05517242l-.0016247.95072303h1.4004709v-3.54927698c.000325-.02302558.0006499-.04638487.0006499-.06941045 0-.02335929-.0003249-.04638487-.0006499-.06941046z"/><path d="m12.5135489 7.87027809c-1.1525454 0-2.0867342-.95939934-2.0867342-2.14304783 0-1.1833148.9341888-2.14271413 2.0867342-2.14271413 1.1525453 0 2.0867341.95939933 2.0867341 2.14271413 0 1.18364849-.9341888 2.14304783-2.0867341 2.14304783m.0045491-5.87052281c-2.0048505 0-3.62985171 1.66885429-3.62985171 3.72747498s1.62500121 3.72780867 3.62985171 3.72780867c2.0045255 0 3.6295267-1.66918798 3.6295267-3.72780867s-1.6250012-3.72747498-3.6295267-3.72747498"/><path d="m30.6072107 5.59588432h-.0003249v.0003337z"/><path d="m34.5493902 4.45945495h-.000325v.0003337z"/></g></g></svg>