<svg height="40" viewBox="0 0 56 40" width="56" xmlns="http://www.w3.org/2000/svg"><g fill="none" fill-rule="evenodd"><rect fill="#f3f3f3" height="40" rx="2" width="56"/><g transform="translate(4 14)"><g fill="#253b80"><path d="m17.888129 2.64254505h-2.6473548c-.1811613 0-.3352258.1331257-.3634839.31402002l-1.0707097 6.86654505c-.0212903.13547497.0824517.25763738.2183226.25763738h1.263871c.1811613 0 .3352258-.1331257.3634839-.31441157l.2887742-1.85201335c.0278709-.18128587.1823225-.31441157.3630967-.31441157h.8380645c1.743871 0 2.7503226-.85357063 3.0131613-2.54505005.1184517-.74002225.0050323-1.3214683-.3375483-1.72867631-.3762581-.44714572-1.043613-.6836396-1.9296775-.6836396zm.3054194 2.50785317c-.1447742.96085428-.8705807.96085428-1.5723871.96085428h-.3994839l.2802581-1.79445606c.0166451-.10845829.1095484-.1883337.2179355-.1883337h.1830967c.4780646 0 .9290323 0 1.1620646.27564849.1389677.16444939.1815483.4087742.1285161.74628699z"/><path d="m25.8015484 5.11946607h-1.2677419c-.108 0-.2012904.07987542-.2179355.18833371l-.0561291.35865628-.0886451-.12999332c-.2744516-.402901-.8864516-.53759288-1.4972903-.53759288-1.4009033 0-2.5974194 1.07322803-2.8304517 2.57872302-.1211613.75098554.0510968 1.4690812.4722581 1.96986874.3863226.46045828.9390968.65231588 1.5967742.65231588 1.1287742 0 1.7547097-.73414902 1.7547097-.73414902l-.0565162.356307c-.0212903.13625807.0824517.25842052.2175484.25842052h1.1419355c.1815484 0 .3348387-.13312574.3634839-.31441162l.6851613-4.38884093c.0216774-.13508343-.0816774-.25763738-.2171613-.25763738zm-1.7670968 2.49571524c-.1223226.73258287-.6971613 1.22436485-1.4303226 1.22436485-.368129 0-.6623225-.11942158-.8512258-.34573526-.1873548-.2247475-.2585806-.54464071-.1989677-.90094772.1141935-.72631813.6987097-1.2341535 1.4206451-1.2341535.36 0 .6526452.12098776.8454194.34925917.1931613.23062069.2698065.55247164.2144516.90721246z"/><path d="m32.5532903 5.11946607h-1.2739355c-.1215483 0-.2357419.0610812-.3046451.16327475l-1.7570323 2.61787764-.7447742-2.51568409c-.0468387-.15740156-.1904516-.2654683-.3530322-.2654683h-1.251871c-.152129 0-.2578065.15035373-.2094194.29522581l1.4032259 4.16526808-1.3192259 1.88372854c-.1037419.148396.0007742.3523916.18.3523916h1.2723871c.1207742 0 .2338065-.059515.3023226-.1597508l4.2371613-6.18642941c.1014194-.14800445-.0027097-.35043382-.1811613-.35043382z"/></g><g fill="#179bd7"><path d="m36.7710968 2.64254505h-2.647742c-.1807742 0-.3348387.1331257-.3630967.31402002l-1.0707097 6.86654505c-.0212903.13547497.0824516.25763738.2175484.25763738h1.3587097c.1261935 0 .2341935-.09318799.2539354-.22004895l.303871-1.94637597c.027871-.18128587.1823226-.31441157.3630968-.31441157h.8376774c1.7442581 0 2.7503226-.85357063 3.0135484-2.54505005.1188387-.74002225.0046451-1.3214683-.3379355-1.72867631-.375871-.44714572-1.0428387-.6836396-1.9289032-.6836396zm.3054193 2.50785317c-.1443871.96085428-.8701935.96085428-1.5723871.96085428h-.3990967l.2806451-1.79445606c.0166452-.10845829.1087742-.1883337.2175484-.1883337h.1830968c.4776774 0 .9290322 0 1.1620645.27564849.1389677.16444939.1811613.4087742.128129.74628699z"/><path d="m44.684129 5.11946607h-1.2669677c-.1087742 0-.2012903.07987542-.2175484.18833371l-.056129.35865628-.0890323-.12999332c-.2744516-.402901-.8860645-.53759288-1.4969032-.53759288-1.4009032 0-2.5970323 1.07322803-2.8300645 2.57872302-.1207742.75098554.0507096 1.4690812.4718709 1.96986874.3870968.46045828.9390968.65231588 1.5967742.65231588 1.1287742 0 1.7547097-.73414902 1.7547097-.73414902l-.0565161.356307c-.0212903.13625807.0824516.25842052.2183226.25842052h1.1415483c.1807742 0 .3348388-.13312574.3630968-.31441162l.6855484-4.38884093c.0209032-.13508343-.0828387-.25763738-.2187097-.25763738zm-1.7670967 2.49571524c-.1215484.73258287-.6971613 1.22436485-1.4303226 1.22436485-.3673549 0-.6623226-.11942158-.8512258-.34573526-.1873549-.2247475-.2578065-.54464071-.1989678-.90094772.1149678-.72631813.6987097-1.2341535 1.4206452-1.2341535.36 0 .6526452.12098776.8454193.34925917.1939355.23062069.2705807.55247164.2144517.90721246z"/><path d="m46.1787097 2.83087875-1.0865807 6.99223137c-.0212903.13547497.0824516.25763738.2175484.25763738h1.0923871c.1815484 0 .3356129-.1331257.3634839-.31441157l1.0714839-6.86615351c.0212903-.13547497-.0824517-.25802892-.2175484-.25802892h-1.2232258c-.108.00039155-.2009033.08026697-.2175484.18872525z"/></g><path d="m2.81264516 11.4151368.20245161-1.3007163-.45096774-.0105718h-2.15341935l1.49651613-9.59797106c.00464516-.02897441.01974193-.0559911.04180645-.07517686.02206451-.01918576.05032258-.02975751.07974193-.02975751h3.63096775c1.20541935 0 2.03729032.25372191 2.4716129.75450946.2036129.23492769.33329032.48042714.396.75059399.06580645.28347942.06696774.62216685.00270968 1.03524805l-.00464517.03014906v.2646852l.20361291.11668076c.17148387.09201335.30774193.19733926.41225806.31793548.17419355.20086318.28683871.45615128.33445162.75881647.04916129.31127919.03290322.68168186-.04761291 1.1010278-.09290322.48238488-.24309677.90251391-.44593548 1.24629144-.18658065.31676084-.42425807.57948832-.70645161.78309232-.26941936.19342381-.58954839.34025362-.95148388.4342247-.35070967.09240489-.75058064.13899889-1.18916129.13899889h-.28258064c-.20206452 0-.39832258.07361067-.5523871.20556173-.15445161.13469188-.25664516.31871858-.288.5199733l-.02129032.11707231-.35767742 2.29250277-.01625806.0841824c-.00425807.0266252-.01161291.0399377-.02245162.0489433-.00967742.0082225-.0236129.0137041-.03716129.0137041z" fill="#253b80"/><path d="m8.92180645 3.00198443c-.01083871.07008676-.0232258.14173971-.03716129.21535039-.47883871 2.48670967-2.11703226 3.34576195-4.20929032 3.34576195h-1.06529032c-.25587097 0-.47148387.18794216-.51135484.44323026l-.54541936 3.49885647-.15445161.9917865c-.02593548.1675817.10180645.3187185.26903226.3187185h1.88941935c.22374194 0 .41380645-.1644493.44903226-.3876307l.01858065-.0971034.35574193-2.28349723.02283871-.12529477c.03483871-.2239644.22529032-.38841379.44903226-.38841379h.28258064c1.83058065 0 3.26361291-.75176863 3.68245162-2.92719911.17496774-.90877864.08438709-1.66759511-.37858065-2.20127253-.14012903-.16092547-.31393548-.29444271-.51716129-.40329254z" fill="#179bd7"/><path d="m8.42090323 2.79994661c-.07316129-.02153504-.14864517-.04111235-.22606452-.05873193-.07780645-.01722803-.15754839-.03249833-.2396129-.0458109-.28722581-.04698554-.60193549-.06930367-.93909678-.06930367h-2.84593548c-.07006452 0-.13664516.01605339-.19625807.04502781-.1312258.06382202-.22877419.18950834-.25238709.34338598l-.60541936 3.87865629-.01741935.11315684c.03987097-.2552881.25548387-.44323026.51135484-.44323026h1.06529032c2.09225806 0 3.73045161-.85944382 4.20929032-3.34576195.01432258-.07361068.02632258-.14526363.03716129-.21535039-.12116129-.06499667-.2523871-.12059622-.39367742-.16797331-.03483871-.01174638-.07083871-.02310122-.1072258-.03406451z" fill="#222d65"/><path d="m3.72154839 3.0145139c.0236129-.15387764.12116129-.27956396.25238709-.34299443.06-.02897442.12619355-.04502781.19625807-.04502781h2.84593548c.33716129 0 .65187097.02231813.93909678.06930367.08206451.01331257.16180645.02858287.2396129.0458109.07741935.01761958.15290323.03719688.22606452.05873192.03638709.0109633.07238709.02231813.1076129.03367297.14129032.04737709.27251613.10336819.39367742.16797331.14245161-.91895885-.00116129-1.54464961-.4923871-2.11121691-.54154839-.62373304-1.51896774-.89076752-2.76967742-.89076752h-3.63096774c-.25548387 0-.47341935.18794216-.51290323.4436218l-1.51238709 9.6966407c-.02980645.1918576.11651613.364921.30774193.364921h2.24167742l.56283871-3.61201331z" fill="#253b80"/></g></g></svg>