<svg height="40" viewBox="0 0 56 40" width="56" xmlns="http://www.w3.org/2000/svg"><g fill="none" fill-rule="evenodd"><rect fill="#f3f3f3" height="40" rx="2" width="56"/><path d="m23.76 11.5v1.81c-.63-.37-1.55-.71-2.36-.71-.57 0-.95.14-.95.5 0 .32.14.41 1.53.9 1.5.53 2.21 1.14 2.21 2.32 0 1.85-1.62 2.29-2.9 2.29-.97 0-1.9-.21-2.71-.56v-1.88c.54.34 1.51.84 2.73.84.94 0 .99-.35.99-.55 0-.4-.36-.57-1.15-.84-1.65-.56-2.59-1.08-2.59-2.45 0-1.31 1.06-2.17 2.85-2.17 1.16 0 1.98.33 2.35.5zm3.36-.36h1.99l2.46 7.33h-1.93l-.38-1.21h-2.31l-.39 1.21h-1.9zm.98 2.44-.7 2.25h1.41zm9.34-2.08v1.81c-.63-.37-1.55-.71-2.36-.71-.57 0-.95.14-.95.5 0 .32.14.41 1.53.9 1.5.53 2.21 1.14 2.21 2.32 0 1.85-1.62 2.29-2.9 2.29-.97 0-1.9-.21-2.71-.56v-1.88c.54.34 1.51.84 2.73.84.94 0 .99-.35.99-.55 0-.4-.36-.57-1.15-.84-1.65-.56-2.59-1.08-2.59-2.45 0-1.31 1.06-2.17 2.85-2.17 1.16 0 1.98.33 2.35.5zm-24.86 9.97v1.85c-.37-.26-.97-.68-1.79-.68-1.23 0-1.81.99-1.81 2.18 0 1.1.49 2.15 1.84 2.15.76 0 1.26-.29 1.85-.68v1.85c-.36.16-1.04.47-2.12.47-2.34 0-3.55-1.62-3.55-3.74 0-2.05 1.13-3.87 3.54-3.87 1.03 0 1.72.32 2.04.47zm1.22-.33h2.66c1.33 0 2.96.38 2.96 2.26 0 1.38-.9 1.83-1.3 2.04l1.71 3.03h-2.1l-1.44-2.71h-.55v2.71h-1.94zm1.94 1.5v1.69h.63c.69 0 1.11-.32 1.11-.86 0-.51-.39-.83-1.04-.83zm5.04-1.5h4.63v1.54h-2.69v1.32h2.47v1.51h-2.47v1.42h2.8v1.54h-4.74zm6.08 0h2.64c.96 0 1.94.23 2.59.92.7.75.91 1.79.91 2.78 0 1.58-.59 2.64-1.42 3.14-.59.36-1.47.49-2.12.49h-2.6zm1.94 1.64v4.05h.61c1.42 0 1.61-1.35 1.61-2.07 0-.88-.29-1.98-1.55-1.98zm5.37-1.64h1.94v7.33h-1.94zm3 0h5.84v1.64h-1.95v5.69h-1.94v-5.69h-1.95zm11.75.36v1.81c-.63-.37-1.55-.71-2.36-.71-.57 0-.95.14-.95.5 0 .32.14.41 1.53.9 1.5.53 2.21 1.14 2.21 2.32 0 1.85-1.62 2.29-2.9 2.29-.97 0-1.9-.21-2.71-.56v-1.88c.54.34 1.51.84 2.73.84.94 0 .99-.35.99-.55 0-.4-.36-.57-1.15-.84-1.65-.56-2.59-1.08-2.59-2.45 0-1.31 1.06-2.17 2.85-2.17 1.16 0 1.98.33 2.35.5z" fill="#009"/></g></svg>