<svg height="40" viewBox="0 0 56 40" width="56" xmlns="http://www.w3.org/2000/svg"><g fill="none" fill-rule="evenodd"><rect fill="#f3f3f3" height="40" rx="2" width="56"/><path d="m37.5063804 13.1441512-3.5111425.0009177v-2.3763349h3.5111425c.6211731 0 1.1242929.5126193 1.1242929 1.1877372 0 .6760358-.5031198 1.18768-1.1242929 1.18768zm-3.5111425-7.42337242h2.8705471c.660862 0 1.1956203.53143313 1.1956203 1.14282502 0 .61225227-.5347583 1.14466052-1.1956203 1.14466052h-2.8705471zm-3.6108431 10.31949652h8.218074c2.1974126 0 3.9781764-1.3492608 3.9781764-3.5101545 0-1.6859595-1.0829152-2.80457891-2.6010006-3.29649155 0 0-.0626014-.01525755-.1472147-.01881382.0846133-.00814501.1472147-.02604109.1472147-.02604109.8696086-.35109576 1.832669-1.28473172 1.832669-2.87461447 0-2.01629117-1.7507579-3.30268631-3.9120845-3.30268631h-7.5158343zm-2.6432227 3.0073437h.7947345v-19.047619h-.7947345zm-14.4106081 0h.7947345v-19.047619h-.7947345zm12.8792368-16.03614544h-10.2311163v13.02880174h10.4188081v-3.0037874h-6.8258672v-2.0989458h4.7023716v-2.87455709h-4.7023716v-2.07462549h6.6381754zm-14.6286436 1.84392672-2.29525541 1.7460719c-1.08375961-.9497539-2.48030132-1.13651551-3.25127881-1.13651551-.77975972 0-1.59256535.22708514-1.71855641.79717839-.12205033.5530002.38191393.98302224 1.24893288 1.22272641.98861889.2719974 1.88868375.51164421 3.27503583.91482214 2.06179482.59963324 3.47156612 1.50814587 3.47156612 3.61603969 0 2.9050722-2.53051757 4.4105222-5.92101707 4.4105222-3.38999284 0-5.7002794-1.7999895-6.39058433-2.6392696l2.4260317-1.8484581c1.70453864 1.513595 2.88963154 1.7272007 3.87999562 1.7272007 1.13662181 0 2.19921401-.2486522 2.33584507-.8994498.11095996-.5261561-.31728581-.9444769-1.28552545-1.1733975-1.09530034-.2576576-2.02002297-.4650686-3.05131444-.7414826-2.79617972-.7478495-3.58472165-2.4041542-3.58472165-3.89170811 0-2.04864177 1.87185116-4.15292197 5.29494621-4.15292197 3.51029797 0 5.56590014 2.04864176 5.56590014 2.04864176z" fill="#231f20" transform="translate(7 10)"/></g></svg>