<svg height="40" viewBox="0 0 56 40" width="56" xmlns="http://www.w3.org/2000/svg" xmlns:xlink="http://www.w3.org/1999/xlink"><linearGradient id="a" x1=".071132%" x2="100.04193%" y1="50.070047%" y2="50.070047%"><stop offset="0" stop-color="#74b943"/><stop offset="1" stop-color="#009d49"/></linearGradient><mask id="b" fill="#fff"><path d="m15.5376667 2.26861404c3.0726666-1.74975439 6.2272222-2.23497369 8.7818889-2.2347457 3.1804444.00011412 5.4306666.75206149 5.4306666.75206149v.18473684c-1.3628889-.20241228-5.0322222-.84579825-10.1685555 1.55680701-4.3161111 2.01876316-9.68144448 7.18101755-19.51022226 7.74651752l.00077778-.2172368c3.09977778-.63563159 5.58666667-1.6629737 7.69833334-2.80571931.81411111-.44028948 1.57233333-.89802632 2.28866664-1.35701755" fill="#fff" fill-rule="evenodd"/></mask><g fill="none" fill-rule="evenodd"><rect fill="#f3f3f3" height="40" rx="2" width="56"/><g transform="translate(7 13)"><path d="m17.8313333 9.11858772.5163334 1.49021048.7327777 2.1240176h2.9842223l-1.7704445-4.67201755c-.7776666.3731228-1.5958889.72982456-2.4628889 1.05778947" fill="#0d2217"/><path d="m15.5376667 2.26861404c-1.6941111.96507894-3.411 2.30054385-5.4784445 3.6254035-.71633331.45899123-1.47455553.91672807-2.28866664 1.35701755-2.11166667 1.14274561-4.59855556 2.17008772-7.69833334 2.80571931l-.00077778.2172368c9.82877778-.56549997 15.19411116-5.72775436 19.51022226-7.74651752 5.1363333-2.40260526 8.8056666-1.75921929 10.1685555-1.55680701v-.18473684s-2.2502222-.75194737-5.4306666-.75206149c-2.5546667-.00022799-5.7092223.48499131-8.7818889 2.2347457" fill="url(#a)" mask="url(#b)" transform="translate(9.414111)"/><g fill="#0d2217"><path d="m0 1.56923684h2.72855556v6.53968421c0 1.84212281.73133333 2.48117545 1.95911111 2.48117545.75077777 0 1.22633333-.0756053 1.72011111-.1506404v-8.87021926h2.72922222v10.76878946c-.93344444.3001404-3.058.5824912-4.44933333.5824912-2.49111111 0-4.68766667-1.0149122-4.68766667-4.19067539z"/><path d="m36.5177778 7.07553509c.1286666.01881579.5133333.03728947.825.03728947 1.117 0 1.8671111-.46925438 1.8671111-1.61587719 0-1.18414035-.8782222-1.61633333-1.8671111-1.61633333-.2201111 0-.6044445.0195-.825.05644736zm0 5.65716671h-2.7277778v-11.06995619c.9156667-.15018421 2.3435556-.28200877 3.5527778-.28200877 2.6921111 0 4.6143333 1.27833334 4.6143333 4.11621053 0 2.91291228-2.1792222 4.00297368-4.469 4.00297368-.3286667 0-.7497778-.01835965-.9703333-.03785965z"/><path d="m19.4734444 5.89390351c-.7164444.45910526-1.4747777.9168421-2.2886666 1.35713158l-.998-2.88155263-2.9845556 8.36333334h-2.8754444l4.2303333-11.16357896h3.2777778z"/><path d="m28.2024444 12.7328158h-2.7103333v-8.70156141h-3.259v-2.46201755h9.229v2.46201755h-3.2596667z"/><path d="m41.0048889.75023684c.1065555 0 .2006667-.00786842.2006667-.13832456 0-.10571053-.0927778-.12452631-.1798889-.12452631h-.1708889v.26285087zm-.1501111.47769298h-.1254445v-.85024561h.3153334c.1963333 0 .2925555.07423684.2925555.24129825 0 .15189473-.0938889.21849122-.214.234l.235.37494736h-.1403333l-.2181111-.3685614h-.145zm.1523333.18872807c.3237778 0 .5797778-.26114035.5797778-.61567543 0-.34906141-.256-.61236842-.5797778-.61236842-.3286667 0-.5854444.26330701-.5854444.61236842 0 .35453508.2567777.61567543.5854444.61567543zm-.7294444-.61567543c0-.42329825.335-.73461404.7294444-.73461404.3911111 0 .7251111.31131579.7251111.73461404 0 .42694736-.334.73814912-.7251111.73814912-.3944444 0-.7294444-.31120176-.7294444-.73814912z"/></g></g></g></svg>