<svg height="40" viewBox="0 0 56 40" width="56" xmlns="http://www.w3.org/2000/svg"><g fill="none" fill-rule="evenodd"><rect fill="#f3f3f3" height="40" rx="2" width="56"/><g transform="translate(1.75 12.5)"><g fill="#26337a"><path d="m17.6147465 15.881743 2.5202765-15.4976937h4.0285715l-2.5200461 15.4976937z"/><path d="m36.2564516.76443662c-.7965438-.31103873-2.0493087-.65022887-3.6099078-.65022887-3.9829493 0-6.786636 2.10311619-6.8099079 5.11463028-.0253456 2.22762324 2.0006913 3.46994718 3.5281106 4.21035211 1.5698157.75894366 2.0972351 1.24461266 2.0910139 1.92322186-.0108295 1.0379401-1.2529954 1.5135387-2.4112904 1.5135387-1.6129032 0-2.4698156-.2341373-3.7947004-.8127289l-.5182028-.2467253-.563364 3.4690317c.9394009.4316549 2.6808755.8063204 4.4882488.8260035 4.2329493 0 6.9834102-2.0777113 7.0156682-5.2936092.0145161-1.76644363-1.0589862-3.10535208-3.383871-4.21080982-1.4078341-.71866198-2.2718894-1.19471831-2.2619815-1.92207747.0009216-.64404929.7299539-1.33364436 2.3078341-1.33364436 1.3177419-.02105634 2.271659.28059859 3.0149769.59552816l.3617512.17714789z"/><path d="m41.6207373 10.3871831c.333871-.89077465 1.6048387-4.3318838 1.6048387-4.3318838-.0235023.04096831.3320277-.89764085.5354839-1.47852113l.2718894 1.33661972s.7730415 3.69904929.9322581 4.47378521zm4.9700461-9.98734155h-3.113364c-.9656682 0-1.6884793.27419014-2.1115208 1.28466549l-5.9827189 14.20272886h4.2313364s.6903226-1.9106338.8470046-2.3299296c.4615208 0 4.5730415.0080106 5.1599079.0080106.1207373.5408275.490553 2.321919.490553 2.321919h3.7391705z"/><path d="m14.235023.39709507-3.9430875 10.56570423-.42235025-2.14774648c-.73479262-2.47457747-3.02211981-5.15674296-5.58064516-6.50068662l3.60737327 13.5538732 4.26359444-.0025176 6.3442397-15.46862673z"/></g><path d="m6.63156682.3865669h-6.49654378l-.05345622.32110916c5.05506912 1.28375 8.39976959 4.38246479 9.78801843 8.10737676l-1.41175115-7.1209331c-.24354839-.98209507-.95138249-1.27322183-1.82626728-1.30755282" fill="#ec982d"/></g></g></svg>