<svg height="40" viewBox="0 0 56 40" width="56" xmlns="http://www.w3.org/2000/svg"><g fill="none" fill-rule="evenodd"><rect fill="#f3f3f3" height="40" rx="2" width="56"/><g transform="translate(1 1)"><g fill="#1a1f71"><path d="m25.0600219 10.552548-2.8505471 13.602249h-3.4477294l2.8505765-13.602249zm14.5036354 8.7830409 1.8152602-5.1081071 1.0426714 5.1081071zm3.848234 4.8192081h3.1877383l-2.7849682-13.602249h-2.9411924c-.6631437 0-1.2206669.3928967-1.4680954.9971521l-5.1730504 12.6050969h3.6205174l.7178663-2.031843h4.4234098zm-8.9998074-4.4410267c.0144162-3.589285-4.8620731-3.7883911-4.8302987-5.3922913.0117683-.4874645.4666131-1.0066118 1.4627997-1.1392591.493386-.0650474 1.8561551-.1170612 3.3998619.6089703l.604008-2.8860472c-.829371-.3061669-1.8967558-.600922-3.2245142-.600922-3.4083939 0-5.8058026 1.8477825-5.8248966 4.4958034-.0223304 1.9587173 1.7124641 3.0504073 3.0169802 3.7027725 1.3439398.6662396 1.7943715 1.0944528 1.7881932 1.6898191-.0094147.9126146-1.0729748 1.3166528-2.0618062 1.3316683-1.734059.0280791-2.7392778-.478275-3.5409932-.8595196l-.6257499 2.9817262c.8066287.3773406 2.2932298.7051899 3.8328176.7218572 3.6231654 0 5.9930068-1.8266107 6.0035982-4.6545778zm-14.2787137-9.1612223-5.5856176 13.602249h-3.6444072l-2.74895717-10.8557863c-.16643318-.6670804-.3113598-.9126146-.81860295-1.1945764-.82895905-.4596558-2.19787712-.8895207-3.40112695-1.1570376l.08117185-.3948487h5.86705653c.74666919 0 1.41902159.5074653 1.58980909 1.3861748l1.4525318 7.8718077 3.5858304-9.2579825z"/><path d="m29.47234 27.8989224h-1.4007219v1.3308575h1.5669492v.4001341h-2.0391522v-3.6922016h1.9588335v.4001342h-1.4866305v1.1664974h1.4007219z"/><path d="m30.3620235 29.6297939h.4710809v-3.8890553h-.4710809z"/><path d="m33.409719 28.0466753c.0052957-.3011517-.1235672-.777775-.6546117-.777775-.4830887 0-.6872687.4437993-.7246331.777775zm-1.3845405.3450872c.0105915.6520649.4133615.9203926.8905661.9203926.3383386 0 .5475201-.0603324.7193373-.1367915l.0859086.3450571c-.1665214.0764892-.4560216.1696456-.8696774.1696456-.7990675 0-1.2768605-.5422412-1.2768605-1.341969s.4613174-1.4242542 1.218019-1.4242542c.8532018 0 1.073269.7560626 1.073269 1.2434971 0 .0984419-.0052957.1696456-.0161814.2244223z"/><path d="m36.4350547 29.5366675c-.1232729.0603325-.3971801.1534889-.745816.1534889-.7834746 0-1.293042-.5422112-1.293042-1.3530805 0-.8161247.5469318-1.4131427 1.3948378-1.4131427.2792029 0 .5257488.0709034.6546117.1423774l-.1067974.3670399c-.1132698-.0603325-.2903828-.1262207-.5478143-.1262207-.5957702 0-.917339.4546406-.917339 1.0027079 0 .6134149.3862944.991296.9014518.991296.2683172 0 .4454301-.0656179.5792945-.1259503z"/><path d="m37.7598711 26.3432222v.6353976h.6757946v.3667696h-.6757946v1.42981c0 .3289605.0912043.515003.3539316.515003.1285687 0 .20418-.0108412.2739072-.0330942l.0214771.3673102c-.0912043.0328239-.2362486.0656479-.4186572.0656479-.2200673 0-.3971802-.0767594-.5098616-.2024395-.1288629-.1482034-.1824087-.3834669-.1824087-.6957301v-1.4465073h-.4027701v-.3667696h.4027701v-.4930203z"/><path d="m39.0952789 27.805796c0-.3122632-.0058841-.580591-.0214771-.8272362h.4130673l.0214771.5258142h.0158872c.1182715-.3559284.4077716-.5805909.7243389-.5805909.0485442 0 .0862028.0055557.1291571.0108412v.4549108c-.0485442-.0111115-.0965001-.0111115-.1612257-.0111115-.3324545 0-.5687031.2519308-.6331345.6136852-.0105915.065618-.0161815.1476629-.0161815.2246926v1.4131427h-.4719088z"/><path d="m41.2247528 28.3098077c0 .5805909.3221572 1.0188345.7834746 1.0188345.4510201 0 .7887703-.4329581.7887703-1.029946 0-.4490849-.2200672-1.0135791-.7781789-1.0135791-.5525216 0-.794066.5261145-.794066 1.0246906m2.0553336-.0275385c0 .9804848-.6707931 1.4078572-1.2933362 1.4078572-.697566 0-1.2447919-.5260846-1.2447919-1.3639218 0-.8820129.5739988-1.4023014 1.2877462-1.4023014.745816 0 1.2503819.5530825 1.2503819 1.358366"/><path d="m44.0038368 27.6960924c0-.2791989-.0058841-.4983057-.0214771-.7174125h.4183631l.027067.4382136h.0105915c.1288629-.2466453.4292488-.4930203.8584975-.4930203.3592274 0 .9176332.2191368.9176332 1.1281476v1.5777431h-.4722031v-1.5282518c0-.4271321-.1556357-.7833308-.6010659-.7833308-.3056816 0-.5475201.2246926-.6328403.4930203-.0217714.0603324-.032657.1423774-.032657.2246926v1.5938697h-.4719089z"/><path d="m0 6.33333333h54v-5.33333333c0-.55228475-.4477153-1-1-1h-52c-.55228475 0-1 .44771525-1 1z"/></g><path d="m1 38h52c.5522847 0 1-.4477153 1-1v-5.3333333h-54v5.3333333c0 .5522847.44771525 1 1 1z" fill="#f7b600"/></g></g></svg>