<?xml version="1.0" encoding="utf-8"?><svg width="20" height="20" xmlns="http://www.w3.org/2000/svg" viewBox="0 0 20 20"><path d="M17.512 1.002l-14.32 19h-2l14.35-19h1.97zM19 19v1H4.41l.756-1H19zM15 5.988V17H6.677L15 5.988zM17 5a2 2 0 012 2v8a2 2 0 01-2 2h-.875V5H17zM3.881 5v9.857L2.35 16.892A2 2 0 011 15V7a2 2 0 012-2h.881zm7.62-4C12.33 1 13 1.676 13 2.506v.245l-1.5 1.991V2.795a.295.295 0 00-.299-.295H8.8a.294.294 0 00-.299.295V5h2.806L5 13.374V5h2V2.506C7 1.674 7.665 1 8.499 1H11.5z" fill-rule="evenodd"/></svg>