<?xml version="1.0" encoding="utf-8"?><svg width="20" height="20" xmlns="http://www.w3.org/2000/svg" viewBox="0 0 20 20"><path d="M15.964 6c.265 0 .487.193.529.445l.007.085v7.779a.534.534 0 01-.45.523l-.086.007H4.536a.536.536 0 01-.529-.444L4 14.309V6.53c0-.262.195-.482.45-.523L4.535 6h11.428zm-8.087 4.643H6.054v2.89H7.95v-.505H6.637v-.723H7.73V11.8H6.637v-.65h1.24v-.506zm1.709 0h-.943v2.89h1.03c.794 0 1.077-.435 1.077-.834 0-.32-.162-.556-.47-.685.26-.142.39-.353.39-.637 0-.476-.385-.734-1.084-.734zm-.052 1.696c.37 0 .59.125.59.373 0 .211-.16.323-.444.346l-.112.004h-.39v-.723h.356zm.05-1.16c.215 0 .471.044.471.3l-.004.047c-.018.102-.105.303-.524.303h-.348v-.65h.405z"/></svg>