<?xml version="1.0" encoding="utf-8"?><svg width="20" height="20" xmlns="http://www.w3.org/2000/svg" viewBox="0 0 20 20"><path d="M13.375 7.75C16.481 7.75 19 9.69 19 12.083c0 1.313-.771 2.477-1.97 3.27l-.204.129 1.049 2.018-3.032-1.251a7.124 7.124 0 01-1.468.168c-3.106 0-5.625-1.94-5.625-4.334 0-2.393 2.519-4.333 5.625-4.333zM7.812 2.5c3.324 0 6.089 1.874 6.688 4.351a8.723 8.723 0 00-1.012-.065c-3.756 0-6.811 2.403-6.811 5.357 0 .344.045.68.124 1.006a7.614 7.614 0 01-1.334-.287l-.317-.1-2.447.988.898-1.695C2.02 11.075 1 9.563 1 7.857 1 4.9 4.05 2.5 7.812 2.5zm3.875 7.688c-.465 0-.843.364-.843.812 0 .448.378.813.844.813.465 0 .843-.365.843-.813 0-.448-.378-.813-.844-.813zm3.376 0c-.466 0-.844.364-.844.812 0 .448.378.813.844.813.465 0 .843-.365.843-.813 0-.448-.378-.813-.844-.813zM5.54 4.91c-.47 0-.851.36-.851.803 0 .444.381.804.851.804s.852-.36.852-.804c0-.443-.382-.803-.852-.803zm4.541 0c-.47 0-.851.36-.851.803 0 .444.381.804.851.804s.852-.36.852-.804c0-.443-.381-.803-.852-.803z" fill-rule="evenodd"/></svg>