<?xml version="1.0" encoding="utf-8"?><svg width="20" height="20" xmlns="http://www.w3.org/2000/svg" viewBox="0 0 20 20"><path d="M4.133 3.607v.276a1.867 1.867 0 003.728.146l.006-.146v-.276h4.266v.276a1.867 1.867 0 003.728.146l.006-.146v-.276H18V17H2V3.607h2.133zM10 5.692a.798.798 0 00-.794.708l-.006.1v2.404l-4.343 2.128v1.19l4.343-.916v2.035l-1.6 1.052v1.057l2.348-.772 2.338.772v-1.057L10.8 13.327v-2.02l4.343.916v-1.19L10.8 8.905V6.5a.8.8 0 00-.8-.809zM6 2a.8.8 0 01.8.8v1.079a.8.8 0 11-1.6 0V2.8A.8.8 0 016 2zm8 0a.8.8 0 01.8.8v1.079a.8.8 0 11-1.6 0V2.8A.8.8 0 0114 2z" fill-rule="evenodd"/></svg>