<?xml version="1.0" encoding="utf-8"?><svg width="20" height="20" xmlns="http://www.w3.org/2000/svg" viewBox="0 0 20 20"><path d="M11.058 2l.978.007.451.009c.272.007.503.017.81.031.85.039 1.432.174 1.941.372.526.204.972.478 1.417.923.445.444.718.89.923 1.416.176.453.302.963.355 1.668l.036.72.016.513.003.196.01 2.859-.008 1.328c-.007.507-.02.797-.04 1.255-.04.852-.174 1.433-.372 1.942a3.922 3.922 0 01-.923 1.417 3.92 3.92 0 01-1.417.923c-.452.175-.962.302-1.668.355l-.72.036-.513.015-.195.004-2.86.01-1.327-.008c-.507-.007-.798-.02-1.255-.04-.852-.04-1.433-.175-1.942-.372a3.922 3.922 0 01-1.417-.923 3.921 3.921 0 01-.923-1.417c-.198-.509-.333-1.09-.372-1.942l-.032-.85-.01-.646L2 11.27l.002-2.974A34.66 34.66 0 012.046 6.7c.04-.851.174-1.433.372-1.942.205-.526.478-.972.923-1.416.445-.445.89-.719 1.417-.923.509-.198 1.09-.333 1.942-.372l.85-.032.646-.01L8.727 2h2.331zm.716 1.445H8.222l-.608.01a32.05 32.05 0 00-.664.024l-.185.008c-.78.035-1.203.166-1.485.275-.374.145-.64.319-.92.599-.28.28-.453.546-.598.92l-.056.153a4.466 4.466 0 00-.209 1.144l-.032.683c-.018.494-.024.963-.025 2.26l.004 2.254.01.607c.006.232.013.43.024.665l.008.184c.036.78.166 1.204.276 1.486.145.373.318.64.598.92.28.28.546.453.92.598l.154.056c.251.085.602.17 1.144.209l.945.04.556.01c.304.004.688.006 1.227.007l2.397-.004.746-.012c.26-.007.484-.017.782-.03.78-.036 1.203-.166 1.485-.276a2.48 2.48 0 00.92-.598c.28-.28.453-.547.598-.92l.056-.154c.085-.251.171-.602.209-1.144l.04-.945.011-.557c.004-.303.005-.687.006-1.226l-.004-2.397-.012-.746a40.01 40.01 0 00-.03-.782c-.036-.78-.166-1.203-.276-1.485a2.478 2.478 0 00-.598-.92 2.478 2.478 0 00-.92-.599l-.154-.056c-.251-.085-.602-.17-1.144-.208l-.683-.032c-.277-.01-.547-.017-.96-.02zM9.998 5.891a4.108 4.108 0 110 8.216 4.108 4.108 0 010-8.216zm0 1.441a2.667 2.667 0 100 5.333 2.667 2.667 0 000-5.333zm4.27-2.564a.96.96 0 110 1.92.96.96 0 010-1.92z" fill-rule="evenodd"/></svg>