<?xml version="1.0" encoding="utf-8"?><svg width="20" height="20" xmlns="http://www.w3.org/2000/svg" viewBox="0 0 20 20"><path d="M14.571 3.75H5.43a.429.429 0 00-.422.352L5 4.179v.392c0 .21.152.386.352.422L5.429 5h1.238v2.5l2.5 2.5-2.5 2.5V15H5.429a.429.429 0 00-.422.352L5 15.429v.392c0 .21.152.386.352.422l.077.007h9.142a.43.43 0 00.422-.352l.007-.077v-.392a.429.429 0 00-.352-.422L14.571 15h-1.238v-2.5l-2.5-2.5 2.5-2.5V5h1.238a.43.43 0 00.422-.352L15 4.571V4.18a.429.429 0 00-.352-.422l-.077-.007zm-4.093 7.107l1.998 1.998v.037H7.523v-.037l1.998-1.998h.957zm1.999-4.999v1.287l-1.998 1.998h-.957L7.524 7.145V5.858h4.953z" fill-rule="evenodd"/></svg>