<?xml version="1.0" encoding="utf-8"?><svg width="20" height="20" xmlns="http://www.w3.org/2000/svg" viewBox="0 0 20 20"><path d="M10 0c5.523 0 10 4.477 10 10s-4.477 10-10 10S0 15.523 0 10 4.477 0 10 0zm1.055 13.151a1.446 1.446 0 00-1.825 0l-.11.1 1.023 1.022 1.022-1.022-.11-.1zm2.017-2.137a4.381 4.381 0 00-5.858 0l-.17.16L8.13 12.26l.137-.128a2.848 2.848 0 013.747-.005l.143.133 1.084-1.084-.168-.16zm2.022-2.069a7.273 7.273 0 00-9.902 0L5 9.13l1.084 1.085.185-.177a5.74 5.74 0 017.748 0l.184.177 1.085-1.085-.192-.185z" fill-rule="evenodd"/></svg>