<?xml version="1.0" encoding="utf-8"?><svg width="20" height="20" xmlns="http://www.w3.org/2000/svg" viewBox="0 0 20 20"><path d="M4.133 3.607v.268A1.87 1.87 0 006 5.75a1.87 1.87 0 001.867-1.875v-.268h4.266v.268A1.87 1.87 0 0014 5.75a1.87 1.87 0 001.867-1.875v-.268H18V17H2V3.607h2.133zm5.87 3.026L8.99 8.463l-2.003-.575L7.56 9.9l-1.82 1.017 1.82 1.016-.572 2.012 2.003-.574 1.012 1.829 1.012-1.83 2.004.575-.572-2.012 1.82-1.016-1.82-1.017.572-2.012-2.004.575-1.012-1.83zM6 2c.442 0 .8.36.8.804v1.071a.802.802 0 01-.8.804c-.442 0-.8-.36-.8-.804V2.804C5.2 2.36 5.558 2 6 2zm8 0c.442 0 .8.36.8.804v1.071a.802.802 0 01-.8.804c-.442 0-.8-.36-.8-.804V2.804c0-.444.358-.804.8-.804z" fill-rule="evenodd"/></svg>