<?xml version="1.0" encoding="utf-8"?><svg width="20" height="20" xmlns="http://www.w3.org/2000/svg" viewBox="0 0 20 20"><path d="M6.048 2.413c0-.275.248-.465.488-.4l.072.027 2.555 1.27c.425-.068.86-.109 1.307-.109 4.159 0 7.53 3.02 7.53 6.743 0 2.116-1.093 3.998-2.795 5.234l-.216.151v2.13a.534.534 0 01-.421.532l-.093.009h-3.128a.521.521 0 01-.506-.443l-.008-.097v-.789c-.121.005-.24.017-.363.017l-.183-.007-.18-.01v.789a.534.534 0 01-.422.531L9.593 18H6.464a.522.522 0 01-.506-.443l-.008-.097v-2.131c-1.119-.754-1.995-1.778-2.505-2.967l-.112-.277h-.82a.521.521 0 01-.505-.444L2 11.544V8.495c0-.264.182-.485.421-.531l.092-.009h.76c.453-1.314 1.345-2.451 2.52-3.286l.255-.174V2.413zm.298 5.245c-.39 0-.706.333-.706.743s.316.743.706.743c.39 0 .707-.333.707-.743s-.316-.743-.707-.743zm4.124-2.324a.465.465 0 00-.453.476c0 .263.203.476.453.476 1.178 0 2.306.443 3.096 1.214a.44.44 0 00.64-.024.494.494 0 00-.024-.673c-.955-.933-2.309-1.469-3.712-1.469z" fill-rule="evenodd"/></svg>