<?xml version="1.0" encoding="utf-8"?><svg width="20" height="20" xmlns="http://www.w3.org/2000/svg" viewBox="0 0 20 20"><path d="M10 2a8 8 0 110 16 8 8 0 010-16zm-.84 5.136H5.456V13h3.792v-1.232h-2.24v-1.136h1.976V9.424H7.008V8.368H9.16V7.136zm3.546 0H10.32V13h2.304c1.056 0 2.24-.36 2.24-1.656 0-.952-.608-1.2-.992-1.36l.133-.07c.31-.17.731-.492.731-1.282 0-1.225-1.049-1.461-1.914-1.492l-.116-.003zm-.202 3.44c.464 0 .792.168.792.608 0 .575-.564.613-.744.616h-.68v-1.224h.632zm.008-2.24c.4 0 .696.144.696.528l-.006.074c-.028.174-.162.486-.69.486h-.64V8.336h.64z" fill-rule="evenodd"/></svg>