<?xml version="1.0" encoding="utf-8"?><svg width="20" height="20" xmlns="http://www.w3.org/2000/svg" viewBox="0 0 20 20"><path d="M5.435 6.15c1.133 0 1.7.298 1.906.398.129.075.103.174.103.174l-.109.463a.94.94 0 00-.02.11c-.025.05-.077.05-.128 0l-.233-.134a2.168 2.168 0 00-1.081-.29c-.696 0-1.056.499-.876 1.221l.125.459c.131.498.323 1.253.42 1.651l.048.206c.309 1.245-.567 2.74-2.937 2.74-1.314 0-2.138-.474-2.421-.698-.155-.124-.206-.199-.18-.274l.077-.247c.052-.161.114-.34.129-.326 0-.1.051-.124.103-.074l.118.11c.31.281.969.786 1.84.786 1.107 0 1.03-.871 1.03-.996 0-.349-.464-2.067-.593-2.515-.36-1.445.541-2.765 2.679-2.765zm12.544 0c1.134 0 1.7.298 1.906.398.13.075.103.174.103.174l-.108.463a.94.94 0 00-.02.11c-.026.05-.078.05-.13 0-.334-.2-.72-.423-1.313-.423-.695 0-1.056.498-.876 1.22l.084.303c.154.579.447 1.734.509 2.013.309 1.245-.567 2.74-2.937 2.74-1.313 0-2.086-.449-2.37-.673-.128-.104-.185-.173-.186-.236l.122-.593a.72.72 0 01.01-.038c.029-.08.106-.104.158-.054l.203.176c.335.28.925.695 1.728.695 1.108 0 1.03-.871 1.03-.996 0-.349-.463-2.067-.592-2.515-.36-1.445.541-2.765 2.68-2.765zm-4.868.074c.062 0 .058.048.067.067l.01.008-1.34 6.674c0 .038-.014.047-.032.05H9.402c-.078 0-.078-.05-.078-.075l.28-1.421a.296.296 0 00.004-.023l-.007-.018-.019-.007H7.6l-.025.006-.027.019-1.185 1.47c0 .018-.014.037-.054.045l-.049.004h-.824c-.039 0-.048-.014-.04-.042l.014-.033 5.538-6.674.025-.018a.238.238 0 01.074-.027l.056-.005h2.009zm-2.885 1.968l-.026.024-2.06 2.566v.025h1.57l.516-2.59.011-.019-.011-.006z"/></svg>