<?xml version="1.0" encoding="utf-8"?><svg width="20" height="20" xmlns="http://www.w3.org/2000/svg" viewBox="0 0 20 20"><path d="M7.875 1c2.692 0 4.875 2.175 4.875 4.857a4.825 4.825 0 01-1.029 2.985l5.126 5.106-4.096 4.119-1.701-1.692 2.404-2.419-1.288-1.283-1.476 1.464L9 12.432l1.465-1.453-.662-.66a4.874 4.874 0 01-1.928.395C5.183 10.714 3 8.54 3 5.857 3 3.175 5.183 1 7.875 1zm0 2.4A2.466 2.466 0 005.4 5.857a2.466 2.466 0 002.475 2.457 2.466 2.466 0 002.475-2.457A2.466 2.466 0 007.875 3.4z" fill-rule="evenodd"/></svg>