<?xml version="1.0" encoding="utf-8"?><svg width="20" height="20" xmlns="http://www.w3.org/2000/svg" viewBox="0 0 20 20"><path d="M19.143 3c.435 0 .797.3.85.682L20 3.78v11.44c0 .396-.329.726-.75.774l-.107.006H.857c-.435 0-.797-.3-.85-.682L0 15.22V3.78c0-.396.329-.726.75-.774L.857 3h18.286zM16 13a1 1 0 100 2 1 1 0 000-2zm-4.25-7.75a.856.856 0 00-1.123-.076l-.087.076-1.655 1.655L3.67 5.829l-.66.66 4.004 2.287-1.597 1.597-1.68-.448-.737.67 2.073 1.378L6.378 14l.765-.67-.57-1.692 1.65-1.651 2.357 4.003.59-.591-1.077-5.282 1.656-1.657a.855.855 0 000-1.21zM16 10a1 1 0 100 2 1 1 0 000-2zm0-3a1 1 0 100 2 1 1 0 000-2zm0-3a1 1 0 100 2 1 1 0 000-2z" fill-rule="evenodd"/></svg>