<?xml version="1.0" encoding="utf-8"?><svg width="20" height="20" xmlns="http://www.w3.org/2000/svg" viewBox="0 0 20 20"><path d="M4.4 3.364v.499a1.6 1.6 0 003.194.147l.006-.147v-.5h4.686v.5c0 .894.758 1.618 1.657 1.618.851 0 1.577-.65 1.65-1.478l.007-.14v-.5H18V17H2V3.364h2.4zM10 6.489c-1.244 0-2.365.53-3.149 1.374l-.152.173-1.27-1.263v3.977h4L7.92 9.25A2.573 2.573 0 0110 8.193a2.567 2.567 0 012.571 2.557A2.567 2.567 0 0110 13.307c-.78 0-1.478-.347-1.95-.893l-.113-.14-1.22 1.212A4.287 4.287 0 0010 15.01c2.363 0 4.286-1.911 4.286-4.261S12.363 6.489 10 6.489zM6 2c.348 0 .63.256.678.589l.008.102v1.067a.685.685 0 01-1.364.102l-.008-.102V2.691C5.314 2.309 5.617 2 6 2zm8 0c.348 0 .63.256.678.589l.008.102v1.067a.685.685 0 01-1.364.102l-.008-.102V2.691c0-.382.303-.691.686-.691z" fill-rule="evenodd"/></svg>