<?xml version="1.0" encoding="utf-8"?><svg width="20" height="20" xmlns="http://www.w3.org/2000/svg" viewBox="0 0 20 20"><path d="M6.062 4c1.637 0 3.007.594 4.056 1.566L8.396 7.222c-.436-.408-1.2-.888-2.334-.888-2.006 0-3.643 1.65-3.643 3.672 0 2.022 1.637 3.672 3.643 3.672 2.322 0 3.177-1.59 3.335-2.532h-3.34V8.908h5.674c.085.378.151.732.151 1.23 0 3.426-2.322 5.862-5.82 5.862C2.716 16 0 13.312 0 10s2.716-6 6.062-6zm11.513 2.4v2.4H20v1.8h-2.425V13h-1.819v-2.4h-2.425V8.8h2.425V6.4h1.819z" fill-rule="evenodd"/></svg>