<?xml version="1.0" encoding="utf-8"?><svg width="20" height="20" xmlns="http://www.w3.org/2000/svg" viewBox="0 0 20 20"><path d="M9.73 4.002L10 4c2.076 0 4.148.289 5.272.475l.858.156L18 9.405v7.166h-2.857v-1.71H4.857v1.71H2V9.402L3.899 4.64l.71-.134c1.03-.179 3.045-.479 5.121-.503zm6.556 6.865h-1.702c-1.649 0-2.248 1.106-2.295 1.556l-.003.054v.101h4v-1.711zm-10.867 0H3.714v1.711H7.6v-.1c0-.39-.424-1.512-1.973-1.605l-.208-.006zm4.88-5.55H10c-2.72 0-4.63.32-5.078.404l-.1.02-1.238 3.138 1.355.097c1.128.072 2.82.16 4.53.177l.81.002 1.078-.014a93.643 93.643 0 004.068-.184l1.021-.074-1.236-3.138-.502-.087c-.76-.12-2.339-.322-4.409-.34z" fill-rule="evenodd"/></svg>