<?xml version="1.0" encoding="utf-8"?><svg width="20" height="20" xmlns="http://www.w3.org/2000/svg" xmlns:xlink="http://www.w3.org/1999/xlink" viewBox="0 0 20 20"><defs><path d="M13.399 11.67L18 15.518l-.174.32a4.58 4.58 0 01-3.173 2.1c-2.394.38-5.24-.983-8.46-4.05l-.08-.082c-3.068-3.219-4.43-6.065-4.05-8.458A4.58 4.58 0 014.16 2.174L4.482 2l3.856 4.61-.42.281a8.952 8.952 0 00-1.083.933c-.878.878-.91 1.3-.153 2.058l3.436 3.436c.524.523.828.556 1.011.535.28-.032.604-.244 1.047-.688a8.92 8.92 0 00.982-1.142l.24-.353z" id="cha"/></defs><use xlink:href="#cha" fill-rule="evenodd"/></svg>