<?xml version="1.0" encoding="utf-8"?><svg width="20" height="20" xmlns="http://www.w3.org/2000/svg" viewBox="0 0 20 20"><path d="M8.37 7.965l10.657.002v6.347a.6.6 0 01-.6.595l-9.94.001c-.81.558-1.986.908-3.295.908-2.364 0-4.295-1.143-4.417-2.582L.77 13.07c-.486-.438-.77-.967-.77-1.538 0-.115.012-.23.034-.342.268 1.16 2.122 2.058 4.37 2.058a7.86 7.86 0 001.658-.173c-.16.01-.321.016-.485.016-2.443 0-4.423-1.221-4.423-2.727 0-.09.007-.178.02-.265.31 1.135 2.142 2.007 4.357 2.007 2.43 0 4.402-1.05 4.402-2.347 0-.72-.607-1.363-1.564-1.794zm1.008 3.794l-.058.059a3.57 3.57 0 01-.662.503c-.548 1.122-2.236 1.939-4.235 1.939-1.328 0-2.519-.361-3.33-.932.664.847 2.233 1.442 4.062 1.442 2.431 0 4.402-1.05 4.402-2.347 0-.23-.062-.454-.179-.664zm6.837-2.304H14.92v3.966h1.416l.175-.005c.958-.06 1.305-.623 1.305-1.14 0-.44-.223-.763-.647-.94.357-.195.538-.484.538-.874 0-.613-.466-.962-1.316-1.003l-.175-.004zm-2.298 0h-2.505v3.966h2.606v-.694h-1.804v-.991h1.503v-.695h-1.503v-.892h1.703v-.694zm2.293 2.28c.506 0 .809.171.809.512 0 .296-.23.45-.635.476l-.127.004h-.536v-.991h.489zm-.49-1.586l.64.001c.274.012.565.092.565.412l-.003.048c-.016.123-.108.386-.593.426l-.13.005h-.478v-.892zM18.427 4a.6.6 0 01.593.499l.008.096v1.388H5V4.595a.6.6 0 01.504-.587L5.601 4h12.825z" fill-rule="evenodd"/></svg>