<?xml version="1.0" encoding="utf-8"?><svg width="20" height="20" xmlns="http://www.w3.org/2000/svg" viewBox="0 0 20 20"><path d="M19.143 3c.435 0 .797.3.85.682L20 3.78v11.44c0 .396-.329.726-.75.774l-.107.006H.857c-.435 0-.797-.3-.85-.682L0 15.22V3.78c0-.396.329-.726.75-.774L.857 3h18.286zM15 13a1 1 0 100 2 1 1 0 000-2zM7.009 5.386L4.126 8.06l.862.806L6.405 7.55v5.805h1.19l-.002-5.822 1.419 1.315.862-.805-2.865-2.657zM15 10a1 1 0 100 2 1 1 0 000-2zm0-3a1 1 0 100 2 1 1 0 000-2zm0-3a1 1 0 100 2 1 1 0 000-2z" fill-rule="evenodd"/></svg>