<?xml version="1.0" encoding="utf-8"?><svg width="20" height="20" xmlns="http://www.w3.org/2000/svg" viewBox="0 0 20 20"><path d="M11.512 9.363a3 3 0 011.08 1.08l1.776 3.045A3 3 0 0111.777 18H8.223a3 3 0 01-2.591-4.512l1.777-3.046a3 3 0 014.103-1.08zM3 7c1.38 0 2 1.12 2 2.5S4.381 12 3 12s-2-1.12-2-2.5S1.619 7 3 7zm14 0c1.381 0 2 1.12 2 2.5s-.619 2.5-2 2.5-2-1.12-2-2.5.619-2.5 2-2.5zM7 2c1.38 0 2 1.12 2 2.5S8.381 7 7 7 5 5.88 5 4.5 5.619 2 7 2zm6 0c1.381 0 2 1.12 2 2.5S14.381 7 13 7s-2-1.12-2-2.5.619-2.5 2-2.5z" fill-rule="evenodd"/></svg>