<?xml version="1.0" encoding="utf-8"?><svg width="20" height="20" xmlns="http://www.w3.org/2000/svg" viewBox="0 0 20 20"><path d="M18 13v4h-1.332l-.992-2H4.247l-.865 2H2v-4h16zM16.066 3a.79.79 0 01.784.674l.007.105v4.868c.725.41 1.095 1.45 1.139 2.43l.004.196V12H2v-.727c0-.97.325-2.045 1.003-2.535l.14-.09v-4.87c0-.393.299-.72.684-.772L3.934 3h12.132zm-2.564 3c-1.203 0-1.953.512-2.16.674l-.059.048L11 9h5l-.241-2.278-.061-.048C15.483 6.512 14.706 6 13.502 6zm-7 0c-1.203 0-1.953.512-2.16.674l-.059.048L4 9h5l-.241-2.278-.061-.048C8.483 6.512 7.706 6 6.502 6z" fill-rule="evenodd"/></svg>