<?xml version="1.0" encoding="utf-8"?><svg width="20" height="20" xmlns="http://www.w3.org/2000/svg" viewBox="0 0 20 20"><path d="M17.265 4.269c1.813 1.843 1.813 4.846 0 6.688l-3.753 3.817-3.507 3.582-7.27-7.392c-1.813-1.842-1.813-4.846 0-6.689a4.675 4.675 0 016.66 0l.601.613.609-.619a4.674 4.674 0 016.66 0zm-5.056 1.578l-2.214 2.25-2.204-2.244a2.424 2.424 0 00-3.453 0c-.95.967-.95 2.567 0 3.534l5.663 5.757 1.905-1.946 3.755-3.819a2.542 2.542 0 000-3.532 2.424 2.424 0 00-3.452 0z" fill-rule="evenodd"/></svg>