<?xml version="1.0" encoding="utf-8"?><svg width="20" height="20" xmlns="http://www.w3.org/2000/svg" viewBox="0 0 20 20"><path d="M18 11v5.5h-.714v-1.571H8.714V16.5H8v-4.714h.714v.974c0-.65 1.54-1.178 2.723-1.178 1.184 0 2.724.527 2.724 1.178 0-.65.729-1.178 1.518-1.178.742 0 1.51.467 1.598 1.065l.009.113V11H18zM6.289 4l1.903 2.6h2.553c.14.003 1.255.04 1.255.65l-.009.062c-.035.152-.21.539-1.087.584l-.173.004H8.192L6.29 10.5h-.635l.635-2.6H2.48L2 7.081V5.3h.481l.635 1.3h3.173L5.654 4h.635z" fill-rule="evenodd"/></svg>