<?xml version="1.0" encoding="utf-8"?><svg width="20" height="20" xmlns="http://www.w3.org/2000/svg" viewBox="0 0 20 20"><path d="M10 1a9 9 0 019 9 8.999 8.999 0 01-9 8.999 8.965 8.965 0 01-4.004-.937C4.302 19 3.19 19 1 19l.15-.107a4.5 4.5 0 001.706-3.419A8.96 8.96 0 011 10a9 9 0 019-9zm1.769 6.422h-1.095l-2.692 5.277h1.101l2.686-5.277zm-4.27.533L3.496 9.61v.907l4.003 1.649v-1.08l-2.613-1.023 2.613-1.022V7.955zm4.752 0v1.087l2.621 1.022-2.62 1.023v1.08l4.002-1.65v-.906l-4.003-1.656z" fill-rule="evenodd"/></svg>