<?xml version="1.0" encoding="utf-8"?><svg width="20" height="20" xmlns="http://www.w3.org/2000/svg" viewBox="0 0 20 20"><path d="M15.061 6.074c.555.28.933.827.933 1.51L16 16.682c0 .955-.613 1.622-1.486 1.788v.437A1.09 1.09 0 0113.43 20c-.597 0-1.145-.49-1.145-1.093V18.5H7.828v.407A1.11 1.11 0 016.721 20c-.503 0-.952-.348-1.082-.817L14.523 6c.032-.047.339-.047.538.073zm.27-6.062l1.99.01L4 19.997H2L15.33.012zM11.447 0A1.55 1.55 0 0113 1.543v.297l-1.497 2.19V1.758a.27.27 0 00-.268-.266H8.769a.27.27 0 00-.268.266l.001 4.214h1.626L4 15l.005-7.324c0-.995.819-1.703 1.819-1.703H7v-4.43C7 .692 7.696 0 8.552 0h2.895z" fill-rule="evenodd"/></svg>