<?xml version="1.0" encoding="utf-8"?><svg width="20" height="20" xmlns="http://www.w3.org/2000/svg" viewBox="0 0 20 20"><path d="M6.41 6l4.934 1.765 5.004.436c.363.032.637.305.651.63l-.002.09-.771 7.481c-.034.33-.328.58-.678.597l-.106-.002L1.652 15.8c-.363-.032-.637-.305-.651-.63l.002-.09.771-7.481c.034-.33.327-.58.677-.597l.107.002 3.464.3L6.41 6zm11.12 4l1.47.499-1.584 5.05a.714.714 0 01-.324.406L17 16l.531-5.845.002-.078-.002-.077zm-5.652 1.469l-.034.332.43.037-.12 1.15.428.038.118-1.151.43.037.034-.332-1.286-.111zm-.661-.058l-.152 1.483.427.037.152-1.483-.427-.037zm-1.61-.14l-.152 1.483.628.053h.122l.062-.005.125-.02a.596.596 0 00.363-.253.832.832 0 00.128-.392.884.884 0 00-.012-.302.702.702 0 00-.048-.146.567.567 0 00-.328-.3 1.186 1.186 0 00-.202-.053l-.104-.014-.581-.05zm-1.339-.115l-.152 1.482 1.044.09.032-.311-.617-.054.03-.287.544.047.031-.305-.544-.047.028-.267.593.051.032-.311-1.02-.088zm-1.537-.134l-.152 1.482.427.037.056-.548.121.01.26.577.464.04-.314-.646.086-.036a.411.411 0 00.243-.351.402.402 0 00-.037-.237.407.407 0 00-.141-.153.67.67 0 00-.203-.087l-.113-.023-.112-.014-.585-.051zm-1.07-.032a.69.69 0 00-.428.373.878.878 0 00-.057.576.62.62 0 00.352.42.946.946 0 00.334.086 1.215 1.215 0 00.297-.01l.103-.024.078-.021.037-.366a1.533 1.533 0 01-.2.076.59.59 0 01-.221.018.464.464 0 01-.186-.05.334.334 0 01-.17-.24.523.523 0 01.034-.313.369.369 0 01.22-.203.531.531 0 01.304.007l.056.02.05.023.085.05.066.047.038-.367-.065-.034-.096-.04a1.109 1.109 0 00-.279-.06.894.894 0 00-.351.032zm2.311-6.955L19.514 7.84c.37.121.572.523.451.896L19.88 9 7 4.755l.086-.265a.701.701 0 01.886-.455z" fill-rule="evenodd"/></svg>