<?xml version="1.0" encoding="utf-8"?><svg width="20" height="20" xmlns="http://www.w3.org/2000/svg" viewBox="0 0 20 20"><path d="M5.19 7.725c1.85-1.917 4.008-2.79 4.819-1.949.357.37.392 1.012.162 1.779-.12.386.35.172.35.173 1.495-.649 2.8-.687 3.277.02.233.344.231.816.05 1.364l-.055.15c-.089.23-.01.302.135.356l.106.034c.842.27 1.78.926 1.78 2.08 0 1.91-2.658 4.468-6.652 4.468C6.115 16.2 3 14.516 3 11.999c0-1.316.804-2.838 2.19-4.274zm8.097 3.94c-.157-1.633-2.256-2.759-4.688-2.512-2.432.246-4.275 1.77-4.117 3.404.158 1.635 2.257 2.76 4.688 2.514 2.432-.246 4.275-1.77 4.117-3.405zm-5.364-.912c.98-.2 1.907.311 2.07 1.142.165.831-.497 1.667-1.476 1.868-.98.2-1.907-.31-2.07-1.142-.164-.83.496-1.667 1.476-1.868zm5.557-5.628l.077.01a3.048 3.048 0 012.346 2.389.538.538 0 01-.41.634.528.528 0 01-.623-.418 1.981 1.981 0 00-1.526-1.553.537.537 0 01-.41-.634.53.53 0 01.546-.428zM13.477 3c2.44 0 4.427 1.966 4.52 4.426l.003.177a.533.533 0 01-.528.539.532.532 0 01-.527-.537c0-1.95-1.553-3.53-3.468-3.53a.532.532 0 01-.527-.538c0-.296.236-.537.527-.537z" fill-rule="evenodd"/></svg>