<?xml version="1.0" encoding="utf-8"?><svg width="20" height="20" xmlns="http://www.w3.org/2000/svg" viewBox="0 0 20 20"><path d="M20 8v8.212c0 .433-.386.788-.857.788H.857C.386 17 0 16.645 0 16.212V8h20zM5.015 10H2v5h3.124v-.805H2.941v-1.344h1.951v-.777h-1.95v-1.27h2.073V10zM7.8 10H6.065v5h1.72c1.282 0 1.855-.614 1.855-1.371 0-.921-.723-1.126-1.105-1.228l.148-.053c.349-.134.84-.4.84-1.127 0-1.009-.977-1.184-1.555-1.215l-.168-.005zm-.145 2.763c.825 0 1.016.402 1.016.757 0 .5-.388.712-.946.74l-.132.003h-.586v-1.5h.648zm-.648-2.026h.789l.118.005c.267.02.682.12.682.622l-.005.076c-.024.193-.156.545-.772.594l-.15.006h-.662v-1.303zM19.143 4c.471 0 .857.355.857.788V6H0V4.788C0 4.355.386 4 .857 4h18.286z" fill-rule="evenodd"/></svg>