<?xml version="1.0" encoding="utf-8"?><svg width="20" height="20" xmlns="http://www.w3.org/2000/svg" xmlns:xlink="http://www.w3.org/1999/xlink" viewBox="0 0 20 20"><defs><path d="M17.16 6.237A7.708 7.708 0 0019 4.273a7.287 7.287 0 01-2.123.601 3.755 3.755 0 001.629-2.093 7.346 7.346 0 01-2.344.911 3.68 3.68 0 00-2.7-1.192c-2.042 0-3.69 1.699-3.69 3.782 0 .3.026.591.092.865-3.068-.16-5.796-1.662-7.608-3.953A3.807 3.807 0 001.752 5.1c0 1.305.65 2.47 1.638 3.145a3.568 3.568 0 01-1.666-.47v.047c0 1.832 1.273 3.36 2.958 3.709a3.657 3.657 0 01-1.667.064c.476 1.502 1.831 2.6 3.45 2.63a7.306 7.306 0 01-4.586 1.624c-.3 0-.595-.02-.879-.058A10.198 10.198 0 006.658 17.5c6.795 0 10.511-5.772 10.511-10.776l-.009-.487z" id="cwa"/></defs><use xlink:href="#cwa" fill-rule="evenodd"/></svg>