<?xml version="1.0" encoding="utf-8"?><svg width="20" height="20" xmlns="http://www.w3.org/2000/svg" viewBox="0 0 20 20"><path d="M13.863 6.641c2.221 0 3.887 1.447 3.887 4.555V17h-3.376v-5.415c0-1.36-.488-2.288-1.71-2.288-.933 0-1.488.625-1.732 1.23-.089.217-.112.518-.112.82V17H7.443l.02-7.66a94.404 94.404 0 00-.02-2.461h3.377v1.435l.131-.195c.471-.665 1.282-1.478 2.912-1.478zm-8.287.238V17H2.201V6.879h3.375zM3.911 2c1.155 0 1.865.755 1.888 1.748 0 .923-.661 1.672-1.737 1.744l-.196.006C2.734 5.498 2 4.72 2 3.748 2 2.755 2.756 2 3.91 2z" fill-rule="evenodd"/></svg>