<?xml version="1.0" encoding="utf-8"?><svg width="20" height="20" xmlns="http://www.w3.org/2000/svg" viewBox="0 0 20 20"><path d="M6.233 7.736a1.824 1.824 0 012.19.854l1.46 2.996 2.505-1.417a1.217 1.217 0 011.23.019l4.332 3.217-1.113 1.776-2.445-1.774L15.895 18h-2.248l-1.275-3.902-3.44.646c-.482.088-.83.148-.874.148a1.83 1.83 0 01-1.672-1.097l-.058-.15-1.257-3.578c-.325-.96.207-2.004 1.162-2.331zm-3.657.755a.857.857 0 011.051.432l.042.1 1.873 5.438c.395 1.149 1.448 1.732 2.68 1.486l1.423-.298 2.167-.488.538 1.644-1.3.3c-.728.163-1.65.365-2.494.534a4.426 4.426 0 01-.868.087c-1.709 0-3.192-1.03-3.768-2.703L2.048 9.588a.862.862 0 01.528-1.097zM16.768 2L18 6.602h-2.289v3.97l-1.258-.8v-3.17h-2.269L13.416 2h3.352zM5.43 3.17a1.986 1.986 0 012.237 1.703 1.994 1.994 0 01-1.695 2.25 1.986 1.986 0 01-2.237-1.705A1.993 1.993 0 015.43 3.17z" fill-rule="evenodd"/></svg>