<?xml version="1.0" encoding="utf-8"?><svg width="20" height="20" xmlns="http://www.w3.org/2000/svg" viewBox="0 0 20 20"><path d="M11.501 0C12.33 0 13 .676 13 1.506V6h.991C15.101 6 16 6.886 16 7.992v8.516c0 .926-.638 1.704-1.5 1.927v.465c0 .607-.488 1.1-1.1 1.1-.608 0-1.1-.495-1.1-1.1v-.4H7.7v.4c0 .607-.488 1.1-1.1 1.1-.608 0-1.1-.495-1.1-1.1v-.464A1.99 1.99 0 014 16.508V7.992C4 6.892 4.902 6 6.009 6H7V1.506C7 .674 7.665 0 8.499 0H11.5zm-.3 1.5H8.8a.294.294 0 00-.299.295V6h3V1.795a.295.295 0 00-.299-.295z" fill-rule="evenodd"/></svg>