<svg height="23" viewBox="0 0 243 23" width="243" xmlns="http://www.w3.org/2000/svg"><g fill="none" fill-rule="nonzero"><path d="m217.270803 6.4815614c.855977-1.18066666 1.808099-2.31735087 2.852309-3.39714035 1.052324-1.08140351 2.164688-2.07121052 3.324921-2.96659649l-1.242586 4.95589474z" fill="#cbcccb"/><path d="m225.897912 8.62015789c-1.456378-.14647368-2.922086-.39705263-4.383331-.75980701-1.467331-.36396492-2.883952-.82557895-4.243778-1.37878948l4.934644-1.4078421z" fill="#4d4d4c"/><path d="m223.448033.12105263c.598778 1.32714035 1.112364 2.71440351 1.528994 4.15492983.417035 1.44738596.724132 2.89719298.920885 4.3474035l-3.692465-3.54966666z" fill="#8a8b8a"/><path d="m215.527613 16.6653158c-.865307-1.1758246-1.657593-2.4275088-2.364281-3.748193-.709933-1.3287544-1.311956-2.6861579-1.809721-4.0621228l4.353311 2.7063333z" fill="#8a8b8a"/><path d="m220.240352 9.16570175c-.592287 1.33359645-1.283559 2.64177195-2.08193 3.91201755-.802021 1.2767018-1.681527 2.4714912-2.630809 3.5875965l.179309-5.1039825z" fill="#4d4d4c"/><path d="m211.353611 8.85661404c1.456377-.15736843 2.941152-.21426316 4.448239-.16382457 1.510332.05366667 2.993484.21103509 4.438502.47291228l-4.53343 2.39563155z" fill="#cbcccb"/><path d="m224.726725 21.4614211c-1.39147.4555614-2.83162.8183157-4.3168 1.0781754-1.48802.2602631-2.971172.4115789-4.440125.4571754l3.93303-3.2817368z" fill="#4d4d4c"/><path d="m219.010748 14.6869123c1.09208.9696316 2.1298 2.0288421 3.098148 3.1792456.971189 1.150807 1.84461 2.3516491 2.617829 3.5952632l-4.823895-1.746386z" fill="#8a8b8a"/><path d="m215.9698 22.9967719c.299389-1.4264035.702225-2.8479649 1.220273-4.257421.516426-1.4151053 1.126563-2.7660527 1.82392-4.0536491l.888837 5.0293333z" fill="#cbcccb"/><path d="m232.154249 14.2410351c.006085 1.4562631-.092089 2.9318947-.301418 4.4164035-.212168 1.4881403-.525756 2.9395614-.9363 4.3425614l-1.922094-4.736386z" fill="#8a8b8a"/><path d="m223.910504 17.5542456c1.264898-.7331754 2.599167-1.3872631 3.996721-1.9481403 1.4008-.5645088 2.820666-1.0184562 4.248646-1.3650702l-3.161434 4.0225789z" fill="#cbcccb"/><path d="m230.916531 22.998386c-1.270983-.7218772-2.507079-1.5446316-3.694087-2.4682632-1.191471-.9252456-2.29775-1.9231228-3.31194-2.9758772l5.083933.7093684z" fill="#4d4d4c"/><path d="m227.547391 4.98414035c1.393091.44426316 2.774824.99424561 4.12816 1.64994737 1.359826.65892982 2.649471 1.40461403 3.863254 2.22736842l-5.121661.35468421z" fill="#8a8b8a"/><path d="m228.167264 13.8060526c-.310748-1.4247894-.523322-2.8875087-.627581-4.38210523-.104665-1.50024562-.101419-2.98354386.007708-4.44142105l2.869753 4.23361403z" fill="#cbcccb"/><path d="m235.538805 8.86145614c-1.086807.97729825-2.253126 1.89285966-3.501797 2.73135086-1.255162.8417193-2.548457 1.5781228-3.869744 2.2132456l2.24988-4.58991225z" fill="#4d4d4c"/><g fill="#1a1918"><path d="m2.66529215 13.6051053c.20770618-.4470878 1.58010852-3.4419299 1.85718531-4.05405267.28316194.61212277 1.66489483 3.60696487 1.8709783 4.05405267zm2.28841904-5.2835439h-.84867446l-4.10503673 8.8812281h1.00851085s1.17443239-2.5352456 1.2693606-2.7426491h4.49651419c.09817363.210228 1.25597329 2.7426491 1.25597329 2.7426491h1.03163439z"/><path d="m110.223421 12.7734737c0 2.8047895 1.960632 4.6177544 4.841744 4.6177544 2.683142 0 4.305847-1.8016667 4.521261-3.5851755l.02718-.2166842h-.96916l-.029209.1605965c-.306691 1.7108772-1.66814 2.7725088-3.550072 2.7725088-2.776447 0-3.884754-1.9392632-3.884754-3.7550526 0-2.2184913 1.610128-3.76877198 3.919237-3.76877198 1.758606 0 3.023098.83445614 3.382933 2.23342108l.037728.1480877h.967132l-.054361-.2380702c-.438941-1.91343858-2.018644-3.01299998-4.333432-3.01299998-3.281109 0-4.876227 2.40773688-4.876227 4.64438598zm11.657103-4.45514037v8.88445617h7.206431v-.8687544h-6.281489v-3.2986842h5.960599v-.8546316h-5.960599v-2.99282456h6.209279v-.86956141zm-15.165796 0v7.41366667c-.575249-.6928246-6.467289-7.41366667-6.467289-7.41366667h-.9277812v8.88445617h.9147992v-7.41366669c.574844.69201759 6.466884 7.41366669 6.466884 7.41366669h.928187v-8.88445617zm-21.8509333 8.88445617h.9192621v-8.88445617h-.9192621zm-8.3516545-8.88445617v8.88445617h6.4238815v-.8687544h-5.4940718v-8.01570177zm-8.4271101 0v8.88445617h6.4364574v-.8687544h-5.5066478v-8.01570177zm24.4931018 1.22949123c.2799165.61252634 1.6539416 3.61100004 1.8567796 4.05566664h-3.7249182c.2044608-.4454737 1.5874107-3.4431403 1.8681386-4.05566664zm-.4308281-1.22949123-4.1070651 8.88445617h1.0235209s1.1606394-2.5352456 1.2567846-2.7450702h4.4985426c.0965509.2098246 1.2697663 2.7450702 1.2697663 2.7450702h1.015813l-4.0932721-8.88445617zm-30.8585659 1.22949123c.2799165.61252634 1.6519132 3.61100004 1.8567796 4.05566664h-3.7257295c.2052721-.4454737 1.5865993-3.4431403 1.8689499-4.05566664zm-.4312337-1.22949123-4.1070651 8.88445617h1.0243322s1.1590167-2.5352456 1.2555676-2.7450702h4.4981369c.0969566.2098246 1.2701719 2.7450702 1.2701719 2.7450702h1.014596l-4.0916494-8.88445617zm-13.6436995.86956141c1.4105359 0 2.0965342.50559649 2.0965342 1.54664916 0 1.1689649-.7298114 1.7371052-2.2287846 1.7371052h-3.5427697v-3.28375436zm-4.6048297-.86956141v8.88445617h.9298096v-3.862386h3.6178197c1.5918732 0 1.9659066.3175614 2.0068798 1.6983684.0332655 1.4429474.0985793 1.9166667.2916812 2.1071228l.057606.0568948h.959424l-.1505058-.2860877c-.1456377-.276-.19797-.8267895-.211763-2.2628772-.0133873-.8792457-.4973589-1.5200176-1.2653038-1.8008597 1.0016144-.4466842 1.4121586-1.3481228 1.4121586-2.0897719 0-1.64470177-1.0097279-2.44485967-3.086384-2.44485967zm-6.8121136 1.22949123c.2819449.61252634 1.6640835 3.61019294 1.8697613 4.05566664h-3.7261352c.2032437-.4446666 1.5760517-3.4431403 1.8563739-4.05566664zm-.4174407-1.22949123-4.1074708 8.88445617h1.0093222s1.1740267-2.5352456 1.2705776-2.7450702h4.4981369c.0961453.2098246 1.255162 2.7450702 1.255162 2.7450702h1.030823l-4.1074708-8.88445617zm-11.89199 0v.86956141h3.4587947v8.01489476h.9188564v-8.01489476h3.4587947v-.86956141zm-9.1378547 5.96749127c0 .8804561.2608497 1.5288947.7788981 2.0461929.686404.6887895 1.9123573 1.0362106 3.4482471 1.0362106.8620618 0 3.8097045-.1876316 3.8097045-2.622 0-2.1422281-1.9646895-2.3391404-3.6985492-2.5134562v-.000807c-1.7882204-.1787544-3.1103189-.3748596-3.1103189-1.5837719 0-.6000176.3103422-1.03500002.9484708-1.32633335.6571953-.30142105 1.3663172-.34621053 2.1014023-.34621053.5667296 0 1.6056661.08756141 2.1910568.66982456.2713973.26954386.4093272.70008772.4093272 1.12377192l.9010067.0104912c0-.6508596-.2085176-1.3081754-.6219015-1.71975434-.7545576-.75092983-2.0218898-.90708772-2.9525109-.90708772-1.2790968 0-2.5395325.27277193-3.3143739 1.04266666-.4040535.40270176-.6081086.8913509-.6081086 1.4526316 0 2.095421 2.1448097 2.2673158 3.8283657 2.4178245.7975592.0710176 1.5500884.1388071 2.1078931.3821229.5906644.255421.8669299.6819298.8669299 1.3376315 0 .4168246-.1395526.7666667-.414601 1.0394386-.6531386.6500527-2.0089082.7202632-2.502616.7202632-1.2158114 0-2.1943022-.2618772-2.7123506-.7771579-.3736277-.3720351-.5655125-.8312281-.5695693-1.4832983z"/><path d="m145.094935 8.28403509h1.306683v8.92440351h-.910743v-7.71105264h-.031237l-3.952097 7.71105264h-.859628l-3.940738-7.71831579h-.022312v7.71831579h-.920073v-8.92440351h1.348467l3.99307 7.76068421z"/><path d="m149.696114 8.33164912v8.88889478h7.216166v-.8735965h-6.284328v-3.2994913h5.965061v-.8505965h-5.965061v-2.99726311h6.213741v-.86794737z"/><path d="m169.062686 8.28726316h1.311145v8.92722804h-.915205v-7.70540348h-.028803l-3.956154 7.70540348h-.853948l-3.9452-7.72194734h-.023935v7.72194734h-.917234v-8.92722804h1.344411l3.99591 7.76028074z"/><path d="m174.613553 13.016386h4.119235c1.074636 0 1.880309.3631579 1.880309 1.6539824 0 1.2210176-.907903 1.6963509-2.105459 1.6963509h-3.894085zm-.918451 4.1864035h4.95939c1.375648 0 2.947238-.6706316 2.947238-2.5324211 0-1.1415263-.708311-1.9937368-1.883149-2.1741052v-.0225965c1.062466-.2534035 1.534267-1.054772 1.534267-1.9178772 0-1.27266669-.729811-2.24431582-2.479492-2.24431582h-5.078254zm.918451-8.05242108h3.981305c1.012568 0 1.737917.34701754 1.737917 1.43931578 0 1.1923684-.799994 1.5890176-2.048259 1.5890176h-3.670963z"/><path d="m184.522598 8.32478947v8.88364913h7.213327v-.8719825h-6.288791v-3.2994912h5.967901v-.852614h-5.967901v-2.99403511h6.213335v-.86552632z"/><path d="m199.016189 12.4736667h-3.546827v-3.28335091h3.675426c1.41013 0 2.096534.50680702 2.096534 1.54705261 0 1.1685614-.725349 1.7362983-2.225133 1.7362983zm3.236484 4.4498947c-.148478-.2796316-.199187-.829614-.210952-2.2681228-.013387-.874807-.500604-1.515579-1.266521-1.7976316 1.004454-.4450702 1.410131-1.3485263 1.410131-2.0905789 0-1.64792985-1.005672-2.45212284-3.08395-2.45212284h-4.56264v8.89333334h.930621v-3.8627895h3.614169c1.594713 0 1.971586.3159474 2.013776 1.6959474.031643 1.4437544.0929 1.9178772.29087 2.1091403l.055578.0577018h.959018z"/><path d="m238.382594 10.5457018h.230019v-2.01149127h.877883v-.20982457h-1.984162v.20982457h.87626z"/><path d="m242.392703 8.32438596h.328192v2.22131584h-.232858v-1.92110531h-.004463l-.985387 1.92110531h-.211763l-.982953-1.92312285h-.007708v1.92312285h-.229613v-2.22131584h.337117l.993907 1.93200004z"/></g></g></svg>