<?xml version="1.0" encoding="UTF-8"?>
<svg width="243px" height="23px" viewBox="0 0 243 23" version="1.1" xmlns="http://www.w3.org/2000/svg" xmlns:xlink="http://www.w3.org/1999/xlink">
    <!-- Generator: Sketch 54.1 (76490) - https://sketchapp.com -->
    <title>Components/Logos/StarAlliance/White M</title>
    <desc>Created with Sketch.</desc>
    <g id="Final-VD" stroke="none" stroke-width="1" fill="none" fill-rule="evenodd">
        <g id="Components/Logos/StarAlliance/White-M">
            <g transform="translate(0.000000, 0.000000)">
                <path d="M219.892108,2.99630472 C220.939615,1.91323391 222.04855,0.922304936 223.202748,0.0251343348 L221.966108,4.98947833 L217.050259,6.40070343 C217.902167,5.21579163 218.851067,4.07937554 219.892108,2.99630472 Z" id="Fill-4" fill="#FFFFFE"></path>
                <path d="M221.277469,7.77959807 C219.816131,7.41749678 218.404906,6.95193798 217.050259,6.40070343 L221.966108,4.98947833 L225.643699,8.54098069 C224.193677,8.39549356 222.73234,8.14331588 221.277469,7.77959807 Z" id="Fill-5" fill="#1A1919"></path>
                <path d="M224.72713,4.18929914 C225.142577,5.63932082 225.4481,7.09095901 225.643699,8.54421373 L221.966108,4.98947833 L223.202748,0.028367382 C223.800862,1.35714979 224.311683,2.74736009 224.72713,4.18929914 Z" id="Fill-6" fill="#8A8B8A"></path>
                <path d="M212.958838,12.8441665 C212.250801,11.5153841 211.651071,10.1542712 211.154798,8.77699313 L215.491931,11.4862867 L215.314113,16.5977343 C214.450889,15.4209052 213.662026,14.1664828 212.958838,12.8441665 Z" id="Fill-7" fill="#8A8B8A"></path>
                <path d="M217.934498,13.0058189 C217.135935,14.2844891 216.259779,15.4807165 215.314113,16.5977343 L215.491931,11.4862867 L220.008498,9.08736567 C219.418467,10.4226142 218.729827,11.7319983 217.934498,13.0058189 Z" id="Fill-8" fill="#1A1919"></path>
                <path d="M215.587306,8.61372425 C217.090673,8.66706953 218.568175,8.82548884 220.008498,9.08736567 L215.491931,11.4862867 L211.154798,8.77699313 C212.606436,8.62019034 214.085555,8.56361202 215.587306,8.61372425 Z" id="Fill-9" fill="#FFFFFE"></path>
                <path d="M220.176616,22.4834968 C218.694264,22.7421406 217.216761,22.8940938 215.753808,22.940973 L219.672261,19.6545805 L224.478185,21.403659 C223.091208,21.8579021 221.655735,22.22162 220.176616,22.4834968 Z" id="Fill-10" fill="#1A1919"></path>
                <path d="M221.869116,17.8004279 C222.837414,18.9530092 223.707104,20.1557028 224.478185,21.403659 L219.672261,19.6545805 L218.783173,14.6191094 C219.871093,15.5874071 220.905668,16.6478466 221.869116,17.8004279 Z" id="Fill-11" fill="#8A8B8A"></path>
                <path d="M216.969433,18.6749672 C217.483488,17.257276 218.091301,15.9058622 218.786406,14.6158764 L219.672261,19.6545805 L215.753808,22.940973 C216.052864,21.5103496 216.453762,20.0861923 216.969433,18.6749672 Z" id="Fill-12" fill="#FFFFFE"></path>
                <path d="M231.576341,18.594141 C231.364576,20.0829592 231.052587,21.539447 230.643606,22.944206 L228.728026,18.1980927 L231.877014,14.1697159 C231.88348,15.6294367 231.784872,17.1069393 231.576341,18.594141 Z" id="Fill-13" fill="#8A8B8A"></path>
                <path d="M227.646572,15.5372948 C229.041632,14.9715116 230.45609,14.5172685 231.87863,14.1697159 L228.728026,18.1980927 L223.665074,17.4884388 C224.924346,16.7561536 226.253128,16.0998451 227.646572,15.5372948 Z" id="Fill-14" fill="#FFFFFE"></path>
                <path d="M226.964399,20.4693084 C225.776254,19.5430403 224.675401,18.5424122 223.665074,17.4884388 L228.728026,18.1980927 L230.643606,22.940973 C229.377868,22.2183869 228.146077,21.3939599 226.964399,20.4693084 Z" id="Fill-15" fill="#1A1919"></path>
                <path d="M231.400139,6.55104013 C232.754786,7.21219828 234.039923,7.95903219 235.249082,8.78345923 L230.145717,9.1374779 L227.287703,4.90056953 C228.674681,5.34511352 230.051959,5.89473155 231.400139,6.55104013 Z" id="Fill-16" fill="#8A8B8A"></path>
                <path d="M227.279621,9.34600944 C227.176163,7.84264249 227.17778,6.35867382 227.287703,4.89733648 L230.145717,9.1374779 L227.905215,13.734871 C227.594843,12.3074807 227.383078,10.8429103 227.279621,9.34600944 Z" id="Fill-17" fill="#FFFFFE"></path>
                <path d="M231.759008,11.5186172 C230.509435,12.360826 229.221066,13.0995773 227.905215,13.734871 L230.145717,9.1374779 L235.249082,8.78345923 C234.166011,9.76307253 233.003731,10.6780249 231.759008,11.5186172 Z" id="Fill-18" fill="#1A1919"></path>
                <path d="M3.26177961,13.5344221 C3.46869464,13.0866451 4.83627361,10.0879938 5.11108262,9.47371481 C5.39397425,10.0879938 6.77125236,13.0866451 6.97655086,13.5344221 C6.48836073,13.5344221 3.7467367,13.5344221 3.26177961,13.5344221 Z M4.69725258,8.24192382 L0.60583133,17.1376532 L1.61130901,17.1376532 C1.61130901,17.1376532 2.7816721,14.5980946 2.877047,14.3911796 C3.10497682,14.3911796 7.12688755,14.3911796 7.35481738,14.3911796 C7.45342532,14.6013277 8.60762318,17.1376532 8.60762318,17.1376532 L9.63411567,17.1376532 L5.5410779,8.24192382 L4.69725258,8.24192382 Z" id="Fill-19" fill="#FFFFFE"></path>
                <path d="M110.409814,12.7019124 C110.409814,15.5098139 112.364191,17.32517 115.23352,17.32517 C117.90725,17.32517 119.523774,15.5211296 119.738771,13.734871 L119.764636,13.5182569 L118.799571,13.5182569 L118.770474,13.6799092 C118.464951,15.3918077 117.108688,16.4554803 115.23352,16.4554803 C112.469265,16.4554803 111.363563,14.5140354 111.363563,12.6954464 C111.363563,10.4727264 112.967154,8.91924721 115.267467,8.91924721 C117.019779,8.91924721 118.279051,9.75660644 118.637919,11.1581324 L118.675099,11.3068526 L119.638547,11.3068526 L119.585202,11.0659906 C119.147124,9.15041009 117.574246,8.04955751 115.267467,8.04955751 C112.000473,8.04955751 110.409814,10.4597942 110.409814,12.7019124 Z M122.022919,8.23869077 L122.022919,17.1376532 L129.201901,17.1376532 L129.201901,16.266347 C129.201901,16.266347 123.309672,16.266347 122.944338,16.266347 C122.944338,15.9381927 122.944338,13.2919436 122.944338,12.9637893 C123.308056,12.9637893 128.883445,12.9637893 128.883445,12.9637893 L128.883445,12.1086483 C128.883445,12.1086483 123.308056,12.1086483 122.944338,12.1086483 C122.944338,11.783727 122.944338,9.43653476 122.944338,9.10838047 C123.309672,9.10838047 129.129157,9.10838047 129.129157,9.10838047 L129.129157,8.23869077 L122.022919,8.23869077 Z M106.91489,8.23869077 C106.91489,8.23869077 106.91489,14.7354991 106.91489,15.6633837 C106.34264,14.9698951 100.473043,8.23869077 100.473043,8.23869077 L99.5483916,8.23869077 L99.5483916,17.1376532 L100.460111,17.1376532 C100.460111,17.1376532 100.460111,10.5988152 100.460111,9.71134378 C101.03236,10.4048324 106.901958,17.1376532 106.901958,17.1376532 L107.824992,17.1376532 L107.824992,8.23869077 L106.91489,8.23869077 Z M85.1467828,17.1376532 L86.0633517,17.1376532 L86.0633517,8.23869077 L85.1467828,8.23869077 L85.1467828,17.1376532 Z M76.8281524,8.23869077 L76.8281524,17.1376532 L83.2279693,17.1376532 L83.2279693,16.266347 C83.2279693,16.266347 78.1165217,16.266347 77.7544204,16.266347 C77.7544204,15.8977796 77.7544204,8.23869077 77.7544204,8.23869077 L76.8281524,8.23869077 Z M68.4319288,8.23869077 L68.4319288,17.1376532 L74.8446779,17.1376532 L74.8446779,16.266347 C74.8446779,16.266347 69.7219146,16.266347 69.3598133,16.266347 C69.3598133,15.8977796 69.3598133,8.23869077 69.3598133,8.23869077 L68.4319288,8.23869077 Z M92.8317361,9.47048176 C93.1113946,10.0847607 94.4805901,13.0866451 94.6826556,13.5328056 C94.1976985,13.5328056 91.4560745,13.5328056 90.9711174,13.5328056 C91.1764159,13.0866451 92.5520775,10.0847607 92.8317361,9.47048176 Z M92.4017408,8.23869077 L88.3119361,17.1376532 L89.3319624,17.1376532 C89.3319624,17.1376532 90.4877768,14.5980946 90.5815352,14.3879466 C90.8143146,14.3879466 94.8346088,14.3879466 95.0657717,14.3879466 C95.1611466,14.5980946 96.3298931,17.1376532 96.3298931,17.1376532 L97.3418369,17.1376532 L93.2649644,8.23869077 L92.4017408,8.23869077 Z M61.6619279,9.47048176 C61.9415865,10.0847607 63.3075489,13.0866451 63.5112309,13.5328056 C63.0278903,13.5328056 60.2846498,13.5328056 59.7996927,13.5328056 C60.0033747,13.0866451 61.3806528,10.0847607 61.6619279,9.47048176 Z M61.2319326,8.23869077 L57.1405114,17.1376532 L58.1621543,17.1376532 C58.1621543,17.1376532 59.3163521,14.5980946 59.411727,14.3879466 C59.6445064,14.3879466 63.6631841,14.3879466 63.894347,14.3879466 C63.9897219,14.5980946 65.1584685,17.1376532 65.1584685,17.1376532 L66.1704122,17.1376532 L62.0919232,8.23869077 L61.2319326,8.23869077 Z M47.6402021,9.10838047 C49.0449612,9.10838047 49.7287506,9.61758541 49.7287506,10.6586266 C49.7287506,11.8306062 49.0029315,12.3996225 47.5092637,12.3996225 C47.5092637,12.3996225 44.3279453,12.3996225 43.9787762,12.3996225 C43.9787762,12.0666187 43.9787762,9.43976781 43.9787762,9.10838047 C44.3295618,9.10838047 47.6402021,9.10838047 47.6402021,9.10838047 Z M43.0525082,8.23869077 L43.0525082,17.1376532 L43.9787762,17.1376532 C43.9787762,17.1376532 43.9787762,13.6200979 43.9787762,13.2693122 C44.3295618,13.2693122 47.5836238,13.2693122 47.5836238,13.2693122 C49.1694335,13.2693122 49.5428504,13.5861509 49.5832635,14.9682785 C49.6172105,16.4150672 49.6818715,16.8887086 49.8742378,17.0810749 L49.9308161,17.1376532 L50.8861815,17.1376532 L50.7374614,16.849912 C50.5919742,16.575103 50.538629,16.0238685 50.5256968,14.5835459 C50.5127646,13.7025406 50.0310406,13.0623972 49.2664249,12.7811221 C50.26382,12.3333451 50.6711839,11.4297084 50.6711839,10.687724 C50.6711839,9.03886996 49.6657062,8.23869077 47.5981725,8.23869077 L43.0525082,8.23869077 Z M36.2679586,9.47048176 C36.5492337,10.0847607 37.9248953,13.0866451 38.1301938,13.5328056 C37.6436202,13.5328056 34.9019961,13.5328056 34.4170391,13.5328056 C34.6191045,13.0866451 35.9883,10.0847607 36.2679586,9.47048176 Z M35.8508955,8.23869077 L31.7594742,17.1376532 L32.7649519,17.1376532 C32.7649519,17.1376532 33.935315,14.5980946 34.0306899,14.3879466 C34.2602363,14.3879466 38.2805305,14.3879466 38.5133099,14.3879466 C38.6070682,14.5980946 39.7628826,17.1376532 39.7628826,17.1376532 L40.7893751,17.1376532 L36.6963373,8.23869077 L35.8508955,8.23869077 Z M24.0050105,8.23869077 L24.0050105,9.10838047 C24.0050105,9.10838047 27.1038863,9.10838047 27.4498223,9.10838047 C27.4498223,9.4801809 27.4498223,17.1376532 27.4498223,17.1376532 L28.3647747,17.1376532 C28.3647747,17.1376532 28.3647747,9.4801809 28.3647747,9.10838047 C28.7123273,9.10838047 31.811203,9.10838047 31.811203,9.10838047 L31.811203,8.23869077 L24.0050105,8.23869077 Z M15.6782974,16.2647305 C16.3604704,16.9549861 17.5825622,17.3025386 19.1134101,17.3025386 C19.9717841,17.3025386 22.907391,17.1150219 22.907391,14.6773043 C22.907391,12.5321775 20.9513974,12.3349616 19.2233337,12.1587605 C17.4419247,11.9793264 16.1244579,11.783727 16.1244579,10.5729509 C16.1244579,9.97160408 16.4332139,9.5351427 17.0701242,9.24416845 C17.7248163,8.94187854 18.4312371,8.8982324 19.1635223,8.8982324 C19.7260725,8.8982324 20.7622642,8.98552468 21.3458292,9.5690897 C21.6157886,9.83904914 21.7531931,10.2690444 21.7531931,10.6941901 L22.6503637,10.7038893 C22.6503637,10.0524303 22.4434487,9.39288863 22.0312352,8.98229163 C21.2795517,8.22899163 20.0170468,8.07380536 19.0907788,8.07380536 C17.8169582,8.07380536 16.5593028,8.34699785 15.7898376,9.11807961 C15.3857067,9.52059399 15.1836412,10.0104006 15.1836412,10.5729509 C15.1836412,12.6711985 17.3190689,12.8441665 18.9970204,12.9945032 C19.7907335,13.0656303 20.5408004,13.1335242 21.0968845,13.3776193 C21.6836826,13.63303 21.9601082,14.0597923 21.9601082,14.7161009 C21.9601082,15.1331639 21.8194706,15.4839496 21.5462781,15.7587586 C20.8964356,16.4086011 19.5466384,16.4781116 19.0535987,16.4781116 C17.841206,16.4781116 16.8680588,16.2162348 16.3523878,15.7021803 C15.9789708,15.3287633 15.7898376,14.8680541 15.784988,14.2149785 L14.9023661,14.2165951 C14.9023661,15.0976004 15.1610099,15.7474429 15.6782974,16.2647305 Z" id="Fill-20" fill="#FFFFFE"></path>
                <polygon id="Fill-21" fill="#FFFFFE" points="146.450208 8.20474378 146.450208 17.1425028 145.543338 17.1425028 145.543338 9.42036953 145.512624 9.42036953 141.574772 17.1425028 140.719631 17.1425028 136.793095 9.41228691 136.770464 9.41228691 136.770464 17.1425028 135.853895 17.1425028 135.853895 8.20474378 137.197226 8.20474378 141.175491 15.9769893 145.148906 8.20474378"></polygon>
                <path d="M149.73175,17.155435 L156.922047,17.155435 L156.922047,16.2792792 C156.922047,16.2792792 151.024969,16.2792792 150.661252,16.2792792 C150.661252,15.9511249 150.661252,13.3081088 150.661252,12.9751049 C151.023353,12.9751049 156.603592,12.9751049 156.603592,12.9751049 L156.603592,12.1248135 C156.603592,12.1248135 151.023353,12.1248135 150.661252,12.1248135 C150.661252,11.7982758 150.661252,9.44461738 150.661252,9.12131266 C151.023353,9.12131266 156.85092,9.12131266 156.85092,9.12131266 L156.85092,8.25323948 L149.73175,8.25323948 L149.73175,17.155435 Z" id="Fill-22" fill="#FFFFFE"></path>
                <polygon id="Fill-23" fill="#FFFFFE" points="170.331111 8.20797682 170.331111 17.1489689 169.419391 17.1489689 169.419391 9.43168519 169.390294 9.43168519 165.450826 17.1489689 164.600535 17.1489689 160.669149 9.41551996 160.644901 9.41551996 160.644901 17.1489689 159.731565 17.1489689 159.731565 8.20797682 161.071664 8.20797682 165.051545 15.9786058 169.02496 8.20797682"></polygon>
                <path d="M174.555087,12.944391 L178.65944,12.944391 C179.729579,12.944391 180.531375,13.3081088 180.531375,14.6013277 C180.531375,15.8250361 179.626121,16.300294 178.434744,16.300294 L174.555087,16.300294 L174.555087,12.944391 Z M173.640135,17.1376532 L178.580231,17.1376532 C179.952659,17.1376532 181.515838,16.4651794 181.515838,14.6013277 C181.515838,13.4584455 180.811033,12.6033045 179.64067,12.4238704 L179.64067,12.3996225 C180.699493,12.1458283 181.169902,11.3440326 181.169902,10.4791925 C181.169902,9.20537189 180.440849,8.23060815 178.698237,8.23060815 L173.640135,8.23060815 L173.640135,17.1376532 Z M178.522036,9.07281695 C179.530747,9.07281695 180.251716,9.42036953 180.251716,10.514756 C180.251716,11.7077504 179.456386,12.1054152 178.211663,12.1054152 L174.555087,12.1054152 L174.555087,9.07281695 L178.522036,9.07281695 Z" id="Fill-24" fill="#FFFFFE"></path>
                <path d="M184.42558,17.1425028 L191.612644,17.1425028 L191.612644,16.26958 C191.612644,16.26958 185.718799,16.26958 185.348615,16.26958 C185.348615,15.9414258 185.348615,13.2951766 185.348615,12.9637893 C185.712333,12.9637893 191.292572,12.9637893 191.292572,12.9637893 L191.292572,12.1118813 C191.292572,12.1118813 185.712333,12.1118813 185.348615,12.1118813 C185.348615,11.7869601 185.348615,9.43976781 185.348615,9.11161352 C185.712333,9.11161352 191.538284,9.11161352 191.538284,9.11161352 L191.538284,8.24515687 L184.42558,8.24515687 L184.42558,17.1425028 Z" id="Fill-25" fill="#FFFFFE"></path>
                <path d="M198.864369,12.3996225 C198.864369,12.3996225 195.681434,12.3996225 195.330648,12.3996225 C195.330648,12.0698517 195.330648,9.43976781 195.330648,9.11161352 C195.681434,9.11161352 198.993691,9.11161352 198.993691,9.11161352 C200.39845,9.11161352 201.082239,9.62081845 201.082239,10.6618597 C201.082239,11.8322227 200.359653,12.3996225 198.864369,12.3996225 Z M201.879185,14.586779 C201.864637,13.7090067 201.37968,13.0688633 200.61668,12.7859717 C201.617309,12.3381946 202.021439,11.4361745 202.021439,10.6909571 C202.021439,9.04048648 201.020811,8.23545773 198.950045,8.23545773 L194.40438,8.23545773 L194.40438,17.1425028 L195.330648,17.1425028 C195.330648,17.1425028 195.330648,13.6217144 195.330648,13.2741618 C195.681434,13.2741618 198.932263,13.2741618 198.932263,13.2741618 C200.519689,13.2741618 200.896339,13.5910004 200.938369,14.9715116 C200.970699,16.4183002 201.030511,16.8935582 201.227726,17.0843079 L201.282688,17.1425028 L202.23967,17.1425028 L202.089333,16.8563781 C201.940613,16.5783361 201.890501,16.0271015 201.879185,14.586779 Z" id="Fill-26" fill="#FFFFFE"></path>
                <polygon id="Fill-27" fill="#FFFFFE" points="238.28653 10.4711099 238.28653 8.45692146 239.161069 8.45692146 239.161069 8.24677339 237.184061 8.24677339 237.184061 8.45692146 238.056984 8.45692146 238.056984 10.4711099"></polygon>
                <polygon id="Fill-28" fill="#FFFFFE" points="242.377951 8.24677339 242.377951 10.4711099 242.145172 10.4711099 242.145172 8.5490633 241.160709 10.4711099 240.948944 10.4711099 239.970948 8.54583026 239.962865 8.54583026 239.962865 10.4711099 239.733319 10.4711099 239.733319 8.24677339 240.069556 8.24677339 241.058868 10.1817521 242.051414 8.24677339"></polygon>
            </g>
        </g>
    </g>
</svg>