<?xml version="1.0" encoding="UTF-8"?><svg width="243" height="23" xmlns="http://www.w3.org/2000/svg" viewBox="0 0 243 23"><g fill="none" fill-rule="evenodd"><path d="M219.892 2.996a31.505 31.505 0 013.31-2.97l-1.236 4.963-4.916 1.412a31.186 31.186 0 012.842-3.405z" fill="#FFFFFE"/><path d="M221.277 7.78a30.994 30.994 0 01-4.227-1.38l4.916-1.41 3.678 3.551a30.614 30.614 0 01-4.367-.761z" fill="#1A1919"/><path d="M224.727 4.19c.416 1.45.721 2.901.917 4.354l-3.678-3.555 1.237-4.96a31.142 31.142 0 011.524 4.16zM212.959 12.844a30.984 30.984 0 01-1.804-4.067l4.337 2.71-.178 5.11a30.785 30.785 0 01-2.355-3.753z" fill="#8A8B8A"/><path d="M217.934 13.006a30.814 30.814 0 01-2.62 3.592l.178-5.112 4.516-2.399a31.21 31.21 0 01-2.074 3.919z" fill="#1A1919"/><path d="M215.587 8.614c1.504.053 2.981.211 4.421.473l-4.516 2.4-4.337-2.71a31.472 31.472 0 014.432-.163z" fill="#FFFFFE"/><path d="M220.177 22.483c-1.483.26-2.96.411-4.423.458l3.918-3.286 4.806 1.749a31.407 31.407 0 01-4.301 1.08z" fill="#1A1919"/><path d="M221.87 17.8a30.626 30.626 0 012.608 3.604l-4.806-1.75-.889-5.035a30.123 30.123 0 013.086 3.181z" fill="#8A8B8A"/><path d="M216.97 18.675a30.36 30.36 0 011.816-4.06l.886 5.04-3.918 3.286c.299-1.43.7-2.855 1.215-4.266z" fill="#FFFFFE"/><path d="M231.576 18.594a31.387 31.387 0 01-.932 4.35l-1.916-4.746 3.149-4.028a30.867 30.867 0 01-.3 4.424z" fill="#8A8B8A"/><path d="M227.647 15.537a30.55 30.55 0 014.232-1.367l-3.151 4.028-5.063-.71a31.028 31.028 0 013.982-1.95z" fill="#FFFFFE"/><path d="M226.964 20.47a30.84 30.84 0 01-3.299-2.982l5.063.71 1.916 4.743a30.553 30.553 0 01-3.68-2.472z" fill="#1A1919"/><path d="M231.4 6.551a30.844 30.844 0 013.85 2.232l-5.104.354-2.858-4.236c1.387.444 2.764.994 4.112 1.65z" fill="#8A8B8A"/><path d="M227.28 9.346a30.944 30.944 0 01.008-4.449l2.858 4.24-2.24 4.598a30.559 30.559 0 01-.626-4.389z" fill="#FFFFFE"/><path d="M231.759 11.519a31.053 31.053 0 01-3.854 2.216l2.24-4.598 5.104-.354a31.376 31.376 0 01-3.49 2.736z" fill="#1A1919"/><path d="M3.262 13.534c.207-.447 1.574-3.446 1.85-4.06l1.865 4.06H3.262zm1.435-5.292L.606 17.138H1.61l1.266-2.747h4.478c.098.21 1.253 2.747 1.253 2.747h1.026L5.541 8.242h-.844zM110.41 12.702c0 2.808 1.954 4.623 4.824 4.623 2.673 0 4.29-1.804 4.505-3.59l.026-.217h-.965l-.03.162c-.305 1.712-1.661 2.775-3.536 2.775-2.765 0-3.87-1.941-3.87-3.76 0-2.222 1.603-3.776 3.903-3.776 1.753 0 3.012.838 3.37 2.24l.038.148h.964l-.054-.241c-.438-1.916-2.01-3.016-4.318-3.016-3.267 0-4.857 2.41-4.857 4.652zm11.613-4.463v8.899h7.179v-.872h-6.258v-3.302h5.94v-.855h-5.94v-3h6.185v-.87h-7.106zm-15.108 0v7.424c-.572-.693-6.442-7.424-6.442-7.424h-.925v8.899h.912V9.71c.572.694 6.442 7.427 6.442 7.427h.923v-8.9h-.91zm-21.768 8.899h.916v-8.9h-.916v8.9zm-8.319-8.9v8.9h6.4v-.872h-5.474V8.24h-.926zm-8.396 0v8.9h6.413v-.872H69.36V8.24h-.928zm24.4 1.232c.28.615 1.649 3.617 1.85 4.063h-3.71c.204-.446 1.58-3.448 1.86-4.063zm-.43-1.231l-4.09 8.899h1.02s1.156-2.54 1.25-2.75h4.484c.095.21 1.264 2.75 1.264 2.75h1.012l-4.077-8.9h-.863zM61.662 9.47l1.85 4.063H59.8c.203-.446 1.58-3.448 1.862-4.063zm-.43-1.231l-4.091 8.899h1.021l1.25-2.75h4.482l1.264 2.75h1.012l-4.078-8.9h-.86zm-13.592.87c1.405 0 2.089.509 2.089 1.55 0 1.172-.726 1.74-2.22 1.74h-3.53V9.11h3.661zm-4.587-.87v8.899h.926v-3.869h3.605c1.585 0 1.959.317 2 1.7.033 1.446.098 1.92.29 2.112l.057.057h.955l-.149-.288c-.145-.275-.198-.826-.211-2.266-.013-.881-.495-1.522-1.26-1.803.998-.448 1.405-1.351 1.405-2.093 0-1.65-1.005-2.45-3.073-2.45h-4.545zM36.268 9.47l1.862 4.063h-3.713c.202-.446 1.571-3.448 1.851-4.063zm-.417-1.231l-4.092 8.899h1.006l1.266-2.75h4.482c.094.21 1.25 2.75 1.25 2.75h1.026l-4.093-8.9h-.845zm-11.846 0v.87h3.445v8.029h.915v-8.03h3.446v-.87h-7.806zm-8.327 8.026c.682.69 1.905 1.038 3.435 1.038.859 0 3.794-.188 3.794-2.626 0-2.145-1.956-2.342-3.684-2.518-1.781-.18-3.099-.375-3.099-1.586 0-.601.31-1.038.946-1.329.655-.302 1.361-.346 2.094-.346.562 0 1.598.088 2.182.671.27.27.407.7.407 1.125l.897.01c0-.652-.207-1.311-.619-1.722-.751-.753-2.014-.908-2.94-.908-1.274 0-2.532.273-3.301 1.044a1.987 1.987 0 00-.606 1.455c0 2.098 2.135 2.271 3.813 2.422.794.07 1.544.139 2.1.383.587.255.863.682.863 1.338 0 .417-.14.768-.414 1.043-.65.65-2 .72-2.492.72-1.213 0-2.186-.263-2.702-.777-.373-.373-.562-.834-.567-1.487l-.883.002c0 .88.259 1.53.776 2.048zM146.45 8.205v8.938h-.907V9.42h-.03l-3.938 7.723h-.855l-3.927-7.73h-.023v7.73h-.916V8.205h1.343l3.978 7.772 3.974-7.772zM149.732 17.155h7.19v-.876h-6.26v-3.304h5.942v-.85h-5.943V9.12h6.19v-.868h-7.12v8.902zM170.331 8.208v8.941h-.912V9.432h-.029l-3.94 7.717h-.85l-3.93-7.733h-.025v7.733h-.913V8.208h1.34l3.98 7.77 3.973-7.77zM174.555 12.944h4.104c1.07 0 1.872.364 1.872 1.657 0 1.224-.905 1.7-2.096 1.7h-3.88v-3.357zm-.915 4.194h4.94c1.373 0 2.936-.673 2.936-2.537 0-1.143-.705-1.998-1.875-2.177V12.4c1.058-.254 1.529-1.056 1.529-1.92 0-1.275-.73-2.25-2.472-2.25h-5.058v8.908zm4.882-8.065c1.009 0 1.73.347 1.73 1.442 0 1.193-.796 1.59-2.04 1.59h-3.657V9.073h3.967zM184.426 17.143h7.187v-.873h-6.264v-3.306h5.944v-.852h-5.944v-3h6.19v-.867h-7.113v8.898zM198.864 12.4h-3.533V9.112h3.663c1.404 0 2.088.509 2.088 1.55 0 1.17-.722 1.738-2.218 1.738zm3.015 2.187c-.014-.878-.5-1.518-1.262-1.801 1-.448 1.404-1.35 1.404-2.095 0-1.65-1-2.456-3.071-2.456h-4.546v8.908h.927v-3.869h3.601c1.588 0 1.964.317 2.006 1.698.033 1.446.093 1.922.29 2.112l.055.059h.957l-.15-.287c-.15-.278-.2-.829-.21-2.27zM238.287 10.471V8.457h.874v-.21h-1.977v.21h.873v2.014zM242.378 8.247v2.224h-.233V8.55l-.984 1.922h-.212l-.978-1.925h-.008v1.925h-.23V8.247h.337l.989 1.935.992-1.935z" fill="#FFFFFE"/></g></svg>