<?xml version="1.0" encoding="utf-8"?><svg height="23" width="243" xmlns="http://www.w3.org/2000/svg" viewBox="0 0 243 23"><g fill="none"><path d="M217.27 6.482a31.415 31.415 0 012.853-3.398 31.459 31.459 0 013.325-2.966l-1.243 4.956z" fill="#cbcccb"/><path d="M225.898 8.62a31.116 31.116 0 01-4.383-.76 31.168 31.168 0 01-4.244-1.378l4.934-1.408z" fill="#4d4d4c"/><path d="M223.448.121a31.136 31.136 0 011.529 4.155c.417 1.447.724 2.897.92 4.347l-3.692-3.55zM215.528 16.665a30.998 30.998 0 01-4.174-7.81l4.353 2.706z" fill="#8a8b8a"/><path d="M220.24 9.166a30.962 30.962 0 01-4.712 7.5l.179-5.105z" fill="#4d4d4c"/><path d="M211.354 8.857a31.558 31.558 0 014.448-.164c1.51.053 2.993.21 4.438.473l-4.533 2.395z" fill="#cbcccb"/><path d="M224.727 21.461a31.426 31.426 0 01-8.757 1.535l3.933-3.281z" fill="#4d4d4c"/><path d="M219.01 14.687c1.093.97 2.13 2.029 3.099 3.18a30.751 30.751 0 012.618 3.594l-4.824-1.746z" fill="#8a8b8a"/><path d="M215.97 22.997c.3-1.427.702-2.848 1.22-4.258a30.346 30.346 0 011.824-4.053l.889 5.029z" fill="#cbcccb"/><path d="M232.154 14.241A30.705 30.705 0 01230.917 23l-1.923-4.736z" fill="#8a8b8a"/><path d="M223.91 17.554a30.975 30.975 0 013.997-1.948c1.401-.564 2.82-1.018 4.249-1.365l-3.162 4.023z" fill="#cbcccb"/><path d="M230.917 22.998a30.726 30.726 0 01-3.695-2.468 31.014 31.014 0 01-3.311-2.976l5.083.71z" fill="#4d4d4c"/><path d="M227.547 4.984a31.247 31.247 0 017.992 3.877l-5.122.355z" fill="#8a8b8a"/><path d="M228.167 13.806a30.784 30.784 0 01-.62-8.824l2.87 4.234z" fill="#cbcccb"/><path d="M235.539 8.861a31.261 31.261 0 01-7.372 4.945l2.25-4.59z" fill="#4d4d4c"/><g fill="#1a1918"><path d="M2.665 13.605c.208-.447 1.58-3.442 1.857-4.054.284.612 1.665 3.607 1.871 4.054zm2.289-5.283h-.849L0 17.202h1.009l1.269-2.742h4.496c.099.21 1.256 2.743 1.256 2.743h1.032zM110.223 12.773c0 2.805 1.961 4.618 4.842 4.618 2.683 0 4.306-1.801 4.521-3.585l.028-.217h-.97l-.029.161c-.306 1.71-1.668 2.772-3.55 2.772-2.776 0-3.885-1.939-3.885-3.755 0-2.218 1.61-3.768 3.92-3.768 1.758 0 3.023.834 3.383 2.233l.037.148h.967l-.054-.238c-.439-1.913-2.019-3.013-4.333-3.013-3.281 0-4.877 2.408-4.877 4.644zm11.658-4.455v8.885h7.206v-.869h-6.282v-3.299h5.961v-.854h-5.96V9.188h6.209v-.87zm-15.166 0v7.414c-.576-.693-6.468-7.414-6.468-7.414h-.927v8.885h.914V9.789c.575.692 6.467 7.414 6.467 7.414h.929V8.318zm-21.851 8.885h.92V8.318h-.92zm-8.352-8.885v8.885h6.424v-.869h-5.494V8.318zm-8.427 0v8.885h6.436v-.869h-5.506V8.318zm24.493 1.23l1.857 4.055H90.71l1.868-4.055zm-.43-1.23l-4.108 8.885h1.024l1.257-2.745h4.498l1.27 2.745h1.016L93.01 8.318zm-30.86 1.23c.28.612 1.653 3.61 1.858 4.055H59.42l1.869-4.055zm-.43-1.23l-4.108 8.885h1.025l1.255-2.745h4.498l1.27 2.745h1.015l-4.091-8.885zm-13.644.87c1.41 0 2.096.505 2.096 1.547 0 1.169-.73 1.737-2.228 1.737h-3.543V9.188zm-4.605-.87v8.885h.93V13.34h3.618c1.591 0 1.966.318 2.006 1.699.034 1.443.1 1.916.292 2.107l.058.057h.96l-.151-.286c-.146-.276-.198-.827-.212-2.263-.013-.88-.497-1.52-1.265-1.801 1.001-.447 1.412-1.348 1.412-2.09 0-1.645-1.01-2.445-3.087-2.445zm-6.812 1.23l1.87 4.055H33.94l1.857-4.055zm-.418-1.23l-4.107 8.885h1.01l1.27-2.745h4.498l1.255 2.745h1.031l-4.107-8.885zm-11.892 0v.87h3.46v8.015h.918V9.188h3.459v-.87zm-9.137 5.968c0 .88.26 1.529.778 2.046.687.689 1.913 1.036 3.449 1.036.862 0 3.81-.187 3.81-2.622 0-2.142-1.965-2.339-3.7-2.513v-.001c-1.787-.179-3.11-.375-3.11-1.584 0-.6.31-1.035.949-1.326.657-.302 1.366-.346 2.101-.346.567 0 1.606.087 2.191.67.272.269.41.7.41 1.123l.9.01c0-.65-.208-1.307-.621-1.719-.755-.75-2.022-.907-2.953-.907-1.279 0-2.54.273-3.314 1.043a1.986 1.986 0 00-.608 1.452c0 2.096 2.145 2.268 3.828 2.418.798.071 1.55.139 2.108.382.59.256.867.682.867 1.338 0 .417-.14.766-.414 1.04-.654.65-2.01.72-2.503.72-1.216 0-2.194-.262-2.712-.778-.374-.372-.566-.83-.57-1.483zM145.095 8.284h1.307v8.924h-.911v-7.71h-.031l-3.952 7.71h-.86l-3.94-7.718h-.023v7.718h-.92V8.284h1.348l3.993 7.76zM149.696 8.332v8.889h7.216v-.874h-6.284v-3.3h5.965v-.85h-5.965V9.2h6.214v-.868zM169.063 8.287h1.31v8.927h-.914V9.51h-.03l-3.955 7.705h-.854l-3.945-7.721h-.024v7.721h-.918V8.287h1.345l3.996 7.76zM174.614 13.016h4.119c1.074 0 1.88.364 1.88 1.654 0 1.221-.908 1.697-2.105 1.697h-3.894zm-.919 4.187h4.96c1.375 0 2.947-.67 2.947-2.533 0-1.141-.709-1.993-1.883-2.174v-.022c1.062-.254 1.534-1.055 1.534-1.918 0-1.273-.73-2.245-2.48-2.245h-5.078zm.919-8.053h3.98c1.013 0 1.739.347 1.739 1.44 0 1.192-.8 1.589-2.048 1.589h-3.671zM184.523 8.325v8.883h7.213v-.872h-6.289v-3.299h5.968v-.853h-5.968V9.19h6.213v-.865zM199.016 12.474h-3.547V9.19h3.676c1.41 0 2.096.507 2.096 1.547 0 1.169-.725 1.737-2.225 1.737zm3.237 4.45c-.149-.28-.2-.83-.211-2.269-.014-.874-.5-1.515-1.267-1.797 1.005-.445 1.41-1.349 1.41-2.09 0-1.649-1.005-2.453-3.084-2.453h-4.562v8.893h.93v-3.862h3.615c1.594 0 1.971.316 2.013 1.696.032 1.443.093 1.917.291 2.109l.056.057h.959zM238.383 10.546h.23V8.534h.877v-.21h-1.984v.21h.877zM242.393 8.324h.328v2.222h-.233V8.625h-.004l-.986 1.92h-.212l-.983-1.922h-.007v1.923h-.23V8.324h.337l.994 1.932z"/></g></g></svg>