<?xml version="1.0" encoding="utf-8"?><svg height="40" width="56" xmlns="http://www.w3.org/2000/svg" viewBox="0 0 56 40"><g fill="none" fill-rule="evenodd"><rect fill="#f3f3f3" height="40" rx="2" width="56"/><g fill-rule="nonzero"><path d="M45.552 3.464H12.525v33.214h33.02V25.726c.14-.215.208-.47.195-.727a1.097 1.097 0 00-.196-.72z" fill="#007dc3"/><path d="M15.507 17.842l-.633-1.565-.632 1.565zm13.996-.61a.95.95 0 01-.46.078H27.91v-.876h1.148c.15-.01.299.013.437.07a.36.36 0 01.195.344.415.415 0 01-.195.376zm8.048.61l-.648-1.565-.632 1.565zm-15.003 1.674h-.953v-3.043l-1.342 3.043h-.781l-1.358-3.051v3.05h-1.92l-.36-.868h-1.928l-.359.869h-.976l1.663-3.912h1.382l1.561 3.685v-3.661h1.514l1.218 2.644 1.116-2.644h1.562zm3.793 0H23.22v-3.912h3.122v.783h-2.17v.704h2.116v.782H24.17v.782h2.17zm4.38-2.84c.018.456-.246.875-.664 1.056.18.066.34.18.46.329.13.213.185.463.157.711v.783h-.93v-.493a1.144 1.144 0 00-.147-.782c-.133-.141-.344-.165-.68-.165H27.91v1.416h-.928v-3.91h2.13a2.19 2.19 0 011.125.187.9.9 0 01.476.86zm1.475 2.832h-.952v-3.911h.952zm10.983 0h-1.311l-1.764-2.918v2.918h-1.89l-.359-.869h-1.928l-.343.869H34.49a1.637 1.637 0 01-1.41-.487 1.645 1.645 0 01-.432-1.43c-.044-.552.136-1.1.5-1.517.389-.338.9-.502 1.412-.454h.898v.83h-.874a.904.904 0 00-.718.234 1.308 1.308 0 00-.266.884c-.038.337.054.676.258.946a.88.88 0 00.64.204h.414l1.311-3.059h1.39l1.56 3.677v-3.677h1.414l1.647 2.675v-2.706h.952zm-30.654.782h1.56l.36-.868h.78l.36.868h3.122v-.665l.281.665h1.616l.273-.673v.673h7.76v-1.431h.148c.101 0 .132 0 .132.187v1.228h4.013v-.328c.46.23.97.343 1.483.328h1.733l.359-.868h.78l.352.868h3.247v-.813l.492.821h2.6v-5.428h-2.522v.64l-.359-.64h-2.67v.64l-.328-.64h-3.575a3.203 3.203 0 00-1.561.312v-.312h-2.435v.312a1.559 1.559 0 00-1.047-.312h-9.031l-.61 1.4-.616-1.4H16.39v.64l-.32-.64h-2.42l-1.124 2.573zM45.552 23.153h-1.701a.639.639 0 00-.375.07.313.313 0 00-.14.282c-.001.13.08.246.202.29.117.032.238.048.36.046h.507c.378-.034.755.078 1.054.313.032.031.06.065.085.102zm0 2.566a1.45 1.45 0 01-1.264.5h-1.796v-.845h1.788a.53.53 0 00.375-.093.344.344 0 00.117-.259.321.321 0 00-.117-.258.522.522 0 00-.32-.086c-.875 0-1.96 0-1.96-1.204a1.159 1.159 0 011.327-1.158h1.85v-.782h-1.756a1.917 1.917 0 00-1.163.32v-.32h-2.506a1.754 1.754 0 00-1.108.32v-.32h-4.536v.32a2.416 2.416 0 00-1.249-.32h-2.997v.32a2.128 2.128 0 00-1.273-.305h-3.388l-.78.83-.718-.83H19.09v5.429H24l.78-.845.78.845h3.03v-1.275h.296c.427.034.857-.016 1.265-.149v1.463h2.498v-1.463h.125c.156 0 .171 0 .171.157v1.26h7.572c.448.014.89-.108 1.265-.353v.352h2.404c.468.016.934-.069 1.366-.25zm-3.708-1.565c.195.212.297.494.281.782 0 .837-.523 1.229-1.452 1.229h-1.818v-.79h1.818a.561.561 0 00.383-.094.36.36 0 00.11-.259c0-.099-.043-.193-.118-.258a.546.546 0 00-.328-.086c-.866 0-1.951 0-1.951-1.204 0-.564.351-1.158 1.327-1.158h1.858v.83h-1.718a.639.639 0 00-.343.062.297.297 0 00-.14.281c-.004.131.078.248.202.29.117.033.238.049.36.047h.507c.378-.034.755.078 1.054.313zm-8.344-.258a.88.88 0 01-.46.078h-1.156v-.845h1.14a.92.92 0 01.444.07c.13.069.206.207.196.353a.415.415 0 01-.196.375zm.53.516c.179.066.335.18.453.329.13.213.186.464.156.712v.782h-.929v-.485a1.152 1.152 0 00-.148-.782c-.133-.141-.336-.172-.679-.172h-1v1.423h-.928v-3.91h2.139c.382-.035.766.03 1.116.187.314.168.5.505.476.86.014.447-.246.856-.656 1.033zm1.18-2.088h3.122v.782h-2.21v.704h2.124v.782h-2.123v.782h2.209v.783h-3.123zm-6.246 1.799H27.74v-.994h1.225c.336 0 .57.133.57.478 0 .344-.226.516-.578.516zm-2.139 1.744l-1.42-1.564 1.42-1.565zm-3.676-.461h-2.295v-.782h2.037v-.783h-2.037v-.704h2.342l1.007 1.135zm7.377-1.807c0 1.08-.781 1.306-1.616 1.306h-1.171v1.306h-1.803l-1.14-1.282-1.187 1.29h-3.676v-3.91h3.73l1.148 1.274 1.18-1.275h2.973c.742 0 1.562.204 1.562 1.283z" fill="#fff"/><path d="M12.01 35.927a.64.64 0 11-.64-.642.632.632 0 01.64.642zm.116 0a.781.781 0 10-1.562-.002.781.781 0 001.562.002zm-.577-.157c0-.086-.063-.094-.102-.094h-.21v.196h.195c.07 0 .125 0 .125-.102zm.156.5h-.133a.682.682 0 010-.179c0-.055 0-.102-.101-.102h-.203v.29h-.125v-.704h.328c.11 0 .234.039.234.195a.18.18 0 01-.078.157.14.14 0 01.062.125v.125a.055.055 0 000 .055z" fill="#007dc3"/></g></g></svg>