<?xml version="1.0" encoding="utf-8"?><svg height="40" width="56" xmlns="http://www.w3.org/2000/svg" viewBox="0 0 56 40"><g fill="none" fill-rule="evenodd"><rect fill="#f3f3f3" height="40" rx="2" width="56"/><g transform="translate(1 1)"><rect fill="#f3f3f3" height="38" rx="1" width="54"/><path d="M9 38h43.8a1.2 1.2 0 001.2-1.2V24.331S38.107 33.774 9 38z" fill="#e6772f"/><g fill="#1a1919"><path d="M8.662 20.667c-.437.37-.993.532-1.883.532h-.37v-4.42h.37c.89 0 1.425.152 1.883.54.474.402.758 1.022.758 1.663 0 .644-.284 1.286-.758 1.685zm-1.608-5.02h-2.02v6.684h2.008c1.069 0 1.84-.24 2.516-.773.804-.63 1.28-1.581 1.28-2.567 0-1.973-1.555-3.343-3.784-3.343zM11.473 15.648h1.37v6.683h-1.37zM16.208 18.21c-.827-.288-1.07-.48-1.07-.841 0-.42.433-.738 1.027-.738.412 0 .75.156 1.112.538l.716-.89a3.169 3.169 0 00-2.07-.743c-1.248 0-2.199.823-2.199 1.911 0 .924.442 1.393 1.732 1.838.54.178.814.3.953.381.274.169.411.41.411.69 0 .543-.454.942-1.068.942-.654 0-1.184-.31-1.5-.893l-.887.814c.634.88 1.394 1.274 2.44 1.274 1.428 0 2.433-.906 2.433-2.197 0-1.063-.466-1.545-2.03-2.087M18.67 18.991c0 1.966 1.628 3.489 3.723 3.489.59 0 1.097-.11 1.721-.39v-1.536c-.551.525-1.035.732-1.66.732-1.385 0-2.366-.95-2.366-2.304a2.28 2.28 0 012.305-2.295c.652 0 1.15.22 1.721.752v-1.534c-.603-.289-1.097-.408-1.693-.408-2.083 0-3.75 1.552-3.75 3.494M35.254 20.135l-1.88-4.487h-1.5l2.99 6.852h.737l3.047-6.852h-1.487zM39.272 22.331h3.9V21.2h-2.524v-1.804h2.427v-1.133h-2.427V16.78h2.523v-1.132h-3.899zM45.857 18.721h-.4v-2.022h.422c.86 0 1.32.342 1.32.993 0 .67-.46 1.029-1.342 1.029zm2.758-1.101c0-1.252-.906-1.972-2.494-1.972H44.08v6.683h1.379v-2.687h.178l1.9 2.687h1.692l-2.219-2.817c1.037-.2 1.606-.872 1.606-1.894z"/></g><path d="M32.069 19.007c0 1.924-1.645 3.484-3.676 3.484-2.03 0-3.675-1.56-3.675-3.484 0-1.925 1.645-3.485 3.675-3.485s3.676 1.56 3.676 3.485" fill="#e6772f"/></g></g></svg>