<?xml version="1.0" encoding="utf-8"?><svg height="40" width="56" xmlns="http://www.w3.org/2000/svg" viewBox="0 0 56 40"><mask id="afa" fill="#fff"><path d="M.003.1h47.92V29.38H.003z" fill-rule="evenodd"/></mask><g fill="none" fill-rule="evenodd"><rect fill="#f3f3f3" height="40" rx="2" width="56"/><path d="M18.438 5.404C10.637 5.404 4.29 11.84 4.29 19.75c0 7.912 6.347 14.349 14.148 14.349h19.054c7.8 0 14.147-6.437 14.147-14.349 0-7.91-6.347-14.347-14.147-14.347z" fill="#fefefe"/><path d="M14.438.392C6.637.392.29 6.828.29 14.739c0 7.912 6.347 14.348 14.148 14.348h19.054c7.8 0 14.147-6.436 14.147-14.348 0-7.911-6.347-14.347-14.147-14.347zm19.054 28.987H14.438c-7.96 0-14.435-6.568-14.435-14.64C.003 6.667 6.479.1 14.438.1h19.054c7.959 0 14.434 6.567 14.434 14.639s-6.475 14.64-14.434 14.64z" fill="#fefefe" mask="url(#afa)" transform="translate(4 5.012)"/><g fill="#db0e19"><path d="M40.823 18.875l6.336 7.642a11.97 11.97 0 002.083-6.766c0-2.65-.859-5.102-2.308-7.083zM22.869 12.023c4.731 0 8.296 1.221 8.663 5.264l4.98-5.265h9.916c-2.157-2.56-5.363-4.187-8.936-4.187H18.438c-3.574 0-6.78 1.627-8.937 4.188zM15.073 17.12l-1.69 4.712H20.2c2.016 0 2.625-.847 3.076-2.476.447-1.61-.674-2.236-2.052-2.236zM36.553 27.16l-5.266-6.75c-.974 4.603-4.162 6.75-10.138 6.75H9.24c2.155 2.745 5.477 4.509 9.198 4.509h19.054c3.72 0 7.042-1.763 9.196-4.509z"/></g></g></svg>