<?xml version="1.0" encoding="utf-8"?><svg height="40" width="56" xmlns="http://www.w3.org/2000/svg" viewBox="0 0 56 40"><g fill="none" fill-rule="evenodd"><rect fill="#f3f3f3" height="40" rx="2" width="56"/><g fill="#1a1919"><path d="M7.747 24.085c0-.824-.432-.77-.846-.778v-.238c.359.017.727.017 1.086.017.386 0 .91-.017 1.592-.017 2.382 0 3.68 1.584 3.68 3.207 0 .908-.534 3.189-3.79 3.189-.47 0-.903-.018-1.335-.018-.414 0-.82.008-1.233.018v-.238c.552-.056.82-.074.846-.697zm.902 4.298c0 .706.506.788.957.788 1.988 0 2.64-1.493 2.64-2.858 0-1.714-1.104-2.95-2.88-2.95-.377 0-.551.026-.717.036zM13.581 29.227h.175c.257 0 .442 0 .442-.304V26.44c0-.402-.138-.458-.48-.64v-.147c.433-.13.949-.302.985-.33a.326.326 0 01.166-.046c.045 0 .064.055.064.129v3.517c0 .304.203.304.461.304h.156v.238c-.313 0-.636-.018-.966-.018-.331 0-.662.008-1.003.018zm.985-5.361a.47.47 0 01-.451-.458c0-.23.221-.44.45-.44a.45.45 0 01.452.44.459.459 0 01-.451.458zM16.424 26.495c0-.338-.101-.43-.533-.604v-.174c.395-.128.772-.248 1.214-.44.028 0 .054.018.054.091v.596c.526-.375.977-.687 1.594-.687.781 0 1.057.568 1.057 1.283v2.363c0 .304.203.304.46.304h.166v.238c-.323 0-.644-.018-.975-.018-.332 0-.663.008-.994.018v-.238h.166c.257 0 .44 0 .44-.304v-2.372c0-.523-.32-.78-.845-.78-.295 0-.764.239-1.069.441v2.711c0 .304.204.304.462.304h.165v.238c-.322 0-.644-.018-.976-.018-.33 0-.662.008-.993.018v-.238h.166c.257 0 .441 0 .441-.304zM21.136 26.936c-.02.082-.02.22 0 .531.054.87.616 1.585 1.351 1.585.507 0 .903-.275 1.243-.613l.128.128c-.423.559-.947 1.036-1.701 1.036-1.463 0-1.758-1.412-1.758-1.998 0-1.797 1.214-2.328 1.858-2.328.746 0 1.547.467 1.555 1.439 0 .055 0 .11-.008.165l-.083.055zm1.629-.293c.23 0 .256-.12.256-.23 0-.467-.285-.843-.8-.843-.561 0-.948.412-1.058 1.073zM24.025 29.227h.248c.257 0 .441 0 .441-.304V26.35c0-.283-.34-.34-.478-.413V25.8c.671-.284 1.04-.522 1.124-.522.053 0 .081.027.081.12v.824h.02c.229-.357.616-.944 1.177-.944.23 0 .524.155.524.485 0 .248-.174.469-.432.469-.286 0-.286-.221-.608-.221-.156 0-.672.211-.672.761v2.152c0 .304.184.304.442.304h.515v.238c-.506-.01-.891-.018-1.287-.018-.378 0-.764.008-1.095.018zM27.566 28.19c.12.605.488 1.12 1.16 1.12.543 0 .745-.33.745-.651 0-1.082-2.005-.734-2.005-2.209 0-.514.414-1.173 1.426-1.173.294 0 .69.083 1.048.266l.065.934h-.212c-.092-.577-.413-.907-1.003-.907-.368 0-.717.21-.717.605 0 1.073 2.134.742 2.134 2.181 0 .604-.487 1.247-1.583 1.247-.367 0-.8-.129-1.121-.312l-.102-1.054zM38.515 24.727h-.23c-.175-1.071-.938-1.503-1.968-1.503-1.06 0-2.595.706-2.595 2.905 0 1.851 1.325 3.18 2.742 3.18.91 0 1.666-.623 1.85-1.586l.211.055-.212 1.338c-.386.239-1.426.487-2.034.487-2.152 0-3.514-1.384-3.514-3.446 0-1.88 1.684-3.226 3.487-3.226.745 0 1.463.238 2.171.486zM38.847 29.227h.174c.259 0 .442 0 .442-.304v-5.102c0-.597-.137-.615-.487-.716v-.147c.367-.118.754-.283.948-.394.1-.054.174-.1.201-.1.056 0 .075.055.075.128v6.331c0 .304.202.304.46.304h.155v.238c-.312 0-.634-.018-.965-.018-.331 0-.662.008-1.003.018zM44.755 28.96c0 .166.1.175.256.175.111 0 .249-.009.37-.009v.193c-.397.036-1.151.229-1.327.284l-.045-.028v-.743c-.552.45-.976.77-1.63.77-.497 0-1.011-.32-1.011-1.09v-2.346c0-.239-.037-.468-.552-.513v-.174c.332-.01 1.066-.064 1.186-.064.103 0 .103.064.103.265v2.364c0 .276 0 1.063.8 1.063.312 0 .726-.238 1.112-.558v-2.466c0-.183-.44-.284-.772-.375v-.165c.828-.055 1.343-.128 1.435-.128.075 0 .075.064.075.165zM46.585 25.936c.368-.31.865-.66 1.371-.66 1.067 0 1.712.927 1.712 1.926 0 1.2-.884 2.4-2.2 2.4-.68 0-1.04-.22-1.28-.32l-.274.21-.193-.1c.082-.54.128-1.072.128-1.632v-3.94c0-.596-.138-.614-.488-.715v-.147c.369-.118.755-.283.948-.394.101-.054.175-.1.203-.1.054 0 .073.055.073.128zm0 2.493c0 .348.332.935.948.935.984 0 1.398-.962 1.398-1.778 0-.99-.754-1.814-1.471-1.814-.342 0-.627.22-.875.431zM6.891 34.793h.07c.18 0 .37-.024.37-.284v-2.612c0-.26-.19-.285-.37-.285h-.07v-.15c.195 0 .496.02.742.02.25 0 .55-.02.785-.02v.15h-.07c-.18 0-.37.025-.37.285v2.612c0 .26.19.284.37.284h.07v.15c-.24 0-.541-.02-.79-.02-.246 0-.542.02-.737.02z"/><path d="M8.418 34.964c-.242 0-.542-.02-.79-.02-.246 0-.54.02-.737.02H6.87v-.192h.092c.182-.005.347-.02.349-.263v-2.612c-.002-.244-.167-.26-.349-.263h-.092v-.193h.022c.197 0 .497.02.742.02.249 0 .548-.02.785-.02h.023v.193h-.093c-.182.003-.348.019-.349.263v2.612c.001.244.167.258.35.263h.092v.192zm-.021-.042v-.106h-.049c-.179 0-.391-.032-.393-.307v-2.612c.002-.276.214-.307.393-.307h.049v-.106c-.231 0-.522.02-.764.02-.238 0-.526-.019-.72-.02v.106h.048c.179 0 .392.031.392.307v2.612c0 .275-.213.307-.392.307h-.048v.106c.194-.002.477-.02.714-.02.244 0 .533.018.77.02zM11.857 33.96l.01-.01v-1.869c0-.41-.285-.469-.435-.469h-.11v-.15c.235 0 .465.02.7.02.206 0 .412-.02.616-.02v.15h-.074c-.211 0-.447.04-.447.633v2.269c0 .175.005.35.03.504h-.19l-2.578-2.863v2.055c0 .434.085.583.47.583h.085v.15c-.215 0-.43-.02-.645-.02-.225 0-.456.02-.681.02v-.15h.07c.345 0 .45-.234.45-.632v-2.1a.448.448 0 00-.455-.449h-.065v-.15c.19 0 .385.02.575.02.15 0 .296-.02.446-.02z"/><path d="M12.147 35.039l-.206-.007-2.54-2.82v1.998c.005.434.071.557.448.562h.108v.192h-.023c-.216 0-.432-.02-.645-.02-.224 0-.455.02-.681.02h-.022v-.192h.092c.331-.002.426-.214.43-.611v-2.1a.428.428 0 00-.435-.427h-.087v-.193h.022c.191 0 .387.02.575.02.15 0 .294-.02.463-.013l2.2 2.467v-1.834c-.003-.396-.268-.444-.414-.447h-.133v-.193h.023c.236 0 .467.02.7.02.204 0 .41-.02.616-.02h.022v.193h-.096c-.207.005-.419.023-.425.611v2.269c0 .175.005.349.03.5l.004.025zm-.19-.044h.166a3.344 3.344 0 01-.027-.481v-2.269c0-.598.252-.655.468-.655h.052v-.106c-.197.001-.394.02-.594.02-.229 0-.452-.019-.678-.02v.106h.088c.154 0 .457.069.457.491l-.006 1.885-.01.01-.017.016-2.227-2.508c-.149 0-.293.02-.446.02-.184 0-.372-.019-.553-.02l-.001.106h.044a.47.47 0 01.477.47v2.1c0 .4-.112.655-.472.656l-.048-.001v.107c.217-.002.44-.02.659-.02.209 0 .417.018.624.02v-.106h-.064c-.394-.001-.491-.172-.492-.606V32.1zm-.1-1.035l.016-.014zm-.011-.01v-.001l-.004-.004zM13.389 31.712c-.376 0-.391.09-.466.453h-.15c.02-.14.044-.279.06-.423.02-.14.03-.28.03-.424h.12c.04.15.165.144.301.144h2.582c.136 0 .261-.004.271-.154l.12.02c-.02.134-.04.27-.055.404-.01.135-.01.269-.01.403l-.15.056c-.01-.184-.035-.48-.37-.48h-.821v2.654c0 .384.175.428.415.428h.095v.15c-.195 0-.546-.02-.815-.02-.301 0-.652.02-.847.02v-.15h.095c.276 0 .416-.024.416-.418v-2.663z"/><path d="M15.362 34.964c-.197 0-.548-.02-.816-.02-.3 0-.65.02-.847.02h-.022v-.192h.117c.276-.007.387-.01.393-.397v-2.642h-.798v-.044h.842v2.686c0 .4-.162.44-.437.441h-.074v.105c.198-.001.535-.02.826-.02.26 0 .595.019.793.02v-.105h-.073c-.242 0-.437-.06-.437-.451v-2.676h.843c.335.002.38.286.39.472l.109-.04c0-.13 0-.26.01-.392.014-.129.032-.255.051-.383l-.076-.013c-.023.145-.164.153-.29.151h-2.608c-.118 0-.246-.005-.291-.144h-.083c0 .137-.01.271-.03.404-.014.137-.037.269-.055.4h.107c.065-.347.108-.46.483-.455v.044c-.371.007-.363.07-.445.438l-.003.017h-.193l.002-.026c.02-.14.046-.28.06-.424.022-.139.031-.277.031-.42v-.022H13l.004.016c.034.126.126.126.254.129h2.608c.14-.003.241-.004.25-.135l.001-.023.023.004.142.022-.004.022c-.02.134-.04.268-.054.402-.01.134-.01.268-.01.402v.016l-.014.005-.178.065v-.029c-.015-.188-.034-.459-.35-.459h-.8v2.632c.005.375.155.402.394.407h.117v.192zM16.417 34.793h.07c.18 0 .37-.024.37-.284v-2.612c0-.26-.19-.285-.37-.285h-.07v-.15c.304 0 .826.02 1.246.02.421 0 .941-.02 1.281-.02-.008.215-.004.545.011.764l-.15.04c-.025-.325-.085-.584-.61-.584h-.696v1.306h.595c.3 0 .366-.169.395-.438h.15a11.326 11.326 0 000 1.151l-.15.03c-.03-.299-.044-.493-.39-.493h-.6v1.161c0 .325.29.325.61.325.601 0 .866-.04 1.016-.608l.14.034c-.065.265-.125.528-.17.793-.32 0-.896-.02-1.346-.02-.451 0-1.047.02-1.332.02z"/><path d="M19.095 34.964c-.321 0-.897-.02-1.346-.02-.451 0-1.046.02-1.332.02h-.021v-.192h.091c.181-.003.346-.02.348-.263v-2.612c-.002-.244-.167-.26-.348-.263h-.091v-.193h.02c.306 0 .827.02 1.247.02.42 0 .94-.02 1.281-.02h.023l-.001.023a7.834 7.834 0 00.01.76v.018l-.016.005-.176.046-.001-.026c-.03-.323-.073-.559-.589-.564h-.674v1.263h.574c.288-.003.34-.15.374-.419l.001-.02h.193v.023a11.146 11.146 0 000 1.15v.018l-.018.005-.175.034-.001-.023c-.035-.305-.037-.472-.37-.475h-.578v1.14c0 .303.263.301.589.303.603-.003.844-.033.995-.592l.005-.02.021.003.16.042-.004.02c-.065.264-.125.528-.17.792l-.004.017zm-.018-.043c.043-.252.1-.504.162-.755l-.099-.024c-.15.557-.44.607-1.031.603-.316 0-.63 0-.633-.346v-1.183h.623c.35-.003.385.207.41.49l.108-.022a10.521 10.521 0 010-1.113h-.108c-.028.26-.11.442-.415.439h-.618v-1.35h.718c.521-.004.607.264.63.578l.108-.03a8.36 8.36 0 01-.01-.724c-.34.001-.848.02-1.26.02-.41 0-.917-.019-1.223-.02v.106h.048c.178 0 .391.031.392.307v2.612c0 .275-.214.306-.392.307h-.048v.105c.291 0 .87-.02 1.31-.02.442 0 1.005.02 1.328.02zM19.941 31.99c0-.363-.2-.378-.356-.378h-.09v-.15c.16 0 .47.02.776.02.3 0 .54-.02.806-.02.63 0 1.192.17 1.192.878 0 .449-.3.723-.696.878l.856 1.276c.14.21.24.27.486.3v.149c-.166 0-.326-.02-.49-.02-.156 0-.317.02-.471.02a13.795 13.795 0 01-1.042-1.616h-.33v1.068c0 .384.18.398.41.398h.09v.15c-.286 0-.575-.02-.861-.02-.24 0-.476.02-.726.02v-.15h.09c.186 0 .356-.084.356-.268zm.641 1.157h.245c.5 0 .77-.189.77-.777 0-.444-.285-.728-.73-.728-.151 0-.215.015-.285.02z"/><path d="M22.915 34.964c-.168 0-.327-.02-.492-.02-.153 0-.313.02-.487.012a13.934 13.934 0 01-1.037-1.607h-.296v1.045c.006.375.157.372.388.378h.113v.192h-.022c-.287 0-.578-.02-.861-.02-.24 0-.475.02-.726.02h-.022v-.192h.112c.18-.002.333-.08.333-.247V31.99c-.003-.354-.177-.352-.333-.357h-.112v-.193h.022c.162 0 .471.02.776.02.3 0 .54-.02.806-.02.631.001 1.212.174 1.214.899 0 .45-.299.73-.685.888l.84 1.254c.14.207.228.258.471.29l.019.002v.19zm-2.333-1.659h.342l.006.012c.326.572.655 1.11 1.024 1.605.152 0 .313-.02.469-.02.16 0 .314.017.47.02v-.11c-.235-.029-.345-.1-.482-.306l-.871-1.298.024-.01c.392-.154.683-.42.683-.858 0-.692-.54-.853-1.17-.856-.263 0-.504.02-.806.02-.294 0-.59-.019-.755-.02v.106h.07c.155 0 .376.026.376.4v2.535c0 .2-.188.29-.377.291h-.069v.105c.241 0 .47-.02.705-.02.28 0 .562.02.839.02v-.105h-.069c-.228 0-.431-.029-.431-.422v-1.089zm0-.136h-.022v-1.527l.019-.002c.068-.005.136-.019.287-.019.456 0 .753.295.754.75-.002.595-.288.797-.793.798zm.245-.043c.495-.005.745-.176.75-.755-.003-.436-.275-.706-.71-.708-.136 0-.2.013-.264.019v1.444zM26.314 33.96l.008-.01v-1.869c0-.41-.284-.469-.434-.469h-.11v-.15c.235 0 .465.02.7.02.206 0 .41-.02.617-.02v.15h-.075c-.21 0-.446.04-.446.633v2.269c0 .175.005.35.03.504h-.19l-2.578-2.863v2.055c0 .434.085.583.47.583h.085v.15c-.215 0-.43-.02-.646-.02-.226 0-.456.02-.68.02v-.15h.069c.346 0 .451-.234.451-.632v-2.1a.448.448 0 00-.455-.449h-.066v-.15c.19 0 .387.02.576.02.15 0 .295-.02.446-.02z"/><path d="M26.603 35.039l-.205-.007-2.541-2.82v1.998c.006.434.071.557.449.562h.106v.192h-.022c-.216 0-.431-.02-.646-.02-.223 0-.454.02-.68.02h-.022v-.192h.092c.33-.002.425-.214.429-.612v-2.1a.426.426 0 00-.433-.426h-.088v-.193h.022c.191 0 .387.02.576.02.147 0 .292-.02.46-.014l2.201 2.468v-1.834c-.001-.396-.268-.445-.413-.447h-.133v-.193h.022c.237 0 .468.02.702.02.204 0 .409-.02.615-.02h.022v.193h-.096c-.207.005-.42.023-.425.611v2.269c0 .175.005.347.03.5l.003.025zm-.19-.044h.165a3.392 3.392 0 01-.026-.481v-2.269c0-.598.253-.654.468-.655h.052v-.106c-.197.001-.395.02-.593.02-.23 0-.453-.019-.68-.02v.106h.089c.154.001.457.069.457.491l-.007 1.885-.01.01-.015.016-2.227-2.508c-.15 0-.295.02-.446.02-.185 0-.373-.019-.554-.02v.106h.044a.47.47 0 01.476.47v2.1c0 .4-.113.655-.472.656h-.048v.105c.216-.001.439-.02.658-.02.21 0 .419.019.625.02v-.105h-.063c-.394 0-.492-.172-.493-.606V32.1zm-.1-1.035l.016-.014zm-.012-.01l-.004-.005zM27.9 34.23c-.05.17-.111.3-.111.389 0 .15.21.174.375.174h.056v.15c-.2-.01-.405-.02-.606-.02-.18 0-.36.01-.54.02v-.15h.03c.195 0 .36-.115.435-.324l.8-2.288c.066-.185.156-.434.187-.62.16-.054.36-.153.455-.213.015-.005.025-.01.04-.01s.024 0 .035.015l.045.124.922 2.609c.06.174.12.358.183.508.061.14.167.2.332.2h.03v.149c-.225-.01-.451-.02-.69-.02-.246 0-.497.01-.752.02v-.15h.055c.115 0 .311-.02.311-.144 0-.065-.045-.2-.101-.36l-.195-.578H28.06zm.73-2.209h-.01l-.465 1.411h.935z"/><path d="M30.567 34.964c-.225-.01-.45-.02-.69-.02-.245 0-.494.01-.75.02l-.023.001v-.194h.077c.116 0 .288-.026.289-.122 0-.057-.044-.194-.1-.352l-.19-.564h-1.104l-.156.504c-.05.169-.111.3-.11.382.001.122.188.152.354.152h.077v.194h-.022c-.2-.01-.405-.021-.605-.021-.179 0-.36.01-.539.02l-.023.001v-.194h.052c.186 0 .341-.107.414-.31l.801-2.288c.065-.184.156-.432.2-.632.156-.053.358-.153.454-.214.014-.004.028-.01.048-.01.012-.002.039.002.055.028l.046.126.921 2.607c.06.175.12.36.185.507.058.133.15.185.31.186h.051v.194zm-1.42-.044c.249-.009.492-.018.73-.018.233 0 .451.01.669.018v-.104h-.008c-.171 0-.29-.066-.35-.213-.066-.151-.127-.336-.186-.51l-.922-2.609-.042-.12c-.005-.005-.004-.005-.008-.005h-.01c-.01 0-.015.003-.028.007-.097.062-.297.16-.446.2-.03.188-.12.437-.186.622l-.801 2.288a.477.477 0 01-.455.34h-.009v.104c.172-.009.345-.018.519-.018.194 0 .391.01.583.018v-.104h-.033c-.163-.003-.39-.02-.397-.197 0-.099.062-.227.111-.395l.022.006-.022-.007.165-.532h1.168l.2.592c.056.16.102.293.102.366-.008.152-.218.164-.332.167h-.033zm-1.022-1.466l.479-1.455h.027v.022l-.006.002.006-.002V32h.015l.476 1.455zm.06-.044h.876l-.436-1.336zm.424-1.382l.011-.004zM30.788 31.712c-.375 0-.39.09-.466.453h-.15c.02-.14.045-.279.06-.423.02-.14.03-.28.03-.424h.121c.04.15.165.144.3.144h2.584c.134 0 .26-.004.27-.154l.119.02c-.019.134-.039.27-.054.404-.011.135-.011.269-.011.403l-.15.056c-.009-.184-.034-.48-.37-.48h-.821v2.654c0 .384.175.428.415.428h.096v.15c-.196 0-.545-.02-.816-.02-.3 0-.652.02-.847.02v-.15h.096c.275 0 .415-.024.415-.418v-2.663z"/><path d="M32.761 34.964c-.197 0-.548-.02-.817-.02-.299 0-.65.02-.846.02h-.022v-.192h.118c.276-.007.386-.01.393-.397v-2.642h-.799v-.044h.843v2.686c0 .4-.162.44-.437.44h-.074v.107c.198-.002.534-.02.824-.02.262 0 .597.018.795.02v-.106h-.074c-.241-.001-.436-.06-.437-.451v-2.676h.843c.336.002.38.286.39.472l.108-.04c0-.13.001-.26.011-.391.014-.129.033-.256.051-.384l-.076-.013c-.023.145-.164.153-.288.151h-2.61c-.118.001-.246-.005-.291-.145h-.082a2.91 2.91 0 01-.03.405c-.014.138-.038.27-.057.4h.107c.066-.347.11-.46.484-.455v.044c-.37.006-.363.07-.444.438l-.004.017h-.193l.003-.025c.02-.14.045-.28.06-.424.02-.14.03-.278.03-.42v-.023h.159l.004.016c.035.126.126.126.254.129h2.61c.138-.003.24-.004.248-.134v-.024l.024.004.142.022-.003.022c-.02.134-.04.268-.055.402-.01.134-.01.268-.01.402v.016l-.015.005-.177.065v-.029c-.014-.188-.034-.459-.35-.459h-.8v2.632c.006.375.155.402.394.407h.117v.192zM33.841 34.793h.07c.18 0 .37-.024.37-.284v-2.612c0-.26-.19-.285-.37-.285h-.07v-.15c.196 0 .495.02.74.02.251 0 .552-.02.788-.02v.15h-.07c-.182 0-.372.025-.372.285v2.612c0 .26.19.284.371.284h.07v.15c-.24 0-.54-.02-.79-.02-.246 0-.541.02-.737.02z"/><path d="M35.369 34.964c-.242 0-.542-.02-.792-.02-.245 0-.54.02-.736.02h-.021v-.192h.091c.18-.003.347-.02.348-.263v-2.612c0-.244-.167-.26-.348-.263h-.091v-.193h.021c.196 0 .497.02.74.02.25 0 .55-.02.788-.02h.02v.193h-.09c-.184.003-.348.02-.35.263v2.612c.002.244.166.26.35.263h.09v.192zm-.023-.043v-.105h-.048c-.18 0-.392-.032-.392-.307v-2.612c0-.276.213-.307.392-.307h.048v-.106c-.231.001-.52.02-.765.02-.237 0-.524-.019-.718-.02v.106h.048c.178 0 .392.031.392.307v2.612c0 .275-.214.307-.392.307h-.048v.105c.193-.002.476-.02.714-.02.243 0 .533.019.769.02zM37.365 31.388c1.067 0 1.918.659 1.918 1.72 0 1.148-.826 1.91-1.892 1.91-1.062 0-1.873-.718-1.873-1.79 0-1.037.806-1.84 1.847-1.84m.075 3.41c.972 0 1.141-.853 1.141-1.58 0-.729-.394-1.61-1.226-1.61-.876 0-1.136.777-1.136 1.445 0 .892.41 1.745 1.221 1.745"/><path d="M35.496 33.228a1.842 1.842 0 011.869-1.862v.044c-1.03 0-1.826.792-1.827 1.818.002 1.06.801 1.767 1.853 1.767 1.055 0 1.87-.751 1.87-1.887 0-1.049-.838-1.697-1.896-1.698v-.044c1.075.001 1.937.666 1.94 1.742-.002 1.159-.838 1.929-1.914 1.93-1.071-.001-1.893-.726-1.895-1.81m.7-.175c.002-.671.265-1.468 1.16-1.468.85.002 1.246.9 1.247 1.633-.001.727-.173 1.6-1.162 1.6v-.041c.952-.001 1.117-.832 1.118-1.559 0-.722-.39-1.588-1.204-1.59-.859.002-1.112.76-1.115 1.425 0 .888.408 1.722 1.2 1.724v.042c-.83 0-1.242-.869-1.243-1.766M42.656 33.96l.01-.01v-1.869c0-.41-.286-.469-.436-.469h-.109v-.15c.235 0 .466.02.7.02.206 0 .412-.02.617-.02v.15h-.075c-.21 0-.446.04-.446.633v2.269c0 .175.005.35.03.504h-.19l-2.579-2.863v2.055c0 .434.086.583.47.583h.086v.15c-.215 0-.43-.02-.646-.02-.225 0-.456.02-.68.02v-.15h.07c.345 0 .45-.234.45-.632v-2.1a.447.447 0 00-.456-.449h-.065v-.15c.19 0 .385.02.576.02.15 0 .294-.02.445-.02z"/><path d="M42.947 35.039l-.207-.007-2.54-2.82v1.998c.006.434.072.556.448.56h.107v.194h-.02c-.218 0-.432-.02-.647-.02-.224 0-.454.02-.681.02h-.02v-.193h.09c.33-.001.425-.213.43-.61v-2.1a.426.426 0 00-.435-.427h-.086v-.193h.02c.193 0 .388.02.577.02.148 0 .292-.02.462-.013l2.2 2.467v-1.834c-.002-.396-.268-.444-.415-.447H42.1v-.193h.022c.236 0 .467.02.7.02.205 0 .409-.02.617-.02h.021v.193h-.096c-.207.005-.42.024-.424.611v2.269c0 .175.004.349.028.5l.005.025zm-.19-.044h.164a3.517 3.517 0 01-.026-.481v-2.269c0-.6.253-.654.468-.655h.054v-.106c-.2.001-.396.02-.596.02-.228 0-.452-.019-.679-.02v.106h.088c.155.001.457.07.457.491l-.005 1.885-.01.01-.016.016-2.228-2.508c-.148 0-.294.02-.445.02-.185 0-.373-.019-.555-.02v.106h.044a.471.471 0 01.477.47v2.1c0 .4-.111.655-.472.656h-.049v.105c.218-.001.44-.02.66-.02.21 0 .417.019.624.02v-.105h-.064c-.393 0-.492-.172-.492-.606V32.1zm-.1-1.035l.015-.014zm-.012-.01l-.004-.005zM44.242 34.23c-.049.17-.11.3-.11.389 0 .15.212.174.376.174h.056v.15c-.2-.01-.406-.02-.607-.02-.18 0-.36.01-.54.02v-.15h.029a.452.452 0 00.435-.324l.803-2.288c.065-.185.155-.434.184-.62.16-.054.36-.153.457-.213.014-.005.024-.01.04-.01.014 0 .024 0 .034.015l.045.124.921 2.609c.06.174.12.358.186.508.06.14.165.2.33.2h.031v.149c-.226-.01-.451-.02-.692-.02-.245 0-.495.01-.75.02v-.15h.055c.114 0 .31-.02.31-.144 0-.065-.045-.2-.1-.36l-.196-.578h-1.136zm.732-2.209h-.01l-.467 1.411h.938z"/><path d="M46.91 34.964c-.226-.009-.45-.02-.69-.02-.244 0-.495.011-.75.02l-.022.001v-.193h.076c.117 0 .289-.027.29-.123 0-.057-.045-.193-.101-.352l-.19-.564h-1.105l-.155.504c-.05.17-.11.3-.109.382 0 .122.188.153.354.153h.076v.193h-.022c-.2-.01-.405-.02-.605-.02-.18 0-.359.01-.54.02h-.021v-.193h.05c.187-.001.343-.108.416-.31l.8-2.289c.065-.184.155-.432.2-.63.157-.055.358-.155.455-.216.013-.004.027-.01.047-.01a.057.057 0 01.055.029l.046.125.92 2.607c.061.175.12.36.186.508.059.132.15.184.31.186h.051v.193zm-1.42-.044c.248-.009.492-.018.73-.018.233 0 .45.01.67.018l-.001-.104h-.008c-.17 0-.288-.066-.35-.213-.067-.151-.126-.336-.186-.51l-.921-2.609a4.92 4.92 0 01-.043-.119c-.004-.006-.004-.006-.007-.006h-.01c-.01 0-.016.004-.028.007a1.926 1.926 0 01-.446.2c-.031.188-.122.437-.186.622l-.802 2.288a.476.476 0 01-.456.34h-.007v.104c.172-.009.344-.018.518-.018.194 0 .392.01.584.018v-.104h-.033c-.163-.003-.391-.02-.398-.197.001-.099.063-.226.112-.395l.02.006-.02-.007.165-.532h1.167l.2.592c.056.16.102.293.102.366-.008.152-.218.164-.332.167h-.034zm-1.022-1.466l.48-1.455h.026v.022l-.005.002.005-.002V32h.015l.474 1.455zm.06-.044h.876l-.436-1.335zm.425-1.382l.01-.004zM48.173 34.454c0 .2.139.26.3.28.205.015.43.015.661-.01a.713.713 0 00.48-.27c.08-.11.125-.25.156-.359h.144c-.055.285-.125.564-.185.848-.44 0-.881-.02-1.321-.02-.441 0-.881.02-1.322.02v-.15h.07c.18 0 .376-.024.376-.334v-2.562c0-.26-.196-.285-.377-.285h-.069v-.15c.265 0 .526.02.79.02.257 0 .506-.02.762-.02v.15h-.125c-.19 0-.34.005-.34.27z"/><path d="M49.73 34.964c-.442 0-.883-.02-1.322-.02-.44 0-.881.02-1.323.02h-.02v-.192h.09c.181-.005.353-.017.355-.313v-2.563c-.002-.243-.173-.259-.355-.262h-.09v-.193h.02c.267 0 .527.02.791.02.255 0 .505-.02.762-.02h.02v.193h-.145c-.195.005-.315-.004-.32.248v2.572c.002.186.124.236.28.259a4.077 4.077 0 00.658-.01.701.701 0 00.466-.26 1.12 1.12 0 00.15-.353l.005-.016h.189l-.005.026c-.056.285-.125.563-.186.848l-.004.016zm-.019-.043c.058-.27.123-.535.178-.804h-.104c-.03.108-.075.242-.154.35a.744.744 0 01-.496.278 3.859 3.859 0 01-.665.01c-.163-.018-.32-.088-.32-.301v-2.572c0-.278.176-.292.363-.292h.103v-.106c-.247.001-.49.02-.74.02-.258 0-.512-.019-.768-.02v.106h.047c.179 0 .397.031.397.306v2.563c0 .323-.217.357-.397.357h-.047v.105c.432 0 .865-.02 1.3-.02.435 0 .87.02 1.303.02zM49.853 31.321c.302 0 .528.231.528.526a.515.515 0 01-.528.524.515.515 0 01-.527-.524c0-.295.226-.526.527-.526zm0 .952c.237 0 .417-.2.417-.426a.424.424 0 00-.417-.428.425.425 0 00-.417.428c0 .226.18.426.417.426zm-.262-.149V32.1c.065-.01.077-.008.077-.047v-.39c0-.054-.006-.073-.075-.07v-.027h.27c.093 0 .178.044.178.14 0 .078-.051.136-.124.158l.086.12c.04.055.087.106.116.125v.016h-.102c-.05 0-.093-.103-.19-.241h-.058v.174c0 .034.012.032.077.042v.025zm.178-.277h.062c.068 0 .1-.05.1-.134 0-.083-.049-.113-.103-.113h-.059z"/></g><path d="M18.584 13.859c0-4.664 3.796-8.445 8.479-8.445 4.682 0 8.479 3.781 8.479 8.445s-3.797 8.445-8.48 8.445c-4.682 0-8.478-3.781-8.478-8.445" fill="#fffffe"/><path d="M32.19 13.693a5.081 5.081 0 00-3.273-4.738v9.475a5.081 5.081 0 003.273-4.737zm-6.921 4.735V8.956a5.086 5.086 0 00-3.271 4.737 5.084 5.084 0 003.27 4.735zm1.825-12.743c-4.44.001-8.038 3.585-8.039 8.008 0 4.422 3.598 8.005 8.039 8.006 4.44-.001 8.039-3.584 8.04-8.006-.001-4.423-3.6-8.007-8.04-8.008zm-.02 16.77c-4.859.023-8.858-3.898-8.858-8.67 0-5.217 4-8.825 8.858-8.824h2.277c4.802 0 9.184 3.605 9.184 8.823 0 4.771-4.382 8.67-9.184 8.67z" fill="#0069aa"/></g></svg>