<?xml version="1.0" encoding="utf-8"?><svg height="40" width="56" xmlns="http://www.w3.org/2000/svg" viewBox="0 0 56 40"><g fill="none" fill-rule="evenodd"><rect fill="#f3f3f3" height="40" rx="2" width="56"/><g fill="#000"><path d="M13.445 15h-2.363c0 2.034-.89 3.89-2.437 5.113l-.932.733 3.623 5.18h2.978l-3.338-4.768c1.579-1.645 2.469-3.868 2.469-6.258zM5 26.026h2.416V15H5zM15.013 26.026h2.278V15h-2.278zM37.275 18.19c-.868 0-1.695.278-2.246 1.067v-.856h-2.161v7.625h2.193v-4.001c0-1.156.742-1.723 1.632-1.723.953 0 1.504.6 1.504 1.711v4.024h2.173V21.18c0-1.779-1.346-2.99-3.095-2.99zM24.179 18.401v.49a3.662 3.662 0 00-2.162-.701c-2.119 0-3.836 1.8-3.836 4.024 0 2.223 1.717 4.023 3.836 4.023.806 0 1.547-.256 2.162-.7v.489h2.172V18.4zm-1.982 5.769a1.963 1.963 0 01-1.97-1.956c0-1.079.879-1.957 1.97-1.957s1.971.878 1.971 1.957c0 1.078-.88 1.956-1.97 1.956zM29.72 19.39v-.989h-2.225v7.625h2.236v-3.557c0-1.2 1.24-1.845 2.098-1.845h.021v-2.223c-.88 0-1.695.4-2.13.99zM47.13 18.401v.49a3.662 3.662 0 00-2.162-.701c-2.119 0-3.836 1.8-3.836 4.024 0 2.223 1.717 4.023 3.836 4.023.806 0 1.547-.256 2.162-.7v.489h2.172V18.4zm-1.982 5.769a1.963 1.963 0 01-1.97-1.956c0-1.079.879-1.957 1.97-1.957 1.092 0 1.971.878 1.971 1.957.01 1.078-.88 1.956-1.97 1.956zM50.987 18.623c0-.11-.074-.177-.191-.177h-.201v.578h.095v-.212h.106l.085.212h.106l-.096-.234c.064-.033.096-.089.096-.167zm-.191.11h-.106v-.198h.106c.064 0 .095.037.095.099s-.02.1-.095.1z"/><path d="M50.764 18.201a.533.533 0 00-.519.545c.01.3.233.544.52.544s.518-.244.518-.544-.233-.545-.519-.545zm0 .99c-.233 0-.413-.2-.413-.445s.19-.445.413-.445c.233 0 .413.2.413.445s-.19.444-.413.444zM51.623 23.325c-.753 0-1.367.645-1.367 1.434 0 .789.614 1.434 1.367 1.434.752 0 1.366-.645 1.366-1.434 0-.8-.614-1.434-1.366-1.434z"/></g></g></svg>