<?xml version="1.0" encoding="utf-8"?><svg height="40" width="56" xmlns="http://www.w3.org/2000/svg" viewBox="0 0 56 40"><g fill="none" fill-rule="evenodd"><rect fill="#f3f3f3" height="40" rx="2" width="56"/><g fill-rule="nonzero"><path d="M19.856 35.526V33.39a1.271 1.271 0 00-.358-.977 1.244 1.244 0 00-.963-.373 1.3 1.3 0 00-1.184.606 1.234 1.234 0 00-1.113-.606 1.11 1.11 0 00-.987.506v-.42h-.733v3.4h.74v-1.883a.8.8 0 01.2-.65.782.782 0 01.624-.255c.487 0 .733.32.733.897v1.891h.74v-1.883a.807.807 0 01.203-.647.789.789 0 01.622-.258c.5 0 .74.32.74.897v1.891zm4.123-1.698v-1.699h-.74v.413a1.27 1.27 0 00-1.057-.498c-.973 0-1.762.797-1.762 1.78s.79 1.78 1.762 1.78a1.27 1.27 0 001.057-.498v.413h.733zm-2.724 0a1.022 1.022 0 011.055-.968c.554.021.99.485.98 1.045s-.459 1.01-1.013 1.012a1.003 1.003 0 01-.752-.315 1.025 1.025 0 01-.277-.774zm18.384-1.78c.241-.001.48.045.705.135a1.724 1.724 0 01.955.944c.184.456.184.967 0 1.424a1.72 1.72 0 01-.955.943c-.465.182-.98.182-1.445 0a1.74 1.74 0 01-.57-.377 1.739 1.739 0 01-.378-.566 1.909 1.909 0 010-1.425c.088-.212.216-.404.377-.566a1.74 1.74 0 01.571-.377 1.88 1.88 0 01.733-.146zm0 .712a1.082 1.082 0 00-.42.078.99.99 0 00-.556.58 1.247 1.247 0 000 .883.986.986 0 00.557.58 1.134 1.134 0 001.187-.224c.098-.102.173-.223.222-.356a1.247 1.247 0 000-.883 1.034 1.034 0 00-.222-.356c-.1-.098-.22-.175-.352-.224a1.083 1.083 0 00-.423-.1zm-11.678 1.068c0-1.068-.655-1.78-1.596-1.78a1.772 1.772 0 00-1.737 1.805 1.77 1.77 0 001.786 1.755 2.03 2.03 0 001.378-.477l-.352-.548c-.279.225-.623.35-.98.356a.936.936 0 01-1.008-.834h2.499c.01-.089.01-.178.01-.277zm-2.505-.3a.87.87 0 01.884-.822.83.83 0 01.596.235c.16.155.252.367.257.591zm5.589-.533a2.15 2.15 0 00-1.058-.292c-.401 0-.64.15-.64.398 0 .25.253.292.57.335l.352.05c.733.107 1.177.42 1.177 1.018 0 .598-.564 1.111-1.533 1.111a2.41 2.41 0 01-1.455-.441l.352-.577c.324.242.719.368 1.121.356.5 0 .768-.15.768-.413 0-.192-.19-.3-.592-.356l-.352-.05c-.754-.107-1.163-.449-1.163-1.004 0-.677.55-1.09 1.41-1.09.48-.016.956.108 1.37.356zm3.523-.193h-1.194v1.535c0 .356.12.57.486.57.229-.008.452-.074.648-.193l.212.634a1.707 1.707 0 01-.916.264c-.867 0-1.17-.47-1.17-1.26v-1.55h-.684v-.676h.684v-1.033h.74v1.033h1.194zm2.534-.762c.178.001.354.032.522.093l-.226.712a1.18 1.18 0 00-.458-.085c-.48 0-.705.313-.705.875v1.905h-.733v-3.4h.726v.413a.992.992 0 01.888-.498zm5.067 2.991a.35.35 0 01.243.096.334.334 0 01-.11.548.328.328 0 01-.133.03.352.352 0 01-.317-.207.338.338 0 01.074-.37.352.352 0 01.226-.097zm0 .602a.248.248 0 00.183-.078.265.265 0 00-.08-.428.252.252 0 00-.205 0 .257.257 0 00-.085.057.265.265 0 000 .356.26.26 0 00.187.079zm.021-.424a.14.14 0 01.092.029.09.09 0 01.032.074.086.086 0 01-.025.065.123.123 0 01-.074.032l.102.117h-.08l-.096-.117h-.032v.117h-.067V35.2zm-.077.06v.086h.077a.073.073 0 00.043 0 .036.036 0 000-.032.036.036 0 000-.032.073.073 0 00-.043 0z" fill="#000"/><path d="M22.411 6.185h11.1V26.34h-11.1z" fill="#7673c0"/><path d="M23.116 16.264a12.845 12.845 0 014.845-10.08c-5.201-4.13-12.67-3.528-17.158 1.383s-4.488 12.48 0 17.391A12.592 12.592 0 0027.96 26.34a12.845 12.845 0 01-4.845-10.076z" fill="#eb001b"/><g fill="#00a1df"><path d="M47.275 24.546v-.672h.166v-.144h-.42v.144h.166v.696zm.814 0v-.84h-.127l-.148.6-.148-.6h-.13v.84h.092v-.63l.137.546h.095l.138-.546v.636zM48.484 16.264c-.001 4.906-2.774 9.381-7.141 11.526S31.78 29.37 27.96 26.34a12.866 12.866 0 004.847-10.078c0-3.932-1.786-7.647-4.847-10.077a12.58 12.58 0 0113.384-1.453c4.369 2.145 7.142 6.621 7.142 11.529z"/></g></g></g></svg>