<?xml version="1.0" encoding="utf-8"?><svg height="40" width="56" xmlns="http://www.w3.org/2000/svg" viewBox="0 0 56 40"><g fill="none" fill-rule="evenodd"><rect fill="#f3f3f3" height="40" rx="2" width="56"/><g fill-rule="nonzero"><path d="M14.909 35.533v-2.136a1.275 1.275 0 00-.36-.98 1.247 1.247 0 00-.965-.373 1.3 1.3 0 00-1.184.605 1.234 1.234 0 00-1.113-.605 1.11 1.11 0 00-.987.506v-.42h-.733v3.403h.74V33.66a.803.803 0 01.201-.648.785.785 0 01.624-.256c.486 0 .732.32.732.897v1.894h.74V33.66c-.03-.235.044-.472.203-.647s.387-.268.622-.257c.5 0 .74.32.74.897v1.894zm10.949-3.404h-1.206v-1.032h-.74v1.032h-.67v.677h.684v1.566c0 .79.304 1.26 1.17 1.26.324.002.642-.09.917-.263l-.212-.633c-.196.118-.42.184-.648.192-.353 0-.487-.228-.487-.57v-1.552h1.199zm6.25-.085a.992.992 0 00-.887.498v-.413h-.726v3.404h.733v-1.908c0-.563.24-.876.705-.876.156-.002.312.027.458.085l.225-.712a1.554 1.554 0 00-.521-.092zm-9.45.356a2.5 2.5 0 00-1.374-.356c-.853 0-1.41.413-1.41 1.09 0 .555.409.897 1.163 1.003l.352.05c.402.057.592.164.592.356 0 .264-.267.413-.768.413a1.781 1.781 0 01-1.12-.356l-.353.577c.427.301.939.456 1.459.442.973 0 1.536-.463 1.536-1.111 0-.648-.444-.912-1.177-1.018l-.352-.05c-.317-.043-.57-.107-.57-.335s.239-.399.64-.399c.372.005.736.105 1.058.292zm19.631-.356a.992.992 0 00-.888.498v-.413h-.726v3.404h.733v-1.908c0-.563.24-.876.705-.876.157-.002.312.027.458.085l.225-.712a1.554 1.554 0 00-.521-.092zm-9.444 1.78c-.017.484.168.953.51 1.291s.81.517 1.287.49a1.75 1.75 0 001.213-.406l-.353-.599a1.47 1.47 0 01-.88.307 1.089 1.089 0 01-.995-1.09c0-.57.432-1.043.994-1.09.319.004.628.112.881.307l.353-.598a1.75 1.75 0 00-1.213-.406c-.478-.028-.945.15-1.287.489s-.527.807-.51 1.29zm6.865 0V32.13h-.733v.413a1.274 1.274 0 00-1.057-.498c-.974 0-1.762.797-1.762 1.78s.788 1.78 1.762 1.78c.41.016.804-.17 1.057-.498v.413h.733zm-2.728 0a1.022 1.022 0 011.055-.968c.554.021.989.486.98 1.045s-.459 1.01-1.013 1.013a1.006 1.006 0 01-.747-.32 1.028 1.028 0 01-.275-.77zm-8.845-1.78c-.973.014-1.75.822-1.737 1.805s.814 1.77 1.787 1.755a2.034 2.034 0 001.399-.462l-.353-.549c-.278.226-.623.351-.98.356a.936.936 0 01-1.007-.833h2.502v-.285c0-1.068-.656-1.78-1.6-1.78zm0 .662a.83.83 0 01.596.235c.16.155.253.367.257.591h-1.762a.87.87 0 01.895-.826zM46.5 33.831v-3.069h-.705v1.78a1.274 1.274 0 00-1.057-.498c-.973 0-1.762.797-1.762 1.78s.789 1.78 1.762 1.78c.411.016.805-.17 1.057-.498v.413h.705zm1.223 1.207a.35.35 0 01.243.096.334.334 0 01-.11.548.328.328 0 01-.133.03.352.352 0 01-.317-.207.338.338 0 01.074-.37.352.352 0 01.253-.097zm0 .602a.248.248 0 00.183-.078.265.265 0 000-.356.252.252 0 00-.285-.057.257.257 0 00-.085.057.265.265 0 000 .356.26.26 0 00.085.057.258.258 0 00.112.021zm.02-.424a.14.14 0 01.093.029.09.09 0 01.031.075.086.086 0 01-.024.064.123.123 0 01-.074.032l.102.117h-.081l-.095-.117h-.032v.117h-.067v-.313zm-.077.06v.086h.078a.073.073 0 00.042 0 .036.036 0 000-.032.036.036 0 000-.032.073.073 0 00-.042 0zm-3.876-1.445a1.022 1.022 0 011.055-.967c.554.02.989.485.98 1.044s-.459 1.01-1.013 1.013a1.006 1.006 0 01-.747-.32 1.028 1.028 0 01-.275-.77zm-24.748 0V32.13h-.732v.413a1.274 1.274 0 00-1.058-.498c-.973 0-1.762.797-1.762 1.78s.79 1.78 1.762 1.78c.412.016.805-.17 1.058-.498v.413h.732zm-2.727 0a1.022 1.022 0 011.055-.967c.553.02.989.485.98 1.044a1.024 1.024 0 01-1.765.697 1.028 1.028 0 01-.277-.774z" fill="#231f20"/><path d="M22.415 6.192h11.1v20.155h-11.1z" fill="#ff5f00"/><path d="M23.12 16.271a12.845 12.845 0 014.845-10.08 12.592 12.592 0 00-17.159 1.383c-4.488 4.91-4.488 12.48 0 17.391a12.592 12.592 0 0017.159 1.382 12.845 12.845 0 01-4.845-10.076z" fill="#eb001b"/><g fill="#f79e1b"><path d="M48.491 16.271c0 4.908-2.773 9.384-7.142 11.529a12.58 12.58 0 01-13.384-1.453 12.866 12.866 0 004.847-10.077c0-3.933-1.787-7.648-4.847-10.078 3.818-3.033 9.015-3.597 13.384-1.453s7.142 6.621 7.142 11.529zM47.279 24.554v-.697h.165v-.144h-.419v.144h.18v.697zm.814 0v-.841h-.127l-.148.6-.148-.6h-.113v.84h.092v-.63l.137.546h.095l.138-.546v.637z"/></g></g></g></svg>