<?xml version="1.0" encoding="utf-8"?><svg height="40" width="56" xmlns="http://www.w3.org/2000/svg" viewBox="0 0 56 40"><g fill="none" fill-rule="evenodd"><rect fill="#f3f3f3" height="40" rx="2" width="56"/><g fill="#164194"><path d="M48.403 21.322c-.06 1.222-1.116 2.173-2.35 2.017-.945-.12-1.704-.91-1.81-1.88-.14-1.296.842-2.392 2.075-2.392 1.117 0 2.03.9 2.085 2.033zm-2.37-3.823c-1.8.143-3.22 1.639-3.333 3.471-.133 2.166 1.538 3.96 3.618 3.96.751 0 1.769-.384 2.226-1.195v1.095h1.402l.003-3.55c0-2.31-1.832-3.946-3.916-3.78zM36.335 21.058c0-.778.442-1.672 1.424-2.05 1.114-.43 2.088.14 2.498.943zm2.032-3.57c-1.906.056-3.543 1.58-3.543 3.762 0 2.011 1.585 3.693 3.627 3.693a3.632 3.632 0 003.364-2.31l-1.397-.429c-.252.587-.862 1.1-1.567 1.235-.981.187-1.884-.429-2.239-1.115l5.434-1.521c-.16-1.433-1.385-3.38-3.68-3.314zM26.412 19.001v-1.528c-1.355 0-1.835.685-2.038 1.065v-.82H22.83v7.112h1.586c0-2.2-.004-2.163-.004-3.49 0-1.643.925-2.283 2-2.339M12.096 21.972l-4.737-5.73H5.742v8.576h1.672v-5.735l4.796 5.747h1.483v-8.588h-1.597zM32.312 21.322c-.06 1.222-1.117 2.173-2.351 2.017-.944-.12-1.703-.91-1.81-1.88-.14-1.296.843-2.392 2.076-2.392 1.117 0 2.029.9 2.085 2.033zm1.54-5.838h-1.495v2.797c-.354-.48-1.462-.861-2.415-.782-1.783.148-3.221 1.639-3.333 3.471-.133 2.166 1.538 3.964 3.618 3.964.776 0 1.857-.381 2.225-1.055l-.001.95h1.4v-3.548a4.942 4.942 0 000-.14zM18.255 23.354c-1.152 0-2.086-.96-2.086-2.143 0-1.183.934-2.143 2.086-2.143 1.153 0 2.087.96 2.087 2.143 0 1.184-.934 2.143-2.087 2.143m.005-5.87c-2.005 0-3.63 1.668-3.63 3.727s1.625 3.728 3.63 3.728 3.63-1.67 3.63-3.728-1.625-3.727-3.63-3.727M36.35 21.08h-.001zM40.291 19.943z"/></g></g></svg>