<?xml version="1.0" encoding="utf-8"?><svg height="40" width="56" xmlns="http://www.w3.org/2000/svg" viewBox="0 0 56 40"><g fill="none" fill-rule="evenodd"><rect fill="#f3f3f3" height="40" rx="2" width="56"/><g fill="#253b80"><path d="M21.888 16.643h-2.647a.37.37 0 00-.364.314l-1.07 6.866a.222.222 0 00.218.258h1.264a.37.37 0 00.363-.315l.289-1.852a.369.369 0 01.363-.314h.838c1.744 0 2.75-.854 3.013-2.545.119-.74.005-1.322-.337-1.729-.376-.447-1.044-.683-1.93-.683zm.306 2.507c-.145.961-.871.961-1.573.961h-.4l.28-1.794a.221.221 0 01.219-.189h.183c.478 0 .929 0 1.162.276.139.165.182.409.129.746zM29.802 19.12h-1.268a.222.222 0 00-.218.188l-.056.358-.089-.13c-.274-.402-.886-.537-1.497-.537-1.401 0-2.598 1.073-2.83 2.579-.122.75.05 1.469.472 1.97.386.46.939.652 1.596.652a2.415 2.415 0 001.755-.734l-.056.356a.222.222 0 00.217.258h1.142a.37.37 0 00.364-.314l.685-4.389a.221.221 0 00-.217-.258zm-1.768 2.495c-.122.733-.697 1.225-1.43 1.225-.368 0-.662-.12-.851-.346-.187-.225-.259-.545-.2-.901.115-.726.7-1.234 1.422-1.234.36 0 .652.12.845.349.193.23.27.552.214.907zM36.553 19.12H35.28a.368.368 0 00-.304.163L33.218 21.9l-.745-2.516a.37.37 0 00-.353-.266h-1.252a.223.223 0 00-.21.296l1.404 4.165-1.32 1.884a.223.223 0 00.18.352h1.273c.12 0 .234-.06.302-.16l4.237-6.186a.223.223 0 00-.18-.35z"/></g><g fill="#179bd7"><path d="M40.771 16.643h-2.648a.369.369 0 00-.363.314l-1.07 6.866a.222.222 0 00.217.258h1.359a.258.258 0 00.254-.22l.304-1.947a.369.369 0 01.363-.314h.837c1.745 0 2.75-.854 3.014-2.545.119-.74.005-1.322-.338-1.729-.376-.447-1.043-.683-1.929-.683zm.306 2.507c-.145.961-.87.961-1.573.961h-.399l.28-1.794a.22.22 0 01.218-.189h.183c.478 0 .93 0 1.162.276.14.165.182.409.129.746zM48.684 19.12h-1.267a.22.22 0 00-.217.188l-.057.358-.089-.13c-.274-.402-.886-.537-1.496-.537-1.401 0-2.597 1.073-2.83 2.579-.121.75.05 1.469.471 1.97.387.46.94.652 1.597.652a2.415 2.415 0 001.755-.734l-.057.356a.222.222 0 00.219.258h1.141c.181 0 .335-.133.363-.314l.686-4.389a.223.223 0 00-.219-.258zm-1.767 2.495c-.122.733-.697 1.225-1.43 1.225-.368 0-.663-.12-.852-.346-.187-.225-.257-.545-.198-.901.114-.726.698-1.234 1.42-1.234.36 0 .653.12.846.349.194.23.27.552.214.907zM50.179 16.83l-1.087 6.993a.222.222 0 00.218.258h1.092a.369.369 0 00.364-.315l1.071-6.866a.222.222 0 00-.218-.258h-1.223c-.108 0-.2.08-.217.189z"/></g><path d="M6.813 25.415l.202-1.3-.45-.011H4.41l1.496-9.598a.127.127 0 01.042-.075c.022-.02.05-.03.08-.03h3.63c1.206 0 2.038.254 2.472.754.204.235.334.48.396.751.066.284.067.622.003 1.035l-.005.03v.265l.204.117c.172.092.308.197.412.318.174.2.287.456.335.759.049.31.033.681-.048 1.1a3.906 3.906 0 01-.446 1.247c-.186.317-.424.58-.706.783-.27.193-.59.34-.952.434-.35.093-.75.14-1.189.14h-.282a.851.851 0 00-.84.725l-.022.117-.358 2.292-.016.084c-.004.027-.012.04-.023.05a.06.06 0 01-.037.013z" fill="#253b80"/><path d="M12.922 17.002a6.49 6.49 0 01-.037.215c-.48 2.487-2.117 3.346-4.21 3.346H7.61a.52.52 0 00-.511.443l-.546 3.5-.154.991a.275.275 0 00.269.319h1.89a.456.456 0 00.448-.388l.019-.097.356-2.284.022-.125a.456.456 0 01.45-.388h.282c1.83 0 3.264-.752 3.683-2.927.175-.91.084-1.668-.379-2.202a1.81 1.81 0 00-.517-.403z" fill="#179bd7"/><path d="M12.42 16.8a3.742 3.742 0 00-.465-.105 5.85 5.85 0 00-.939-.069H8.17a.458.458 0 00-.449.388l-.605 3.88-.017.112a.52.52 0 01.511-.443h1.065c2.093 0 3.73-.86 4.21-3.346.014-.073.026-.145.037-.215a2.537 2.537 0 00-.501-.202z" fill="#222d65"/><path d="M7.722 17.015a.457.457 0 01.448-.389h2.846c.337 0 .652.023.94.07a4.27 4.27 0 01.465.104l.108.034c.14.047.272.103.393.168.143-.919-.001-1.545-.492-2.111-.542-.624-1.52-.891-2.77-.891H6.03a.52.52 0 00-.514.444L4.004 24.14a.314.314 0 00.308.365h2.241l.563-3.612z" fill="#253b80"/></g></svg>