<?xml version="1.0" encoding="utf-8"?><svg height="40" width="56" xmlns="http://www.w3.org/2000/svg" viewBox="0 0 56 40"><g fill="none" fill-rule="evenodd"><rect fill="#f3f3f3" height="40" rx="2" width="56"/><path d="M44.506 23.144l-3.51.001V20.77h3.51c.622 0 1.125.512 1.125 1.187 0 .677-.503 1.188-1.125 1.188zm-3.51-7.423h2.87c.66 0 1.195.531 1.195 1.143s-.534 1.144-1.195 1.144h-2.87zm-3.612 10.32h8.218c2.198 0 3.979-1.35 3.979-3.51 0-1.687-1.083-2.805-2.601-3.297 0 0-.063-.016-.148-.02a.91.91 0 00.148-.025c.87-.351 1.832-1.285 1.832-2.875 0-2.016-1.75-3.303-3.912-3.303h-7.516zm-2.643 3.007h.795V10h-.795zm-14.41 0h.794V10h-.794zM33.21 13.01H22.979v13.03h10.418v-3.005h-6.825v-2.098h4.702v-2.875h-4.702v-2.075h6.638zM18.58 14.855l-2.295 1.746c-1.084-.95-2.48-1.136-3.251-1.136-.78 0-1.593.227-1.719.797-.122.553.382.983 1.249 1.223.989.272 1.889.512 3.275.915 2.062.6 3.472 1.508 3.472 3.616 0 2.905-2.53 4.41-5.921 4.41-3.39 0-5.7-1.8-6.391-2.639l2.426-1.848c1.705 1.513 2.89 1.727 3.88 1.727 1.137 0 2.2-.249 2.336-.9.11-.526-.317-.944-1.286-1.173-1.095-.258-2.02-.465-3.051-.742-2.796-.747-3.585-2.404-3.585-3.891 0-2.049 1.872-4.153 5.295-4.153 3.51 0 5.566 2.048 5.566 2.048z" fill="#231f20"/></g></svg>