<?xml version="1.0" encoding="utf-8"?><svg height="40" width="56" xmlns="http://www.w3.org/2000/svg" viewBox="0 0 56 40"><linearGradient id="aoa" x1=".071%" x2="100.042%" y1="50.07%" y2="50.07%"><stop offset="0" stop-color="#74b943"/><stop offset="1" stop-color="#009d49"/></linearGradient><mask id="aob" fill="#fff"><path d="M15.538 2.269C18.61.519 21.765.034 24.32.034c3.18 0 5.43.752 5.43.752V.97C28.387.768 24.718.125 19.582 2.527 15.266 4.547 9.9 9.708.072 10.274v-.217A27.488 27.488 0 007.771 7.25c.814-.44 1.572-.898 2.288-1.357" fill-rule="evenodd"/></mask><g fill="none" fill-rule="evenodd"><rect fill="#f3f3f3" height="40" rx="2" width="56"/><path d="M24.831 22.119l.517 1.49.732 2.124h2.985l-1.77-4.672a31.21 31.21 0 01-2.464 1.058" fill="#0d2217"/><path d="M15.538 2.269c-1.694.965-3.411 2.3-5.479 3.625-.716.459-1.474.917-2.288 1.357a27.488 27.488 0 01-7.699 2.806v.217c9.828-.566 15.194-5.728 19.51-7.747C24.718.125 28.387.768 29.75.971V.786S27.5.034 24.32.034c-2.555 0-5.71.485-8.782 2.235" fill="url(#aoa)" mask="url(#aob)" transform="translate(16.414 13)"/><g fill="#0d2217"><path d="M7 14.57h2.729v6.539c0 1.842.73 2.481 1.959 2.481.75 0 1.226-.076 1.72-.15v-8.87h2.729v10.768c-.933.3-3.058.583-4.45.583C9.198 25.92 7 24.906 7 21.73zM43.518 20.076c.128.018.513.037.825.037 1.117 0 1.867-.47 1.867-1.616 0-1.184-.878-1.616-1.867-1.616-.22 0-.605.02-.825.056zm0 5.657H40.79v-11.07c.916-.15 2.344-.282 3.553-.282 2.692 0 4.614 1.278 4.614 4.116 0 2.913-2.18 4.003-4.469 4.003-.329 0-.75-.018-.97-.038zM26.473 18.894c-.716.459-1.474.917-2.288 1.357l-.998-2.882-2.985 8.364h-2.875l4.23-11.164h3.278zM35.202 25.733h-2.71V17.03h-3.259V14.57h9.23v2.462h-3.26zM48.005 13.75c.106 0 .2-.008.2-.138 0-.106-.092-.125-.18-.125h-.17v.263zm-.15.478h-.126v-.85h.316c.196 0 .292.074.292.241 0 .152-.094.218-.214.234l.235.375h-.14L48 13.859h-.145zm.152.189c.324 0 .58-.261.58-.616 0-.35-.256-.612-.58-.612-.329 0-.585.263-.585.612 0 .355.256.616.585.616zm-.73-.616a.726.726 0 111.455 0 .727.727 0 11-1.455 0z"/></g></g></svg>