<?xml version="1.0" encoding="utf-8"?><svg height="40" width="56" xmlns="http://www.w3.org/2000/svg" viewBox="0 0 56 40"><g fill="none" fill-rule="evenodd"><rect fill="#f3f3f3" height="40" rx="2" width="56"/><g fill="#26337a"><path d="M19.365 28.382l2.52-15.498h4.029l-2.52 15.498zM38.006 13.264c-.796-.31-2.049-.65-3.61-.65-3.982 0-6.786 2.103-6.81 5.115-.025 2.227 2.001 3.47 3.529 4.21 1.57.76 2.097 1.245 2.09 1.923-.01 1.038-1.252 1.514-2.41 1.514-1.613 0-2.47-.234-3.795-.813l-.518-.247-.564 3.47c.94.431 2.681.806 4.488.826 4.233 0 6.984-2.078 7.016-5.294.015-1.767-1.059-3.105-3.384-4.21-1.408-.72-2.272-1.196-2.262-1.923.001-.644.73-1.334 2.308-1.334a7.12 7.12 0 013.015.596l.362.177zM43.37 22.887c.335-.89 1.606-4.332 1.606-4.332-.024.041.332-.897.535-1.478l.272 1.336s.773 3.7.932 4.474zm4.97-9.987h-3.113c-.965 0-1.688.274-2.111 1.285l-5.983 14.202h4.232s.69-1.91.847-2.33l5.16.008c.12.541.49 2.322.49 2.322h3.74zM15.985 12.897l-3.943 10.566-.422-2.148c-.735-2.475-3.023-5.157-5.581-6.5l3.607 13.553 4.264-.002 6.344-15.469z"/></g><path d="M8.382 12.887H1.885l-.053.32c5.055 1.284 8.4 4.383 9.788 8.108l-1.412-7.12c-.244-.983-.952-1.274-1.826-1.308" fill="#ec982d"/></g></svg>