<?xml version="1.0" encoding="utf-8"?><svg height="40" width="56" xmlns="http://www.w3.org/2000/svg" viewBox="0 0 56 40"><g fill="none" fill-rule="evenodd"><rect fill="#f3f3f3" height="40" rx="2" width="56"/><g fill="#1a1f71"><path d="M26.06 11.553l-2.85 13.602h-3.448l2.85-13.602zm14.504 8.783l1.815-5.109 1.043 5.109zm3.848 4.819H47.6l-2.785-13.602h-2.942c-.663 0-1.22.392-1.468.997l-5.173 12.605h3.62l.719-2.032h4.423zm-9-4.441c.015-3.59-4.862-3.789-4.83-5.393.012-.487.466-1.006 1.463-1.139.493-.065 1.856-.117 3.4.61l.603-2.887c-.829-.306-1.896-.6-3.224-.6-3.408 0-5.806 1.847-5.825 4.495-.022 1.959 1.713 3.05 3.017 3.703 1.344.666 1.794 1.094 1.788 1.69-.01.912-1.073 1.316-2.062 1.331-1.734.028-2.739-.478-3.54-.86l-.626 2.982c.806.378 2.293.706 3.832.722 3.624 0 5.993-1.826 6.004-4.654zm-14.279-9.161l-5.585 13.602h-3.645L9.154 14.299c-.166-.667-.311-.913-.818-1.195-.83-.46-2.198-.89-3.401-1.157l.08-.394h5.868c.747 0 1.419.507 1.59 1.386l1.452 7.872 3.586-9.258zM30.472 28.899h-1.4v1.33h1.567v.4h-2.04v-3.691h1.96v.4h-1.487v1.166h1.4zM31.362 30.63h.471v-3.89h-.471zM34.41 29.047c.005-.301-.124-.778-.655-.778-.483 0-.687.444-.725.778zm-1.385.345c.01.652.414.92.89.92.34 0 .548-.06.72-.137l.086.345c-.167.077-.456.17-.87.17-.799 0-1.277-.542-1.277-1.342s.462-1.424 1.218-1.424c.854 0 1.074.756 1.074 1.243 0 .099-.006.17-.016.225zM37.435 30.537c-.123.06-.397.153-.746.153-.783 0-1.293-.542-1.293-1.353 0-.816.547-1.413 1.395-1.413.28 0 .526.07.655.142l-.107.367a1.14 1.14 0 00-.548-.126c-.596 0-.917.455-.917 1.003 0 .613.386.991.901.991.268 0 .446-.065.58-.126zM38.76 27.343v.636h.676v.366h-.676v1.43c0 .33.091.515.354.515.128 0 .204-.01.274-.033l.021.367a1.266 1.266 0 01-.418.066c-.22 0-.398-.077-.51-.202-.13-.149-.183-.384-.183-.696v-1.447h-.403v-.366h.403v-.493zM40.095 28.806c0-.312-.006-.58-.021-.827h.413l.021.525h.016c.119-.356.408-.58.725-.58.048 0 .086.005.129.01v.456c-.049-.012-.097-.012-.161-.012-.333 0-.57.252-.634.614-.01.066-.016.148-.016.225v1.413h-.472zM42.225 29.31c0 .58.322 1.019.783 1.019.451 0 .789-.433.789-1.03 0-.45-.22-1.014-.778-1.014-.553 0-.794.526-.794 1.025m2.055-.028c0 .98-.67 1.408-1.293 1.408-.698 0-1.245-.526-1.245-1.364 0-.882.574-1.402 1.288-1.402.746 0 1.25.553 1.25 1.358M45.004 28.696c0-.28-.006-.498-.022-.717h.419l.027.438h.01a.959.959 0 01.859-.493c.36 0 .918.219.918 1.128v1.578h-.473v-1.528c0-.428-.155-.784-.6-.784-.306 0-.548.225-.634.493a.698.698 0 00-.032.225v1.594h-.472zM1 7.333h54V2a1 1 0 00-1-1H2a1 1 0 00-1 1z"/></g><path d="M2 39h52a1 1 0 001-1v-5.333H1V38a1 1 0 001 1z" fill="#f7b600"/></g></svg>