<svg xmlns="http://www.w3.org/2000/svg" width="24" height="24" viewBox="0 0 24 24">
    <g fill="none" fill-rule="nonzero">
        <path fill="#F0F0F0" d="M23.254 16.174c.482-1.3.746-2.706.746-4.174 0-1.468-.264-2.874-.746-4.174L12 6.783.746 7.826A11.974 11.974 0 0 0 0 12c0 1.468.264 2.874.746 4.174L12 17.217l11.254-1.043z"/>
        <g fill="#C5001E">
            <path d="M12 24c5.16 0 9.558-3.256 11.254-7.826H.746C2.442 20.744 6.84 24 12 24zM12 0C6.84 0 2.442 3.256.746 7.826h22.508C21.558 3.256 17.16 0 12 0z"/>
        </g>
    </g>
</svg>
