<svg xmlns="http://www.w3.org/2000/svg" width="24" height="24" viewBox="0 0 24 24">
    <g fill="none" fill-rule="nonzero">
        <circle cx="12" cy="12" r="12" fill="#D80027"/>
        <g fill="#FFDA44">
            <path d="M5.088 4.646l.69 2.12h2.227L6.204 8.076l.689 2.119-1.805-1.309-1.804 1.309.692-2.119-1.804-1.312H4.4zM10.18 12.147l-.527-.649-.779.303.452-.701-.526-.652.807.215.455-.7.043.834.81.215-.782.3zM11.227 10.246l.25-.798-.683-.483.835-.012.246-.798.271.791.835-.009-.67.499.268.791-.682-.483zM12.639 5.646l-.368.751.598.583-.826-.118-.367.748-.144-.823-.829-.118.742-.39-.143-.826.598.583zM10.202 3.372l-.063.832.776.314-.813.2-.06.835-.438-.71-.814.199.54-.639-.443-.707.776.315z"/>
        </g>
    </g>
</svg>
