<svg xmlns="http://www.w3.org/2000/svg" width="24" height="24" viewBox="0 0 24 24">
    <path fill="#0087F5" fill-rule="nonzero" d="M18.269 16.286c.316-1.115.506-2.229.566-3.429h3.303c-.099 1.2-.41 2.4-.915 3.429h-2.954zm.925 2.892c-.99.99-2.149 1.756-3.41 2.26A16.713 16.713 0 0 0 17.68 18h2.522c-.304.429-.64.81-1.009 1.178zm-6.16 2.947c-.049.005-.118.009-.118.013V18h2.9a16.088 16.088 0 0 1-1.863 3.032c-.315.4-.614.77-.919 1.093zm-.118-9.268h4.203a13.615 13.615 0 0 1-.631 3.429h-3.572v-3.429zm0-5.143h3.551c.336 1.042.57 2.143.648 3.429h-4.199V7.714zm0-5.852c0 .003.04.006.074.009A16.088 16.088 0 0 1 15.79 6h-2.874V1.862zm6.278 2.944c.375.375.717.774 1.024 1.194h-2.555a16.908 16.908 0 0 0-1.936-3.472 10.15 10.15 0 0 1 3.467 2.278zm2.038 2.908c.498 1.07.805 2.229.905 3.429h-3.306a15.473 15.473 0 0 0-.575-3.429h2.976zM11.202 6H8.198c.49-1.04 1.11-2.04 1.865-3 .328-.418.686-.793 1.002-1.129.036-.003-.034-.006.137-.009V6zm0 5.143H6.884c.072-1.2.285-2.324.639-3.429h3.68v3.429zm0 5.143h-3.68a13.21 13.21 0 0 1-.64-3.429h4.32v3.429zm0 5.852c-.171-.004-.125-.018-.173-.023-.942-1.006-2.024-2.4-2.834-4.115h3.007v4.138zm-6.396-2.96A9.115 9.115 0 0 1 3.797 18H6.32a16.708 16.708 0 0 0 1.897 3.439 10.167 10.167 0 0 1-3.411-2.26zm-2.029-2.892c-.505-1.029-.816-2.229-.916-3.429h3.304c.06 1.2.25 2.314.567 3.429H2.777zm-.01-8.572h2.976a15.47 15.47 0 0 0-.574 3.429H1.863c.1-1.2.407-2.359.904-3.429zm2.039-2.908a10.15 10.15 0 0 1 3.467-2.278A16.91 16.91 0 0 0 6.336 6H3.781c.308-.42.65-.82 1.025-1.194zM12 0C5.373 0 0 5.373 0 12s5.373 12 12 12 12-5.373 12-12S18.627 0 12 0z"/>
</svg>
