<svg xmlns="http://www.w3.org/2000/svg" width="24" height="24" viewBox="0 0 24 24">
    <g fill="none" fill-rule="nonzero">
        <circle cx="12" cy="12" r="12" fill="#CA1D22"/>
        <g fill="#F0F0F0">
            <path d="M12.993 8.727c-.31 1.294-.864 1.047-1.135 2.176a2.977 2.977 0 0 1 1.392-5.789c-.543 2.258.022 2.455-.257 3.613zM8.845 9.686c1.135.696.73 1.146 1.72 1.753a2.977 2.977 0 0 1-5.076-3.113c1.98 1.214 2.341.737 3.356 1.36zM8.476 13.927c1.013-.864 1.315-.34 2.198-1.093A2.977 2.977 0 0 1 6.145 16.7c1.766-1.508 1.425-2 2.33-2.773zM12.396 15.59c-.51-1.23.083-1.356-.361-2.429a2.977 2.977 0 0 1 2.277 5.502c-.888-2.146-1.461-1.973-1.916-3.073zM15.188 12.375c-1.328.104-1.264-.498-2.421-.407a2.977 2.977 0 0 1 5.936-.465c-2.315.181-2.328.78-3.515.872z"/>
        </g>
    </g>
</svg>
