<?xml version="1.0" encoding="utf-8"?><svg xmlns="http://www.w3.org/2000/svg" width="24" height="24" viewBox="0 0 24 24"><g fill="none"><circle cx="12" cy="12" r="12" fill="#FFF"/><path d="M.413 15.13a12.01 12.01 0 004.283 6.39v-6.39H.413zm10.544 8.824c.343.03.691.046 1.043.046 5.544 0 10.21-3.76 11.587-8.87h-12.63v8.824zM23.587 8.87C22.21 3.76 17.544 0 12 0c-.352 0-.7.016-1.043.046V8.87h12.63zM4.696 2.48A12.01 12.01 0 00.413 8.87h4.283V2.48z" fill="#D80027"/><path fill="#182967" d="M23.898 10.435H9.391V.285C8.282.531 7.231.93 6.261 1.46v8.976H.1a12.103 12.103 0 000 3.13h6.16v8.976c.97.53 2.021.928 3.13 1.174v-10.15h14.507a12.12 12.12 0 000-3.13z"/></g></svg>