<?xml version="1.0" encoding="utf-8"?><svg xmlns="http://www.w3.org/2000/svg" width="25" height="25" viewBox="0 0 25 25"><g fill="none"><circle cx="12" cy="12" r="12" fill="#FFF"/><path d="M2.48 4.694A11.956 11.956 0 00.414 8.87h6.243L2.481 4.694zM23.587 8.87a11.957 11.957 0 00-2.068-4.176L17.344 8.87h6.243zM.413 15.13a11.957 11.957 0 002.068 4.176l4.175-4.176H.413zM19.306 2.48A11.957 11.957 0 0015.13.414v6.243l4.176-4.175zM4.694 21.52a11.957 11.957 0 004.176 2.067v-6.243l-4.176 4.175zM8.87.413a11.957 11.957 0 00-4.176 2.068L8.87 6.656V.413zm6.26 23.174a11.957 11.957 0 004.176-2.068l-4.176-4.175v6.243zm2.214-8.457l4.175 4.176a11.957 11.957 0 002.068-4.176h-6.243z" fill="#1A227A"/><g fill="#D80027"><path d="M23.898 10.435H13.565V.102a12.12 12.12 0 00-3.13 0v10.333H.102a12.12 12.12 0 000 3.13h10.333v10.333a12.119 12.119 0 003.13 0V13.565h10.333a12.119 12.119 0 000-3.13z"/><path d="M15.13 15.13l5.355 5.355c.247-.246.481-.503.706-.77l-4.585-4.585H15.13zm-6.26 0l-5.355 5.355c.246.247.503.481.77.706l4.585-4.585V15.13zm0-6.26L3.515 3.515a12.03 12.03 0 00-.706.77L7.394 8.87H8.87zm6.26 0l5.355-5.355a12.015 12.015 0 00-.77-.706L15.13 7.394V8.87z"/></g></g></svg>