<?xml version="1.0" encoding="utf-8"?><svg xmlns="http://www.w3.org/2000/svg" width="24" height="24" viewBox="0 0 24 24"><g fill="none"><path fill="#024595" d="M24 12c0 6.627-5.373 12-12 12S0 18.627 0 12C0 12.003 12 .001 12 0c6.627 0 12 5.373 12 12z"/><path fill="#FFF" d="M5 16l1.236 3.72L3 17.422h4l-3.236 2.3zM17 4l.618 2L16 4.764h2L16.382 6zm-2 4l.618 2L14 8.764h2L14.382 10zm5 0l.618 2L19 8.764h2L19.382 10zm-1.5 3l.309 1-.809-.618h1l-.809.618zM17 14l.618 2L16 14.764h2L16.382 16z"/><path d="M12.02 0h-.022.021zM12 6.26V0h-.002C5.372.001 0 5.373 0 12h6.26V8.474L9.787 12h2.182l.032-.032V9.787L8.474 6.26H12z" fill="#F0F0F0"/><g fill="#D80027"><path d="M6.071 1.565a12.057 12.057 0 00-4.506 4.506V12h3.13V4.696H12v-3.13H6.071z"/><path d="M12 10.524L7.737 6.261H6.26L12 12v-1.476z"/></g></g></svg>