<?xml version="1.0" encoding="utf-8"?><svg xmlns="http://www.w3.org/2000/svg" width="24" height="24" viewBox="0 0 24 24"><g fill="none"><circle cx="12" cy="12" r="12" fill="#CA1D22"/><path d="M12.993 8.727c-.31 1.294-.864 1.047-1.135 2.176a2.977 2.977 0 011.392-5.789c-.543 2.258.022 2.455-.257 3.613zm-4.148.959c1.135.696.73 1.146 1.72 1.753a2.977 2.977 0 01-5.076-3.113c1.98 1.214 2.341.737 3.356 1.36zm-.369 4.241c1.013-.864 1.315-.34 2.198-1.093A2.977 2.977 0 016.145 16.7c1.766-1.508 1.425-2 2.33-2.773zm3.92 1.663c-.51-1.23.083-1.356-.361-2.429a2.977 2.977 0 012.277 5.502c-.888-2.146-1.461-1.973-1.916-3.073zm2.792-3.215c-1.328.104-1.264-.498-2.421-.407a2.977 2.977 0 015.936-.465c-2.315.181-2.328.78-3.515.872z" fill="#F0F0F0"/></g></svg>