<?xml version="1.0" encoding="utf-8"?><svg xmlns="http://www.w3.org/2000/svg" xmlns:xlink="http://www.w3.org/1999/xlink" width="24" height="24" viewBox="0 0 24 24"><defs><path id="aza" d="M0 12a11.98 11.98 0 014.8-9.601A11.947 11.947 0 0112 0v12H0z"/></defs><g fill="none" fill-rule="evenodd"><path fill="#FFF" fill-rule="nonzero" d="M12 24c6.627 0 12-5.373 12-12S18.627 0 12 0C9.299 0 6.806.893 4.8 2.399A11.982 11.982 0 000 12c0 6.627 5.373 12 12 12z"/><path fill="#CA001C" fill-rule="nonzero" d="M11.866 24h.268a12.25 12.25 0 01-.268 0zm-6.423-1.948a12.062 12.062 0 01-2.358-2.019h17.83c-.695.77-1.487 1.45-2.358 2.019H5.443zm-3.84-4.055A11.94 11.94 0 01.68 15.99h22.642a11.94 11.94 0 01-.925 2.007H1.604zM.179 14.07A12.076 12.076 0 010 12a11.98 11.98 0 014.8-9.601A11.947 11.947 0 0112 0c2.473 0 4.772.748 6.681 2.03h-6.729v2.017h9.034a12.035 12.035 0 011.435 1.999H11.952v2.01h11.385c.222.639.392 1.303.504 1.986H11.952v1.98H24a12.075 12.075 0 01-.178 2.047H.178z"/><mask id="azb" fill="#fff"><use xlink:href="#aza"/></mask><use fill="#2A355F" fill-rule="nonzero" xlink:href="#aza"/><g fill="#FFF" fill-rule="nonzero" mask="url(#azb)"><path d="M-.124-2L.414-.427-.993-1.4H.746l-1.407.972zm0 3.043l.538 1.572-1.407-.972H.746l-1.407.972zm0 3.042l.538 1.573-1.407-.972H.746l-1.407.972zm0 3.043l.538 1.573-1.407-.972H.746L-.661 8.7zM-.124 10.17l.538 1.573-1.407-.972H.746l-1.407.972zM1.758-.479l.537 1.573L.89.122h1.739l-1.407.972zm0 3.043l.537 1.573L.89 3.165h1.739l-1.407.972zm0 3.043l.537 1.572L.89 6.207h1.739L1.22 7.18zm0 3.043l.537 1.572L.89 9.25h1.739l-1.407.972zM3.64-2l.537 1.573L2.77-1.4h1.74l-1.407.972zm0 3.043l.537 1.572-1.407-.972h1.74l-1.407.972zm0 3.042l.537 1.573-1.407-.972h1.74l-1.407.972zm0 3.043l.537 1.573-1.407-.972h1.74L3.103 8.7zM3.64 10.17l.537 1.573-1.407-.972h1.74l-1.407.972zM5.522-.479l.537 1.573L4.652.122h1.74l-1.407.972zm0 3.043l.537 1.573-1.407-.972h1.74l-1.407.972zm0 3.043l.537 1.572-1.407-.972h1.74l-1.407.972zm0 3.043l.537 1.572-1.407-.972h1.74l-1.407.972z"/></g><g fill="#FFF" fill-rule="nonzero" mask="url(#azb)"><path d="M6.852-2l.522 1.573L6.006-1.4h1.691L6.33-.427zm0 3.043l.522 1.572-1.368-.972h1.691l-1.368.972zm0 3.042l.522 1.573-1.368-.972h1.691l-1.368.972zm0 3.043l.522 1.573-1.368-.972h1.691L6.33 8.7zM6.852 10.17l.522 1.573-1.368-.972h1.691l-1.368.972zM8.681-.479l.523 1.573L7.836.122h1.69l-1.367.972zm0 3.043l.523 1.573-1.368-.972h1.69l-1.367.972zm0 3.043l.523 1.572-1.368-.972h1.69L8.16 7.18zm0 3.043l.523 1.572-1.368-.972h1.69l-1.367.972z"/></g><g fill="#FFF" fill-rule="nonzero" mask="url(#azb)"><path d="M10.681-2L11.1-.427 10.005-1.4h1.353l-1.094.972zm0 3.043l.418 1.572-1.094-.972h1.353l-1.094.972zm0 3.042l.418 1.573-1.094-.972h1.353l-1.094.972zm0 3.043l.418 1.573-1.094-.972h1.353l-1.094.972zM10.681 10.17l.418 1.573-1.094-.972h1.353l-1.094.972z"/></g></g></svg>