<?xml version="1.0" encoding="utf-8"?><svg xmlns="http://www.w3.org/2000/svg" width="24" height="24" viewBox="0 0 24 24"><g fill="none"><circle cx="12" cy="12" r="12" fill="#FFF"/><path fill="#D80027" d="M0 12C0 5.373 5.373 0 12 0s12 5.373 12 12"/><g fill="#F0F0F0"><path d="M4.304 6.26a3.653 3.653 0 012.87-3.566 3.652 3.652 0 100 7.135 3.653 3.653 0 01-2.87-3.568zM9 2.87l.259.797h.838l-.678.492.26.797L9 4.464l-.678.492.259-.797-.678-.492h.838z"/><path d="M6.967 4.435l.259.797h.838l-.678.493.259.797-.678-.493-.678.493.259-.797-.678-.493h.838zm4.066 0l.26.797h.837l-.678.493.26.797-.679-.493-.678.493.26-.797-.679-.493h.838zm-.783 2.348l.26.797h.838l-.678.492.259.798-.678-.493-.678.493.259-.798-.678-.492h.838zm-2.5 0l.258.797h.839l-.679.492.26.798-.679-.493-.678.493.26-.798-.679-.492h.838z"/></g></g></svg>