<?xml version="1.0" encoding="utf-8"?><svg xmlns="http://www.w3.org/2000/svg" width="24" height="24" viewBox="0 0 24 24"><g fill="none"><circle cx="12" cy="12" r="12" fill="#FFF"/><path fill="#1A227A" d="M23.254 7.826H.746A11.973 11.973 0 000 12c0 1.468.264 2.874.746 4.174h22.508c.482-1.3.746-2.706.746-4.174 0-1.468-.264-2.874-.746-4.174z"/><path d="M12 0a11.972 11.972 0 00-9.097 4.174h18.194A11.972 11.972 0 0012 0zm9.097 19.826H2.903A11.972 11.972 0 0012 24c3.637 0 6.896-1.618 9.097-4.174z" fill="#D80027"/></g></svg>