<?xml version="1.0" encoding="utf-8"?><svg xmlns="http://www.w3.org/2000/svg" width="24" height="24" viewBox="0 0 24 24"><g fill="none"><circle cx="12" cy="12" r="12" fill="#D80027"/><path d="M5.088 4.646l.69 2.12h2.227l-1.801 1.31.689 2.119-1.805-1.309-1.804 1.309.692-2.119-1.804-1.312H4.4zm5.092 7.501l-.527-.649-.779.303.452-.701-.526-.652.807.215.455-.7.043.834.81.215-.782.3zm1.047-1.901l.25-.798-.683-.483.835-.012.246-.798.271.791.835-.009-.67.499.268.791-.682-.483zm1.412-4.6l-.368.751.598.583-.826-.118-.367.748-.144-.823-.829-.118.742-.39-.143-.826.598.583zm-2.437-2.274l-.063.832.776.314-.813.2-.06.835-.438-.71-.814.199.54-.639-.443-.707.776.315z" fill="#FFDA44"/></g></svg>