<?xml version="1.0" encoding="utf-8"?><svg xmlns="http://www.w3.org/2000/svg" xmlns:xlink="http://www.w3.org/1999/xlink"><symbol viewBox="0 0 20 20" id="cl--Artboard" xmlns="http://www.w3.org/2000/svg"><path d="M4.133 3.607v.276a1.867 1.867 0 003.728.146l.006-.146v-.276h4.266v.276a1.867 1.867 0 003.728.146l.006-.146v-.276H18V17H2V3.607h2.133zM10 5.692a.798.798 0 00-.794.708l-.006.1v2.404l-4.343 2.128v1.19l4.343-.916v2.035l-1.6 1.052v1.057l2.348-.772 2.338.772v-1.057L10.8 13.327v-2.02l4.343.916v-1.19L10.8 8.905V6.5a.8.8 0 00-.8-.809zM6 2a.8.8 0 01.8.8v1.079a.8.8 0 11-1.6 0V2.8A.8.8 0 016 2zm8 0a.8.8 0 01.8.8v1.079a.8.8 0 11-1.6 0V2.8A.8.8 0 0114 2z" fill-rule="evenodd"/></symbol><symbol viewBox="0 0 20 20" id="cl--alert" xmlns="http://www.w3.org/2000/svg"><path d="M11.583 13.648H8.142V17h3.44v-3.352zM11.724 4H8l.426 8.477h2.873L11.724 4z" fill-rule="evenodd"/></symbol><symbol viewBox="0 0 20 20" id="cl--alert-circle" xmlns="http://www.w3.org/2000/svg"><path d="M10 2a8 8 0 110 16 8 8 0 010-16zm1.164 9.732H8.836V14h2.328v-2.268zm.096-6.528H8.74l.288 5.736h1.944l.288-5.736z" fill-rule="evenodd"/></symbol><symbol viewBox="0 0 20 20" id="cl--arrow-long-up" xmlns="http://www.w3.org/2000/svg"><path d="M5.168 4.579L9.934.08l4.735 4.47-1.425 1.355-2.326-2.194v16.207h-2V3.739L6.593 5.935z" fill-rule="evenodd"/></symbol><symbol viewBox="0 0 20 20" id="cl--arrow-sign-up" xmlns="http://www.w3.org/2000/svg"><defs><path id="aea" d="M11.5 8.5L15 12l2-2-7-7-7 7 1.996 2L8.5 8.499V17h3z"/></defs><use xlink:href="#aea" fill-rule="evenodd"/></symbol><symbol viewBox="0 0 20 20" id="cl--arrow-up" xmlns="http://www.w3.org/2000/svg"><defs><path id="afa" d="M5.117 13.18L3 11.055 10.08 4l7.037 7.01L15 13.137l-4.92-4.901z"/></defs><use xlink:href="#afa" fill-rule="evenodd"/></symbol><symbol viewBox="0 0 20 20" id="cl--baggage" xmlns="http://www.w3.org/2000/svg"><path d="M11.501 0C12.33 0 13 .676 13 1.506V6h.991C15.101 6 16 6.886 16 7.992v8.516c0 .926-.638 1.704-1.5 1.927v.465c0 .607-.488 1.1-1.1 1.1-.608 0-1.1-.495-1.1-1.1v-.4H7.7v.4c0 .607-.488 1.1-1.1 1.1-.608 0-1.1-.495-1.1-1.1v-.464A1.99 1.99 0 014 16.508V7.992C4 6.892 4.902 6 6.009 6H7V1.506C7 .674 7.665 0 8.499 0H11.5zm-.3 1.5H8.8a.294.294 0 00-.299.295V6h3V1.795a.295.295 0 00-.299-.295z" fill-rule="evenodd"/></symbol><symbol viewBox="0 0 20 20" id="cl--baggage-large" xmlns="http://www.w3.org/2000/svg"><path d="M19 19v1H1v-1h18zM11.501 1C12.33 1 13 1.676 13 2.506V5h2v12H4.999V5H7V2.506C7 1.674 7.665 1 8.499 1H11.5zm-7.62 4v12H3a2 2 0 01-2-2V7a2 2 0 012-2h.881zM17 5a2 2 0 012 2v8a2 2 0 01-2 2h-.875V5H17zm-5.799-2.5H8.8a.294.294 0 00-.299.295V5h3V2.795a.295.295 0 00-.299-.295z" fill-rule="evenodd"/></symbol><symbol viewBox="0 0 20 20" id="cl--baggage-large-no" xmlns="http://www.w3.org/2000/svg"><path d="M17.512 1.002l-14.32 19h-2l14.35-19h1.97zM19 19v1H4.41l.756-1H19zM15 5.988V17H6.677L15 5.988zM17 5a2 2 0 012 2v8a2 2 0 01-2 2h-.875V5H17zM3.881 5v9.857L2.35 16.892A2 2 0 011 15V7a2 2 0 012-2h.881zm7.62-4C12.33 1 13 1.676 13 2.506v.245l-1.5 1.991V2.795a.295.295 0 00-.299-.295H8.8a.294.294 0 00-.299.295V5h2.806L5 13.374V5h2V2.506C7 1.674 7.665 1 8.499 1H11.5z" fill-rule="evenodd"/></symbol><symbol viewBox="0 0 20 20" id="cl--baggage-no" xmlns="http://www.w3.org/2000/svg"><path d="M15.061 6.074c.555.28.933.827.933 1.51L16 16.682c0 .955-.613 1.622-1.486 1.788v.437A1.09 1.09 0 0113.43 20c-.597 0-1.145-.49-1.145-1.093V18.5H7.828v.407A1.11 1.11 0 016.721 20c-.503 0-.952-.348-1.082-.817L14.523 6c.032-.047.339-.047.538.073zm.27-6.062l1.99.01L4 19.997H2L15.33.012zM11.447 0A1.55 1.55 0 0113 1.543v.297l-1.497 2.19V1.758a.27.27 0 00-.268-.266H8.769a.27.27 0 00-.268.266l.001 4.214h1.626L4 15l.005-7.324c0-.995.819-1.703 1.819-1.703H7v-4.43C7 .692 7.696 0 8.552 0h2.895z" fill-rule="evenodd"/></symbol><symbol viewBox="0 0 20 20" id="cl--biofuel" xmlns="http://www.w3.org/2000/svg"><path d="M9.69 16.655c2.776.194 5.178-1.82 5.365-4.498.188-2.678-3.361-4.628-4.434-9.652C10.2-.195 5.268 8.29 5 11.454c-.186 2.678 1.912 5.007 4.689 5.2z" fill-rule="evenodd"/></symbol><symbol viewBox="0 0 20 20" id="cl--burger" xmlns="http://www.w3.org/2000/svg"><path d="M19 14.75V17H1v-2.25h18zm0-5.25v2.25H1V9.5h18zm0-5.25V6.5H1V4.25h18z" fill-rule="evenodd"/></symbol><symbol viewBox="0 0 20 20" id="cl--business-briefcase" xmlns="http://www.w3.org/2000/svg"><path d="M19 5l.001 10a2 2 0 01-2 2H3a2 2 0 01-2-2V5l3.406 5.11A2 2 0 006.07 11H8v1h4v-1h1.93a2 2 0 001.664-.89L19 5zm-8 5v1H9v-1h2zm2-9a1 1 0 011 1v2h4.5l-3.46 5.12a2 2 0 01-1.493.873l-.165.007H12V9H8v1H6.618a2 2 0 01-1.56-.747l-.097-.133L1.5 4H6V2a1 1 0 011-1h6zm-.998 1.5H7.998c-.283 0-.498.106-.498.236V4.5h5V2.736c0-.132-.223-.236-.498-.236z" fill-rule="evenodd"/></symbol><symbol viewBox="0 0 20 20" id="cl--calendar" xmlns="http://www.w3.org/2000/svg"><path d="M12 4v3a2 2 0 003.995.15L16 7V4a2 2 0 011.995 1.85L18 6v12H2V6a2 2 0 012-2v3a2 2 0 003.995.15L8 7V4h4zm4 8H4v4h12v-4zM14 2a1 1 0 011 1v4a1 1 0 01-2 0V3a1 1 0 011-1zM6 2a1 1 0 011 1v4a1 1 0 11-2 0V3a1 1 0 011-1z" fill-rule="evenodd"/></symbol><symbol viewBox="0 0 20 20" id="cl--calendar-arrow" xmlns="http://www.w3.org/2000/svg"><path d="M4.4 3.364v.499a1.6 1.6 0 003.194.147l.006-.147v-.5h4.686v.5c0 .894.758 1.618 1.657 1.618.851 0 1.577-.65 1.65-1.478l.007-.14v-.5H18V17H2V3.364h2.4zM10 6.489c-1.244 0-2.365.53-3.149 1.374l-.152.173-1.27-1.263v3.977h4L7.92 9.25A2.573 2.573 0 0110 8.193a2.567 2.567 0 012.571 2.557A2.567 2.567 0 0110 13.307c-.78 0-1.478-.347-1.95-.893l-.113-.14-1.22 1.212A4.287 4.287 0 0010 15.01c2.363 0 4.286-1.911 4.286-4.261S12.363 6.489 10 6.489zM6 2c.348 0 .63.256.678.589l.008.102v1.067a.685.685 0 01-1.364.102l-.008-.102V2.691C5.314 2.309 5.617 2 6 2zm8 0c.348 0 .63.256.678.589l.008.102v1.067a.685.685 0 01-1.364.102l-.008-.102V2.691c0-.382.303-.691.686-.691z" fill-rule="evenodd"/></symbol><symbol viewBox="0 0 20 20" id="cl--car" xmlns="http://www.w3.org/2000/svg"><path d="M9.73 4.002L10 4c2.076 0 4.148.289 5.272.475l.858.156L18 9.405v7.166h-2.857v-1.71H4.857v1.71H2V9.402L3.899 4.64l.71-.134c1.03-.179 3.045-.479 5.121-.503zm6.556 6.865h-1.702c-1.649 0-2.248 1.106-2.295 1.556l-.003.054v.101h4v-1.711zm-10.867 0H3.714v1.711H7.6v-.1c0-.39-.424-1.512-1.973-1.605l-.208-.006zm4.88-5.55H10c-2.72 0-4.63.32-5.078.404l-.1.02-1.238 3.138 1.355.097c1.128.072 2.82.16 4.53.177l.81.002 1.078-.014a93.643 93.643 0 004.068-.184l1.021-.074-1.236-3.138-.502-.087c-.76-.12-2.339-.322-4.409-.34z" fill-rule="evenodd"/></symbol><symbol viewBox="0 0 20 20" id="cl--cart" xmlns="http://www.w3.org/2000/svg"><path d="M7.5 14a1.5 1.5 0 110 3 1.5 1.5 0 010-3zm6 0a1.5 1.5 0 110 3 1.5 1.5 0 010-3zM4.397 3l.716 2.286H17l-1.146 6.857-9.7 1.138-2.902-9.138H1V3h3.397z" fill-rule="evenodd"/></symbol><symbol viewBox="0 0 20 20" id="cl--chat-bubble" xmlns="http://www.w3.org/2000/svg"><path d="M10.5 3C15.194 3 19 6.036 19 9.781c0 3.745-3.806 6.781-8.5 6.781-.316 0-.629-.014-.936-.04-.52 1.723-2.1 2.978-3.971 2.978a4.243 4.243 0 001.166-3.628C3.94 14.767 2 12.455 2 9.782 2 6.035 5.805 3 10.5 3zm-4 6a1 1 0 100 2 1 1 0 000-2zm4 0a1 1 0 100 2 1 1 0 000-2zm4 0a1 1 0 100 2 1 1 0 000-2z" fill-rule="evenodd"/></symbol><symbol viewBox="0 0 20 20" id="cl--check" xmlns="http://www.w3.org/2000/svg"><path d="M15.94 3.883l2.118 2.124-9.08 9.055-5.037-5.01 2.115-2.126 2.919 2.902z" fill-rule="evenodd"/></symbol><symbol viewBox="0 0 20 20" id="cl--check-circle" xmlns="http://www.w3.org/2000/svg"><path d="M10 2a8 8 0 110 16 8 8 0 010-16zm3.316 4.632L8.65 10.994 6.68 9.16l-1.362 1.46 3.335 3.11 6.03-5.638-1.366-1.461z" fill-rule="evenodd"/></symbol><symbol viewBox="0 0 20 20" id="cl--clock" xmlns="http://www.w3.org/2000/svg"><path d="M10 2a8 8 0 110 16 8 8 0 010-16zm1 1.979H9v7.03h6.667v-2H11v-5.03z" fill-rule="evenodd"/></symbol><symbol viewBox="0 0 20 20" id="cl--close" xmlns="http://www.w3.org/2000/svg"><path d="M14.177 3l2.121 2.121L11.77 9.65l4.528 4.528-2.121 2.121-4.528-4.528-4.528 4.528L3 14.177l4.527-4.528L3 5.121 5.121 3 9.65 7.527z" fill-rule="evenodd"/></symbol><symbol viewBox="0 0 20 20" id="cl--close-circle" xmlns="http://www.w3.org/2000/svg"><path d="M10 2a8 8 0 110 16 8 8 0 010-16zm2.732 3.854L10 8.586 7.268 5.854 5.854 7.268 8.586 10l-2.7 2.699 1.415 1.414 2.699-2.7 2.699 2.7 1.414-1.414-2.7-2.7 2.733-2.731-1.414-1.414z" fill-rule="evenodd"/></symbol><symbol viewBox="0 0 20 20" id="cl--coffee" xmlns="http://www.w3.org/2000/svg"><path d="M17.125 16.125c0 .986-.761 1.795-1.728 1.87L15.25 18H4.875a1.875 1.875 0 01-1.87-1.728L3 16.125h14.125zm-.938-8.469v1.039h.182A2.631 2.631 0 0119 11.326c0 1.938-1.376 3.526-3.102 3.63l-.18.005h-1.24a6.21 6.21 0 01-.931.856l-.252.183H6.8c-1.647-1.148-2.769-3.17-2.856-5.46l-.006-.287V7.656h12.25zm.283 2.078h-.282v.519c0 1.23-.308 2.406-.831 3.402l-.148.268h.51c1.24 0 2.259-1.074 2.339-2.426l.005-.17-.007-.146a1.593 1.593 0 00-1.441-1.441l-.145-.006zM13.732 2.78c.411.841.403 1.567-.116 2.077-.166.163-.133.525-.005.759l.052.08a.5.5 0 11-.795.607c-.436-.572-.583-1.54.047-2.16.158-.154.16-.428-.082-.923a.5.5 0 11.899-.44zm-3 0c.411.841.403 1.567-.116 2.077-.166.163-.133.525-.005.759l.052.08a.5.5 0 11-.795.607c-.436-.572-.583-1.54.047-2.16.158-.154.16-.428-.082-.923a.5.5 0 11.899-.44zm-3 0c.411.841.403 1.567-.116 2.077-.166.163-.133.525-.005.759l.052.08a.5.5 0 01-.795.607c-.436-.572-.583-1.54.047-2.16.158-.154.16-.428-.082-.923a.5.5 0 11.899-.44z" fill-rule="evenodd"/></symbol><symbol viewBox="0 0 20 20" id="cl--credit" xmlns="http://www.w3.org/2000/svg"><path d="M6.41 6l4.934 1.765 5.004.436c.363.032.637.305.651.63l-.002.09-.771 7.481c-.034.33-.328.58-.678.597l-.106-.002L1.652 15.8c-.363-.032-.637-.305-.651-.63l.002-.09.771-7.481c.034-.33.327-.58.677-.597l.107.002 3.464.3L6.41 6zm11.12 4l1.47.499-1.584 5.05a.714.714 0 01-.324.406L17 16l.531-5.845.002-.078-.002-.077zm-5.652 1.469l-.034.332.43.037-.12 1.15.428.038.118-1.151.43.037.034-.332-1.286-.111zm-.661-.058l-.152 1.483.427.037.152-1.483-.427-.037zm-1.61-.14l-.152 1.483.628.053h.122l.062-.005.125-.02a.596.596 0 00.363-.253.832.832 0 00.128-.392.884.884 0 00-.012-.302.702.702 0 00-.048-.146.567.567 0 00-.328-.3 1.186 1.186 0 00-.202-.053l-.104-.014-.581-.05zm-1.339-.115l-.152 1.482 1.044.09.032-.311-.617-.054.03-.287.544.047.031-.305-.544-.047.028-.267.593.051.032-.311-1.02-.088zm-1.537-.134l-.152 1.482.427.037.056-.548.121.01.26.577.464.04-.314-.646.086-.036a.411.411 0 00.243-.351.402.402 0 00-.037-.237.407.407 0 00-.141-.153.67.67 0 00-.203-.087l-.113-.023-.112-.014-.585-.051zm-1.07-.032a.69.69 0 00-.428.373.878.878 0 00-.057.576.62.62 0 00.352.42.946.946 0 00.334.086 1.215 1.215 0 00.297-.01l.103-.024.078-.021.037-.366a1.533 1.533 0 01-.2.076.59.59 0 01-.221.018.464.464 0 01-.186-.05.334.334 0 01-.17-.24.523.523 0 01.034-.313.369.369 0 01.22-.203.531.531 0 01.304.007l.056.02.05.023.085.05.066.047.038-.367-.065-.034-.096-.04a1.109 1.109 0 00-.279-.06.894.894 0 00-.351.032zm2.311-6.955L19.514 7.84c.37.121.572.523.451.896L19.88 9 7 4.755l.086-.265a.701.701 0 01.886-.455z" fill-rule="evenodd"/></symbol><symbol viewBox="0 0 20 20" id="cl--devblog" xmlns="http://www.w3.org/2000/svg"><path d="M10 1a9 9 0 019 9 8.999 8.999 0 01-9 8.999 8.965 8.965 0 01-4.004-.937C4.302 19 3.19 19 1 19l.15-.107a4.5 4.5 0 001.706-3.419A8.96 8.96 0 011 10a9 9 0 019-9zm1.769 6.422h-1.095l-2.692 5.277h1.101l2.686-5.277zm-4.27.533L3.496 9.61v.907l4.003 1.649v-1.08l-2.613-1.023 2.613-1.022V7.955zm4.752 0v1.087l2.621 1.022-2.62 1.023v1.08l4.002-1.65v-.906l-4.003-1.656z" fill-rule="evenodd"/></symbol><symbol viewBox="0 0 20 20" id="cl--download" xmlns="http://www.w3.org/2000/svg"><path d="M5.5 10v4.5h9V10H16v4.5a1.5 1.5 0 01-1.5 1.5h-9A1.5 1.5 0 014 14.5V10h1.5zm5.321-6v4.654l1.918-1.917 1.093 1.095L10 11.664 6.168 7.832l1.095-1.095 1.916 1.916V4h1.642z" fill-rule="evenodd"/></symbol><symbol viewBox="0 0 20 20" id="cl--eb-card" xmlns="http://www.w3.org/2000/svg"><path d="M20 8v8.212c0 .433-.386.788-.857.788H.857C.386 17 0 16.645 0 16.212V8h20zM5.015 10H2v5h3.124v-.805H2.941v-1.344h1.951v-.777h-1.95v-1.27h2.073V10zM7.8 10H6.065v5h1.72c1.282 0 1.855-.614 1.855-1.371 0-.921-.723-1.126-1.105-1.228l.148-.053c.349-.134.84-.4.84-1.127 0-1.009-.977-1.184-1.555-1.215l-.168-.005zm-.145 2.763c.825 0 1.016.402 1.016.757 0 .5-.388.712-.946.74l-.132.003h-.586v-1.5h.648zm-.648-2.026h.789l.118.005c.267.02.682.12.682.622l-.005.076c-.024.193-.156.545-.772.594l-.15.006h-.662v-1.303zM19.143 4c.471 0 .857.355.857.788V6H0V4.788C0 4.355.386 4 .857 4h18.286z" fill-rule="evenodd"/></symbol><symbol viewBox="0 0 20 20" id="cl--eb-coin" xmlns="http://www.w3.org/2000/svg"><path d="M9.16 7.136H5.456V13h3.792v-1.232h-2.24v-1.136h1.976V9.424H7.008V8.368H9.16V7.136zm3.546 0H10.32V13h2.304c1.056 0 2.24-.36 2.24-1.656 0-.952-.608-1.2-.992-1.36l.133-.07c.31-.17.731-.492.731-1.282 0-1.225-1.049-1.461-1.914-1.492l-.116-.003zm-.202 3.44c.464 0 .792.168.792.608 0 .575-.564.613-.744.616h-.68v-1.224h.632zm.008-2.24c.4 0 .696.144.696.528l-.006.074c-.028.174-.162.486-.69.486h-.64V8.336h.64z" fill-rule="evenodd"/></symbol><symbol viewBox="0 0 20 20" id="cl--eb-coin-circle" xmlns="http://www.w3.org/2000/svg"><path d="M10 2a8 8 0 110 16 8 8 0 010-16zm-.84 5.136H5.456V13h3.792v-1.232h-2.24v-1.136h1.976V9.424H7.008V8.368H9.16V7.136zm3.546 0H10.32V13h2.304c1.056 0 2.24-.36 2.24-1.656 0-.952-.608-1.2-.992-1.36l.133-.07c.31-.17.731-.492.731-1.282 0-1.225-1.049-1.461-1.914-1.492l-.116-.003zm-.202 3.44c.464 0 .792.168.792.608 0 .575-.564.613-.744.616h-.68v-1.224h.632zm.008-2.24c.4 0 .696.144.696.528l-.006.074c-.028.174-.162.486-.69.486h-.64V8.336h.64z" fill-rule="evenodd"/></symbol><symbol viewBox="0 0 20 20" id="cl--eb-coins-card" xmlns="http://www.w3.org/2000/svg"><path d="M8.37 7.965l10.657.002v6.347a.6.6 0 01-.6.595l-9.94.001c-.81.558-1.986.908-3.295.908-2.364 0-4.295-1.143-4.417-2.582L.77 13.07c-.486-.438-.77-.967-.77-1.538 0-.115.012-.23.034-.342.268 1.16 2.122 2.058 4.37 2.058a7.86 7.86 0 001.658-.173c-.16.01-.321.016-.485.016-2.443 0-4.423-1.221-4.423-2.727 0-.09.007-.178.02-.265.31 1.135 2.142 2.007 4.357 2.007 2.43 0 4.402-1.05 4.402-2.347 0-.72-.607-1.363-1.564-1.794zm1.008 3.794l-.058.059a3.57 3.57 0 01-.662.503c-.548 1.122-2.236 1.939-4.235 1.939-1.328 0-2.519-.361-3.33-.932.664.847 2.233 1.442 4.062 1.442 2.431 0 4.402-1.05 4.402-2.347 0-.23-.062-.454-.179-.664zm6.837-2.304H14.92v3.966h1.416l.175-.005c.958-.06 1.305-.623 1.305-1.14 0-.44-.223-.763-.647-.94.357-.195.538-.484.538-.874 0-.613-.466-.962-1.316-1.003l-.175-.004zm-2.298 0h-2.505v3.966h2.606v-.694h-1.804v-.991h1.503v-.695h-1.503v-.892h1.703v-.694zm2.293 2.28c.506 0 .809.171.809.512 0 .296-.23.45-.635.476l-.127.004h-.536v-.991h.489zm-.49-1.586l.64.001c.274.012.565.092.565.412l-.003.048c-.016.123-.108.386-.593.426l-.13.005h-.478v-.892zM18.427 4a.6.6 0 01.593.499l.008.096v1.388H5V4.595a.6.6 0 01.504-.587L5.601 4h12.825z" fill-rule="evenodd"/></symbol><symbol viewBox="0 0 20 20" id="cl--eb-simple" xmlns="http://www.w3.org/2000/svg"><path d="M15.964 6c.265 0 .487.193.529.445l.007.085v7.779a.534.534 0 01-.45.523l-.086.007H4.536a.536.536 0 01-.529-.444L4 14.309V6.53c0-.262.195-.482.45-.523L4.535 6h11.428zm-8.087 4.643H6.054v2.89H7.95v-.505H6.637v-.723H7.73V11.8H6.637v-.65h1.24v-.506zm1.709 0h-.943v2.89h1.03c.794 0 1.077-.435 1.077-.834 0-.32-.162-.556-.47-.685.26-.142.39-.353.39-.637 0-.476-.385-.734-1.084-.734zm-.052 1.696c.37 0 .59.125.59.373 0 .211-.16.323-.444.346l-.112.004h-.39v-.723h.356zm.05-1.16c.215 0 .471.044.471.3l-.004.047c-.018.102-.105.303-.524.303h-.348v-.65h.405z"/></symbol><symbol viewBox="0 0 20 20" id="cl--envelope" xmlns="http://www.w3.org/2000/svg"><path d="M17 8v8H3l.001-8 6.102 4.03c.255.17.577.254.898.254.266 0 .531-.058.76-.174l.133-.077L17 8.001zm0-3v.56c0 .52-.126.652-.22.72l-6.581 4.655a.337.337 0 01-.322.041l-.077-.041L3.213 6.27c-.084-.064-.187-.172-.209-.492L3 5.648V5h14z" fill-rule="evenodd"/></symbol><symbol viewBox="0 0 20 20" id="cl--facebook" xmlns="http://www.w3.org/2000/svg"><defs><path d="M13.928 9.999l.322-3.104h-2.737V5.35c0-.807.062-1.246 1.193-1.246h1.528V1H11.8C8.873 1 8.199 2.548 8.199 5.074l.009 1.821L6 6.905v3.094h2.208V19h3.305V9.999h2.415z" id="bha"/></defs><use xlink:href="#bha" fill-rule="evenodd"/></symbol><symbol viewBox="0 0 20 20" id="cl--globe" xmlns="http://www.w3.org/2000/svg"><path d="M10 2a8 8 0 110 16 8 8 0 010-16zm2.544 12h-1.933v2.759l.078-.009c.203-.216.403-.463.613-.729.423-.536.776-1.106 1.072-1.678l.17-.343zm-3.076 0H7.464a10.86 10.86 0 001.889 2.743c.025.003.01.01.062.013l.053.003V14zm6 0h-1.68c-.325.8-.748 1.569-1.266 2.293a6.779 6.779 0 002.274-1.508c.184-.184.357-.373.517-.576l.156-.209zm-9.255 0H4.531c.203.286.427.54.673.785.66.66 1.432 1.17 2.274 1.508a11.194 11.194 0 01-1.094-1.896L6.214 14zm10.546-3.429h-2.202a10.059 10.059 0 01-.28 1.914l-.098.372h1.97c.294-.6.49-1.287.579-1.986l.031-.3zm-3.346 0H10.61v2.286h2.381a9.081 9.081 0 00.39-1.89l.03-.396zm-3.945 0h-2.88c.04.735.16 1.386.335 1.989l.092.297h2.453v-2.286zm-4.025 0H3.241c.058.7.224 1.4.49 2.024l.12.262h1.97a10.112 10.112 0 01-.35-1.89l-.028-.396zm7.535-3.428h-2.367v2.286h2.8a9.002 9.002 0 00-.341-1.986l-.092-.3zm3.177 0h-1.984c.175.619.294 1.238.354 1.89l.029.396h2.204a6.767 6.767 0 00-.469-1.977l-.134-.31zm-6.687 0H7.015a9.176 9.176 0 00-.394 1.89l-.031.396h2.878V7.143zm-3.64 0H3.845a6.727 6.727 0 00-.566 1.944l-.037.342h2.204c.036-.667.131-1.294.284-1.914l.098-.372zm4.783-3.902V6h1.916a10.725 10.725 0 00-1.867-2.753l-.049-.006zm1.873.444c.44.61.814 1.251 1.118 1.914l.173.401h1.704a6.895 6.895 0 00-.683-.796 6.767 6.767 0 00-2.312-1.519zM9.468 6V3.241l-.075.003c-.013.001-.002.002-.016.004-.211.224-.45.473-.668.751a10.578 10.578 0 00-1.073 1.657L7.466 6h2.002zM7.515 3.685a6.767 6.767 0 00-2.781 2.04L4.52 6h1.703c.33-.806.763-1.582 1.291-2.315z" fill-rule="evenodd"/></symbol><symbol viewBox="0 0 20 20" id="cl--google" xmlns="http://www.w3.org/2000/svg"><path d="M6.062 4c1.637 0 3.007.594 4.056 1.566L8.396 7.222c-.436-.408-1.2-.888-2.334-.888-2.006 0-3.643 1.65-3.643 3.672 0 2.022 1.637 3.672 3.643 3.672 2.322 0 3.177-1.59 3.335-2.532h-3.34V8.908h5.674c.085.378.151.732.151 1.23 0 3.426-2.322 5.862-5.82 5.862C2.716 16 0 13.312 0 10s2.716-6 6.062-6zm11.513 2.4v2.4H20v1.8h-2.425V13h-1.819v-2.4h-2.425V8.8h2.425V6.4h1.819z" fill-rule="evenodd"/></symbol><symbol viewBox="0 0 20 20" id="cl--green" xmlns="http://www.w3.org/2000/svg"><path d="M18.235 1.828C16.784 11.82 12.24 16.065 4.6 14.564c-.44 1.003-.633 1.949-.586 2.84a.5.5 0 11-.999.052c-.057-1.086.183-2.218.713-3.395l.077-.16h-.003l.107-.245c1.031-2.262 3.228-4.328 6.607-6.184a.5.5 0 00-.482-.876c-3.556 1.953-5.908 4.166-7.038 6.653l.004.027C1.72 5.933 6.799 2.117 18.235 1.828z" fill-rule="evenodd"/></symbol><symbol viewBox="0 0 20 20" id="cl--heart" xmlns="http://www.w3.org/2000/svg"><defs><path d="M17.578 10.734a4.806 4.806 0 000-6.826c-1.896-1.877-4.997-1.877-6.893 0l-.689.683-.682-.677c-1.896-1.877-4.997-1.877-6.892 0a4.809 4.809 0 000 6.827l3.135 3.106 1 .99 3.446 3.413 4.445-4.403 3.13-3.113z" id="bla"/></defs><use xlink:href="#bla" fill-rule="evenodd"/></symbol><symbol viewBox="0 0 20 20" id="cl--heart-stroke" xmlns="http://www.w3.org/2000/svg"><path d="M17.265 4.269c1.813 1.843 1.813 4.846 0 6.688l-3.753 3.817-3.507 3.582-7.27-7.392c-1.813-1.842-1.813-4.846 0-6.689a4.675 4.675 0 016.66 0l.601.613.609-.619a4.674 4.674 0 016.66 0zm-5.056 1.578l-2.214 2.25-2.204-2.244a2.424 2.424 0 00-3.453 0c-.95.967-.95 2.567 0 3.534l5.663 5.757 1.905-1.946 3.755-3.819a2.542 2.542 0 000-3.532 2.424 2.424 0 00-3.452 0z" fill-rule="evenodd"/></symbol><symbol viewBox="0 0 20 20" id="cl--hotel" xmlns="http://www.w3.org/2000/svg"><path d="M18 13v4h-1.332l-.992-2H4.247l-.865 2H2v-4h16zM16.066 3a.79.79 0 01.784.674l.007.105v4.868c.725.41 1.095 1.45 1.139 2.43l.004.196V12H2v-.727c0-.97.325-2.045 1.003-2.535l.14-.09v-4.87c0-.393.299-.72.684-.772L3.934 3h12.132zm-2.564 3c-1.203 0-1.953.512-2.16.674l-.059.048L11 9h5l-.241-2.278-.061-.048C15.483 6.512 14.706 6 13.502 6zm-7 0c-1.203 0-1.953.512-2.16.674l-.059.048L4 9h5l-.241-2.278-.061-.048C8.483 6.512 7.706 6 6.502 6z" fill-rule="evenodd"/></symbol><symbol viewBox="0 0 20 20" id="cl--info" xmlns="http://www.w3.org/2000/svg"><path d="M6 8.246V9.88h1.874v5.622H6V17h7.496v-1.5h-1.874V8.256L6 8.246zM9.76 2a2.512 2.512 0 10.001 5.023 2.512 2.512 0 000-5.023z" fill-rule="evenodd"/></symbol><symbol viewBox="0 0 20 20" id="cl--info-circle" xmlns="http://www.w3.org/2000/svg"><path d="M10 2a8 8 0 110 16 8 8 0 010-16zM7.333 9.108v1.162h1.333v3.997H7.333v1.066h5.33v-1.066h-1.332V9.114l-3.998-.006zm2.674-4.441a1.786 1.786 0 10.001 3.572 1.786 1.786 0 000-3.572z" fill-rule="evenodd"/></symbol><symbol viewBox="0 0 20 20" id="cl--instagram" xmlns="http://www.w3.org/2000/svg"><path d="M11.058 2l.978.007.451.009c.272.007.503.017.81.031.85.039 1.432.174 1.941.372.526.204.972.478 1.417.923.445.444.718.89.923 1.416.176.453.302.963.355 1.668l.036.72.016.513.003.196.01 2.859-.008 1.328c-.007.507-.02.797-.04 1.255-.04.852-.174 1.433-.372 1.942a3.922 3.922 0 01-.923 1.417 3.92 3.92 0 01-1.417.923c-.452.175-.962.302-1.668.355l-.72.036-.513.015-.195.004-2.86.01-1.327-.008c-.507-.007-.798-.02-1.255-.04-.852-.04-1.433-.175-1.942-.372a3.922 3.922 0 01-1.417-.923 3.921 3.921 0 01-.923-1.417c-.198-.509-.333-1.09-.372-1.942l-.032-.85-.01-.646L2 11.27l.002-2.974A34.66 34.66 0 012.046 6.7c.04-.851.174-1.433.372-1.942.205-.526.478-.972.923-1.416.445-.445.89-.719 1.417-.923.509-.198 1.09-.333 1.942-.372l.85-.032.646-.01L8.727 2h2.331zm.716 1.445H8.222l-.608.01a32.05 32.05 0 00-.664.024l-.185.008c-.78.035-1.203.166-1.485.275-.374.145-.64.319-.92.599-.28.28-.453.546-.598.92l-.056.153a4.466 4.466 0 00-.209 1.144l-.032.683c-.018.494-.024.963-.025 2.26l.004 2.254.01.607c.006.232.013.43.024.665l.008.184c.036.78.166 1.204.276 1.486.145.373.318.64.598.92.28.28.546.453.92.598l.154.056c.251.085.602.17 1.144.209l.945.04.556.01c.304.004.688.006 1.227.007l2.397-.004.746-.012c.26-.007.484-.017.782-.03.78-.036 1.203-.166 1.485-.276a2.48 2.48 0 00.92-.598c.28-.28.453-.547.598-.92l.056-.154c.085-.251.171-.602.209-1.144l.04-.945.011-.557c.004-.303.005-.687.006-1.226l-.004-2.397-.012-.746a40.01 40.01 0 00-.03-.782c-.036-.78-.166-1.203-.276-1.485a2.478 2.478 0 00-.598-.92 2.478 2.478 0 00-.92-.599l-.154-.056c-.251-.085-.602-.17-1.144-.208l-.683-.032c-.277-.01-.547-.017-.96-.02zM9.998 5.891a4.108 4.108 0 110 8.216 4.108 4.108 0 010-8.216zm0 1.441a2.667 2.667 0 100 5.333 2.667 2.667 0 000-5.333zm4.27-2.564a.96.96 0 110 1.92.96.96 0 010-1.92z" fill-rule="evenodd"/></symbol><symbol viewBox="0 0 20 20" id="cl--key" xmlns="http://www.w3.org/2000/svg"><path d="M7.875 1c2.692 0 4.875 2.175 4.875 4.857a4.825 4.825 0 01-1.029 2.985l5.126 5.106-4.096 4.119-1.701-1.692 2.404-2.419-1.288-1.283-1.476 1.464L9 12.432l1.465-1.453-.662-.66a4.874 4.874 0 01-1.928.395C5.183 10.714 3 8.54 3 5.857 3 3.175 5.183 1 7.875 1zm0 2.4A2.466 2.466 0 005.4 5.857a2.466 2.466 0 002.475 2.457 2.466 2.466 0 002.475-2.457A2.466 2.466 0 007.875 3.4z" fill-rule="evenodd"/></symbol><symbol viewBox="0 0 20 20" id="cl--linkedin" xmlns="http://www.w3.org/2000/svg"><path d="M13.863 6.641c2.221 0 3.887 1.447 3.887 4.555V17h-3.376v-5.415c0-1.36-.488-2.288-1.71-2.288-.933 0-1.488.625-1.732 1.23-.089.217-.112.518-.112.82V17H7.443l.02-7.66a94.404 94.404 0 00-.02-2.461h3.377v1.435l.131-.195c.471-.665 1.282-1.478 2.912-1.478zm-8.287.238V17H2.201V6.879h3.375zM3.911 2c1.155 0 1.865.755 1.888 1.748 0 .923-.661 1.672-1.737 1.744l-.196.006C2.734 5.498 2 4.72 2 3.748 2 2.755 2.756 2 3.91 2z" fill-rule="evenodd"/></symbol><symbol viewBox="0 0 20 20" id="cl--location" xmlns="http://www.w3.org/2000/svg"><defs><path id="bta" d="M3 8.503l5.952 2.333L11.567 17 17 3z"/></defs><use xlink:href="#bta" fill-rule="evenodd"/></symbol><symbol viewBox="0 0 20 20" id="cl--locator" xmlns="http://www.w3.org/2000/svg"><path d="M15 18v2H5v-2h10zM10 0c2.762 0 5 2.35 5 5.25 0 3.5-5 9.758-5 9.758l-.483-.63C8.262 12.703 5 8.077 5 5.25 5 2.35 7.238 0 10 0zm0 3a2 2 0 10.001 4.001A2 2 0 0010 3z" fill-rule="evenodd"/></symbol><symbol viewBox="0 0 20 20" id="cl--logo" xmlns="http://www.w3.org/2000/svg"><path d="M5.435 6.15c1.133 0 1.7.298 1.906.398.129.075.103.174.103.174l-.109.463a.94.94 0 00-.02.11c-.025.05-.077.05-.128 0l-.233-.134a2.168 2.168 0 00-1.081-.29c-.696 0-1.056.499-.876 1.221l.125.459c.131.498.323 1.253.42 1.651l.048.206c.309 1.245-.567 2.74-2.937 2.74-1.314 0-2.138-.474-2.421-.698-.155-.124-.206-.199-.18-.274l.077-.247c.052-.161.114-.34.129-.326 0-.1.051-.124.103-.074l.118.11c.31.281.969.786 1.84.786 1.107 0 1.03-.871 1.03-.996 0-.349-.464-2.067-.593-2.515-.36-1.445.541-2.765 2.679-2.765zm12.544 0c1.134 0 1.7.298 1.906.398.13.075.103.174.103.174l-.108.463a.94.94 0 00-.02.11c-.026.05-.078.05-.13 0-.334-.2-.72-.423-1.313-.423-.695 0-1.056.498-.876 1.22l.084.303c.154.579.447 1.734.509 2.013.309 1.245-.567 2.74-2.937 2.74-1.313 0-2.086-.449-2.37-.673-.128-.104-.185-.173-.186-.236l.122-.593a.72.72 0 01.01-.038c.029-.08.106-.104.158-.054l.203.176c.335.28.925.695 1.728.695 1.108 0 1.03-.871 1.03-.996 0-.349-.463-2.067-.592-2.515-.36-1.445.541-2.765 2.68-2.765zm-4.868.074c.062 0 .058.048.067.067l.01.008-1.34 6.674c0 .038-.014.047-.032.05H9.402c-.078 0-.078-.05-.078-.075l.28-1.421a.296.296 0 00.004-.023l-.007-.018-.019-.007H7.6l-.025.006-.027.019-1.185 1.47c0 .018-.014.037-.054.045l-.049.004h-.824c-.039 0-.048-.014-.04-.042l.014-.033 5.538-6.674.025-.018a.238.238 0 01.074-.027l.056-.005h2.009zm-2.885 1.968l-.026.024-2.06 2.566v.025h1.57l.516-2.59.011-.019-.011-.006z"/></symbol><symbol viewBox="0 0 20 20" id="cl--lounge" xmlns="http://www.w3.org/2000/svg"><path d="M6.233 7.736a1.824 1.824 0 012.19.854l1.46 2.996 2.505-1.417a1.217 1.217 0 011.23.019l4.332 3.217-1.113 1.776-2.445-1.774L15.895 18h-2.248l-1.275-3.902-3.44.646c-.482.088-.83.148-.874.148a1.83 1.83 0 01-1.672-1.097l-.058-.15-1.257-3.578c-.325-.96.207-2.004 1.162-2.331zm-3.657.755a.857.857 0 011.051.432l.042.1 1.873 5.438c.395 1.149 1.448 1.732 2.68 1.486l1.423-.298 2.167-.488.538 1.644-1.3.3c-.728.163-1.65.365-2.494.534a4.426 4.426 0 01-.868.087c-1.709 0-3.192-1.03-3.768-2.703L2.048 9.588a.862.862 0 01.528-1.097zM16.768 2L18 6.602h-2.289v3.97l-1.258-.8v-3.17h-2.269L13.416 2h3.352zM5.43 3.17a1.986 1.986 0 012.237 1.703 1.994 1.994 0 01-1.695 2.25 1.986 1.986 0 01-2.237-1.705A1.993 1.993 0 015.43 3.17z" fill-rule="evenodd"/></symbol><symbol viewBox="0 0 20 20" id="cl--lowprice-calendar" xmlns="http://www.w3.org/2000/svg"><path d="M4.133 3.607v.268A1.87 1.87 0 006 5.75a1.87 1.87 0 001.867-1.875v-.268h4.266v.268A1.87 1.87 0 0014 5.75a1.87 1.87 0 001.867-1.875v-.268H18V17H2V3.607h2.133zm5.87 3.026L8.99 8.463l-2.003-.575L7.56 9.9l-1.82 1.017 1.82 1.016-.572 2.012 2.003-.574 1.012 1.829 1.012-1.83 2.004.575-.572-2.012 1.82-1.016-1.82-1.017.572-2.012-2.004.575-1.012-1.83zM6 2c.442 0 .8.36.8.804v1.071a.802.802 0 01-.8.804c-.442 0-.8-.36-.8-.804V2.804C5.2 2.36 5.558 2 6 2zm8 0c.442 0 .8.36.8.804v1.071a.802.802 0 01-.8.804c-.442 0-.8-.36-.8-.804V2.804c0-.444.358-.804.8-.804z" fill-rule="evenodd"/></symbol><symbol viewBox="0 0 20 20" id="cl--meal" xmlns="http://www.w3.org/2000/svg"><path d="M6.1 2v4.571h1.1V2h1.1v4.571h1.1V2h1.1v5.423c0 1.102-.69 2.047-1.607 2.457l-.241.051c-.03.006-.062.012-.096.017L8.85 18h-2.2l.293-8.028c-.236-.043-.385-.092-.385-.092C5.642 9.47 5 8.525 5 7.423V2h1.1zm9.9.001v15.99h-2.2l.5-7.42-1.6-.58V6.153c0-4.33 3.3-4.152 3.3-4.152z" fill-rule="evenodd"/></symbol><symbol viewBox="0 0 20 20" id="cl--minus" xmlns="http://www.w3.org/2000/svg"><path d="M3 11.5v-3h14v3z"/></symbol><symbol viewBox="0 0 20 20" id="cl--new-window" xmlns="http://www.w3.org/2000/svg"><path d="M16 14.5a1.5 1.5 0 01-1.5 1.5h-9A1.5 1.5 0 014 14.5v-9A1.5 1.5 0 015.5 4H10v1.5H5.5v9h9V10H16v4.5zm1-6.08h-1.548V5.71L12.162 9 11 7.839l3.29-3.291-2.71-.001V3H17v5.42z" fill-rule="evenodd"/></symbol><symbol viewBox="0 0 20 20" id="cl--offer" xmlns="http://www.w3.org/2000/svg"><path d="M10.197 1.077l6.6 5.578c.092.087.2.264.2.84v9.337a2.002 2.002 0 01-2.005 2.008H5.006A2.006 2.006 0 013 16.832V7.39c0-.615.176-.706.271-.793L9.8 1.078a.295.295 0 01.398 0zM10.026 3C9.459 3 9 3.46 9 4.03a1.027 1.027 0 102.051-.001c0-.568-.459-1.029-1.025-1.029z" fill-rule="evenodd"/></symbol><symbol viewBox="0 0 20 20" id="cl--pdf" xmlns="http://www.w3.org/2000/svg"><path d="M16 0a1 1 0 01.993.883L17 1v18a1 1 0 01-.883.993L16 20H4a1 1 0 01-.993-.883L3 19V5l5-5h8zM7.996 1.416L4.408 5.004 7.996 5V1.416z" fill-rule="evenodd"/></symbol><symbol viewBox="0 0 20 20" id="cl--pen" xmlns="http://www.w3.org/2000/svg"><path d="M15 16v1H4v-1h11zM4.546 12.076l2.407 2.476L4 15.141l.546-3.065zM12.474 3L16 6.503l-7.477 7.594-3.522-3.506L12.474 3z" fill-rule="evenodd"/></symbol><symbol viewBox="0 0 20 20" id="cl--pending-circle" xmlns="http://www.w3.org/2000/svg"><path d="M10 0c5.523 0 10 4.477 10 10s-4.477 10-10 10S0 15.523 0 10 4.477 0 10 0zm4.571 3.75H5.43a.429.429 0 00-.422.352L5 4.179v.392c0 .21.152.386.352.422L5.429 5h1.238v2.5l2.5 2.5-2.5 2.5V15H5.429a.429.429 0 00-.422.352L5 15.429v.392c0 .21.152.386.352.422l.077.007h9.142a.43.43 0 00.422-.352l.007-.077v-.392a.429.429 0 00-.352-.422L14.571 15h-1.238v-2.5l-2.5-2.5 2.5-2.5V5h1.238a.43.43 0 00.422-.352L15 4.571V4.18a.429.429 0 00-.352-.422l-.077-.007zm-4.093 7.107l1.998 1.998v.037H7.523v-.037l1.998-1.998h.957zm1.999-4.999v1.287l-1.998 1.998h-.957L7.524 7.145V5.858h4.953z" fill-rule="evenodd"/></symbol><symbol viewBox="0 0 20 20" id="cl--pending-circle_copy" xmlns="http://www.w3.org/2000/svg"><path d="M14.571 3.75H5.43a.429.429 0 00-.422.352L5 4.179v.392c0 .21.152.386.352.422L5.429 5h1.238v2.5l2.5 2.5-2.5 2.5V15H5.429a.429.429 0 00-.422.352L5 15.429v.392c0 .21.152.386.352.422l.077.007h9.142a.43.43 0 00.422-.352l.007-.077v-.392a.429.429 0 00-.352-.422L14.571 15h-1.238v-2.5l-2.5-2.5 2.5-2.5V5h1.238a.43.43 0 00.422-.352L15 4.571V4.18a.429.429 0 00-.352-.422l-.077-.007zm-4.093 7.107l1.998 1.998v.037H7.523v-.037l1.998-1.998h.957zm1.999-4.999v1.287l-1.998 1.998h-.957L7.524 7.145V5.858h4.953z" fill-rule="evenodd"/></symbol><symbol viewBox="0 0 20 20" id="cl--pet" xmlns="http://www.w3.org/2000/svg"><path d="M11.512 9.363a3 3 0 011.08 1.08l1.776 3.045A3 3 0 0111.777 18H8.223a3 3 0 01-2.591-4.512l1.777-3.046a3 3 0 014.103-1.08zM3 7c1.38 0 2 1.12 2 2.5S4.381 12 3 12s-2-1.12-2-2.5S1.619 7 3 7zm14 0c1.381 0 2 1.12 2 2.5s-.619 2.5-2 2.5-2-1.12-2-2.5.619-2.5 2-2.5zM7 2c1.38 0 2 1.12 2 2.5S8.381 7 7 7 5 5.88 5 4.5 5.619 2 7 2zm6 0c1.381 0 2 1.12 2 2.5S14.381 7 13 7s-2-1.12-2-2.5.619-2.5 2-2.5z" fill-rule="evenodd"/></symbol><symbol viewBox="0 0 20 20" id="cl--phone" xmlns="http://www.w3.org/2000/svg"><defs><path d="M13.399 11.67L18 15.518l-.174.32a4.58 4.58 0 01-3.173 2.1c-2.394.38-5.24-.983-8.46-4.05l-.08-.082c-3.068-3.219-4.43-6.065-4.05-8.458A4.58 4.58 0 014.16 2.174L4.482 2l3.856 4.61-.42.281a8.952 8.952 0 00-1.083.933c-.878.878-.91 1.3-.153 2.058l3.436 3.436c.524.523.828.556 1.011.535.28-.032.604-.244 1.047-.688a8.92 8.92 0 00.982-1.142l.24-.353z" id="cha"/></defs><use xlink:href="#cha" fill-rule="evenodd"/></symbol><symbol viewBox="0 0 20 20" id="cl--pig" xmlns="http://www.w3.org/2000/svg"><path d="M6.048 2.413c0-.275.248-.465.488-.4l.072.027 2.555 1.27c.425-.068.86-.109 1.307-.109 4.159 0 7.53 3.02 7.53 6.743 0 2.116-1.093 3.998-2.795 5.234l-.216.151v2.13a.534.534 0 01-.421.532l-.093.009h-3.128a.521.521 0 01-.506-.443l-.008-.097v-.789c-.121.005-.24.017-.363.017l-.183-.007-.18-.01v.789a.534.534 0 01-.422.531L9.593 18H6.464a.522.522 0 01-.506-.443l-.008-.097v-2.131c-1.119-.754-1.995-1.778-2.505-2.967l-.112-.277h-.82a.521.521 0 01-.505-.444L2 11.544V8.495c0-.264.182-.485.421-.531l.092-.009h.76c.453-1.314 1.345-2.451 2.52-3.286l.255-.174V2.413zm.298 5.245c-.39 0-.706.333-.706.743s.316.743.706.743c.39 0 .707-.333.707-.743s-.316-.743-.707-.743zm4.124-2.324a.465.465 0 00-.453.476c0 .263.203.476.453.476 1.178 0 2.306.443 3.096 1.214a.44.44 0 00.64-.024.494.494 0 00-.024-.673c-.955-.933-2.309-1.469-3.712-1.469z" fill-rule="evenodd"/></symbol><symbol viewBox="0 0 20 20" id="cl--plane-hotel" xmlns="http://www.w3.org/2000/svg"><path d="M18 11v5.5h-.714v-1.571H8.714V16.5H8v-4.714h.714v.974c0-.65 1.54-1.178 2.723-1.178 1.184 0 2.724.527 2.724 1.178 0-.65.729-1.178 1.518-1.178.742 0 1.51.467 1.598 1.065l.009.113V11H18zM6.289 4l1.903 2.6h2.553c.14.003 1.255.04 1.255.65l-.009.062c-.035.152-.21.539-1.087.584l-.173.004H8.192L6.29 10.5h-.635l.635-2.6H2.48L2 7.081V5.3h.481l.635 1.3h3.173L5.654 4h.635z" fill-rule="evenodd"/></symbol><symbol viewBox="0 0 20 20" id="cl--plane-left" xmlns="http://www.w3.org/2000/svg"><defs><path d="M19 10.294l-.866 1.606H11.28l1.143 5.1H11.28l-3.426-5.1h-4.57C1 11.9 1 10.625 1 10.625 1 9.35 3.285 9.35 3.285 9.35h4.569l3.426-5.1h1.143l-1.143 5.1h5.712l1.142-2.55H19v3.494z" id="cka"/></defs><use xlink:href="#cka" fill-rule="evenodd"/></symbol><symbol viewBox="0 0 20 20" id="cl--plane-right" xmlns="http://www.w3.org/2000/svg"><defs><path d="M1 10.294l.866 1.606H8.72L7.577 17H8.72l3.426-5.1h4.57C19 11.9 19 10.625 19 10.625c0-1.275-2.285-1.275-2.285-1.275h-4.569L8.72 4.25H7.577l1.143 5.1H3.008L1.866 6.8H1v3.494z" id="cla"/></defs><use xlink:href="#cla" fill-rule="evenodd"/></symbol><symbol viewBox="0 0 20 20" id="cl--plane-up" xmlns="http://www.w3.org/2000/svg"><defs><path d="M17.5 12.376l-6.333-1.527v3.365l2.166 1.777v1.759l-3.409-1.284L6.5 17.75v-1.76l2.333-1.751v-3.39L2.5 12.376v-1.982L8.833 6.85V2.847c0-.744.512-1.347 1.167-1.347s1.167.603 1.167 1.347v4.002l6.333 3.545v1.982z" id="cma"/></defs><use transform="matrix(-1 0 0 1 20 0)" xlink:href="#cma" fill-rule="evenodd"/></symbol><symbol viewBox="0 0 20 20" id="cl--plus" xmlns="http://www.w3.org/2000/svg"><path d="M11.497 3v5.501H17v2.996h-5.503V17H8.502v-5.503H3V8.502h5.502V3z"/></symbol><symbol viewBox="0 0 20 20" id="cl--row-break" xmlns="http://www.w3.org/2000/svg"><path d="M5 5h2.143l-.001 3.928h4.93l-2.5-2.502L11 5l5 5-5 5-1.429-1.429 2.5-2.5H5z" fill-rule="evenodd"/></symbol><symbol viewBox="0 0 20 20" id="cl--search" xmlns="http://www.w3.org/2000/svg"><path d="M9.5 2a7.5 7.5 0 016.308 11.558L20 17.75 17.75 20l-4.192-4.192A7.5 7.5 0 119.5 2zm0 3a4.5 4.5 0 100 9 4.5 4.5 0 000-9z" fill-rule="evenodd"/></symbol><symbol viewBox="0 0 20 20" id="cl--seat" xmlns="http://www.w3.org/2000/svg"><path d="M9.783 8.101l.574 3.14 3.08.143c.652 0 1.193.47 1.298 1.084l.051.488c.117 1.212.48 5.044.481 5.044H13.24l-.52-3.907h-4.2c-.093 0-.2-.018-.292-.038l-.208-.048c-.776-.154-1.404-.827-1.51-1.642l-.463-3.79a1.862 1.862 0 011.628-2.078c1.031-.132 1.975.589 2.108 1.604zm-5.038-1.88l.288 2.66c.156 1.395.352 3.065.525 4.301.17 1.222 1.12 2.01 2.42 2.01h3.72l.221 1.718-3.94.01c-1.02 0-1.988-.329-2.726-.925-.788-.636-1.281-1.527-1.428-2.575l-.12-.89a297.174 297.174 0 01-.7-6.133.866.866 0 01.781-.945.87.87 0 01.959.77zM15.324 3.15c.306 0 .644.147.865.368l.088.1c.027.035.723.93.723 2.331 0 1.379-.706 2.377-.706 2.418v.015c-.234.302-.605.514-.97.514h-2.507c-.318 0-.664-.171-.88-.413l-.075-.093c-.028-.039-.7-.975-.7-2.448 0-1.472.637-2.27.706-2.352.217-.259.608-.44.949-.44h2.507zm-.008 1.15h-2.494c-.05 0-.09.017-.114.051l-.06.096-.062.122c-.113.244-.257.69-.257 1.373 0 1.045.368 1.68.425 1.767a.08.08 0 00.072.038h2.486c.026 0 .042-.008.056-.03l.07-.129.083-.175c.135-.31.306-.83.306-1.47 0-.958-.367-1.523-.42-1.6-.016-.025-.036-.041-.09-.044zm-5.958-.58c.152 1.09-.62 2.096-1.727 2.246-1.107.15-2.127-.612-2.28-1.702-.152-1.09.621-2.096 1.727-2.246 1.107-.15 2.127.612 2.28 1.702z" fill-rule="evenodd"/></symbol><symbol viewBox="0 0 20 20" id="cl--share" xmlns="http://www.w3.org/2000/svg"><path d="M14.5 3a2.5 2.5 0 11-1.482 4.514L7.997 10.42 8 10.5l-.002.106 5 2.895a2.5 2.5 0 11-.985 1.74l-4.897-2.833a2.5 2.5 0 11.018-3.8l4.882-2.826A2.5 2.5 0 0114.5 3z" fill-rule="evenodd"/></symbol><symbol viewBox="0 0 20 20" id="cl--star" xmlns="http://www.w3.org/2000/svg"><defs><path id="csa" d="M10 14.25L14.944 17 13.8 11.529l4.2-3.8-5.652-.604L10 2 7.652 7.125 2 7.73l4.2 3.8L5.056 17z"/></defs><use xlink:href="#csa" fill-rule="evenodd"/></symbol><symbol viewBox="0 0 20 20" id="cl--star-stroke" xmlns="http://www.w3.org/2000/svg"><path d="M10-.133l2.811 6.304 6.226 1.002-4.503 4.858 1.07 6.901L10 15.672l-5.604 3.26 1.07-6.9-4.503-4.86 6.226-1L10-.134zm0 2.477L7.867 7.127l-4.83.777 3.497 3.772-.819 5.286L10 14.47l4.285 2.493-.82-5.286 3.498-3.772-4.83-.777L10 2.344z" fill-rule="evenodd"/></symbol><symbol viewBox="0 0 20 20" id="cl--swap" xmlns="http://www.w3.org/2000/svg"><path d="M6 7l1.429 1.429-2.5 2.5H11v2.142H4.928l2.5 2.503L6 17l-5-5 5-5zm8-4l5 5-5 5-1.429-1.429 2.5-2.5H9V6.93h6.072l-2.5-2.503L14 3z" fill-rule="evenodd"/></symbol><symbol viewBox="0 0 20 20" id="cl--ticket" xmlns="http://www.w3.org/2000/svg"><path d="M19.143 3c.435 0 .797.3.85.682L20 3.78v11.44c0 .396-.329.726-.75.774l-.107.006H.857c-.435 0-.797-.3-.85-.682L0 15.22V3.78c0-.396.329-.726.75-.774L.857 3h18.286zM16 13a1 1 0 100 2 1 1 0 000-2zm-4.25-7.75a.856.856 0 00-1.123-.076l-.087.076-1.655 1.655L3.67 5.829l-.66.66 4.004 2.287-1.597 1.597-1.68-.448-.737.67 2.073 1.378L6.378 14l.765-.67-.57-1.692 1.65-1.651 2.357 4.003.59-.591-1.077-5.282 1.656-1.657a.855.855 0 000-1.21zM16 10a1 1 0 100 2 1 1 0 000-2zm0-3a1 1 0 100 2 1 1 0 000-2zm0-3a1 1 0 100 2 1 1 0 000-2z" fill-rule="evenodd"/></symbol><symbol viewBox="0 0 20 20" id="cl--twitter" xmlns="http://www.w3.org/2000/svg"><defs><path d="M17.16 6.237A7.708 7.708 0 0019 4.273a7.287 7.287 0 01-2.123.601 3.755 3.755 0 001.629-2.093 7.346 7.346 0 01-2.344.911 3.68 3.68 0 00-2.7-1.192c-2.042 0-3.69 1.699-3.69 3.782 0 .3.026.591.092.865-3.068-.16-5.796-1.662-7.608-3.953A3.807 3.807 0 001.752 5.1c0 1.305.65 2.47 1.638 3.145a3.568 3.568 0 01-1.666-.47v.047c0 1.832 1.273 3.36 2.958 3.709a3.657 3.657 0 01-1.667.064c.476 1.502 1.831 2.6 3.45 2.63a7.306 7.306 0 01-4.586 1.624c-.3 0-.595-.02-.879-.058A10.198 10.198 0 006.658 17.5c6.795 0 10.511-5.772 10.511-10.776l-.009-.487z" id="cwa"/></defs><use xlink:href="#cwa" fill-rule="evenodd"/></symbol><symbol viewBox="0 0 20 20" id="cl--upgrade" xmlns="http://www.w3.org/2000/svg"><path d="M19.143 3c.435 0 .797.3.85.682L20 3.78v11.44c0 .396-.329.726-.75.774l-.107.006H.857c-.435 0-.797-.3-.85-.682L0 15.22V3.78c0-.396.329-.726.75-.774L.857 3h18.286zM15 13a1 1 0 100 2 1 1 0 000-2zM7.009 5.386L4.126 8.06l.862.806L6.405 7.55v5.805h1.19l-.002-5.822 1.419 1.315.862-.805-2.865-2.657zM15 10a1 1 0 100 2 1 1 0 000-2zm0-3a1 1 0 100 2 1 1 0 000-2zm0-3a1 1 0 100 2 1 1 0 000-2z" fill-rule="evenodd"/></symbol><symbol viewBox="0 0 20 20" id="cl--upload" xmlns="http://www.w3.org/2000/svg"><path d="M4 14.5h12V16H4v-1.5zm5.179-2.836V7.01L7.26 8.927 6.168 7.832 10 4l3.832 3.832-1.095 1.095-1.916-1.916v4.653H9.18z" fill-rule="evenodd"/></symbol><symbol viewBox="0 0 20 20" id="cl--wechat" xmlns="http://www.w3.org/2000/svg"><path d="M13.375 7.75C16.481 7.75 19 9.69 19 12.083c0 1.313-.771 2.477-1.97 3.27l-.204.129 1.049 2.018-3.032-1.251a7.124 7.124 0 01-1.468.168c-3.106 0-5.625-1.94-5.625-4.334 0-2.393 2.519-4.333 5.625-4.333zM7.812 2.5c3.324 0 6.089 1.874 6.688 4.351a8.723 8.723 0 00-1.012-.065c-3.756 0-6.811 2.403-6.811 5.357 0 .344.045.68.124 1.006a7.614 7.614 0 01-1.334-.287l-.317-.1-2.447.988.898-1.695C2.02 11.075 1 9.563 1 7.857 1 4.9 4.05 2.5 7.812 2.5zm3.875 7.688c-.465 0-.843.364-.843.812 0 .448.378.813.844.813.465 0 .843-.365.843-.813 0-.448-.378-.813-.844-.813zm3.376 0c-.466 0-.844.364-.844.812 0 .448.378.813.844.813.465 0 .843-.365.843-.813 0-.448-.378-.813-.844-.813zM5.54 4.91c-.47 0-.851.36-.851.803 0 .444.381.804.851.804s.852-.36.852-.804c0-.443-.382-.803-.852-.803zm4.541 0c-.47 0-.851.36-.851.803 0 .444.381.804.851.804s.852-.36.852-.804c0-.443-.381-.803-.852-.803z" fill-rule="evenodd"/></symbol><symbol viewBox="0 0 20 20" id="cl--weibo" xmlns="http://www.w3.org/2000/svg"><path d="M5.19 7.725c1.85-1.917 4.008-2.79 4.819-1.949.357.37.392 1.012.162 1.779-.12.386.35.172.35.173 1.495-.649 2.8-.687 3.277.02.233.344.231.816.05 1.364l-.055.15c-.089.23-.01.302.135.356l.106.034c.842.27 1.78.926 1.78 2.08 0 1.91-2.658 4.468-6.652 4.468C6.115 16.2 3 14.516 3 11.999c0-1.316.804-2.838 2.19-4.274zm8.097 3.94c-.157-1.633-2.256-2.759-4.688-2.512-2.432.246-4.275 1.77-4.117 3.404.158 1.635 2.257 2.76 4.688 2.514 2.432-.246 4.275-1.77 4.117-3.405zm-5.364-.912c.98-.2 1.907.311 2.07 1.142.165.831-.497 1.667-1.476 1.868-.98.2-1.907-.31-2.07-1.142-.164-.83.496-1.667 1.476-1.868zm5.557-5.628l.077.01a3.048 3.048 0 012.346 2.389.538.538 0 01-.41.634.528.528 0 01-.623-.418 1.981 1.981 0 00-1.526-1.553.537.537 0 01-.41-.634.53.53 0 01.546-.428zM13.477 3c2.44 0 4.427 1.966 4.52 4.426l.003.177a.533.533 0 01-.528.539.532.532 0 01-.527-.537c0-1.95-1.553-3.53-3.468-3.53a.532.532 0 01-.527-.538c0-.296.236-.537.527-.537z" fill-rule="evenodd"/></symbol><symbol viewBox="0 0 20 20" id="cl--wifi" xmlns="http://www.w3.org/2000/svg"><path d="M8.433 14.41c.812-.812 2.123-.831 3.005-.073l.129.12L10.024 16l-1.59-1.59zM5.181 11.3c2.598-2.52 6.771-2.58 9.444-.18l.193.18-1.687 1.637c-1.673-1.624-4.354-1.677-6.093-.157l-.17.157L5.18 11.3zM2 8.215c4.34-4.211 11.331-4.285 15.765-.222l.235.222-1.687 1.636C12.896 6.536 7.4 6.471 3.9 9.652l-.212.2L2 8.214z" fill-rule="evenodd"/></symbol><symbol viewBox="0 0 20 20" id="cl--wifi-circle" xmlns="http://www.w3.org/2000/svg"><path d="M10 0c5.523 0 10 4.477 10 10s-4.477 10-10 10S0 15.523 0 10 4.477 0 10 0zm1.055 13.151a1.446 1.446 0 00-1.825 0l-.11.1 1.023 1.022 1.022-1.022-.11-.1zm2.017-2.137a4.381 4.381 0 00-5.858 0l-.17.16L8.13 12.26l.137-.128a2.848 2.848 0 013.747-.005l.143.133 1.084-1.084-.168-.16zm2.022-2.069a7.273 7.273 0 00-9.902 0L5 9.13l1.084 1.085.185-.177a5.74 5.74 0 017.748 0l.184.177 1.085-1.085-.192-.185z" fill-rule="evenodd"/></symbol><symbol viewBox="0 0 20 20" id="cl--wifi-no" xmlns="http://www.w3.org/2000/svg"><path d="M19 8.733l-9 9.017-9-9.017c4.97-4.977 13.03-4.977 18 0zm-15.81.07L10 15.627l6.81-6.824a11.222 11.222 0 00-13.62 0z" fill-rule="evenodd"/></symbol><symbol viewBox="0 0 20 20" id="cl--wine-glass" xmlns="http://www.w3.org/2000/svg"><path d="M13.114 3l.144.165c1.72 1.972 1.598 6.634-.222 8.456a4.618 4.618 0 01-2.552 1.296l-.262.035V18h2.415c.266 0 .483.224.483.5 0 .246-.171.45-.397.492l-.086.008H6.84a.491.491 0 01-.483-.5c0-.246.17-.45.396-.492L6.841 18h2.415v-5.048a4.63 4.63 0 01-2.813-1.33c-1.767-1.769-1.935-6.213-.371-8.276l.147-.181L6.363 3h6.75zm-.4 1h-5.87c-.629.853-.902 2.257-.834 3.616l.018.272h7.504c.113-1.351-.114-2.786-.696-3.71L12.714 4z" fill-rule="evenodd"/></symbol><symbol viewBox="0 0 20 20" id="cl--youtube" xmlns="http://www.w3.org/2000/svg"><path d="M3.427 4.234c4.177-.35 9.038-.272 13.144 0 1.46.06 2.18 1.558 2.277 2.76.203 2.503.203 4.089 0 6.593-.096 1.2-1.01 2.724-2.277 2.943-4.078.314-8.915.272-13.144 0-1.31-.168-2.179-1.753-2.275-2.943-.203-2.504-.203-3.933 0-6.436.096-1.2.983-2.767 2.275-2.917zm4.776 2.558v7.171l5.397-3.591-5.397-3.58z" fill-rule="evenodd"/></symbol><symbol viewBox="0 0 20 20" id="in--arrow" xmlns="http://www.w3.org/2000/svg"><defs><path id="dga" d="M6.469 4.649L8.594 2.53l7.055 7.081-7.01 7.037-2.126-2.118 4.9-4.919z"/></defs><use xlink:href="#dga" fill-rule="evenodd"/></symbol><symbol viewBox="0 0 20 20" id="in--arrow-down" xmlns="http://www.w3.org/2000/svg"><defs><path id="dha" d="M15 6l2.117 2.125-7.08 7.055L3 8.17l2.117-2.126 4.92 4.901z"/></defs><use xlink:href="#dha" fill-rule="evenodd"/></symbol><symbol viewBox="0 0 20 20" id="in--arrow-left" xmlns="http://www.w3.org/2000/svg"><defs><path id="dia" d="M13.649 14.531l-2.126 2.118L4.47 9.568l7.01-7.037 2.126 2.118-4.901 4.919z"/></defs><use xlink:href="#dia" fill-rule="evenodd"/></symbol><symbol viewBox="0 0 20 20" id="in--arrow-right" xmlns="http://www.w3.org/2000/svg"><defs><path id="dja" d="M6.469 4.649L8.594 2.53l7.055 7.081-7.01 7.037-2.126-2.118 4.9-4.919z"/></defs><use xlink:href="#dja" fill-rule="evenodd"/></symbol><symbol viewBox="0 0 20 20" id="in--arrow-up" xmlns="http://www.w3.org/2000/svg"><defs><path id="dka" d="M5.117 13.18L3 11.055 10.08 4l7.037 7.01L15 13.137l-4.92-4.901z"/></defs><use xlink:href="#dka" fill-rule="evenodd"/></symbol><symbol viewBox="0 0 24 24" id="in--box-add" xmlns="http://www.w3.org/2000/svg"><path d="M20 0a4 4 0 014 4v16a4 4 0 01-4 4H4a4 4 0 01-4-4V4a4 4 0 014-4h16zm-6.5 4.99h-3v5.51H4.989v3h5.51l.001 5.511h3V13.5h5.512v-3H13.5V4.99z" fill-rule="evenodd"/></symbol><symbol viewBox="0 0 24 24" id="in--box-checked" xmlns="http://www.w3.org/2000/svg"><path d="M20 0a4 4 0 014 4v16a4 4 0 01-4 4H4a4 4 0 01-4-4V4a4 4 0 014-4h16zm-3 7l-7 7-3-3-2 2 5 5 9-9-2-2z" fill-rule="evenodd"/></symbol><symbol viewBox="0 0 24 24" id="in--box-empty" xmlns="http://www.w3.org/2000/svg"><path d="M20.01 0A3.989 3.989 0 0124 3.99v16.02A3.989 3.989 0 0120.01 24H3.99A3.989 3.989 0 010 20.01V3.99A3.989 3.989 0 013.99 0h16.02zm0 1H3.99a2.989 2.989 0 00-2.985 2.814L1 3.99v16.02a2.989 2.989 0 002.814 2.985L3.99 23h16.02a2.989 2.989 0 002.985-2.814L23 20.01V3.99a2.989 2.989 0 00-2.814-2.985L20.01 1z"/></symbol><symbol viewBox="0 0 24 24" id="in--box-subtract" xmlns="http://www.w3.org/2000/svg"><path d="M20 0a4 4 0 014 4v16a4 4 0 01-4 4H4a4 4 0 01-4-4V4a4 4 0 014-4h16zm-.988 10.5H4.99v3h14.023v-3z" fill-rule="evenodd"/></symbol><symbol viewBox="0 0 24 24" id="in--burger" xmlns="http://www.w3.org/2000/svg"><path d="M21 16.5v2.25H3V16.5h18zm0-5.25v2.25H3v-2.25h18zM21 6v2.25H3V6h18z" fill-rule="evenodd"/></symbol><symbol viewBox="0 0 24 24" id="in--close" xmlns="http://www.w3.org/2000/svg"><path d="M16.177 5l2.121 2.121-4.528 4.528 4.528 4.528-2.121 2.121-4.528-4.528-4.528 4.528L5 16.177l4.527-4.528L5 7.121 7.121 5l4.528 4.527z" fill-rule="evenodd"/></symbol><symbol viewBox="0 0 24 24" id="in--close-circle" xmlns="http://www.w3.org/2000/svg"><path d="M12 4a8 8 0 110 16 8 8 0 010-16zm2.732 3.854L12 10.586 9.268 7.854 7.854 9.268 10.586 12l-2.7 2.699 1.415 1.414 2.699-2.7 2.699 2.7 1.414-1.414-2.7-2.7 2.733-2.731-1.414-1.414z" fill-rule="evenodd"/></symbol><symbol viewBox="0 0 24 24" id="in--radio-button-selected" xmlns="http://www.w3.org/2000/svg"><path d="M12 4a8 8 0 110 16 8 8 0 010-16zm0 1a7 7 0 100 14 7 7 0 000-14zm0 2a5 5 0 110 10 5 5 0 010-10z"/></symbol><symbol viewBox="0 0 24 24" id="in--radio-button-unselected" xmlns="http://www.w3.org/2000/svg"><path d="M12 4a8 8 0 110 16 8 8 0 010-16zm0 1a7 7 0 100 14 7 7 0 000-14z"/></symbol></svg>