<?xml version="1.0" encoding="UTF-8"?>
<svg width="20px" height="20px" viewBox="0 0 20 20" version="1.1" xmlns="http://www.w3.org/2000/svg" xmlns:xlink="http://www.w3.org/1999/xlink">
    <!-- Generator: Sketch 63 (92445) - https://sketch.com -->
    <title>Artboard</title>
    <desc>Created with Sketch.</desc>
    <g id="Artboard" stroke="none" stroke-width="1" fill="none" fill-rule="evenodd">
        <path d="M4.13333333,3.60714286 L4.13333333,3.88333333 C4.13333333,4.91426487 4.96906847,5.75 6,5.75 C6.98183956,5.75 7.78663022,4.9919636 7.86105056,4.02921223 L7.86666667,3.88333333 L7.86666667,3.60714286 L12.1333333,3.60714286 L12.1333333,3.88333333 C12.1333333,4.91426487 12.9690685,5.75 14,5.75 C14.9818396,5.75 15.7866302,4.9919636 15.8610506,4.02921223 L15.8666667,3.88333333 L15.8666667,3.60714286 L18,3.60714286 L18,17 L2,17 L2,3.60714286 L4.13333333,3.60714286 Z M10,5.69227273 C9.58540659,5.69227273 9.25455959,6.00095481 9.20611327,6.39970021 L9.2,6.50113636 L9.2,8.90465909 L4.85714286,11.0334091 L4.85714286,12.2234091 L9.2,11.3067045 L9.2,13.3422727 L7.6,14.3940909 L7.6,15.4506818 L9.94811429,14.6793182 L12.2857143,15.4506818 L12.2857143,14.3940909 L10.8,13.3271591 L10.8,11.3067045 L15.1428571,12.2234091 L15.1428571,11.0334091 L10.8,8.90465909 L10.8,6.50113636 C10.8,6.05454545 10.4491429,5.69227273 10,5.69227273 Z M6,2 C6.4418278,2 6.8,2.3581722 6.8,2.8 L6.8,3.87857143 C6.8,4.32039923 6.4418278,4.67857143 6,4.67857143 C5.5581722,4.67857143 5.2,4.32039923 5.2,3.87857143 L5.2,2.8 C5.2,2.3581722 5.5581722,2 6,2 Z M14,2 C14.4418278,2 14.8,2.3581722 14.8,2.8 L14.8,3.87857143 C14.8,4.32039923 14.4418278,4.67857143 14,4.67857143 C13.5581722,4.67857143 13.2,4.32039923 13.2,3.87857143 L13.2,2.8 C13.2,2.3581722 13.5581722,2 14,2 Z" id="Shape" fill="#000099"></path>
    </g>
</svg>