<?xml version="1.0" encoding="UTF-8"?>
<svg width="20px" height="20px" viewBox="0 0 20 20" version="1.1" xmlns="http://www.w3.org/2000/svg" xmlns:xlink="http://www.w3.org/1999/xlink">
    <!-- Generator: Sketch 63 (92445) - https://sketch.com -->
    <title>baggage-large</title>
    <desc>Created with Sketch.</desc>
    <g id="baggage-large" stroke="none" stroke-width="1" fill="none" fill-rule="evenodd">
        <path d="M19,19 L19,20 L1,20 L1,19 L19,19 Z M11.501424,1 C12.329065,1 13,1.67646 13,2.5064 L13,5 L15,5 L15,17 L4.99874269,17 L4.99874269,5 L7,5 L7,2.5064 C7,1.67444 7.66503,1 8.498576,1 L11.501424,1 Z M3.88128787,5 L3.88128787,17 L3,17 C1.8954305,17 1,16.1045695 1,15 L1,7 C1,5.8954305 1.8954305,5 3,5 L3.88128787,5 Z M17,5 C18.1045695,5 19,5.8954305 19,7 L19,15 C19,16.1045695 18.1045695,17 17,17 L16.125,17 L16.125,5 L17,5 Z M11.201381,2.5 L8.798619,2.5 C8.628906,2.5 8.5,2.63219 8.5,2.79526 L8.5,5 L11.5,5 L11.5,2.79526 C11.5,2.62982 11.366304,2.5 11.201381,2.5 Z" id="Shape" fill="#000099"></path>
    </g>
</svg>