<?xml version="1.0" encoding="UTF-8"?>
<svg width="20px" height="20px" viewBox="0 0 20 20" version="1.1" xmlns="http://www.w3.org/2000/svg" xmlns:xlink="http://www.w3.org/1999/xlink">
    <!-- Generator: Sketch 63 (92445) - https://sketch.com -->
    <title>baggage</title>
    <desc>Created with Sketch.</desc>
    <g id="baggage" stroke="none" stroke-width="1" fill="none" fill-rule="evenodd">
        <path d="M11.501424,0 C12.329065,0 13,0.67646 13,1.5064 L13,6 L13.99147,6 C15.10075,6 16,6.88577 16,7.99197 L16,16.50803 C16,17.4336 15.36158,18.21172 14.5,18.43536 L14.5,18.89995 C14.5,19.50749 14.011748,20 13.399999,20 C12.792486,20 12.299999,19.50461 12.299999,18.89995 L12.299999,18.5 L7.7,18.5 L7.7,18.89995 C7.7,19.50749 7.211749,20 6.6,20 C5.992487,20 5.5,19.50461 5.5,18.89995 L5.5,18.43598 C4.636955,18.21389 4,17.43902 4,16.50803 L4,7.99197 C4,6.89184 4.90195,6 6.00853,6 L7,6 L7,1.5064 C7,0.67444 7.66503,0 8.498576,0 L11.501424,0 Z M11.201381,1.5 L8.798619,1.5 C8.628906,1.5 8.5,1.63219 8.5,1.79526 L8.5,6 L11.5,6 L11.5,1.79526 C11.5,1.62982 11.366304,1.5 11.201381,1.5 Z" id="Shape" fill="#000099"></path>
    </g>
</svg>