<?xml version="1.0" encoding="UTF-8"?>
<svg width="20px" height="20px" viewBox="0 0 20 20" version="1.1" xmlns="http://www.w3.org/2000/svg" xmlns:xlink="http://www.w3.org/1999/xlink">
    <!-- Generator: Sketch 63 (92445) - https://sketch.com -->
    <title>baggage-large-no</title>
    <desc>Created with Sketch.</desc>
    <g id="baggage-large-no" stroke="none" stroke-width="1" fill="none" fill-rule="evenodd">
        <path d="M17.5117904,1.00185357 L3.19179044,20.0018536 L1.19179044,20.0018536 L15.5417904,1.00185357 L17.5117904,1.00185357 Z M19,19 L19,20 L4.40972769,20 L5.16554718,19 L19,19 Z M15,5.98835773 L15,17 L6.67718616,17 L15,5.98835773 Z M17,5 C18.1045695,5 19,5.8954305 19,7 L19,15 C19,16.1045695 18.1045695,17 17,17 L16.125,17 L16.125,5 L17,5 Z M3.88128787,5 L3.88128787,14.8573992 L2.34907068,16.8916843 C1.56406614,16.6216194 1,15.8766821 1,15 L1,7 C1,5.8954305 1.8954305,5 3,5 L3.88128787,5 Z M11.501424,1 C12.329065,1 13,1.67646 13,2.5064 L13,2.75072109 L11.5,4.74223228 L11.5,2.79526 C11.5,2.62982 11.366304,2.5 11.201381,2.5 L8.798619,2.5 C8.628906,2.5 8.5,2.63219 8.5,2.79526 L8.5,5 L11.3058502,5 L4.99874269,13.3737834 L4.99874269,5 L7,5 L7,2.5064 C7,1.67444 7.66503,1 8.498576,1 L11.501424,1 Z" id="Shape" fill="#000099"></path>
    </g>
</svg>