<?xml version="1.0" encoding="UTF-8"?>
<svg width="20px" height="20px" viewBox="0 0 20 20" version="1.1" xmlns="http://www.w3.org/2000/svg" xmlns:xlink="http://www.w3.org/1999/xlink">
    <!-- Generator: Sketch 63 (92445) - https://sketch.com -->
    <title>baggage-no</title>
    <desc>Created with Sketch.</desc>
    <g id="baggage-no" stroke="none" stroke-width="1" fill="none" fill-rule="evenodd">
        <path d="M15.0612466,6.07449875 C15.6159713,6.35364875 15.9942061,6.90144875 15.9942061,7.58394875 L16,16.68244 C16,17.63749 15.3868911,18.3035 14.5136528,18.4697 L14.5136528,18.9068 C14.5136528,19.5101 14.0277116,20 13.4302015,20 C12.8326915,20 12.2852463,19.5101 12.2852463,18.9068 L12.2852463,18.5 L7.82843313,18.5 L7.82843313,18.9068 C7.82843313,19.5101 7.3185737,20 6.72091506,20 C6.21788942,20 5.76864266,19.6523 5.63880084,19.1825 L14.5225257,6.00120145 L14.5225257,6.00120145 C14.5545487,5.95368717 14.8618927,5.95368717 15.0612466,6.07449875 Z M15.3305234,0.0120326831 L17.3203742,0.0219512896 L4,19.99727 L2,19.99727 L15.3305234,0.0120326831 Z M11.4474737,0 C12.3027514,0 12.9987994,0.69195 12.9987994,1.54293 L13,1.84082 L11.5027013,4.03016 L11.5027014,1.75944 C11.5027014,1.61535 11.37994,1.49321 11.2345173,1.49321 L8.76938469,1.49321 C8.62396198,1.49321 8.5012006,1.61535 8.5012006,1.75944 L8.50195098,5.97282 L10.1276801,5.97282 L4,15 L4.00525263,7.67642 C4.00525263,6.6812 4.82361181,5.97282 5.82386193,5.97282 L7.00045023,5.97282 L7.00045023,1.54293 C7.00045023,0.69195 7.69649825,0 8.55177589,0 L11.4474737,0 Z" id="Shape" fill="#000099"></path>
    </g>
</svg>