<?xml version="1.0" encoding="UTF-8"?>
<svg width="20px" height="20px" viewBox="0 0 20 20" version="1.1" xmlns="http://www.w3.org/2000/svg" xmlns:xlink="http://www.w3.org/1999/xlink">
    <!-- Generator: Sketch 63.1 (92452) - https://sketch.com -->
    <title>briefcase</title>
    <desc>Created with Sketch.</desc>
    <g id="briefcase" stroke="none" stroke-width="1" fill="none" fill-rule="evenodd">
        <path d="M19,5 L19.001257,15 C19.001257,16.1045695 18.1058265,17 17.001257,17 L3,17 C1.8954305,17 1,16.1045695 1,15 L1,5 L4.40626693,10.1094004 C4.77719849,10.6657977 5.40166114,11 6.07036752,11 L8,11 L8,12 L12,12 L12,11 L13.9296325,11 C14.5983389,11 15.2228015,10.6657977 15.5937331,10.1094004 L19,5 Z M11,10 L11,11 L9,11 L9,10 L11,10 Z M13,1 C13.5522847,1 14,1.44771525 14,2 L14,4 L18.5,4 L15.0392596,9.1199995 C14.6983113,9.62441619 14.1482069,9.94351381 13.5472987,9.99319386 L13.382274,10 L12,10 L12,9 L8,9 L8,10 L6.61772595,10 C6.0088894,10 5.43646101,9.7229371 5.05879302,9.25290981 L4.9607404,9.1199995 L1.5,4 L6,4 L6,2 C6,1.44771525 6.44771525,1 7,1 L13,1 Z M12.0023017,2.5 L7.99769833,2.5 C7.71484333,2.5 7.5,2.605752 7.5,2.736208 L7.5,4.5 L12.5,4.5 L12.5,2.736208 C12.5,2.603856 12.2771733,2.5 12.0023017,2.5 Z" id="Shape" fill="#000099"></path>
    </g>
</svg>