<?xml version="1.0" encoding="UTF-8"?>
<svg width="20px" height="20px" viewBox="0 0 20 20" version="1.1" xmlns="http://www.w3.org/2000/svg" xmlns:xlink="http://www.w3.org/1999/xlink">
    <!-- Generator: Sketch 63 (92445) - https://sketch.com -->
    <title>calendar-arrow</title>
    <desc>Created with Sketch.</desc>
    <g id="calendar-arrow" stroke="none" stroke-width="1" fill="none" fill-rule="evenodd">
        <path d="M4.4,3.36363636 L4.4,3.86295455 C4.4,4.75670455 5.10114286,5.48068182 6,5.48068182 C6.84892063,5.48068182 7.52148501,4.83491197 7.59359426,4.01024588 L7.6,3.86295455 L7.6,3.36363636 L12.2857143,3.36363636 L12.2857143,3.86295455 C12.2857143,4.75670455 13.044,5.48068182 13.9428571,5.48068182 C14.794406,5.48068182 15.5197911,4.8309072 15.5937885,4.00258131 L15.6,3.86295455 L15.6,3.36363636 L18,3.36363636 L18,17 L2,17 L2,3.36363636 L4.4,3.36363636 Z M10,6.48863636 C8.75617857,6.48863636 7.63480134,7.01867676 6.85132589,7.86311965 L6.6992,8.03613636 L5.42857143,6.77272727 L5.42857143,10.75 L9.42857143,10.75 L7.92022857,9.25022727 C8.38811429,8.61056818 9.14548571,8.19318182 10,8.19318182 C11.4178286,8.19318182 12.5714286,9.34011364 12.5714286,10.75 C12.5714286,12.1598864 11.4178286,13.3068182 10,13.3068182 C9.22092308,13.3068182 8.52169738,12.9604707 8.04974056,12.4144451 L7.93657143,12.2738636 L6.7176,13.4859091 C7.50434286,14.4177273 8.68354286,15.0113636 10,15.0113636 C12.3630857,15.0113636 14.2857143,13.0997727 14.2857143,10.75 C14.2857143,8.40022727 12.3630857,6.48863636 10,6.48863636 Z M6,2 C6.34836364,2 6.63004486,2.25572878 6.67838059,2.58857831 L6.68571429,2.69056818 L6.68571429,3.75840909 C6.68571429,4.13943182 6.3832,4.44886364 6,4.44886364 C5.65163636,4.44886364 5.36995514,4.19313486 5.32161941,3.86037071 L5.31428571,3.75840909 L5.31428571,2.69056818 C5.31428571,2.30943182 5.6168,2 6,2 Z M14,2 C14.3483636,2 14.6300449,2.25572878 14.6783806,2.58857831 L14.6857143,2.69056818 L14.6857143,3.75840909 C14.6857143,4.13943182 14.3832,4.44886364 14,4.44886364 C13.6516364,4.44886364 13.3699551,4.19313486 13.3216194,3.86037071 L13.3142857,3.75840909 L13.3142857,2.69056818 C13.3142857,2.30943182 13.6168,2 14,2 Z" id="Shape" fill="#000099"></path>
    </g>
</svg>