<?xml version="1.0" encoding="UTF-8"?>
<svg width="20px" height="20px" viewBox="0 0 20 20" version="1.1" xmlns="http://www.w3.org/2000/svg" xmlns:xlink="http://www.w3.org/1999/xlink">
    <!-- Generator: Sketch 63 (92445) - https://sketch.com -->
    <title>car</title>
    <desc>Created with Sketch.</desc>
    <g id="car" stroke="none" stroke-width="1" fill="none" fill-rule="evenodd">
        <path d="M9.72930625,4.00162465 L10.0003429,4 C12.0756,4 14.148033,4.28866018 15.2717993,4.4754403 L16.1297143,4.63079616 L18,9.40540625 L18,16.5714286 L15.1428571,16.5714286 L15.1428571,14.8600988 L4.85714286,14.8600988 L4.85714286,16.5714286 L2,16.5714286 L2.00091429,9.40221176 L3.89782857,4.63855419 L4.60788934,4.50533252 C5.63845868,4.32597067 7.65342547,4.02628691 9.72930625,4.00162465 Z M16.2857143,10.866996 L14.5836571,10.866996 C12.9349952,10.866996 12.3358315,11.9726275 12.2887635,12.4225369 L12.2857143,12.4773573 L12.2857143,12.5783257 L16.2857143,12.5783257 L16.2857143,10.866996 Z M5.41851429,10.866996 L3.71428571,10.866996 L3.71428571,12.5783257 L7.6,12.5783257 L7.6,12.4773573 C7.6,12.0877968 7.17638016,10.9659336 5.62704342,10.8731213 L5.41851429,10.866996 Z M10.2993358,5.31766452 L10.0003429,5.31635487 C7.27993733,5.31635487 5.37004715,5.63787295 4.92246518,5.72084536 L4.82194286,5.74019421 L3.58411429,8.87900121 L4.93933806,8.97638728 C6.06681326,9.04847827 7.75847736,9.13687555 9.469075,9.15305924 L10.2793051,9.15501059 L11.3568606,9.14054927 C12.9604245,9.10617819 14.4719459,9.02025047 15.4245928,8.95700768 L16.4464,8.88276613 L15.2096,5.74510002 L14.7078247,5.65767003 C13.9472358,5.53798809 12.3691201,5.33579815 10.2993358,5.31766452 Z" id="Shape" fill="#000099"></path>
    </g>
</svg>