<?xml version="1.0" encoding="UTF-8"?>
<svg width="20px" height="20px" viewBox="0 0 20 20" version="1.1" xmlns="http://www.w3.org/2000/svg" xmlns:xlink="http://www.w3.org/1999/xlink">
    <!-- Generator: Sketch 63 (92445) - https://sketch.com -->
    <title>chat-bubble</title>
    <desc>Created with Sketch.</desc>
    <g id="chat-bubble" stroke="none" stroke-width="1" fill="none" fill-rule="evenodd">
        <path d="M10.5,3 C15.1942479,3 19,6.03606614 19,9.78115429 C19,13.5262425 15.1942966,16.5623086 10.5,16.5623086 C10.1836088,16.5623086 9.87140565,16.5480734 9.56397491,16.5212172 C9.0440259,18.2454899 7.4634822,19.5 5.59284425,19.5 C6.5674382,18.5116055 6.95585379,17.1544158 6.75921109,15.8715331 C3.94042224,14.7674957 2,12.4552249 2,9.78110538 C2,6.03606614 5.80541121,3 10.5,3 Z M6.5,9 C5.94771525,9 5.5,9.44771525 5.5,10 C5.5,10.5522847 5.94771525,11 6.5,11 C7.05228475,11 7.5,10.5522847 7.5,10 C7.5,9.44771525 7.05228475,9 6.5,9 Z M10.5,9 C9.94771525,9 9.5,9.44771525 9.5,10 C9.5,10.5522847 9.94771525,11 10.5,11 C11.0522847,11 11.5,10.5522847 11.5,10 C11.5,9.44771525 11.0522847,9 10.5,9 Z M14.5,9 C13.9477153,9 13.5,9.44771525 13.5,10 C13.5,10.5522847 13.9477153,11 14.5,11 C15.0522847,11 15.5,10.5522847 15.5,10 C15.5,9.44771525 15.0522847,9 14.5,9 Z" id="Shape" fill="#000099"></path>
    </g>
</svg>