<?xml version="1.0" encoding="UTF-8"?>
<svg width="20px" height="20px" viewBox="0 0 20 20" version="1.1" xmlns="http://www.w3.org/2000/svg" xmlns:xlink="http://www.w3.org/1999/xlink">
    <!-- Generator: Sketch 63 (92445) - https://sketch.com -->
    <title>coffee</title>
    <desc>Created with Sketch.</desc>
    <g id="coffee" stroke="none" stroke-width="1" fill="none" fill-rule="evenodd">
        <path d="M17.125,16.125 C17.125,17.1112202 16.3635771,17.919606 15.3965298,17.9943588 L15.25,18 L4.875,18 C3.88877976,18 3.08039399,17.2385771 3.0056412,16.2715298 L3,16.125 L17.125,16.125 Z M16.1875,7.65625 L16.1875,8.69489108 L16.3687759,8.69489108 C17.8219609,8.69489108 19,9.87293022 19,11.3261151 C19,13.263572 17.6243518,14.8522123 15.8984942,14.9559689 L15.71875,14.9613589 L14.4774687,14.9613589 C14.2022688,15.277272 13.8802487,15.5644909 13.5467688,15.8171128 L13.2950625,16 L6.7986875,16 C5.1520175,14.852044 4.0300835,12.8291647 3.94296345,10.5403018 L3.9375,10.2528527 L3.9375,7.65625 L16.1875,7.65625 Z M16.469917,9.73353216 L16.1875,9.73353216 L16.1875,10.2528527 C16.1875,11.4830452 15.8799321,12.65872 15.3565769,13.6554211 L15.2085625,13.9227178 L15.71875,13.9227178 C16.95934,13.9227178 17.9779972,12.8491412 18.0575048,11.4965808 L18.0625,11.3261151 L18.0559916,11.1811576 C17.9870688,10.4172744 17.3787578,9.80896334 16.6148745,9.74004052 L16.469917,9.73353216 Z M13.7316225,2.78018465 C14.1431688,3.62098595 14.1350129,4.3469584 13.616055,4.85670492 C13.4498457,5.01996403 13.4833765,5.38231284 13.6111366,5.61588311 L13.6632576,5.6967951 C13.8307131,5.91637033 13.7884616,6.23012069 13.5688864,6.39757614 C13.3493111,6.56503158 13.0355608,6.52278014 12.8681053,6.3032049 C12.4315216,5.7307363 12.2852095,4.76220945 12.915308,4.14329508 C13.0726196,3.98877565 13.0756982,3.7147481 12.8334439,3.21981535 C12.7120432,2.97179017 12.8146927,2.67231135 13.0627178,2.55091069 C13.310743,2.42951002 13.6102218,2.53215947 13.7316225,2.78018465 Z M10.7316225,2.78018465 C11.1431688,3.62098595 11.1350129,4.3469584 10.616055,4.85670492 C10.4498457,5.01996403 10.4833765,5.38231284 10.6111366,5.61588311 L10.6632576,5.6967951 C10.8307131,5.91637033 10.7884616,6.23012069 10.5688864,6.39757614 C10.3493111,6.56503158 10.0355608,6.52278014 9.86810534,6.3032049 C9.43152157,5.7307363 9.28520953,4.76220945 9.91530796,4.14329508 C10.0726196,3.98877565 10.0756982,3.7147481 9.83344388,3.21981535 C9.71204321,2.97179017 9.81469266,2.67231135 10.0627178,2.55091069 C10.310743,2.42951002 10.6102218,2.53215947 10.7316225,2.78018465 Z M7.73162251,2.78018465 C8.14316878,3.62098595 8.13501286,4.3469584 7.61605499,4.85670492 C7.44984572,5.01996403 7.48337649,5.38231284 7.61113663,5.61588311 L7.66325762,5.6967951 C7.83071306,5.91637033 7.78846162,6.23012069 7.56888638,6.39757614 C7.34931114,6.56503158 7.03556078,6.52278014 6.86810534,6.3032049 C6.43152157,5.7307363 6.28520953,4.76220945 6.91530796,4.14329508 C7.07261962,3.98877565 7.07569818,3.7147481 6.83344388,3.21981535 C6.71204321,2.97179017 6.81469266,2.67231135 7.06271784,2.55091069 C7.31074302,2.42951002 7.61022184,2.53215947 7.73162251,2.78018465 Z" id="Shape" fill="#000099"></path>
    </g>
</svg>