<?xml version="1.0" encoding="UTF-8"?>
<svg width="20px" height="20px" viewBox="0 0 20 20" version="1.1" xmlns="http://www.w3.org/2000/svg" xmlns:xlink="http://www.w3.org/1999/xlink">
    <!-- Generator: Sketch 63 (92445) - https://sketch.com -->
    <title>credit</title>
    <desc>Created with Sketch.</desc>
    <g id="credit" stroke="none" stroke-width="1" fill="none" fill-rule="evenodd">
        <path d="M6.4100633,6 L11.343582,7.765 L16.3482372,8.2009407 C16.7110923,8.23254905 16.9848231,8.50613211 16.9993897,8.83110543 L16.9968091,8.92086547 L16.2259321,16.4020254 C16.1917919,16.7320174 15.8984544,16.9819086 15.5483818,16.9990596 L15.4418605,16.99707 L1.65133395,15.7990593 C1.28894398,15.767451 1.01482551,15.4938679 1.00058202,15.1688946 L1.00326954,15.0791345 L1.77414647,7.59797458 C1.80782534,7.26798259 2.10112086,7.01809135 2.45118966,7.00094041 L2.55771065,7.00292997 L6.02158202,7.303 L6.4100633,6 Z M17.5308947,10 L19,10.4987147 L17.4157192,15.5485861 C17.358873,15.7293916 17.239894,15.8691374 17.0919655,15.9550295 L17,16 L17.531389,10.1547558 L17.5331809,10.0773779 L17.5331809,10.0773779 L17.5308947,10 Z M11.8777599,11.4687934 L11.8437581,11.8005645 L12.2730945,11.8378422 L12.1543419,12.9883239 L12.5821557,13.0256016 L12.7004008,11.8746539 L13.1302446,11.9119315 L13.1642465,11.5801604 L11.8777599,11.4687934 Z M11.2170083,11.411479 L11.0647614,12.8937318 L11.4915602,12.9310095 L11.6443146,11.4482907 L11.2170083,11.411479 Z M9.60775828,11.2716878 L9.45500386,12.7539406 L10.0825149,12.807236 L10.2046297,12.8074108 L10.267495,12.8024016 L10.3918299,12.7823648 C10.4329366,12.7739774 10.4709983,12.7613962 10.5044927,12.7450872 C10.6019307,12.7017519 10.6856665,12.6299924 10.7546851,12.5288768 C10.8237037,12.4282271 10.8663329,12.2977553 10.8825725,12.1369954 C10.8876474,12.0876025 10.8896774,12.0372777 10.8886624,11.9860209 C10.8871399,11.9347641 10.8810501,11.8839733 10.8709003,11.8345804 C10.860243,11.7847215 10.8445108,11.7357946 10.8231962,11.6891975 C10.8023892,11.6430664 10.7744772,11.5987992 10.7404754,11.5577938 C10.6755167,11.4813746 10.5938109,11.4254581 10.4953579,11.3900443 C10.4300608,11.3661245 10.3625083,11.3480034 10.2934521,11.3358191 L10.188834,11.3220126 L9.60775828,11.2716878 Z M8.26849282,11.1556611 L8.11573841,12.6379139 L9.15964483,12.7283122 L9.19161668,12.4170438 L8.57501663,12.3634572 L8.60495853,12.0764192 L9.14898754,12.1234822 L9.18045191,11.8182714 L8.63642289,11.7707424 L8.66382734,11.5042072 L9.25657537,11.5554639 L9.28854722,11.2437295 L8.26849282,11.1556611 Z M6.73130637,11.0219275 L6.57855195,12.5041803 L7.00585832,12.541458 L7.06218968,11.9934764 L7.18347973,12.0037278 L7.44382198,12.5796676 L7.90665263,12.6197411 L7.59251647,11.9743716 L7.67878973,11.9380259 C7.71329904,11.9221829 7.74730085,11.9007482 7.78130266,11.872324 C7.81530448,11.8438998 7.84524637,11.8066222 7.87163584,11.760957 C7.89751781,11.7148259 7.91426498,11.6565796 7.92136983,11.586684 C7.93101214,11.4920919 7.91933987,11.4133429 7.88483057,11.3499708 C7.85032127,11.2861329 7.80363221,11.235342 7.74374842,11.1971324 C7.68437212,11.1584569 7.61636849,11.1295667 7.54075252,11.1104619 L7.42783605,11.0870469 L7.31644205,11.0727183 L6.73130637,11.0219275 Z M5.66151797,10.9897755 C5.55849755,11.0219275 5.47222429,11.0699224 5.40066824,11.1342264 C5.32961967,11.1985304 5.2737958,11.2744836 5.23268913,11.363018 C5.19158246,11.4515525 5.16620797,11.5461445 5.15605818,11.6463282 C5.14540089,11.7502397 5.15199826,11.8476276 5.17635777,11.9394238 C5.1997023,12.0307541 5.24080897,12.1122989 5.29967778,12.1835925 C5.3580391,12.254886 5.43416256,12.3135983 5.52804817,12.3587975 C5.62193377,12.4049286 5.73307402,12.4328868 5.86248391,12.4445361 C5.92084523,12.4491958 5.97565413,12.4505937 6.02538812,12.4477979 C6.07562961,12.445934 6.12028871,12.4412743 6.15885793,12.4342847 L6.26238584,12.4114521 L6.33952428,12.3895515 L6.37707852,12.0242305 C6.3085674,12.0554505 6.24208625,12.0806129 6.17763505,12.0997177 C6.11369134,12.1188225 6.04010532,12.1253461 5.95586203,12.1178906 C5.88126103,12.111367 5.81985477,12.0945921 5.77012078,12.0670998 C5.72140176,12.0396075 5.68283254,12.0060576 5.6549206,11.9650522 C5.62751616,11.9240468 5.60873904,11.8788476 5.59960422,11.8280568 C5.58996191,11.777266 5.58742447,11.7260092 5.59300685,11.6738205 C5.59909673,11.6169721 5.61229146,11.5643174 5.63411352,11.5153904 C5.65542809,11.4669295 5.68435501,11.4254581 5.72089427,11.3909763 C5.75844851,11.3560285 5.80310761,11.3299341 5.85487157,11.3122272 C5.90714301,11.2945203 5.96651931,11.2879967 6.03401545,11.2940544 C6.07968953,11.2982481 6.12181117,11.3061696 6.15936542,11.3192168 L6.21404744,11.3386711 L6.26340082,11.3616201 L6.34916658,11.4119449 L6.41514025,11.459474 L6.45269449,11.0918231 L6.3877358,11.0578072 L6.29232773,11.0177337 C6.25629596,11.0046865 6.2146818,10.9921053 6.16900772,10.981388 C6.12231866,10.9702047 6.07004722,10.9627492 6.01320837,10.9576235 C5.88126103,10.9464402 5.76352341,10.9566916 5.66151797,10.9897755 Z M7.97230756,4.03545554 L19.5144271,7.83983479 C19.8836955,7.96116581 20.0857012,8.36276146 19.9650934,8.73577914 L19.8797249,9 L7,4.75491841 L7.08586483,4.49019618 C7.20597633,4.11767987 7.60303914,3.91312178 7.97230756,4.03545554 Z" id="Shape" fill="#000099"></path>
    </g>
</svg>