<?xml version="1.0" encoding="UTF-8"?>
<svg width="20px" height="20px" viewBox="0 0 20 20" version="1.1" xmlns="http://www.w3.org/2000/svg" xmlns:xlink="http://www.w3.org/1999/xlink">
    <!-- Generator: Sketch 63 (92445) - https://sketch.com -->
    <title>devblog</title>
    <desc>Created with Sketch.</desc>
    <g id="devblog" stroke="none" stroke-width="1" fill="none" fill-rule="evenodd">
        <path d="M10,1 C14.9705628,1 19,5.02811488 19,9.99948733 C19,14.9697669 14.9716556,18.9989747 10,18.9989747 C8.56156555,18.9989747 7.20194747,18.6616323 5.99599285,18.0617109 C4.3018492,19 3.18958848,19 1,19 L1.1496968,18.8931549 C1.57859601,18.5636358 2.78578374,17.4633831 2.85600707,15.4742737 C1.69192075,13.9576574 1,12.0595588 1,9.99948733 C1,5.02920772 5.02834435,1 10,1 Z M11.7688,7.42203416 L10.6744,7.42203416 L7.9816,12.6993335 L9.0832,12.6993335 L11.7688,7.42203416 Z M7.4992,7.95480381 L3.496,9.61070948 L3.496,10.5178578 L7.4992,12.1665639 L7.4992,11.0866254 L4.8856,10.0642836 L7.4992,9.04194188 L7.4992,7.95480381 Z M12.2512,7.95480381 L12.2512,9.04194188 L14.872,10.0642836 L12.2512,11.0866254 L12.2512,12.1665639 L16.2544,10.5178578 L16.2544,9.61070948 L12.2512,7.95480381 Z" id="Shape" fill="#000099"></path>
    </g>
</svg>