<?xml version="1.0" encoding="UTF-8"?>
<svg width="20px" height="20px" viewBox="0 0 20 20" version="1.1" xmlns="http://www.w3.org/2000/svg" xmlns:xlink="http://www.w3.org/1999/xlink">
    <!-- Generator: Sketch 63 (92445) - https://sketch.com -->
    <title>eb-coin-circle</title>
    <desc>Created with Sketch.</desc>
    <g id="eb-coin-circle" stroke="none" stroke-width="1" fill="none" fill-rule="evenodd">
        <path d="M10,2 C14.418278,2 18,5.581722 18,10 C18,14.418278 14.418278,18 10,18 C5.581722,18 2,14.418278 2,10 C2,5.581722 5.581722,2 10,2 Z M9.16,7.136 L5.456,7.136 L5.456,13 L9.248,13 L9.248,11.768 L7.008,11.768 L7.008,10.632 L8.984,10.632 L8.984,9.424 L7.008,9.424 L7.008,8.368 L9.16,8.368 L9.16,7.136 Z M12.7057176,7.13690683 L10.32,7.136 L10.32,13 L12.624,13 C13.68,13 14.864,12.64 14.864,11.344 C14.864,10.392 14.256,10.144 13.872,9.984 L14.0053191,9.91478993 C14.3153778,9.74410667 14.736,9.4224 14.736,8.632 C14.736,7.40733333 13.6873333,7.17083333 12.8224074,7.1399213 L12.7057176,7.13690683 Z M12.504,10.576 C12.968,10.576 13.296,10.744 13.296,11.184 C13.296,11.7589333 12.73152,11.7972622 12.5521873,11.7998175 L11.872,11.8 L11.872,10.576 L12.504,10.576 Z M12.512,8.336 C12.912,8.336 13.208,8.48 13.208,8.864 L13.2017726,8.93784257 C13.1742041,9.1124898 13.04,9.424 12.512,9.424 L11.872,9.424 L11.872,8.336 L12.512,8.336 Z" id="Shape" fill="#937039"></path>
    </g>
</svg>