<?xml version="1.0" encoding="UTF-8"?>
<svg width="20px" height="20px" viewBox="0 0 20 20" version="1.1" xmlns="http://www.w3.org/2000/svg" xmlns:xlink="http://www.w3.org/1999/xlink">
    <!-- Generator: Sketch 63 (92445) - https://sketch.com -->
    <title>eb-coins-card</title>
    <desc>Created with Sketch.</desc>
    <g id="eb-coins-card" stroke="none" stroke-width="1" fill="none" fill-rule="evenodd">
        <path d="M8.36949905,7.96501861 L19.027273,7.96694215 L19.027273,14.3140496 C19.027273,14.6413223 18.756747,14.9090909 18.4261042,14.9090909 L8.48741725,14.9102711 C7.67757548,15.46754 6.50135148,15.8181818 5.19230769,15.8181818 C2.82830969,15.8181818 0.897471993,14.6746465 0.775361755,13.2357517 L0.769319104,13.0699464 C0.283902598,12.6322069 -2.84217094e-14,12.1027803 -2.84217094e-14,11.5324675 C-2.84217094e-14,11.4165502 0.0117284293,11.3023219 0.0344934995,11.1902093 C0.302377277,12.3500174 2.15626109,13.2476843 4.40339431,13.2476843 C4.99027683,13.2476843 5.55033602,13.1864549 6.06232445,13.0753242 C5.90248476,13.0854176 5.74074399,13.0909091 5.57692308,13.0909091 C3.13412515,13.0909091 1.15384615,11.8698675 1.15384615,10.3636364 C1.15384615,10.274275 1.16081631,10.1859175 1.17443968,10.0987592 C1.48310706,11.2339311 3.31583813,12.1058856 5.53055455,12.1058856 C7.96181526,12.1058856 9.93274148,11.0550842 9.93274148,9.75885502 C9.93274148,9.03939756 9.32556213,8.39554856 8.36949905,7.96501861 Z M9.37808238,11.7585227 L9.31979655,11.8175067 C9.13178251,12.0011462 8.90920322,12.1699867 8.65769301,12.3205541 C8.11039837,13.442525 6.42151433,14.2597403 4.42307692,14.2597403 C3.09527124,14.2597403 1.90411992,13.8989752 1.09337263,13.3277415 C1.75693314,14.1752413 3.32558994,14.7700826 5.15483447,14.7700826 C7.58609518,14.7700826 9.5570214,13.7192812 9.5570214,12.4230519 C9.5570214,12.1922452 9.49453239,11.9692199 9.37808238,11.7585227 Z M16.2151054,9.45454545 L14.9192859,9.45454545 L14.9192859,13.4214876 L16.3345376,13.4214876 L16.5099573,13.4160582 C17.4677544,13.3551564 17.8145151,12.7926942 17.8145151,12.2762314 C17.8145151,11.8355041 17.5921828,11.5131901 17.167958,11.3359669 C17.5249521,11.1409917 17.7055031,10.8516033 17.7055031,10.4616529 C17.7055031,9.84931818 17.2402724,9.49995803 16.3902224,9.45867995 L16.2151054,9.45454545 Z M13.9173378,9.45454545 L11.4124677,9.45454545 L11.4124677,13.4214876 L14.0175326,13.4214876 L14.0175326,12.7272727 L12.2140261,12.7272727 L12.2140261,11.7355372 L13.7169482,11.7355372 L13.7169482,11.0413223 L12.2140261,11.0413223 L12.2140261,10.1487603 L13.9173378,10.1487603 L13.9173378,9.45454545 Z M16.2099954,11.7355372 C16.7164802,11.7355372 17.0187679,11.906314 17.0187679,12.246876 C17.0187679,12.5431345 16.7892307,12.6977633 16.3835283,12.7234292 L16.256586,12.7272727 L15.7208444,12.7272727 L15.7208444,11.7355372 L16.2099954,11.7355372 Z M15.7208444,10.1487603 L16.3591389,10.1504475 C16.634159,10.1622709 16.9253863,10.2418392 16.9253863,10.561719 L16.9220494,10.6097252 C16.9057574,10.7325999 16.8140933,10.9963804 16.3291013,11.0362349 L16.199475,11.0413223 L15.7208444,11.0413223 L15.7208444,10.1487603 Z M18.4261042,4 C18.7236827,4 18.9725666,4.21689256 19.0193676,4.49885289 L19.027273,4.59504132 L19.027273,5.98347107 L5,5.98347107 L5,4.59504132 C5,4.30049587 5.21912604,4.05414876 5.5039899,4.00782479 L5.60116884,4 L18.4261042,4 Z" id="Shape" fill="#CAA977"></path>
    </g>
</svg>