<?xml version="1.0" encoding="UTF-8"?>
<svg width="20px" height="20px" viewBox="0 0 20 20" version="1.1" xmlns="http://www.w3.org/2000/svg" xmlns:xlink="http://www.w3.org/1999/xlink">
    <!-- Generator: Sketch 63 (92445) - https://sketch.com -->
    <title>eb-card</title>
    <desc>Created with Sketch.</desc>
    <g id="eb-card" stroke="none" stroke-width="1" fill="none" fill-rule="evenodd">
        <g id="Icons/Ui/eb_card" transform="translate(0.000000, 4.000000)" fill="#000099">
            <path d="M20,4 L20,12.2121721 C20,12.6454184 19.6142857,13 19.143,13 L0.857,13 C0.385714286,13 0,12.6454184 0,12.2121721 L0,4 L20,4 Z M5.01500682,6 L2,6 L2,11 L5.12414734,11 L5.12414734,10.1950887 L2.94133697,10.1950887 L2.94133697,8.85129604 L4.89222374,8.85129604 L4.89222374,8.07366985 L2.94133697,8.07366985 L2.94133697,6.80491132 L5.01500682,6.80491132 L5.01500682,6 Z M7.80010778,6.00080283 L6.06548431,6 L6.06548431,11 L7.78444748,11 C9.06684857,11 9.63983629,10.3860846 9.63983629,9.62892224 C9.63983629,8.70804911 8.91678035,8.50341064 8.53478854,8.40109141 L8.68327219,8.34768935 C9.03201455,8.21418827 9.52387449,7.94815825 9.52387449,7.22100955 C9.52387449,6.21234949 8.54632927,6.03693035 7.96789776,6.00642267 L7.80010778,6.00080283 Z M7.65484311,8.76261937 C8.48021828,8.76261937 8.67121419,9.16507503 8.67121419,9.51978172 C8.67121419,10.0201715 8.28302754,10.2323621 7.72511425,10.260122 L7.59345157,10.2633015 L7.00682128,10.2633015 L7.00682128,8.76261937 L7.65484311,8.76261937 Z M7.00682128,6.7366985 L7.79558183,6.73688444 L7.91427012,6.74171896 C8.18144611,6.76180082 8.59618008,6.8622101 8.59618008,7.36425648 L8.59129061,7.44027648 C8.56712968,7.63304432 8.43545695,7.98454686 7.81941821,8.033778 L7.66848568,8.03956344 L7.00682128,8.03956344 L7.00682128,6.7366985 Z M19.143,-8.43769499e-15 C19.6142857,-8.43769499e-15 20,0.354581633 20,0.787827857 L20,2 L0,2 L0,0.787827857 C0,0.354581633 0.385714286,-8.43769499e-15 0.857,-8.43769499e-15 L19.143,-8.43769499e-15 Z" id="Shape"></path>
        </g>
    </g>
</svg>