<?xml version="1.0" encoding="UTF-8"?>
<svg width="20px" height="20px" viewBox="0 0 20 20" version="1.1" xmlns="http://www.w3.org/2000/svg" xmlns:xlink="http://www.w3.org/1999/xlink">
    <!-- Generator: Sketch 63.1 (92452) - https://sketch.com -->
    <title>eb-simple</title>
    <desc>Created with Sketch.</desc>
    <g id="eb-simple" stroke="none" stroke-width="1" fill="none" fill-rule="evenodd">
        <path d="M15.964375,6 C16.2294732,6 16.4512509,6.19331518 16.4929554,6.44456047 L16.5,6.53026875 L16.5,14.309017 C16.5,14.5714642 16.3047321,14.7910241 16.050949,14.8323116 L15.964375,14.8392857 L4.535625,14.8392857 C4.27052679,14.8392857 4.04874911,14.6459705 4.00704455,14.3947252 L4,14.309017 L4,6.53026875 C4,6.26782152 4.19526786,6.04826162 4.44905098,6.00697411 L4.535625,6 L15.964375,6 Z M7.87660115,10.6428571 L6.05357143,10.6428571 L6.05357143,13.5338855 L7.94952234,13.5338855 L7.94952234,13.0279556 L6.63694094,13.0279556 L6.63694094,12.3051985 L7.73075877,12.3051985 L7.73075877,11.7992685 L6.63694094,11.7992685 L6.63694094,11.1487871 L7.87660115,11.1487871 L7.87660115,10.6428571 Z M9.58594688,10.6428571 L8.64285714,10.6428571 L8.64285714,13.5338855 L9.67286894,13.5338855 C10.4670536,13.5338855 10.7499878,13.0977739 10.7499878,12.6992456 C10.7499878,12.3780524 10.5881757,12.1431563 10.2794274,12.0139996 C10.5392456,11.8719056 10.6706496,11.6610051 10.6706496,11.376817 C10.6706496,10.9008092 10.2854069,10.6428571 9.58594688,10.6428571 Z M9.53449975,12.3392857 C9.90318928,12.3392857 10.1231925,12.4637445 10.1231925,12.7119393 C10.1231925,12.9230486 9.9634789,13.0354775 9.68036304,13.0578554 L9.56848103,13.0620428 L9.17857143,13.0620428 L9.17857143,12.3392857 L9.53449975,12.3392857 Z M9.58364863,11.1785714 C9.79876614,11.1785714 10.05523,11.2230933 10.05523,11.4795275 L10.0510167,11.5262226 C10.0334853,11.6279356 9.94596971,11.8290528 9.52691595,11.8290528 L9.17857143,11.8290528 L9.17857143,11.1785714 L9.58364863,11.1785714 Z" id="Shape" fill="#0033CC" fill-rule="nonzero"></path>
    </g>
</svg>