<?xml version="1.0" encoding="UTF-8"?>
<svg width="20px" height="20px" viewBox="0 0 20 20" version="1.1" xmlns="http://www.w3.org/2000/svg" xmlns:xlink="http://www.w3.org/1999/xlink">
    <!-- Generator: Sketch 63 (92445) - https://sketch.com -->
    <title>envelope</title>
    <desc>Created with Sketch.</desc>
    <g id="envelope" stroke="none" stroke-width="1" fill="none" fill-rule="evenodd">
        <path d="M17,8.00057097 L17,16 L3,15.9999048 L3.00100002,8 L9.10283077,12.0300237 C9.35843625,12.1994124 9.67954313,12.284297 10.00075,12.284297 C10.266589,12.284297 10.5324281,12.2261424 10.7612293,12.109833 L10.8937692,12.0330689 L17,8.00057097 Z M17,5 L17,5.5604476 C17,6.07976697 16.8736955,6.21211883 16.7795784,6.27938122 L10.1987599,10.9354458 C10.100515,11.0045745 9.98281314,11.0181394 9.87699025,10.9763491 L9.80034002,10.9346306 L3.21301448,6.26967102 C3.12863881,6.20562389 3.02595659,6.09752798 3.00418,5.77824288 L3,5.64828503 L3,5 L17,5 Z" id="Shape" fill="#000099"></path>
    </g>
</svg>