<?xml version="1.0" encoding="UTF-8"?>
<svg width="20px" height="20px" viewBox="0 0 20 20" version="1.1" xmlns="http://www.w3.org/2000/svg" xmlns:xlink="http://www.w3.org/1999/xlink">
    <!-- Generator: Sketch 63 (92445) - https://sketch.com -->
    <title>globe</title>
    <desc>Created with Sketch.</desc>
    <g id="globe" stroke="none" stroke-width="1" fill="none" fill-rule="evenodd">
        <path d="M10,2 C14.4182857,2 18,5.58171 18,10 C18,14.41829 14.4182857,18 10,18 C5.58171429,18 2,14.41829 2,10 C2,5.58171 5.58171429,2 10,2 Z M12.5442286,14 L10.6109714,14 L10.6109714,16.75863 L10.6894857,16.75017 L10.6894857,16.75017 C10.8923429,16.53406 11.0922286,16.28743 11.3019429,16.02137 C11.7248,15.4850867 12.0782127,14.9150672 12.373755,14.3431346 L12.5442286,14 Z M9.46811429,14 L7.46365714,14 C8.00308571,15.14286 8.72491429,16.07246 9.3528,16.74331 C9.37821714,16.745782 9.36362514,16.7524204 9.41528594,16.7563234 L9.46811429,16.75863 L9.46811429,14 Z M15.4685714,14 L13.7873143,14 C13.4628571,14.8 13.0395429,15.5688 12.5220571,16.29257 C13.3634286,15.95589 14.1358857,15.44549 14.796,14.78537 C14.9803714,14.6009975 15.1526571,14.412125 15.3126643,14.2086781 L15.4685714,14 Z M6.21325714,14 L4.53131429,14 C4.73382857,14.28571 4.95817143,14.53954 5.20388571,14.78537 C5.864,15.44549 6.63645714,15.95589 7.47794286,16.29257 C7.04689523,15.68962 6.68124444,15.0550797 6.38363598,14.3973519 L6.21325714,14 Z M16.7589714,10.57143 L14.5569143,10.57143 C14.5234857,11.2380967 14.4298191,11.8650828 14.2775677,12.4854497 L14.1792,12.85714 L16.1484571,12.85714 C16.4432571,12.2571438 16.6388321,11.5696442 16.7275259,10.8712068 L16.7589714,10.57143 Z M13.4129143,10.57143 L10.6109714,10.57143 L10.6109714,12.85714 L12.992,12.85714 C13.1887619,12.2380983 13.319254,11.6190497 13.3828148,10.9669328 L13.4129143,10.57143 Z M9.46811429,10.57143 L6.58754286,10.57143 C6.62839184,11.3061214 6.74808397,11.956852 6.9227252,12.5595987 L7.01451429,12.85714 L9.46811429,12.85714 L9.46811429,10.57143 Z M5.4432,10.57143 L3.24091429,10.57143 C3.29891429,11.27143 3.46497678,11.97143 3.73121585,12.5948646 L3.85142857,12.85714 L5.82137143,12.85714 C5.64565715,12.2380983 5.52827619,11.6190497 5.47061746,10.9669328 L5.4432,10.57143 Z M12.9780571,7.14286 L10.6109714,7.14286 L10.6109714,9.42857 L13.4100571,9.42857 C13.3659755,8.69387857 13.2445621,8.04953245 13.0697829,7.44313746 L12.9780571,7.14286 Z M16.1549714,7.14286 L14.1708571,7.14286 C14.3464762,7.76200167 14.4649524,8.38098361 14.5248968,9.03307551 L14.5538286,9.42857 L16.7580571,9.42857 C16.700849,8.74285571 16.5422111,8.07729408 16.2892685,7.45203671 L16.1549714,7.14286 Z M9.46811429,7.14286 L7.0152,7.14286 C6.81891428,7.756385 6.68723175,8.37911139 6.62127672,9.03260745 L6.5896,9.42857 L9.46811429,9.42857 L9.46811429,7.14286 Z M5.82845714,7.14286 L3.84491429,7.14286 C3.5607347,7.75412286 3.3696723,8.40904857 3.27885214,9.08748554 L3.24182857,9.42857 L5.44582857,9.42857 C5.48220952,8.76190333 5.5774,8.13491722 5.73001111,7.51455032 L5.82845714,7.14286 Z M10.6109714,3.24137 L10.6109714,6 L12.5266286,6 C11.9808,4.84069 11.2909714,3.91966 10.6601143,3.24731 L10.6109714,3.24137 Z M12.4844571,3.68526 C12.9247428,4.29592667 13.2979651,4.93627389 13.6015444,5.59942667 L13.7753143,6 L15.4789714,6 C15.2737143,5.72023 15.0459429,5.45394 14.796,5.20389 C14.1260571,4.53394 13.3404571,4.02183 12.4844571,3.68526 Z M9.46811429,6 L9.46811429,3.24137 L9.39339886,3.2438068 C9.37984914,3.2450188 9.39090286,3.246238 9.37657143,3.24754 C9.16582857,3.47154 8.9272,3.72114 8.70857143,3.99943 C8.28971429,4.53276333 7.93212699,5.08538139 7.63580953,5.65569852 L7.46537143,6 L9.46811429,6 Z M7.51542857,3.68526 C6.65942857,4.02183 5.87382857,4.53394 5.20388571,5.20389 C5.03725714,5.37059 4.88048254,5.54450778 4.73366349,5.72482556 L4.52091429,6 L6.224,6 C6.55485714,5.19371 6.98674286,4.41829 7.51542857,3.68526 Z" id="Shape" fill="#000099"></path>
    </g>
</svg>