<?xml version="1.0" encoding="UTF-8"?>
<svg width="20px" height="20px" viewBox="0 0 20 20" version="1.1" xmlns="http://www.w3.org/2000/svg" xmlns:xlink="http://www.w3.org/1999/xlink">
    <!-- Generator: Sketch 63 (92445) - https://sketch.com -->
    <title>google</title>
    <desc>Created with Sketch.</desc>
    <g id="google" stroke="none" stroke-width="1" fill="none" fill-rule="evenodd">
        <path d="M6.06244316,4 C7.69930282,4 9.06941497,4.594 10.1182176,5.566 L8.39648378,7.222 C7.95998788,6.814 7.19612004,6.334 6.06244316,6.334 C4.05577448,6.334 2.41891482,7.984 2.41891482,10.006 C2.41891482,12.028 4.05577448,13.678 6.06244316,13.678 C8.3843589,13.678 9.23916338,12.088 9.39678691,11.146 L6.05638072,11.146 L6.05638072,8.908 L11.7308275,8.908 C11.8157017,9.286 11.8823886,9.64 11.8823886,10.138 C11.8823886,13.564 9.56047287,16 6.06244316,16 C2.71597454,16 0,13.312 0,10 C0,6.688 2.71597454,4 6.06244316,4 Z M17.5750227,6.4 L17.5750227,8.8 L20,8.8 L20,10.6 L17.5750227,10.6 L17.5750227,13 L15.7562898,13 L15.7562898,10.6 L13.3313125,10.6 L13.3313125,8.8 L15.7562898,8.8 L15.7562898,6.4 L17.5750227,6.4 Z" id="Shape" fill="#000099"></path>
    </g>
</svg>