<?xml version="1.0" encoding="UTF-8"?>
<svg width="20px" height="20px" viewBox="0 0 20 20" version="1.1" xmlns="http://www.w3.org/2000/svg" xmlns:xlink="http://www.w3.org/1999/xlink">
    <!-- Generator: Sketch 63 (92445) - https://sketch.com -->
    <title>green</title>
    <desc>Created with Sketch.</desc>
    <g id="green" stroke="none" stroke-width="1" fill="none" fill-rule="evenodd">
        <path d="M18.2354293,1.82813645 C16.7835218,11.8196579 12.2385347,16.0649879 4.60046802,14.5641266 C4.16038814,15.5673162 3.96723491,16.5129909 4.0139166,17.4037307 C4.02836878,17.6794946 3.81653374,17.9147613 3.54076981,17.9292134 C3.26500588,17.9436656 3.02973924,17.7318306 3.01528707,17.4560666 C2.95838479,16.3703065 3.19809364,15.2377814 3.72817345,14.0613276 L3.80484739,13.9017839 L3.80188501,13.9001364 L3.9092103,13.6558919 C4.94047859,11.3937481 7.1365387,9.32830473 10.515737,7.47203177 C10.7577665,7.33907931 10.8461908,7.03509642 10.7132384,6.79306696 C10.5802859,6.55103751 10.276303,6.46261314 10.0342736,6.5955656 C6.47848383,8.54884437 4.12619915,10.7624277 2.99577469,13.2487916 L3,13.2756395 C1.72051137,5.93279494 6.79898781,2.1169606 18.2354293,1.82813645 Z" id="Path" fill="#000099"></path>
    </g>
</svg>