<?xml version="1.0" encoding="UTF-8"?>
<svg width="20px" height="20px" viewBox="0 0 20 20" version="1.1" xmlns="http://www.w3.org/2000/svg" xmlns:xlink="http://www.w3.org/1999/xlink">
    <!-- Generator: Sketch 63 (92445) - https://sketch.com -->
    <title>heart-stroke</title>
    <desc>Created with Sketch.</desc>
    <g id="heart-stroke" stroke="none" stroke-width="1" fill="none" fill-rule="evenodd">
        <path d="M17.2648348,4.2689439 C19.0783216,6.11176641 19.0783949,9.11476002 17.2653152,10.9571691 L13.511972,14.7741231 L10.0048961,18.3560677 L2.73435637,10.9644386 C0.921881211,9.12176437 0.921881211,6.11791002 2.73435777,4.27523438 C4.56275266,2.41638181 7.56623085,2.41638181 9.39514684,4.27576451 L9.99629275,4.88773273 L10.6047559,4.26913184 C12.4331503,2.41028939 15.4366253,2.41028939 17.2648348,4.2689439 Z M12.2088326,5.8469271 L9.99523538,8.09740566 L7.79054818,5.85302879 C6.84374178,4.89045034 5.28524173,4.89045034 4.33843673,5.85302736 C3.38718776,6.82012584 3.38718776,8.41954856 4.33843508,9.38664536 L10.0009912,15.1439329 L11.905969,13.1982904 L15.6613118,9.37929937 C16.6129457,8.41227128 16.6129067,6.81429016 15.6609463,5.84693042 C14.7141394,4.88435653 13.1556362,4.88435653 12.2088326,5.8469271 Z" id="Shape" fill="#000099"></path>
    </g>
</svg>