<?xml version="1.0" encoding="UTF-8"?>
<svg width="20px" height="20px" viewBox="0 0 20 20" version="1.1" xmlns="http://www.w3.org/2000/svg" xmlns:xlink="http://www.w3.org/1999/xlink">
    <!-- Generator: Sketch 63 (92445) - https://sketch.com -->
    <title>hotel</title>
    <desc>Created with Sketch.</desc>
    <g id="hotel" stroke="none" stroke-width="1" fill="none" fill-rule="evenodd">
        <path d="M18,13 L18,17 L16.6681143,17 L15.6755429,15 L4.24697143,15 L3.38217143,17 L2,17 L2,13 L18,13 Z M16.0659429,3 C16.4648762,3 16.7972595,3.29446484 16.8498864,3.67360605 L16.8571429,3.77895 L16.8571429,8.6473875 C17.5818571,9.05723906 17.9521964,10.0969368 17.9956579,11.077741 L18,11.2729125 L18,12 L2,12 L2,11.2729125 C2,10.3030219 2.32504464,9.22832168 3.00263114,8.73755169 L3.14285714,8.6473875 L3.14285714,3.77895 C3.14285714,3.38614688 3.44199603,3.05894844 3.82706733,3.00714316 L3.93405714,3 L16.0659429,3 Z M13.5024444,6 C12.2988889,6 11.5487898,6.51208215 11.3419219,6.6737923 L11.2834444,6.72211584 L11,9 L16,9 L15.7587778,6.72211584 L15.697809,6.6737923 C15.4826033,6.51208215 14.7060936,6 13.5024444,6 Z M6.50244444,6 C5.29888889,6 4.54878978,6.51208215 4.34192192,6.6737923 L4.28344444,6.72211584 L4,9 L9,9 L8.75877778,6.72211584 L8.69780898,6.6737923 C8.48260326,6.51208215 7.70609357,6 6.50244444,6 Z" id="Shape" fill="#000099"></path>
    </g>
</svg>