<?xml version="1.0" encoding="UTF-8"?>
<svg width="20px" height="20px" viewBox="0 0 20 20" version="1.1" xmlns="http://www.w3.org/2000/svg" xmlns:xlink="http://www.w3.org/1999/xlink">
    <!-- Generator: Sketch 63 (92445) - https://sketch.com -->
    <title>info-circle</title>
    <desc>Created with Sketch.</desc>
    <g id="info-circle" stroke="none" stroke-width="1" fill="none" fill-rule="evenodd">
        <path d="M10,2 C14.4184,2 18,5.5816 18,10 C18,14.4184 14.4184,18 10,18 C5.5816,18 2,14.4184 2,10 C2,5.5816 5.5816,2 10,2 Z M7.33333333,9.10848307 L7.33333333,10.2696627 L8.66587825,10.2696627 L8.66587825,14.2672974 L7.33333333,14.2672974 L7.33333333,15.3333333 L12.663513,15.3333333 L12.663513,14.2672974 L11.3309681,14.2672974 L11.3309681,9.11434627 L7.33333333,9.10848307 Z M10.0073068,4.66666667 C9.02122353,4.66666667 8.22169661,5.46654896 8.22169661,6.45263219 C8.22169661,7.43880426 9.02122353,8.23859772 10.0073068,8.23859772 C10.9937454,8.23859772 11.7932723,7.43880426 11.7932723,6.45263219 C11.7932723,5.46654896 10.9937454,4.66666667 10.0073068,4.66666667 Z" id="Shape" fill="#000099"></path>
    </g>
</svg>