<?xml version="1.0" encoding="UTF-8"?>
<svg width="20px" height="20px" viewBox="0 0 20 20" version="1.1" xmlns="http://www.w3.org/2000/svg" xmlns:xlink="http://www.w3.org/1999/xlink">
    <!-- Generator: Sketch 63.1 (92452) - https://sketch.com -->
    <title>instagram</title>
    <desc>Created with Sketch.</desc>
    <g id="instagram" stroke="none" stroke-width="1" fill="none" fill-rule="evenodd">
        <path d="M11.0582495,2 L12.0358327,2.00673438 L12.487178,2.01558842 C12.758551,2.02285268 12.9900045,2.0329982 13.2963064,2.04697394 C14.1477976,2.0858111 14.7293355,2.22105841 15.2381852,2.41883259 C15.7642464,2.62324369 16.210379,2.89678685 16.6551461,3.34152471 C17.0998815,3.78629432 17.3734232,4.23242942 17.5778649,4.75849349 C17.753635,5.21080683 17.8800264,5.72055321 17.9332199,6.42627889 L17.9689988,7.14585946 L17.9846964,7.65937 C17.986039,7.72136144 17.9872571,7.78612709 17.9883599,7.85479623 L17.997382,10.7139713 L17.9898535,12.0421333 C17.9829092,12.5486897 17.9705773,12.8392886 17.9496897,13.2970793 C17.9108528,14.1485752 17.7756062,14.7301164 17.5778649,15.2389689 C17.3734232,15.765033 17.0998815,16.2111681 16.6551461,16.6559377 C16.210379,17.1006756 15.7642464,17.3742187 15.2381852,17.5786616 C14.7858744,17.7544326 14.2761309,17.8808248 13.5704091,17.9340185 L12.8508327,17.9697977 L12.3373272,17.9854953 C12.2753366,17.9868379 12.2105718,17.988056 12.1419036,17.9891589 L9.28276195,17.998181 L7.95459079,17.9906525 C7.44803226,17.9837081 7.15743502,17.9713761 6.69964687,17.9504885 C5.84815564,17.9116513 5.26661768,17.776404 4.757768,17.5786616 C4.23170685,17.3742187 3.78557422,17.1006756 3.34080708,16.6559377 C2.89607169,16.2111681 2.62253006,15.765033 2.41812008,15.2389689 C2.220347,14.7301164 2.08510045,14.1485752 2.04626351,13.2970793 L2.01381002,12.4469265 L2.00335034,11.8007363 C2.00190161,11.6457205 2.00080508,11.4711574 2,11.2697018 L2.00249019,8.29623116 C2.00836096,7.56056569 2.02110731,7.2517296 2.04626351,6.70038315 C2.08510045,5.84888719 2.220347,5.267346 2.41812008,4.75849349 C2.62253006,4.23242942 2.89607169,3.78629432 3.34080708,3.34152471 C3.78557422,2.89678685 4.23170685,2.62324369 4.757768,2.41883259 C5.26661768,2.22105841 5.84815564,2.0858111 6.69964687,2.04697394 L7.54979662,2.01452028 L8.19598893,2.00406054 C8.35100559,2.00261181 8.52556987,2.00151526 8.72702701,2.00071018 L11.0582495,2 Z M11.7741963,3.44519499 L8.22176421,3.44519499 L7.61444363,3.45476149 C7.3831272,3.46043313 7.18544797,3.46815776 6.95006773,3.47857463 L6.76534894,3.48690206 C5.98537104,3.52246839 5.5617848,3.65279357 5.27989147,3.76235056 C4.90647888,3.90747387 4.63998695,4.08082796 4.36006247,4.36078575 C4.08010623,4.64071179 3.9067531,4.90720519 3.7616306,5.28061986 L3.70565658,5.4343691 C3.62070407,5.68568661 3.53490013,6.03683494 3.49698244,6.57839064 L3.46502416,7.26141721 C3.44661345,7.7545626 3.44071761,8.22378127 3.43970289,9.52097699 L3.44447679,11.7749608 L3.45404323,12.3822792 C3.45971485,12.6135955 3.46743944,12.8112755 3.47785624,13.046657 L3.48618363,13.2313768 C3.52174976,14.0113591 3.65207422,14.4349476 3.7616306,14.7168425 C3.9067531,15.0902572 4.08013798,15.3567506 4.36006247,15.6366766 C4.63998695,15.9166344 4.90647888,16.0899885 5.27989147,16.2351118 L5.43363985,16.2910862 C5.68495597,16.3760391 6.03610235,16.4618436 6.57765505,16.4997615 L7.52297685,16.5403077 L8.07943966,16.5507958 C8.38309859,16.5543245 8.76650735,16.5561039 9.30603456,16.5568185 L11.7029213,16.5528846 L12.4491376,16.5409622 C12.7086091,16.5339586 12.9328022,16.5241499 13.2306043,16.5105603 C14.0105822,16.474994 14.4341684,16.3446688 14.7160618,16.2351118 C15.0894744,16.0899885 15.3559663,15.9166344 15.6358908,15.6366766 C15.915847,15.3567506 16.0892001,15.0902572 16.2343226,14.7168425 L16.2902966,14.5630933 C16.3752492,14.3117758 16.4610531,13.9606275 16.4989708,13.4190718 L16.5395168,12.473667 L16.5500048,11.9171879 C16.5535335,11.613531 16.5553129,11.2301394 16.5560275,10.6906509 L16.5520936,8.29388747 L16.5401713,7.54765276 C16.5331677,7.28816151 16.5233591,7.06393412 16.5097696,6.76608558 C16.4742035,5.98610335 16.343879,5.56251475 16.2343226,5.28061986 C16.0892001,4.90720519 15.915847,4.64071179 15.6358908,4.36078575 C15.3559663,4.08082796 15.0894744,3.90747387 14.7160618,3.76235056 L14.5623134,3.70637623 C14.3109973,3.62142325 13.9598509,3.53561883 13.4182982,3.49770093 L12.7352757,3.46574247 C12.4578836,3.45538639 12.1880631,3.44899011 11.7741963,3.44519499 Z M9.99799249,5.89067762 C12.2667939,5.89067762 14.1060074,7.72990127 14.1060074,9.99874708 C14.1060074,12.2675611 12.2667939,14.1067848 9.99799249,14.1067848 C7.72915928,14.1067848 5.88994585,12.2675611 5.88994585,9.99874708 C5.88994585,7.72990127 7.72915928,5.89067762 9.99799249,5.89067762 Z M9.99799249,7.33209826 C8.52523721,7.33209826 7.33135848,8.52598362 7.33135848,9.99874708 C7.33135848,11.4714788 8.52523721,12.6653641 9.99799249,12.6653641 C11.470716,12.6653641 12.6645947,11.4714788 12.6645947,9.99874708 C12.6645947,8.52598362 11.470716,7.33209826 9.99799249,7.33209826 Z M14.2683096,4.7683695 C14.798499,4.7683695 15.2283093,5.1981822 15.2283093,5.72837451 C15.2283093,6.25856681 14.798499,6.68834776 14.2683096,6.68834776 C13.738152,6.68834776 13.3083417,6.25856681 13.3083417,5.72837451 C13.3083417,5.1981822 13.738152,4.7683695 14.2683096,4.7683695 Z" id="Shape" fill="#000099"></path>
    </g>
</svg>