<?xml version="1.0" encoding="UTF-8"?>
<svg width="20px" height="20px" viewBox="0 0 20 20" version="1.1" xmlns="http://www.w3.org/2000/svg" xmlns:xlink="http://www.w3.org/1999/xlink">
    <!-- Generator: Sketch 63 (92445) - https://sketch.com -->
    <title>key</title>
    <desc>Created with Sketch.</desc>
    <g id="key" stroke="none" stroke-width="1" fill="none" fill-rule="evenodd">
        <path d="M7.875,1 C10.5673882,1 12.75,3.17461693 12.75,5.85714286 C12.75,6.98249965 12.3658781,8.01846858 11.7211413,8.84199489 L16.8468621,13.9483135 L12.7514806,18.0669757 L11.0496214,16.3747362 L13.4542398,13.9564484 L12.166,12.673 L10.6896976,14.1366601 L9,12.4322771 L10.465,10.979 L9.80270286,10.3197691 C9.21144788,10.5736423 8.55970883,10.7142857 7.875,10.7142857 C5.18261184,10.7142857 3,8.53966878 3,5.85714286 C3,3.17461693 5.18261184,1 7.875,1 Z M7.875,3.39999986 C6.50612758,3.39999986 5.39999986,4.50207583 5.39999986,5.85714286 C5.39999986,7.21220988 6.50612758,8.31428586 7.875,8.31428586 C9.24387242,8.31428586 10.3500001,7.21220988 10.3500001,5.85714286 C10.3500001,4.50207583 9.24387242,3.39999986 7.875,3.39999986 Z" id="Shape" fill="#000099"></path>
    </g>
</svg>