<?xml version="1.0" encoding="UTF-8"?>
<svg width="20px" height="20px" viewBox="0 0 20 20" version="1.1" xmlns="http://www.w3.org/2000/svg" xmlns:xlink="http://www.w3.org/1999/xlink">
    <!-- Generator: Sketch 63 (92445) - https://sketch.com -->
    <title>linkedin</title>
    <desc>Created with Sketch.</desc>
    <g id="linkedin" stroke="none" stroke-width="1" fill="none" fill-rule="evenodd">
        <path d="M13.862749,6.6411088 C16.0844695,6.6411088 17.75,8.08767111 17.75,11.1964881 L17.75,17 L14.374265,17 L14.374265,11.5851723 C14.374265,10.2249235 13.8860014,9.29660683 12.6640972,9.29660683 C11.7313283,9.29660683 11.1762369,9.92222422 10.9320319,10.5274038 C10.842977,10.7437531 10.8200542,11.044883 10.8200542,11.3477282 L10.8200542,17 L7.44318406,17 L7.46311523,9.34085023 C7.46186862,8.11371952 7.456321,7.15334405 7.44318406,6.87888137 L10.8197246,6.87888137 L10.8197246,8.31350942 L10.9512934,8.1193409 C11.4221963,7.45412892 12.2325181,6.6411088 13.862749,6.6411088 Z M5.57614498,6.87888137 L5.57614498,17 L2.20055648,17 L2.20055648,6.87888137 L5.57614498,6.87888137 Z M3.91083415,2 C5.06616688,2 5.77633528,2.7552153 5.79852575,3.74834916 C5.79852575,4.67140488 5.13757187,5.41969267 4.06183473,5.4922138 L3.86601378,5.49797568 C2.73375035,5.49797568 2,4.71984078 2,3.74834916 C2,2.7552153 2.75561126,2 3.91083415,2 Z" id="Shape" fill="#000099"></path>
    </g>
</svg>