<?xml version="1.0" encoding="UTF-8"?>
<svg width="20px" height="20px" viewBox="0 0 20 20" version="1.1" xmlns="http://www.w3.org/2000/svg" xmlns:xlink="http://www.w3.org/1999/xlink">
    <!-- Generator: Sketch 63.1 (92452) - https://sketch.com -->
    <title>logo</title>
    <desc>Created with Sketch.</desc>
    <g id="logo" stroke="none" stroke-width="1" fill="none" fill-rule="evenodd">
        <path d="M5.43498131,6.14942529 C6.56834233,6.14942529 7.13502283,6.44827586 7.34108847,6.54789272 C7.46987953,6.62260536 7.44412131,6.72222222 7.44412131,6.72222222 L7.33545388,7.18450671 C7.32337972,7.24054119 7.31533028,7.28256705 7.31533028,7.29501916 C7.28957208,7.34482759 7.23805567,7.34482759 7.18653925,7.29501916 L6.95397341,7.16124014 C6.66978516,7.00723712 6.33365648,6.87164751 5.87287081,6.87164751 C5.17739925,6.87164751 4.81678439,7.3697318 4.99709181,8.09195402 L5.12216603,8.55081141 C5.25315509,9.04929417 5.44472744,9.80419073 5.54109747,10.2022597 L5.58953053,10.408046 C5.898629,11.6532567 5.02285003,13.1475096 2.65309513,13.1475096 C1.33942667,13.1475096 0.515164103,12.6743295 0.231823847,12.4501916 C0.0772746156,12.3256705 0.0257582053,12.2509579 0.0515164103,12.1762452 L0.128967694,11.9291845 C0.181261444,11.7679391 0.243271939,11.5896126 0.257582053,11.6034483 C0.257582053,11.5038314 0.309098464,11.4789272 0.360614872,11.5287356 L0.478957607,11.6396424 C0.789803812,11.9202299 1.44761113,12.4252873 2.31823847,12.4252873 C3.42584131,12.4252873 3.34856667,11.5536398 3.34856667,11.4291188 C3.34856667,11.0804598 2.884919,9.36206897 2.75612795,8.91379311 C2.39551309,7.46934866 3.29705028,6.14942529 5.43498131,6.14942529 Z M17.9792273,6.14942529 C19.1125883,6.14942529 19.6792688,6.44827586 19.8853344,6.54789272 C20.0141255,6.62260536 19.9883673,6.72222222 19.9883673,6.72222222 L19.8796998,7.18450671 C19.8676257,7.24054119 19.8595763,7.28256705 19.8595763,7.29501916 C19.833818,7.34482759 19.7823016,7.34482759 19.7307852,7.29501916 C19.3959285,7.09578544 19.0095555,6.87164751 18.4171168,6.87164751 C17.7216452,6.87164751 17.3610303,7.3697318 17.5413378,8.09195402 L17.6252065,8.39498851 C17.7793436,8.97356322 18.0719568,10.1291188 18.1337765,10.408046 C18.4428749,11.6532567 17.567096,13.1475096 15.1973411,13.1475096 C13.8836726,13.1475096 13.1109264,12.6992337 12.8275862,12.4750958 C12.6987952,12.3713282 12.6415547,12.3021498 12.6409585,12.2387363 L12.7626755,11.6464828 C12.7667969,11.6289502 12.7701454,11.6157011 12.7724637,11.6080805 C12.801828,11.5287356 12.8791026,11.5038314 12.930619,11.5536398 L13.1340058,11.7303601 C13.4694807,12.0108812 14.0588284,12.4252873 14.8624844,12.4252873 C15.9700873,12.4252873 15.8928126,11.5536398 15.8928126,11.4291188 C15.8928126,11.0804598 15.4291649,9.36206897 15.3003739,8.91379311 C14.939759,7.46934866 15.8412962,6.14942529 17.9792273,6.14942529 Z M13.1109264,6.22413793 C13.1727462,6.22413793 13.1686248,6.27195402 13.1776917,6.29108046 L13.1882011,6.29885058 L11.8487744,12.9731801 C11.8487744,13.0105364 11.8342854,13.0198755 11.8161742,13.0222102 L9.40174492,13.0229885 C9.32447028,13.0229885 9.32447028,12.9731801 9.32447028,12.9482759 L9.60420059,11.5265736 C9.60655127,11.5133504 9.60781056,11.5054917 9.60781056,11.5038314 L9.6011325,11.4863062 L9.6011325,11.4863062 L9.58205233,11.4789272 L7.59867056,11.4789272 L7.57386635,11.4853838 L7.57386635,11.4853838 L7.54715414,11.5038314 L6.36227669,12.9731801 C6.36227669,12.9918582 6.34778769,13.0105364 6.30794298,13.0187081 L6.25924389,13.0229885 L5.43498131,13.0229885 C5.39634399,13.0229885 5.38668466,13.0089799 5.39513658,12.9809626 L5.40922311,12.9482759 L10.9472372,6.27394636 L10.9719651,6.25641379 C10.9884504,6.24685057 11.0131782,6.23569349 11.0461487,6.22931801 L11.1017864,6.22413793 L13.1109264,6.22413793 Z M10.2260075,8.19157088 L10.2002493,8.21647509 L8.13959283,10.7816092 L8.13959283,10.8065134 L9.71084336,10.8065134 L10.2260075,8.21647509 L10.2374556,8.19802753 L10.2374556,8.19802753 L10.2260075,8.19157088 Z" id="Shape" fill="#000000" fill-rule="nonzero"></path>
    </g>
</svg>