<?xml version="1.0" encoding="UTF-8"?>
<svg width="20px" height="20px" viewBox="0 0 20 20" version="1.1" xmlns="http://www.w3.org/2000/svg" xmlns:xlink="http://www.w3.org/1999/xlink">
    <!-- Generator: Sketch 63 (92445) - https://sketch.com -->
    <title>lounge</title>
    <desc>Created with Sketch.</desc>
    <g id="lounge" stroke="none" stroke-width="1" fill="none" fill-rule="evenodd">
        <path d="M6.23306116,7.73597837 C7.08652088,7.44454178 8.00428458,7.8227465 8.42270575,8.58979929 L9.88284446,11.5856337 L12.3877435,10.1691805 C12.7852776,9.94436128 13.2537589,9.96771763 13.61868,10.1879346 L17.9496723,13.4050126 L16.8372865,15.1811305 L14.3924638,13.4069685 L15.8948311,18 L13.647059,18 L12.3724098,14.0977642 L8.93115287,14.7441127 C8.45018631,14.8316604 8.10218047,14.8921101 8.05823889,14.8921101 C7.34778894,14.8921101 6.6816976,14.4728627 6.3857798,13.7950779 L6.3281535,13.6459396 L5.07101227,10.0670109 C4.74568436,9.10640917 5.2775606,8.06250701 6.23306116,7.73597837 Z M2.57628579,8.49124591 C2.99013945,8.3468065 3.43831435,8.53823773 3.6273099,8.92255816 L3.66898937,9.02257405 C3.67265117,9.03304413 5.25340384,13.6237745 5.54165605,14.460576 C5.93747359,15.6098694 6.98966852,16.1930877 8.22117715,15.9467531 L9.64483837,15.6490788 L9.64483837,15.6490788 L11.8123717,15.1606912 L12.3497406,16.8053002 L11.0491153,17.1042705 C10.3219522,17.2680724 9.40044048,17.4701332 8.55611729,17.6389952 C8.26271568,17.6976737 7.97206042,17.7257474 7.68792774,17.7257474 C5.97924098,17.7257474 4.49575483,16.6962272 3.91970814,15.0234295 L2.04795692,9.58818884 L2.04795692,9.58818884 C1.89210162,9.13809017 2.12863092,8.64795204 2.57628579,8.49124591 Z M16.7682625,2 L18,6.60223593 L15.7113759,6.60223593 L15.7113759,10.5726999 L14.4526326,9.77179582 L14.4526326,6.60223593 L12.1843773,6.60223593 L13.4160003,2 L16.7682625,2 Z M5.43003028,3.16949566 C6.51563913,3.01900255 7.51714104,3.78193821 7.66693148,4.87335846 C7.8166075,5.96500882 7.05769975,6.97197805 5.9720909,7.12247116 C4.88636762,7.27296428 3.88498015,6.51002861 3.73530413,5.41837825 C3.58562811,4.326958 4.344307,3.31998878 5.43003028,3.16949566 Z" id="Shape" fill="#000099"></path>
    </g>
</svg>