<?xml version="1.0" encoding="UTF-8"?>
<svg width="20px" height="20px" viewBox="0 0 20 20" version="1.1" xmlns="http://www.w3.org/2000/svg" xmlns:xlink="http://www.w3.org/1999/xlink">
    <!-- Generator: Sketch 63 (92445) - https://sketch.com -->
    <title>lowprice-calendar</title>
    <desc>Created with Sketch.</desc>
    <g id="lowprice-calendar" stroke="none" stroke-width="1" fill="none" fill-rule="evenodd">
        <path d="M4.13333333,3.60714286 L4.13333333,3.875 C4.13333333,4.91053571 4.96906847,5.75 6,5.75 C7.03093153,5.75 7.86666667,4.91053571 7.86666667,3.875 L7.86666667,3.60714286 L12.1333333,3.60714286 L12.1333333,3.875 C12.1333333,4.91053571 12.9690685,5.75 14,5.75 C15.0309315,5.75 15.8666667,4.91053571 15.8666667,3.875 L15.8666667,3.60714286 L18,3.60714286 L18,17 L2,17 L2,3.60714286 L4.13333333,3.60714286 Z M10.0024531,6.63339286 L8.99042944,8.46261071 L6.98718743,7.888025 L7.55922384,9.90021071 L5.73813333,10.91675 L7.55922384,11.9332893 L6.98718743,13.945475 L8.99042944,13.3708839 L10.0024531,15.2 L11.0144767,13.3708839 L13.0177187,13.945475 L12.4456823,11.9332893 L14.2666667,10.91675 L12.4456823,9.90021071 L13.0177187,7.888025 L11.0144767,8.46261071 L10.0024531,6.63339286 Z M6,2 C6.4418278,2 6.8,2.35976964 6.8,2.80357143 L6.8,3.875 C6.8,4.31880179 6.4418278,4.67857143 6,4.67857143 C5.5581722,4.67857143 5.2,4.31880179 5.2,3.875 L5.2,2.80357143 C5.2,2.35976964 5.5581722,2 6,2 Z M14,2 C14.4418278,2 14.8,2.35976964 14.8,2.80357143 L14.8,3.875 C14.8,4.31880179 14.4418278,4.67857143 14,4.67857143 C13.5581722,4.67857143 13.2,4.31880179 13.2,3.875 L13.2,2.80357143 C13.2,2.35976964 13.5581722,2 14,2 Z" id="Shape" fill="#000099"></path>
    </g>
</svg>