<?xml version="1.0" encoding="UTF-8"?>
<svg width="20px" height="20px" viewBox="0 0 20 20" version="1.1" xmlns="http://www.w3.org/2000/svg" xmlns:xlink="http://www.w3.org/1999/xlink">
    <!-- Generator: Sketch 63 (92445) - https://sketch.com -->
    <title>meal</title>
    <desc>Created with Sketch.</desc>
    <g id="meal" stroke="none" stroke-width="1" fill="none" fill-rule="evenodd">
        <path d="M6.1,2 L6.1,6.57143 L7.2,6.57143 L7.2,2 L8.3,2 L8.3,6.57143 L9.4,6.57143 L9.4,2 L10.5,2 L10.5,7.42263 C10.5,8.52457 9.80931,9.47029 8.89334,9.88 L8.65169648,9.93100694 C8.62200667,9.93665278 8.59010667,9.94251667 8.5563,9.94846 L8.85,18 L6.65,18 L6.94282,9.97189 C6.70709,9.92857 6.55771,9.88 6.55771,9.88 C5.64163,9.47029 5,8.52457 5,7.42263 L5,2 L6.1,2 Z M16,2.00102 L16,17.9905 L13.8,17.9905 L14.30083,10.57153 L12.7,9.9905 L12.7,6.15313 C12.7,1.82376 16,2.00102 16,2.00102 Z" id="Shape" fill="#000099"></path>
    </g>
</svg>