<?xml version="1.0" encoding="UTF-8"?>
<svg width="20px" height="20px" viewBox="0 0 20 20" version="1.1" xmlns="http://www.w3.org/2000/svg" xmlns:xlink="http://www.w3.org/1999/xlink">
    <!-- Generator: Sketch 63 (92445) - https://sketch.com -->
    <title>offer</title>
    <desc>Created with Sketch.</desc>
    <g id="offer" stroke="none" stroke-width="1" fill="none" fill-rule="evenodd">
        <path d="M10.1974943,1.07707871 L16.797755,6.65503262 C16.8886523,6.74173868 16.9975386,6.91912687 16.9975386,7.49491128 L16.9975386,16.831944 C16.9975386,17.948141 16.099643,18.8400002 14.9920326,18.8400002 L5.005506,18.8400002 C3.89690241,18.8400002 3,17.9409628 3,16.831944 L3,7.39003201 C3,6.77487008 3.17637781,6.68361782 3.27126587,6.59747568 L9.79914441,1.07805207 C9.92152901,0.974389497 10.0747097,0.973902819 10.1974943,1.07707871 Z M10.0255889,3 C9.45919033,3 9,3.46082092 9,4.02923077 C9,4.59764063 9.45919033,5.05846155 10.0255889,5.05846155 C10.5919874,5.05846155 11.0511778,4.59764063 11.0511778,4.02923077 C11.0511778,3.46082092 10.5919874,3 10.0255889,3 Z" id="Shape" fill="#000099"></path>
    </g>
</svg>