<?xml version="1.0" encoding="UTF-8"?>
<svg width="20px" height="20px" viewBox="0 0 20 20" version="1.1" xmlns="http://www.w3.org/2000/svg" xmlns:xlink="http://www.w3.org/1999/xlink">
    <!-- Generator: Sketch 63 (92445) - https://sketch.com -->
    <title>pending-circle copy</title>
    <desc>Created with Sketch.</desc>
    <g id="pending-circle-copy" stroke="none" stroke-width="1" fill="none" fill-rule="evenodd">
        <path d="M14.5714286,3.75 L5.42857143,3.75 C5.21817724,3.75 5.04319283,3.90160728 5.00690486,4.10153517 L5,4.17857143 L5,4.57142857 C5,4.78182276 5.15160728,4.95680717 5.35153517,4.99309514 L5.42857143,5 L6.66666667,5 L6.66666667,7.5 L9.16666667,10 L6.66666667,12.5 L6.66666667,15 L5.42857143,15 C5.21817724,15 5.04319283,15.1516073 5.00690486,15.3515352 L5,15.4285714 L5,15.8214286 C5,16.0318228 5.15160728,16.2068072 5.35153517,16.2430951 L5.42857143,16.25 L14.5714286,16.25 C14.7818228,16.25 14.9568072,16.0983927 14.9930951,15.8984648 L15,15.8214286 L15,15.4285714 C15,15.2181772 14.8483927,15.0431928 14.6484648,15.0069049 L14.5714286,15 L13.3333333,15 L13.3333333,12.5 L10.8333333,10 L13.3333333,7.5 L13.3333333,5 L14.5714286,5 C14.7818228,5 14.9568072,4.84839272 14.9930951,4.64846483 L15,4.57142857 L15,4.17857143 C15,3.96817724 14.8483927,3.79319283 14.6484648,3.75690486 L14.5714286,3.75 Z M10.478,10.857 L12.476,12.855 L12.476,12.892 L7.523,12.892 L7.523,12.855 L9.521,10.857 L10.478,10.857 Z M12.477,5.858 L12.477,7.145 L10.479,9.143 L9.522,9.143 L7.524,7.145 L7.524,5.858 L12.477,5.858 Z" id="Shape" fill="#0033CC"></path>
    </g>
</svg>