<?xml version="1.0" encoding="UTF-8"?>
<svg width="20px" height="20px" viewBox="0 0 20 20" version="1.1" xmlns="http://www.w3.org/2000/svg" xmlns:xlink="http://www.w3.org/1999/xlink">
    <!-- Generator: Sketch 63 (92445) - https://sketch.com -->
    <title>pet</title>
    <desc>Created with Sketch.</desc>
    <g id="pet" stroke="none" stroke-width="1" fill="none" fill-rule="evenodd">
        <path d="M11.5116131,9.36256786 C11.958624,9.62332423 12.3305803,9.99528059 12.5913367,10.4422915 L14.3682257,13.4883869 C15.2030666,14.9195427 14.7196578,16.7564959 13.2885021,17.5913367 C12.8296939,17.8589748 12.3080529,18 11.776889,18 L8.223111,18 C6.56625675,18 5.223111,16.6568542 5.223111,15 C5.223111,14.4688361 5.36413619,13.9471951 5.63177429,13.4883869 L7.4086633,10.4422915 C8.24350415,9.01113575 10.0804573,8.52772701 11.5116131,9.36256786 Z M2.99987336,7 C4.38119679,7 5,8.11928813 5,9.5 C5,10.8807119 4.38119679,12 2.99987336,12 C1.61854993,12 1,10.8807119 1,9.5 C1,8.11928813 1.61854993,7 2.99987336,7 Z M16.9998734,7 C18.3811968,7 19,8.11928813 19,9.5 C19,10.8807119 18.3811968,12 16.9998734,12 C15.6185499,12 15,10.8807119 15,9.5 C15,8.11928813 15.6185499,7 16.9998734,7 Z M6.99987336,2 C8.38119679,2 9,3.11928813 9,4.5 C9,5.88071187 8.38119679,7 6.99987336,7 C5.61854993,7 5,5.88071187 5,4.5 C5,3.11928813 5.61854993,2 6.99987336,2 Z M12.9998734,2 C14.3811968,2 15,3.11928813 15,4.5 C15,5.88071187 14.3811968,7 12.9998734,7 C11.6185499,7 11,5.88071187 11,4.5 C11,3.11928813 11.6185499,2 12.9998734,2 Z" id="Shape" fill="#000099"></path>
    </g>
</svg>