<?xml version="1.0" encoding="UTF-8"?>
<svg width="20px" height="20px" viewBox="0 0 20 20" version="1.1" xmlns="http://www.w3.org/2000/svg" xmlns:xlink="http://www.w3.org/1999/xlink">
    <!-- Generator: Sketch 63 (92445) - https://sketch.com -->
    <title>phone</title>
    <desc>Created with Sketch.</desc>
    <defs>
        <path d="M13.3987365,11.6695135 L18,15.5180609 L17.8260068,15.838439 C17.6628895,16.1162977 16.697226,17.6131392 14.6525217,17.937743 C12.2594052,18.3179635 9.41288007,16.9552062 6.19387867,13.8878003 L6.11214491,13.806067 C3.04485847,10.5872139 1.68222846,7.74136965 2.06218361,5.34759646 C2.38678891,3.30290158 3.8836373,2.33712796 4.16149724,2.17399445 L4.48201045,2 L8.3383215,6.60978963 L7.91781038,6.89131681 C7.76537317,7.00002114 7.34020803,7.31806551 6.83452713,7.82363724 C5.9566905,8.70160338 5.92543936,9.12469384 6.68241152,9.88179606 L10.1181676,13.3175364 C10.6415575,13.8407903 10.9459223,13.8736439 11.1291555,13.853077 C11.4096145,13.8212918 11.732543,13.6092124 12.1763359,13.1654215 C12.8054989,12.5362614 13.1547371,12.0282323 13.1580759,12.0234244 L13.3987365,11.6695135 Z" id="path-1"></path>
    </defs>
    <g id="phone" stroke="none" stroke-width="1" fill="none" fill-rule="evenodd">
        <mask id="mask-2" fill="white">
            <use xlink:href="#path-1"></use>
        </mask>
        <use id="path" fill="#000099" xlink:href="#path-1"></use>
    </g>
</svg>