<?xml version="1.0" encoding="UTF-8"?>
<svg width="20px" height="20px" viewBox="0 0 20 20" version="1.1" xmlns="http://www.w3.org/2000/svg" xmlns:xlink="http://www.w3.org/1999/xlink">
    <!-- Generator: Sketch 63 (92445) - https://sketch.com -->
    <title>pig</title>
    <desc>Created with Sketch.</desc>
    <g id="pig" stroke="none" stroke-width="1" fill="none" fill-rule="evenodd">
        <path d="M6.04826546,2.41278339 C6.04826546,2.13772911 6.29557608,1.94812146 6.53590616,2.01266155 L6.60754148,2.03981671 L9.16319759,3.30967948 C9.58793363,3.24244398 10.0229261,3.20121467 10.4699849,3.20121467 C14.6286576,3.20121467 18,6.22046881 18,9.944427 C18,12.0598332 16.9074244,13.9419966 15.2048081,15.1778848 L14.9888386,15.328975 L14.9888386,17.4595789 C14.9888386,17.7251379 14.8072175,17.9455914 14.5677043,17.9913026 L14.4754148,18 L11.3466063,18 C11.0945534,18 10.8849264,17.8090531 10.8414543,17.556796 L10.8331825,17.4595789 L10.8331825,16.6711476 C10.7119155,16.676222 10.5924585,16.6876393 10.4699849,16.6876393 L10.2874057,16.6812964 L10.2874057,16.6812964 L10.106184,16.6711476 L10.106184,17.4595789 C10.106184,17.7251379 9.92456287,17.9455914 9.68504967,17.9913026 L9.59276018,18 L6.46395173,18 C6.21189878,18 6.00179506,17.8090531 5.95821711,17.556796 L5.94992459,17.4595789 L5.94992459,15.328975 C4.83115708,14.5750676 3.95532675,13.550982 3.44464533,12.3618439 L3.33333333,12.0845454 L2.51342383,12.0845454 C2.26137087,12.0845454 2.05174385,11.8935985 2.00827183,11.6413414 L2,11.5441243 L2,8.49505816 C2,8.23062675 2.18162114,8.00979739 2.42113435,7.96398879 L2.51342383,7.95527134 L3.27300151,7.95527134 C3.72573152,6.64100777 4.61782738,5.50355805 5.79232266,4.66875467 L6.04826546,4.49454643 L6.04826546,2.41278339 Z M6.34630468,7.657786 C5.95595777,7.657786 5.639819,7.99079197 5.639819,8.40118219 C5.639819,8.81093811 5.95595777,9.14394408 6.34630468,9.14394408 C6.73665158,9.14394408 7.05339367,8.81093811 7.05339367,8.40118219 C7.05339367,7.99079197 6.73665158,7.657786 6.34630468,7.657786 Z M10.4699849,5.33435578 C10.2202112,5.33435578 10.0174962,5.5474796 10.0174962,5.81007859 C10.0174962,6.07267758 10.2202112,6.28580141 10.4699849,6.28580141 C11.6476621,6.28580141 12.7758673,6.72854077 13.5662142,7.50048033 C13.653092,7.58547614 13.7641026,7.62733974 13.8745098,7.62733974 C13.9957768,7.62733974 14.1170437,7.57659598 14.2057315,7.47574274 C14.3758673,7.28291643 14.3656109,6.98225961 14.1822021,6.80275353 C13.226546,5.86970252 11.8733032,5.33435578 10.4699849,5.33435578 Z" id="Shape" fill="#000099"></path>
    </g>
</svg>