<?xml version="1.0" encoding="UTF-8"?>
<svg width="20px" height="20px" viewBox="0 0 20 20" version="1.1" xmlns="http://www.w3.org/2000/svg" xmlns:xlink="http://www.w3.org/1999/xlink">
    <!-- Generator: Sketch 63 (92445) - https://sketch.com -->
    <title>plane-hotel</title>
    <desc>Created with Sketch.</desc>
    <g id="plane-hotel" stroke="none" stroke-width="1" fill="none" fill-rule="evenodd">
        <path d="M18,11 L18,16.5 L17.2857143,16.5 L17.2857143,14.9285714 L8.71428571,14.9285714 L8.71428571,16.5 L8,16.5 L8,11.7857143 L8.71428571,11.7857143 L8.71428571,12.7603929 C8.71428571,12.1094286 10.2542857,11.5818214 11.4375,11.5818214 C12.6207143,11.5818214 14.1610714,12.1094286 14.1610714,12.7603929 C14.1610714,12.1094286 14.89,11.5818214 15.6789286,11.5818214 C16.4214496,11.5818214 17.1895959,12.0491828 17.2773968,12.6468796 L17.2857143,12.7603929 L17.2857143,11 L18,11 Z M6.28861531,4 L8.1924102,6.6 L10.7450571,6.60015869 C10.8844952,6.60253906 12,6.640625 12,7.25 L11.991229,7.31176439 C11.9561448,7.46449088 11.7807241,7.85079905 10.9036203,7.8957186 L10.7308034,7.9 L8.1924102,7.9 L6.28861531,10.5 L5.65401701,10.5 L6.28861531,7.9 L2.48102551,7.9 L2,7.081325 L2,5.3 L2.48102551,5.3 L3.11562381,6.6 L6.28861531,6.6 L5.65401701,4 L6.28861531,4 Z" id="Shape" fill="#3F3D3A"></path>
    </g>
</svg>