<?xml version="1.0" encoding="UTF-8"?>
<svg width="20px" height="20px" viewBox="0 0 20 20" version="1.1" xmlns="http://www.w3.org/2000/svg" xmlns:xlink="http://www.w3.org/1999/xlink">
    <!-- Generator: Sketch 63 (92445) - https://sketch.com -->
    <title>seat</title>
    <desc>Created with Sketch.</desc>
    <g id="seat" stroke="none" stroke-width="1" fill="none" fill-rule="evenodd">
        <path d="M9.78290224,8.10133221 L10.3566302,11.2414215 L13.4364501,11.3840315 C14.0888901,11.3840315 14.6300263,11.854088 14.7353791,12.4678166 L14.7860505,12.9555897 C14.9025956,14.168159 15.2658079,18 15.2674811,18 L13.2401941,18 L12.7198741,14.0928409 L12.7198741,14.0928409 L8.52035228,14.0928409 C8.42723828,14.0928409 8.32071403,14.0749709 8.22816854,14.0552621 L8.01985729,14.0066509 C7.24380832,13.8531309 6.61620734,13.1797211 6.50985734,12.3651913 L6.04749336,8.57467211 C5.91479036,7.55835234 6.64337734,6.62810254 7.67468731,6.49733257 C8.70599727,6.3654026 9.65019924,7.08558244 9.78290224,8.10133221 Z M4.7447454,6.22164264 L5.03261257,8.88131734 C5.18886463,10.276002 5.38490608,11.9464035 5.55787537,13.1823611 C5.72871137,14.4040308 6.67874334,15.1912106 7.9781423,15.1912106 L11.6974592,15.1912106 L11.9193702,16.9096702 L7.9781423,16.9193202 L7.9781423,16.9193202 C6.95919333,16.9193202 5.99143636,16.5910103 5.25305338,15.9947104 C4.46546141,15.3586406 3.97172843,14.4682708 3.82503143,13.419891 L3.70569845,12.5294792 C3.37202278,9.94683808 3.00861078,6.43636178 3.00455446,6.3970026 C2.95569446,5.9234327 3.30552845,5.5001928 3.78620043,5.45193281 C4.26722142,5.40412282 4.6958844,5.74807274 4.7447454,6.22164264 Z M15.3237131,3.14916332 C15.6300217,3.14916332 15.9682033,3.29618626 16.1894387,3.51716377 L16.27666,3.61618322 C16.303947,3.65181321 17,4.54747301 17,5.9479527 C17,7.32672239 16.293685,8.32454216 16.293685,8.36614216 L16.293685,8.38050215 C16.060463,8.68262208 15.688823,8.89498204 15.3237131,8.89498204 L12.8168041,8.89498204 C12.4987917,8.89498204 12.1531392,8.72355689 11.9365192,8.48239722 L11.8616412,8.38889215 C11.8343542,8.35040216 11.1627892,7.41360237 11.1627892,5.9407127 C11.1627892,4.46886303 11.7987872,3.67111321 11.8677052,3.58906322 C12.0853012,3.33004328 12.4755991,3.14916332 12.8168041,3.14916332 L15.3237131,3.14916332 Z M15.3164831,4.29833307 L12.8219351,4.29833307 C12.7726081,4.29833307 12.7324941,4.31649306 12.7083551,4.35039305 L12.6478461,4.44571391 L12.5856198,4.56786449 C12.4731893,4.81161406 12.3289022,5.25838285 12.3289022,5.9410627 C12.3289022,6.98622246 12.6973941,7.62010232 12.7540671,7.7084723 C12.7698091,7.7320323 12.7917321,7.74582229 12.8263661,7.74582229 L15.3117021,7.74582229 C15.3380561,7.74582229 15.3543821,7.7383523 15.3676751,7.7156023 L15.4384864,7.58716697 L15.5209282,7.41240126 C15.6560284,7.1022801 15.82724,6.58274619 15.82724,5.9410627 C15.82724,4.98369291 15.4604981,4.41876304 15.4077901,4.34257306 C15.3908811,4.31717306 15.3708241,4.30097307 15.3164831,4.29833307 Z M9.35795125,3.7207132 C9.51047825,4.81104295 8.73711227,5.81679273 7.63082131,5.96710269 C6.52441334,6.11741266 5.50394838,5.35540283 5.35142038,4.26507307 C5.19889339,3.17497332 5.97202636,2.16922354 7.07843333,2.01891358 C8.18472529,1.86860361 9.20530626,2.63061344 9.35795125,3.7207132 Z" id="Shape" fill="#000099"></path>
    </g>
</svg>