<?xml version="1.0" encoding="UTF-8"?>
<svg width="20px" height="20px" viewBox="0 0 20 20" version="1.1" xmlns="http://www.w3.org/2000/svg" xmlns:xlink="http://www.w3.org/1999/xlink">
    <!-- Generator: Sketch 63 (92445) - https://sketch.com -->
    <title>share</title>
    <desc>Created with Sketch.</desc>
    <g id="share" stroke="none" stroke-width="1" fill="none" fill-rule="evenodd">
        <path d="M14.5,3 C15.8807119,3 17,4.11928813 17,5.5 C17,6.88071187 15.8807119,8 14.5,8 C13.9454331,8 13.4330404,7.81943079 13.0184086,7.51387913 L7.997,10.42 L8,10.5 L7.99781212,10.6055503 L7.99781212,10.6055503 L12.9980127,13.5013112 C13.4161829,13.1865628 13.9363044,13 14.5,13 C15.8807119,13 17,14.1192881 17,15.5 C17,16.8807119 15.8807119,18 14.5,18 C13.1192881,18 12,16.8807119 12,15.5 C12,15.4128694 12.0044574,15.3267798 12.0131565,15.2419469 L7.11604602,12.4075258 C6.68025315,12.7770952 6.11615768,13 5.5,13 C4.11928813,13 3,11.8807119 3,10.5 C3,9.11928813 4.11928813,8 5.5,8 C6.12480214,8 6.69607099,8.22920326 7.13431207,8.6081153 L12.0157358,5.78206639 C12.0053395,5.6894798 12,5.59536345 12,5.5 C12,4.11928813 13.1192881,3 14.5,3 Z" id="Path" fill="#000099"></path>
    </g>
</svg>