<?xml version="1.0" encoding="UTF-8"?>
<svg width="20px" height="20px" viewBox="0 0 20 20" version="1.1" xmlns="http://www.w3.org/2000/svg" xmlns:xlink="http://www.w3.org/1999/xlink">
    <!-- Generator: Sketch 63 (92445) - https://sketch.com -->
    <title>ticket</title>
    <desc>Created with Sketch.</desc>
    <g id="ticket" stroke="none" stroke-width="1" fill="none" fill-rule="evenodd">
        <path d="M19.143,3 C19.578033,3 19.940153,3.29907692 19.9932896,3.68240663 L20,3.77987 L20,15.22013 C20,15.61601 19.671344,15.9455392 19.2501026,15.9938936 L19.143,16 L0.857,16 C0.421967033,16 0.0598469992,15.7009231 0.00671038429,15.3175934 L0,15.22013 L0,3.77987 C0,3.38399 0.328655959,3.05446077 0.749897393,3.00610645 L0.857,3 L19.143,3 Z M16,13 C15.4477709,13 15,13.4478073 15,14.0000814 C15,14.5523554 15.4477709,15 16,15 C16.5522291,15 17,14.5523554 17,14.0000814 C17,13.4478073 16.5522291,13 16,13 Z M11.7494059,5.2504943 C11.4431242,4.9443346 10.9624757,4.91882129 10.6271329,5.17395437 L10.5395186,5.2504943 L8.88518002,6.90485171 L3.66975662,5.82895817 L3.0105398,6.48831939 L7.01429641,8.77575665 L5.41717395,10.3728973 L3.73778626,9.92501901 L3,10.5943726 L5.07332996,11.9734601 L6.37821242,14 L7.14337479,13.3306464 L6.57230906,11.6375513 L8.22322559,9.98661597 L10.5800352,13.989597 L11.1709486,13.3986768 L10.0927404,8.11694297 L11.7494059,6.46039544 C12.0835314,6.12626616 12.0835314,5.58462357 11.7494059,5.2504943 Z M16,10 C15.4477709,10 15,10.4476446 15,10.9999186 C15,11.5521927 15.4477709,12 16,12 C16.5522291,12 17,11.5521927 17,10.9999186 C17,10.4476446 16.5522291,10 16,10 Z M16,7 C15.4477709,7 15,7.44764462 15,7.99991864 C15,8.55235538 15.4477709,9 16,9 C16.5522291,9 17,8.55235538 17,7.99991864 C17,7.44764462 16.5522291,7 16,7 Z M16,4 C15.4477709,4 15,4.44780734 15,5.00008136 C15,5.55235538 15.4477709,6 16,6 C16.5522291,6 17,5.55235538 17,5.00008136 C17,4.44780734 16.5522291,4 16,4 Z" id="Shape" fill="#000099"></path>
    </g>
</svg>