<?xml version="1.0" encoding="UTF-8"?>
<svg width="20px" height="20px" viewBox="0 0 20 20" version="1.1" xmlns="http://www.w3.org/2000/svg" xmlns:xlink="http://www.w3.org/1999/xlink">
    <!-- Generator: Sketch 63 (92445) - https://sketch.com -->
    <title>twitter</title>
    <desc>Created with Sketch.</desc>
    <defs>
        <path d="M17.1600967,6.23673417 C17.8749062,5.70071776 18.5057088,5.03550372 19,4.27339144 C18.3414451,4.57408357 17.6266356,4.78018457 16.876573,4.87400666 C17.6453871,4.40566521 18.2311859,3.66508588 18.5057088,2.78146629 C17.7908992,3.21366316 16.995833,3.5235837 16.1617635,3.69200205 C15.484457,2.96142015 14.523627,2.5 13.4615385,2.5 C11.4198683,2.5 9.77273106,4.19879518 9.77273106,6.28210715 C9.77273106,6.58279928 9.79823319,6.87349398 9.86423869,7.14726993 C6.79573298,6.98654191 4.06775565,5.48461933 2.2563547,3.19443732 C1.93532794,3.74967957 1.75231269,4.40566521 1.75231269,5.10010254 C1.75231269,6.40515252 2.40111676,7.5702384 3.3904492,8.24544988 C2.78589882,8.22622405 2.21885157,8.05857472 1.72381032,7.77480133 L1.72381032,7.82248142 C1.72381032,9.65355037 2.99666639,11.1823891 4.68205684,11.5307613 C4.37978165,11.614586 4.04900408,11.6630351 3.71147596,11.6630351 C3.47220602,11.6630351 3.24268689,11.6438093 3.01541795,11.5953602 C3.49095758,13.0972827 4.84632053,14.1954627 6.46570548,14.224686 C5.20185015,15.2382722 3.61096758,15.8488849 1.87907326,15.8488849 C1.57904825,15.8488849 1.28352363,15.8296591 1,15.7912074 C2.63138595,16.8724686 4.57179765,17.5 6.65772148,17.5 C13.4525377,17.5 17.1690974,11.7276339 17.1690974,6.72430146 L17.1600967,6.23673417 Z" id="path-1"></path>
    </defs>
    <g id="twitter" stroke="none" stroke-width="1" fill="none" fill-rule="evenodd">
        <mask id="mask-2" fill="white">
            <use xlink:href="#path-1"></use>
        </mask>
        <use id="path" fill="#000099" xlink:href="#path-1"></use>
    </g>
</svg>