<?xml version="1.0" encoding="UTF-8"?>
<svg width="20px" height="20px" viewBox="0 0 20 20" version="1.1" xmlns="http://www.w3.org/2000/svg" xmlns:xlink="http://www.w3.org/1999/xlink">
    <!-- Generator: Sketch 63 (92445) - https://sketch.com -->
    <title>upgrade</title>
    <desc>Created with Sketch.</desc>
    <g id="upgrade" stroke="none" stroke-width="1" fill="none" fill-rule="evenodd">
        <path d="M19.143,3 C19.578033,3 19.940153,3.29907692 19.9932896,3.68240663 L20,3.77987 L20,15.22013 C20,15.61601 19.671344,15.9455392 19.2501026,15.9938936 L19.143,16 L0.857,16 C0.421967033,16 0.0598469992,15.7009231 0.00671038429,15.3175934 L0,15.22013 L0,3.77987 C0,3.38399 0.328655959,3.05446077 0.749897393,3.00610645 L0.857,3 L19.143,3 Z M15,13 C14.4477709,13 14,13.4478073 14,14.0000814 C14,14.5523554 14.4477709,15 15,15 C15.5522291,15 16,14.5523554 16,14.0000814 C16,13.4478073 15.5522291,13 15,13 Z M7.00901834,5.38605423 L4.12643429,8.05933175 L4.98842123,8.86464308 L6.40543429,7.550232 L6.40561,13.355232 L7.59438923,13.355232 L7.59343429,7.533232 L9.01157877,8.84791606 L9.87356571,8.04260473 L7.00901834,5.38605423 Z M15,10 C14.4477709,10 14,10.4476446 14,10.9999186 C14,11.5521927 14.4477709,12 15,12 C15.5522291,12 16,11.5521927 16,10.9999186 C16,10.4476446 15.5522291,10 15,10 Z M15,7 C14.4477709,7 14,7.44764462 14,7.99991864 C14,8.55235538 14.4477709,9 15,9 C15.5522291,9 16,8.55235538 16,7.99991864 C16,7.44764462 15.5522291,7 15,7 Z M15,4 C14.4477709,4 14,4.44780734 14,5.00008136 C14,5.55235538 14.4477709,6 15,6 C15.5522291,6 16,5.55235538 16,5.00008136 C16,4.44780734 15.5522291,4 15,4 Z" id="Shape" fill="#000099"></path>
    </g>
</svg>