<?xml version="1.0" encoding="UTF-8"?>
<svg width="20px" height="20px" viewBox="0 0 20 20" version="1.1" xmlns="http://www.w3.org/2000/svg" xmlns:xlink="http://www.w3.org/1999/xlink">
    <!-- Generator: Sketch 63 (92445) - https://sketch.com -->
    <title>wechat</title>
    <desc>Created with Sketch.</desc>
    <g id="wechat" stroke="none" stroke-width="1" fill="none" fill-rule="evenodd">
        <path d="M13.375,7.75 C16.481125,7.75 19,9.69025 19,12.0833333 C19,13.3959912 18.2285928,14.5598873 17.0301376,15.3530304 L16.8265,15.48175 L17.875,17.5 L14.843125,16.24875 C14.37175,16.3473333 13.88575,16.4166667 13.375,16.4166667 C10.268875,16.4166667 7.75,14.4764167 7.75,12.0833333 C7.75,9.69025 10.268875,7.75 13.375,7.75 Z M7.81187453,2.5 C11.1360693,2.5 13.900555,4.37392857 14.5,6.85107143 C14.1684888,6.8125 13.8324363,6.78571429 13.4884366,6.78571429 C9.73168783,6.78571429 6.67656211,9.18892857 6.67656211,12.1428571 C6.67656211,12.4867857 6.7219746,12.8221429 6.80144647,13.1489286 C6.33551425,13.0949286 5.89355984,12.9915571 5.46686401,12.8624029 L5.1495669,12.7610714 L2.70296863,13.75 L3.60100076,12.055 C2.01951055,11.0757143 1,9.56285714 1,7.85714286 C1,4.89892857 4.04944916,2.5 7.81187453,2.5 Z M11.6875,10.1875 C11.22175,10.1875 10.84375,10.5515 10.84375,11 C10.84375,11.4485 11.22175,11.8125 11.6875,11.8125 C12.15325,11.8125 12.53125,11.4485 12.53125,11 C12.53125,10.5515 12.15325,10.1875 11.6875,10.1875 Z M15.0625,10.1875 C14.59675,10.1875 14.21875,10.5515 14.21875,11 C14.21875,11.4485 14.59675,11.8125 15.0625,11.8125 C15.52825,11.8125 15.90625,11.4485 15.90625,11 C15.90625,10.5515 15.52825,10.1875 15.0625,10.1875 Z M5.54124968,4.91071429 C5.07123034,4.91071429 4.68976537,5.27071429 4.68976537,5.71428571 C4.68976537,6.15785714 5.07123034,6.51785714 5.54124968,6.51785714 C6.01126903,6.51785714 6.392734,6.15785714 6.392734,5.71428571 C6.392734,5.27071429 6.01126903,4.91071429 5.54124968,4.91071429 Z M10.0824994,4.91071429 C9.61248003,4.91071429 9.23101505,5.27071429 9.23101505,5.71428571 C9.23101505,6.15785714 9.61248003,6.51785714 10.0824994,6.51785714 C10.5525187,6.51785714 10.9339837,6.15785714 10.9339837,5.71428571 C10.9339837,5.27071429 10.5525187,4.91071429 10.0824994,4.91071429 Z" id="Shape" fill="#000099"></path>
    </g>
</svg>