<?xml version="1.0" encoding="UTF-8"?>
<svg width="20px" height="20px" viewBox="0 0 20 20" version="1.1" xmlns="http://www.w3.org/2000/svg" xmlns:xlink="http://www.w3.org/1999/xlink">
    <!-- Generator: Sketch 63.1 (92452) - https://sketch.com -->
    <title>weibo</title>
    <desc>Created with Sketch.</desc>
    <g id="weibo" stroke="none" stroke-width="1" fill="none" fill-rule="evenodd">
        <path d="M5.18954774,7.72483256 C7.04020101,5.80806977 9.19763819,4.93487442 10.0086935,5.77614419 C10.3662814,6.1468186 10.4012563,6.7884 10.171206,7.55492093 C10.051206,7.94109767 10.5209548,7.72744186 10.5209548,7.7282093 C12.0159799,7.07895349 13.320603,7.04104186 13.7975879,7.74708837 C14.0307161,8.09207907 14.0294954,8.56410804 13.8471083,9.11151091 L13.7929146,9.26263256 C13.7043536,9.49294884 13.7832152,9.56441607 13.9281873,9.61784628 L14.0335176,9.65233953 C14.8762312,9.92293953 15.8140704,10.5777209 15.8140704,11.7318 C15.8140704,13.6413488 13.1564322,16.2 9.16190955,16.2 C6.11457286,16.2 3,14.5160791 3,11.9990233 C3,10.683014 3.8041206,9.16086977 5.18954774,7.72483256 Z M13.2872864,11.6658 C13.1297487,10.0317628 11.0306533,8.90623256 8.59884422,9.15273488 C6.16748744,9.39877674 4.3239196,10.9232233 4.48175879,12.5572605 C4.6398995,14.1920651 6.73854271,15.3166744 9.17020101,15.0714 C11.6023116,14.8252047 13.4446734,13.3006047 13.2872864,11.6658 Z M7.92301508,10.7533116 C8.90231156,10.5528558 9.82974874,11.0641256 9.99346734,11.8949581 C10.1576382,12.7262512 9.49643216,13.5623023 8.51713568,13.7627581 C7.53753769,13.9633674 6.61040201,13.4522512 6.44653266,12.6211116 C6.28251256,11.7901256 6.94341709,10.9537674 7.92301508,10.7533116 Z M13.4795478,5.12459758 L13.5569849,5.13486977 C14.7343719,5.38045116 15.6624121,6.32517209 15.9034673,7.52376864 C15.961809,7.81416279 15.778191,8.09796279 15.4929648,8.15797674 C15.2075879,8.21753023 14.9288442,8.0305814 14.8698995,7.74002791 C14.7132663,6.96061395 14.1099497,6.34681395 13.3444221,6.18718605 C13.0593467,6.12717209 12.8755779,5.84337209 12.9343719,5.5528186 C12.9875468,5.28867907 13.2229968,5.11003636 13.4795478,5.12459758 Z M13.4773869,3 C15.9165479,3 17.9043906,4.96585483 17.9966531,7.42610287 L18,7.60265581 C18,7.90149767 17.7639196,8.14186047 17.4723618,8.14186047 C17.1811055,8.14186047 16.9447236,7.90149767 16.9447236,7.60465116 C16.9447236,5.65504186 15.3924121,4.0744186 13.4773869,4.0744186 C13.1858291,4.0744186 12.9497487,3.83405581 12.9497487,3.5372093 C12.9497487,3.24051628 13.1858291,3 13.4773869,3 Z" id="Shape" fill="#000099"></path>
    </g>
</svg>