<?xml version="1.0" encoding="UTF-8"?>
<svg width="20px" height="20px" viewBox="0 0 20 20" version="1.1" xmlns="http://www.w3.org/2000/svg" xmlns:xlink="http://www.w3.org/1999/xlink">
    <!-- Generator: Sketch 63 (92445) - https://sketch.com -->
    <title>wifi-circle</title>
    <desc>Created with Sketch.</desc>
    <g id="wifi-circle" stroke="none" stroke-width="1" fill="none" fill-rule="evenodd">
        <path d="M10,0 C15.5228475,0 20,4.4771525 20,10 C20,15.5228475 15.5228475,20 10,20 C4.4771525,20 0,15.5228475 0,10 C0,4.4771525 4.4771525,0 10,0 Z M11.0554171,13.1514756 C10.5253849,12.7191737 9.76032941,12.7191737 9.23029717,13.1514756 L9.12048743,13.2507286 L10.1428571,14.2730983 L11.1652269,13.2507286 L11.0554171,13.1514756 Z M13.0715049,11.0144843 C11.408966,9.5172855 8.87620252,9.5172855 7.21366363,11.0144843 L7.04485246,11.1747077 L8.1292393,12.2590946 L8.26589982,12.1309991 C9.33567244,11.1916324 10.9413858,11.1898567 12.0131847,12.1256719 L12.1559292,12.2590946 L13.2403161,11.1747077 L13.0715049,11.0144843 Z M15.0937838,8.94509429 C12.3064169,6.35163524 7.97929743,6.35163524 5.19193048,8.94509429 L5,9.13024118 L6.08438684,10.214628 L6.26912134,10.0378022 C8.45867869,8.03213871 11.8270356,8.03213871 14.0165929,10.0378022 L14.2013274,10.214628 L15.2857143,9.13024118 L15.0937838,8.94509429 Z" id="Shape" fill="#0033CC"></path>
    </g>
</svg>