<?xml version="1.0" encoding="UTF-8"?>
<svg width="20px" height="20px" viewBox="0 0 20 20" version="1.1" xmlns="http://www.w3.org/2000/svg" xmlns:xlink="http://www.w3.org/1999/xlink">
    <!-- Generator: Sketch 63 (92445) - https://sketch.com -->
    <title>wifi</title>
    <desc>Created with Sketch.</desc>
    <g id="wifi" stroke="none" stroke-width="1" fill="none" fill-rule="evenodd">
        <path d="M8.43336274,14.4096471 C9.24491711,13.5980927 10.5559569,13.5787087 11.43771,14.3374353 L11.5666373,14.4570784 L10.0237156,16 L8.43336274,14.4096471 Z M5.18088161,11.3003107 C7.77880869,8.77986514 11.9524487,8.71985453 14.6254097,11.1202789 L14.8182694,11.3003107 L13.1314455,12.9368262 C11.4575577,11.3128611 8.7771985,11.2604751 7.03837711,12.7796683 L6.86770558,12.9368262 L5.18088161,11.3003107 Z M2,8.21487926 C6.34076435,4.00357543 13.331218,3.92969291 17.7649539,7.99323169 L18,8.21487926 L16.313176,9.85139478 C12.8962386,6.53636533 7.39874869,6.47006474 3.89858917,9.65249302 L3.68682397,9.85139478 L2,8.21487926 Z" id="Shape" fill="#000099"></path>
    </g>
</svg>