<?xml version="1.0" encoding="UTF-8"?>
<svg width="20px" height="20px" viewBox="0 0 20 20" version="1.1" xmlns="http://www.w3.org/2000/svg" xmlns:xlink="http://www.w3.org/1999/xlink">
    <!-- Generator: Sketch 63 (92445) - https://sketch.com -->
    <title>wine-glass</title>
    <desc>Created with Sketch.</desc>
    <g id="wine-glass" stroke="none" stroke-width="1" fill="none" fill-rule="evenodd">
        <path d="M13.1138477,3 L13.2581605,3.16503125 C14.9786861,5.13671875 14.856076,9.7993125 13.0355487,11.6210938 C12.3282391,12.3283021 11.4394537,12.7638906 10.4839306,12.9173165 L10.2217649,12.9521562 L10.2217649,18 L12.6365376,18 C12.9034908,18 13.1195224,18.223625 13.1195224,18.5 C13.1195224,18.7456667 12.9488546,18.9496543 12.7234387,18.991952 L12.6365678,19 L6.84111328,19 C6.57416016,19 6.35815874,18.776375 6.35815874,18.5 C6.35815874,18.2543333 6.52882652,18.0503457 6.75424241,18.008048 L6.84111328,18 L9.25588601,18 L9.25588601,12.9521562 C8.20129439,12.8408125 7.21368253,12.3925937 6.443038,11.6210938 C4.67605558,9.85334926 4.50767179,5.40855828 6.07198955,3.34584744 L6.21897727,3.16503125 L6.36283736,3 L13.1138477,3 Z M12.7143617,4 L6.84486416,4 C6.21533483,4.85336882 5.94216412,6.25704605 6.01027637,7.61645549 L6.0284448,7.88757096 L13.5315669,7.88749146 C13.6447619,6.53670149 13.4176532,5.10193544 12.8355252,4.17783502 L12.7143617,4 Z" id="Shape" fill="#000099"></path>
    </g>
</svg>