<?xml version="1.0" encoding="UTF-8"?>
<svg width="20px" height="20px" viewBox="0 0 20 20" version="1.1" xmlns="http://www.w3.org/2000/svg" xmlns:xlink="http://www.w3.org/1999/xlink">
    <!-- Generator: Sketch 63 (92445) - https://sketch.com -->
    <title>youtube</title>
    <desc>Created with Sketch.</desc>
    <g id="youtube" stroke="none" stroke-width="1" fill="none" fill-rule="evenodd">
        <path d="M3.4270452,4.2341735 C7.60446552,3.88406087 12.4653982,3.96226226 16.5707941,4.2341735 C18.0314507,4.29443879 18.7516956,5.79174423 18.8482084,6.99346278 C19.0505972,9.49734202 19.0505972,11.0828931 18.8482084,13.5867723 C18.7516956,14.7863385 17.8377048,16.3109068 16.5707941,16.5304447 C12.4927675,16.8439677 7.65632315,16.8016385 3.4270452,16.5304447 C2.11691975,16.3618454 1.24830442,14.7770118 1.15179161,13.5867723 C0.949402797,11.0828931 0.949402797,9.65446224 1.15179161,7.15058299 C1.24830442,5.95101678 2.13492587,4.38411928 3.4270452,4.2341735 Z M8.20284497,6.7917893 L8.20284497,13.9633586 L13.5996399,10.3718344 L8.20284497,6.7917893 Z" id="Shape" fill="#000099"></path>
    </g>
</svg>