<svg viewBox="0 0 16 16" xmlns="http://www.w3.org/2000/svg"><path d="m4.27987467 5.19749781c-.00228898.00457797-.10529327.0137339-.22432045.02060085-.82403434.05035766-1.47868384.41888413-1.7602289.98655222-.11216023.22432046-.15793992.44406295-.15793992.74620887 0 .25407726.01831188.35250358.14420601.80114449.05951359.21058656.27467811 1.07811159.31816881 1.28183119.07095852.33190272.07095852.64320458-.00228898.80114449-.12131617.26323318-.37310444.39370528-.76223176.39141628-.52646638-.002289-1.00944206-.2128755-1.51759657-.6638054-.05035765-.04577969-.09384835-.06866953-.10529327-.05722461s-.06180258.13962804-.11216023.28612303c-.09155937.26094418-.09155937.26781118-.05264664.33190268.14649499.2403434.81945637.5424893 1.42145923.6363377.0434907.0068669.12131616.0183118.17167382.0274678.23118741.0343347.80114449.0228898 1.09871244-.0251788.33190272-.0526467.73705294-.2037196.98426324-.3662375.12818312-.0846924.39141631-.3296138.46924177-.43719603.14878398-.20600858.25178827-.45550786.290701-.70042918.02746781-.17854077.01602289-.46466381-.02517882-.64778255-.03662375-.16251788-.2769671-1.11473533-.35937053-1.41917024-.13962804-.5241774-.15336195-.59971388-.14420601-.76452074.01602289-.27010015.14420601-.46466381.37310443-.56995709.10529328-.05035765.16709585-.05951359.34563663-.06409155.33876967-.00686696.64091559.07782546.9590844.27010014.08240344.04806867.1602289.08469242.17396281.07782546.0137339-.00457797.05264663-.12131616.0869814-.25865522.06866953-.290701.05951359-.32274678-.1167382-.40057224-.18082976-.07782547-.47381974-.17396281-.61344778-.19914164-.07553648-.0137339-.1602289-.02975679-.19227468-.03662374-.03204578-.00686696-.18540772-.01831188-.34334764-.02517883-.15793991-.00686695-.29756795-.01602289-.31359084-.02060086-.01373391-.00457797-.0297568-.00457797-.03433477-.00228898zm10.01888413.00686695c-1.1284692.0434907-1.8449213.49670958-2.0692418 1.30701001-.0686695.2472103-.0549356.68898427.0297568.98884121.0343348.11902718.0663806.23347639.0709585.25178826.004578.01831188.0457797.17396281.0915594.34334764.0663805.25407726.1304721.51044349.1831187.73247497.1602289.67067239.1373391.96595136-.0846924 1.18798285-.1350501.137339-.3639485.2151645-.6248927.2151645-.4898426.002289-.9361945-.1808298-1.4214592-.581402-.0892704-.07553648-.1716738-.13505007-.1854077-.13505007-.0457797 0-.0778255.06409156-.1121603.23118741-.0206008.09384835-.0412017.18998569-.0457797.21516452-.0366237.15793994-.0114449.20829754.1739629.34334764.3593705.2632332.8927038.437196 1.4878397.4898426.3685265.0297568.7965665.009156 1.1170243-.0572246 1.1513591-.2357654 1.8197425-1.10329039 1.604578-2.08297566-.0686695-.31816881-.3341917-1.35965665-.4600858-1.8174535-.0709585-.25178827-.0663806-.50128755.0091559-.66380544.0892704-.19685264.1991416-.28841201.4280401-.35708154.1533619-.04577969.5195994-.02746781.723319.03662375.1670958.05264663.4989986.21058655.5630901.26552217.0434907.03891273.1121603.04120172.1144492.00228898.002289-.03891273.0137339-.08927038.0640916-.29756795.0228898-.09842632.0389127-.19914163.0320458-.22203147-.009156-.03433477-.1373391-.10987125-.3158798-.18540773-.2288985-.09613734-.6203148-.17625179-.9384836-.19456366-.1373391-.00686695-.2609442-.01373391-.2746781-.01602289-.0114449-.00228898-.0846924-.00228898-.1602289 0zm-5.49585122.07553648c-.02746781.01144492-.08927039.06866953-.13733906.1304721-.05035765.05951359-.09384835.11444922-.10071531.12131617-.0137339.01144492-.9590844 1.15135908-1.13075822 1.36194564-.05035766.06180257-.09842633.11902718-.10758226.12589413-.00686696.00686695-.11902718.13962804-.2472103.29756795-.30443491.36852647-.32274678.39141631-.73934192.89270387-.19456366.23347639-.4806867.57682403-.63633763.76680973-.15565093.1876967-.290701.3479256-.29756795.35479256-.00686695.00686695-.05264664.06180257-.10300429.12589413-.04806867.06180258-.09613734.11902718-.10300429.12589413-.05264664.04806867-.89270387 1.08040055-.89270387 1.09871245 0 .0137339.02746782.0228898.06409156.0228898.35937053.004578.67525036 0 .68898427-.0114449.00686695-.0091559.23118741-.283834.49670958-.6134478l.48297568-.59971384.81716738-.00686695.81945637-.00457797-.01373391.08469242c-.00686695.04806867-.04806867.26781116-.09155937.48984264-.04577968.2243204-.08927038.4440629-.09613734.4921316-.00686695.0503577-.01602289.0938484-.02060085.1007153-.00457797.006867 0 .0274678.00915593.0412017.01373391.0228899.23805437.0297568 1.00944206.0297568.54477826 0 .99341917-.0045779.99341917-.0068669.00457797-.006867.15107296-.72560804.16480687-.80801147.00228898-.02517883.02288984-.12818312.0434907-.22889843.02288984-.1007153.04120172-.2037196.04577969-.22889842.00686695-.04120172.01831187-.09842633.06866952-.33190272.0297568-.15107296.08469242-.41888412.09384836-.46466381.00457797-.02975679.0869814-.43948497.18082975-.91101573.0961373-.47153076.1785408-.88125894.1831187-.91330472.006867-.03204578.0755365-.37997139.155651-.7713877.0824034-.40972818.137339-.73018598.1258941-.74849785-.0160229-.02746782-.1579399-.03204578-.84692417-.03204578-.45779685 0-.85379113.00915593-.87896995.01831187zm-.64778255 1.6732475c-.01144492.05493562-.02975679.13505007-.03662375.17854077-.00686695.04120172-.05264664.27467811-.10071531.51502146-.05035765.24034335-.09384835.46695279-.1007153.50586552-.03891274.22889843-.15107296.74849785-.16480687.76223176-.01831187.01831187-1.24749642.02288984-1.24749642.00457797 0-.00686695.15107296-.19685265.3341917-.42346209.18082976-.22660944.55393419-.69127325.8286123-1.0323319.27238913-.34105866.49899857-.61802575.50357654-.61575086.00228898.00230307-.00457797.05037174-.01602289.10530737z"/></svg>